<svg xmlns="http://www.w3.org/2000/svg" width="25.982" height="20.533" viewBox="0 0 25.982 20.533">
  <path id="Subtraction_5" data-name="Subtraction 5" d="M-23200.07,2295.534h-13.582c-1.166,0-2.35-1.587-2.35-2.727v-7.866a2.18,2.18,0,0,1,1.381-1.888l.514-.227-.221-.49a3.4,3.4,0,0,1-.17-1.334,3.434,3.434,0,0,1,3.479-3.38,3.51,3.51,0,0,1,1.574.391l.564.274.256-.542a4.849,4.849,0,0,1,4.377-2.744,4.828,4.828,0,0,1,3.4,1.369,4.613,4.613,0,0,1,1.41,3.321,4.592,4.592,0,0,1-.758,2.395l-.414.676.816.146a1.978,1.978,0,0,1,1.619,2.034v3.3l6.986-4.207a.755.755,0,0,1,.4-.116.766.766,0,0,1,.77.758v8.39a.718.718,0,0,1-.238.548.8.8,0,0,1-.531.21.742.742,0,0,1-.4-.111l-6.986-4.213v3.3C-23198.172,2294.042-23199.02,2295.534-23200.07,2295.534Zm-12.447-11.49a1.911,1.911,0,0,0-1.951,1.865v6.246a1.911,1.911,0,0,0,1.951,1.865h10.867a1.909,1.909,0,0,0,1.947-1.865v-6.246a1.909,1.909,0,0,0-1.947-1.865Zm20.967,2.325h0l-4.777,2.47,4.777,2.878v-5.349Zm-12.668-9.853a3.248,3.248,0,0,0-3.311,3.176,3.251,3.251,0,0,0,3.311,3.181,3.251,3.251,0,0,0,3.309-3.181A3.248,3.248,0,0,0-23204.219,2276.515Zm-6.789,2.622a1.911,1.911,0,0,0-1.951,1.865,1.914,1.914,0,0,0,1.951,1.87,1.911,1.911,0,0,0,1.945-1.87A1.909,1.909,0,0,0-23211.008,2279.137Z" transform="translate(23216.002 -2275)" fill="#fff"/>
</svg>
