<svg xmlns="http://www.w3.org/2000/svg" width="73.777" height="67.643" viewBox="0 0 73.777 67.643">
  <g id="Group_5219" data-name="Group 5219" transform="translate(-511.211 -320.985)">
    <path id="Subtraction_4" data-name="Subtraction 4" d="M-23186.162,2325.39h-13.115a16.742,16.742,0,0,1-16.723-16.723,16.723,16.723,0,0,1,3.693-10.43,16.816,16.816,0,0,1,9.316-5.862l.426-.093-.041-.431c-.029-.372-.045-.734-.045-1.107a15.761,15.761,0,0,1,15.742-15.744,15.774,15.774,0,0,1,8.42,2.418,15.646,15.646,0,0,1,5.77,6.526l.162.338.373-.058a15.9,15.9,0,0,1,2.512-.2,15.292,15.292,0,0,1,7.818,2.144,15.781,15.781,0,0,1,5.641,5.827l.111.2.232.041a16.766,16.766,0,0,1,9.76,5.751,16.739,16.739,0,0,1,3.887,10.675,16.742,16.742,0,0,1-16.723,16.723h-17.619v-1.847h17.619a14.9,14.9,0,0,0,14.887-14.875,14.936,14.936,0,0,0-12.771-14.712.906.906,0,0,1-.693-.5,13.973,13.973,0,0,0-4.994-5.53,13.417,13.417,0,0,0-7.16-2.057,14.546,14.546,0,0,0-3.229.373.863.863,0,0,1-.209.029.922.922,0,0,1-.857-.588,13.819,13.819,0,0,0-12.936-8.839,13.915,13.915,0,0,0-13.9,13.9,13.758,13.758,0,0,0,.188,2.162.937.937,0,0,1-.17.688.936.936,0,0,1-.611.367,14.925,14.925,0,0,0-12.754,14.707,14.891,14.891,0,0,0,14.875,14.875h13.115v1.847Z" transform="translate(23727.211 -1954.015)" fill="#c4c5c9"/>
    <path id="Subtraction_3" data-name="Subtraction 3" d="M-23206.934,2319.784a.957.957,0,0,1-.955-.956v-40.571l-6.486,6.485a.941.941,0,0,1-.67.28.955.955,0,0,1-.676-.28.952.952,0,0,1-.279-.676.944.944,0,0,1,.279-.67l8.117-8.116a.959.959,0,0,1,.635-.28.181.181,0,0,0,.059.006h.041l.023-.006a.945.945,0,0,1,.635.28l8.115,8.116a.94.94,0,0,1,.281.67.948.948,0,0,1-.281.676.948.948,0,0,1-.676.28.948.948,0,0,1-.67-.28l-6.537-6.538v40.624A.957.957,0,0,1-23206.934,2319.784Z" transform="translate(23752.422 -1931.156)" fill="#c4c5c9"/>
  </g>
</svg>
