<svg xmlns="http://www.w3.org/2000/svg" width="22.205" height="22.205" viewBox="0 0 22.205 22.205">
  <path id="image-svgrepo-com" d="M1.933,6.937a5,5,0,0,1,5-5h12.2a5,5,0,0,1,5,5v12.2a5,5,0,0,1-5,5H6.937a5,5,0,0,1-5-5V13.058c0-.014,0-.029,0-.043Zm20.33,0V8.053c-5.414.246-8.949,2.625-11.135,5.6a9.286,9.286,0,0,0-7.32-1.828V6.937A3.129,3.129,0,0,1,6.937,3.808h12.2A3.129,3.129,0,0,1,22.263,6.937ZM3.808,19.135v-5.4a7.437,7.437,0,0,1,6.3,1.512,17.206,17.206,0,0,0-2.049,7.014H6.937A3.129,3.129,0,0,1,3.808,19.135ZM12.1,15.564a15.189,15.189,0,0,0-2.157,6.7h9.191a3.128,3.128,0,0,0,3.128-3.128V9.93C17,10.195,13.9,12.682,12.1,15.564ZM8.462,8.97A1.525,1.525,0,1,0,6.937,7.445,1.525,1.525,0,0,0,8.462,8.97Z" transform="translate(-1.933 -1.933)" fill="#fff" fill-rule="evenodd"/>
</svg>
