<svg id="Layer_1" enable-background="new 0 0 64 64" height="512" viewBox="0 0 64 64" width="512" xmlns="http://www.w3.org/2000/svg"><g><g><g><path d="m6.5 19h8v19.5h-8z" fill="#b3b4b6" transform="matrix(-1 0 0 -1 21 57.5)"/></g><g><path d="m6.5 19h4v19.5h-4z" fill="#dbdee3" transform="matrix(-1 0 0 -1 17 57.5)"/></g><g><path d="m10.5 11c-1.105 0-2 .895-2 2v2h4v-2c0-1.105-.895-2-2-2z" fill="#b3b4b6"/></g><g><path d="m10.5 11c-1.105 0-2 .895-2 2v2h2z" fill="#dbdee3"/></g><g><path d="m6.5 50.5 3.584 5.376c.198.297.634.297.832 0l3.584-5.376z" fill="#b3b4b6"/></g><g><path d="m9.5 55 .584.876c.198.297.634.297.832 0l.584-.876z" fill="#55525b"/></g><g><path d="m6.5 38.5h8v12h-8z" fill="#353744"/></g><g><path d="m6.5 38.5h4v12h-4z" fill="#55525b"/></g><g><path d="m13 15h-5c-.828 0-1.5.672-1.5 1.5v2.5h8v-2.5c0-.828-.672-1.5-1.5-1.5z" fill="#353744"/></g><g><path d="m10.5 15h-2.5c-.828 0-1.5.672-1.5 1.5v2.5h4z" fill="#55525b"/></g><g><path d="m6.5 19v-2h-2c-1.105 0-2 .895-2 2v11.5c0 1.105.895 2 2 2s2-.895 2-2-.895-2-2-2v-9.5z" fill="#55525b"/></g></g><g><path d="m44.5 57h-24c-2.209 0-4-1.791-4-4v-38c0-2.209 1.791-4 4-4h24c2.209 0 4 1.791 4 4v38c0 2.209-1.791 4-4 4z" fill="#f68820"/></g><g><path d="m50.5 53h-24c-2.209 0-4-1.791-4-4v-38c0-2.209 1.791-4 4-4h20l8 8v34c0 2.209-1.791 4-4 4z" fill="#fbbe18"/></g><g><path d="m54.5 15h-4c-2.209 0-4-1.791-4-4v-4z" fill="#f68820"/></g><g><g><path d="m35.5 20h12c.552 0 1-.448 1-1 0-.552-.448-1-1-1h-12c-.552 0-1 .448-1 1 0 .552.448 1 1 1z" fill="#f68820"/></g><g><path d="m29.5 25h18c.552 0 1-.448 1-1 0-.552-.448-1-1-1h-18c-.552 0-1 .448-1 1 0 .552.448 1 1 1z" fill="#f68820"/></g><g><path d="m29.5 30h18c.552 0 1-.448 1-1 0-.552-.448-1-1-1h-18c-.552 0-1 .448-1 1 0 .552.448 1 1 1z" fill="#f68820"/></g><g><path d="m29.5 35h18c.552 0 1-.448 1-1 0-.552-.448-1-1-1h-18c-.552 0-1 .448-1 1 0 .552.448 1 1 1z" fill="#f68820"/></g><g><path d="m29.5 40h18c.552 0 1-.448 1-1 0-.552-.448-1-1-1h-18c-.552 0-1 .448-1 1 0 .552.448 1 1 1z" fill="#f68820"/></g><g><path d="m29.5 45h8.5c.552 0 1-.448 1-1 0-.552-.448-1-1-1h-8.5c-.552 0-1 .448-1 1 0 .552.448 1 1 1z" fill="#f68820"/></g></g><g><circle cx="54.5" cy="42" fill="#55525b" r="7"/></g><g><path d="m56.5 39-3 3-1-1c-.552-.552-1.448-.552-2 0-.552.552-.552 1.448 0 2l2 2c.552.552 1.448.552 2 0l4-4c.552-.552.552-1.448 0-2-.552-.552-1.448-.552-2 0z" fill="#6fa4d8"/></g></g></svg>