<svg width="28" height="31" viewBox="0 0 28 31" fill="none" xmlns="http://www.w3.org/2000/svg">
<path d="M27.289 20.4731C27.2926 21.3447 27.0669 22.2019 26.6346 22.9587C26.2023 23.7156 25.5786 24.3454 24.826 24.7851L16.018 29.8631C15.2966 30.2804 14.4779 30.5001 13.6445 30.5001C12.8111 30.5001 11.9924 30.2804 11.271 29.8631L2.463 24.7851C1.7104 24.3454 1.08666 23.7156 0.654354 22.9587C0.22205 22.2019 -0.00361824 21.3447 -3.8147e-06 20.4731V10.5321C-0.00361824 9.66046 0.22205 8.80324 0.654354 8.0464C1.08666 7.28956 1.7104 6.65972 2.463 6.22006L11.271 1.13706C11.9924 0.71974 12.8111 0.5 13.6445 0.5C14.4779 0.5 15.2966 0.71974 16.018 1.13706L24.826 6.21506C25.5793 6.65514 26.2035 7.28577 26.6359 8.04357C27.0682 8.80136 27.2935 9.65962 27.289 10.5321V20.4731Z" fill="#1542EA"/>
<g clip-path="url(#clip0_2202_8053)">
<path d="M7.71094 10.625H19.7109V13.7567C20.1519 13.8167 20.5612 13.9655 20.9109 14.1952V10.6623C20.9109 10.0215 20.3727 9.5 19.7109 9.5H7.71094C7.04919 9.5 6.51094 10.0215 6.51094 10.6623V14.195C6.86069 13.9653 7.26994 13.8165 7.71094 13.7565V10.625ZM8.41094 18.9688H7.81094C6.65319 18.9688 5.71094 19.8521 5.71094 20.9375C5.71094 21.248 5.97969 21.5 6.31094 21.5C6.64219 21.5 6.91094 21.248 6.91094 20.9375C6.91094 20.4725 7.31494 20.0938 7.81094 20.0938H8.41094C8.90694 20.0938 9.31094 20.4725 9.31094 20.9375C9.31094 21.248 9.57969 21.5 9.91094 21.5C10.2422 21.5 10.5109 21.248 10.5109 20.9375C10.5109 19.8521 9.56869 18.9688 8.41094 18.9688ZM19.3109 14.4688C18.2064 14.4688 17.3109 15.3083 17.3109 16.3438C17.3109 17.3792 18.2064 18.2188 19.3109 18.2188C20.4154 18.2188 21.3109 17.3792 21.3109 16.3438C21.3109 15.3083 20.4154 14.4688 19.3109 14.4688ZM19.3109 17.0938C18.8699 17.0938 18.5109 16.7572 18.5109 16.3438C18.5109 15.9303 18.8699 15.5938 19.3109 15.5938C19.7519 15.5938 20.1109 15.9303 20.1109 16.3438C20.1109 16.7572 19.7519 17.0938 19.3109 17.0938ZM19.6109 18.9688H19.0109C17.8532 18.9688 16.9109 19.8521 16.9109 20.9375C16.9109 21.248 17.1797 21.5 17.5109 21.5C17.8422 21.5 18.1109 21.248 18.1109 20.9375C18.1109 20.4725 18.5149 20.0938 19.0109 20.0938H19.6109C20.1069 20.0938 20.5109 20.4725 20.5109 20.9375C20.5109 21.248 20.7797 21.5 21.1109 21.5C21.4422 21.5 21.7109 21.248 21.7109 20.9375C21.7109 19.8521 20.7687 18.9688 19.6109 18.9688ZM8.11094 18.2188C9.21544 18.2188 10.1109 17.3792 10.1109 16.3438C10.1109 15.3083 9.21544 14.4688 8.11094 14.4688C7.00644 14.4688 6.11094 15.3083 6.11094 16.3438C6.11094 17.3792 7.00644 18.2188 8.11094 18.2188ZM8.11094 15.5938C8.55194 15.5938 8.91094 15.9303 8.91094 16.3438C8.91094 16.7572 8.55194 17.0938 8.11094 17.0938C7.66994 17.0938 7.31094 16.7572 7.31094 16.3438C7.31094 15.9303 7.66994 15.5938 8.11094 15.5938ZM11.7109 16.3438C11.7109 17.3792 12.6064 18.2188 13.7109 18.2188C14.8154 18.2188 15.7109 17.3792 15.7109 16.3438C15.7109 15.3083 14.8154 14.4688 13.7109 14.4688C12.6064 14.4688 11.7109 15.3083 11.7109 16.3438ZM14.5109 16.3438C14.5109 16.7572 14.1519 17.0938 13.7109 17.0938C13.2699 17.0938 12.9109 16.7572 12.9109 16.3438C12.9109 15.9303 13.2699 15.5938 13.7109 15.5938C14.1519 15.5938 14.5109 15.9303 14.5109 16.3438ZM14.0109 18.9688H13.4109C12.2532 18.9688 11.3109 19.8521 11.3109 20.9375C11.3109 21.248 11.5797 21.5 11.9109 21.5C12.2422 21.5 12.5109 21.248 12.5109 20.9375C12.5109 20.4725 12.9149 20.0938 13.4109 20.0938H14.0109C14.5069 20.0938 14.9109 20.4725 14.9109 20.9375C14.9109 21.248 15.1797 21.5 15.5109 21.5C15.8422 21.5 16.1109 21.248 16.1109 20.9375C16.1109 19.8521 15.1687 18.9688 14.0109 18.9688Z" fill="white"/>
</g>
<defs>
<clipPath id="clip0_2202_8053">
<rect width="16" height="16" fill="white" transform="translate(5.71094 7.5)"/>
</clipPath>
</defs>
</svg>
