<svg width="28" height="31" viewBox="0 0 28 31" fill="none" xmlns="http://www.w3.org/2000/svg">
<path d="M27.289 20.4731C27.2926 21.3447 27.0669 22.2019 26.6346 22.9587C26.2023 23.7156 25.5786 24.3454 24.826 24.7851L16.018 29.8631C15.2966 30.2804 14.4779 30.5001 13.6445 30.5001C12.8111 30.5001 11.9924 30.2804 11.271 29.8631L2.463 24.7851C1.7104 24.3454 1.08666 23.7156 0.654354 22.9587C0.22205 22.2019 -0.00361824 21.3447 -3.8147e-06 20.4731V10.5321C-0.00361824 9.66046 0.22205 8.80324 0.654354 8.0464C1.08666 7.28956 1.7104 6.65972 2.463 6.22006L11.271 1.13706C11.9924 0.71974 12.8111 0.5 13.6445 0.5C14.4779 0.5 15.2966 0.71974 16.018 1.13706L24.826 6.21506C25.5793 6.65514 26.2035 7.28577 26.6359 8.04357C27.0682 8.80136 27.2935 9.65962 27.289 10.5321V20.4731Z" fill="#1542EA"/>
<path d="M13.1467 19.057V20.5H7.64123V11.101H9.38973V19.057H13.1467ZM19.7251 19.005C19.8985 19.005 20.035 19.0548 20.1346 19.1545C20.2386 19.2498 20.2906 19.3777 20.2906 19.538V20.5H13.8426V19.967C13.8426 19.8587 13.8643 19.746 13.9076 19.629C13.9553 19.5077 14.029 19.3993 14.1286 19.304L16.9821 16.444C17.2205 16.2013 17.4328 15.9695 17.6191 15.7485C17.8098 15.5275 17.968 15.3087 18.0936 15.092C18.2193 14.8753 18.3146 14.6565 18.3796 14.4355C18.449 14.2102 18.4836 13.974 18.4836 13.727C18.4836 13.5017 18.4511 13.3045 18.3861 13.1355C18.3211 12.9622 18.228 12.817 18.1066 12.7C17.9896 12.583 17.8466 12.4963 17.6776 12.44C17.513 12.3793 17.3266 12.349 17.1186 12.349C16.928 12.349 16.7503 12.3772 16.5856 12.4335C16.4253 12.4855 16.2823 12.5613 16.1566 12.661C16.031 12.7563 15.9248 12.869 15.8381 12.999C15.7515 13.129 15.6865 13.272 15.6431 13.428C15.5695 13.6273 15.4741 13.7595 15.3571 13.8245C15.2401 13.8895 15.0711 13.9047 14.8501 13.87L14.0051 13.7205C14.0701 13.2698 14.1958 12.8755 14.3821 12.5375C14.5685 12.1952 14.8003 11.9113 15.0776 11.686C15.3593 11.4563 15.68 11.2852 16.0396 11.1725C16.4036 11.0555 16.7936 10.997 17.2096 10.997C17.643 10.997 18.0395 11.062 18.3991 11.192C18.7588 11.3177 19.0665 11.4975 19.3221 11.7315C19.5778 11.9655 19.7771 12.2472 19.9201 12.5765C20.0631 12.9058 20.1346 13.272 20.1346 13.675C20.1346 14.0217 20.0826 14.3423 19.9786 14.637C19.879 14.9317 19.7425 15.2133 19.5691 15.482C19.4001 15.7507 19.2008 16.0107 18.9711 16.262C18.7415 16.5133 18.501 16.769 18.2496 17.029L16.1306 19.1935C16.3343 19.1328 16.5358 19.0873 16.7351 19.057C16.9388 19.0223 17.1316 19.005 17.3136 19.005H19.7251Z" fill="white"/>
</svg>
