<svg width="28" height="31" viewBox="0 0 28 31" fill="none" xmlns="http://www.w3.org/2000/svg">
<path d="M27.289 20.4731C27.2926 21.3447 27.0669 22.2019 26.6346 22.9587C26.2023 23.7156 25.5786 24.3454 24.826 24.7851L16.018 29.8631C15.2966 30.2804 14.4779 30.5001 13.6445 30.5001C12.8111 30.5001 11.9924 30.2804 11.271 29.8631L2.463 24.7851C1.7104 24.3454 1.08666 23.7156 0.654354 22.9587C0.22205 22.2019 -0.00361824 21.3447 -3.8147e-06 20.4731V10.5321C-0.00361824 9.66046 0.22205 8.80324 0.654354 8.0464C1.08666 7.28956 1.7104 6.65972 2.463 6.22006L11.271 1.13706C11.9924 0.71974 12.8111 0.5 13.6445 0.5C14.4779 0.5 15.2966 0.71974 16.018 1.13706L24.826 6.21506C25.5793 6.65514 26.2035 7.28577 26.6359 8.04357C27.0682 8.80136 27.2935 9.65962 27.289 10.5321V20.4731Z" fill="#1542EA"/>
<path d="M13.1467 19.057V20.5H7.64123V11.101H9.38973V19.057H13.1467ZM20.0761 19.2975V20.5H14.8761V19.2975H16.7806V13.818C16.7806 13.6013 16.7871 13.3782 16.8001 13.1485L15.4481 14.2795C15.3701 14.3402 15.2921 14.3792 15.2141 14.3965C15.1405 14.4095 15.069 14.4095 14.9996 14.3965C14.9346 14.3835 14.8761 14.3618 14.8241 14.3315C14.7721 14.2968 14.7331 14.26 14.7071 14.221L14.2001 13.5255L17.0666 11.088H18.3861V19.2975H20.0761Z" fill="white"/>
</svg>
