<svg xmlns="http://www.w3.org/2000/svg" width="13.267" height="17.69" viewBox="0 0 13.267 17.69">
  <path id="Path_758" data-name="Path 758" d="M12.782,3.384l-2.9-2.9A1.658,1.658,0,0,0,8.711,0H1.658A1.658,1.658,0,0,0,0,1.658V16.031A1.658,1.658,0,0,0,1.658,17.69h9.951a1.658,1.658,0,0,0,1.658-1.658V4.557A1.658,1.658,0,0,0,12.782,3.384ZM11.475,4.422H8.845V1.793ZM1.658,16.031V1.658H7.187V5.252a.829.829,0,0,0,.829.829h3.593v9.951Zm9.023-6.657L5.764,14.252a.415.415,0,0,1-.586,0L2.584,11.635a.415.415,0,0,1,0-.586l.785-.779a.415.415,0,0,1,.586,0l1.524,1.536L9.319,8a.415.415,0,0,1,.586,0l.779.785a.415.415,0,0,1,0,.586Z" fill="#84878e"/>
</svg>
