<svg xmlns="http://www.w3.org/2000/svg" width="18" height="18" viewBox="0 0 18 18">
  <path id="pencil-paintbrush" d="M15.242,12.845a3.933,3.933,0,0,0-3.3-2.8l5.406-5.406a2.25,2.25,0,0,0,0-3.182l-.8-.8a2.25,2.25,0,0,0-3.182,0L8.448,5.575,5.563,1.261A2.722,2.722,0,0,0,3.29,0C1.013,0-1.243,2.814.806,5.065l3.882,4.27L.674,13.348.015,17.125A.747.747,0,0,0,.748,18a.767.767,0,0,0,.131-.012l3.778-.662,3.295-3.295C8.163,15.611,9.153,18,12.941,18,16.5,18,18,15.138,18,11.881c-.387.264-1.746,1.359-2.185,1.359a.6.6,0,0,1-.577-.395ZM14.558,1.852a.564.564,0,0,1,.8,0l.8.8a.563.563,0,0,1,0,.8L14.334,5.262,12.741,3.669ZM2.054,3.929A1.026,1.026,0,0,1,1.788,2.72a1.817,1.817,0,0,1,1.5-1.032,1.011,1.011,0,0,1,.871.511L7.232,6.791,5.883,8.14,2.054,3.929ZM3.84,15.756,1.908,16.1l.337-1.932,9.3-9.3,1.593,1.593-9.3,9.3Zm9.1.557a3.415,3.415,0,0,1-2.639-.9,3.381,3.381,0,0,1-.708-2.357l.078-.749.7-.7.916.059a2.34,2.34,0,0,1,2.374,1.773,2.283,2.283,0,0,0,1.952,1.476A2.917,2.917,0,0,1,12.941,16.313Z" transform="translate(-0.003)" fill="#84878e"/>
</svg>
