<svg width="28" height="31" viewBox="0 0 28 31" fill="none" xmlns="http://www.w3.org/2000/svg">
<path d="M27.289 20.4731C27.2926 21.3447 27.0669 22.2019 26.6346 22.9587C26.2023 23.7156 25.5786 24.3454 24.826 24.7851L16.018 29.8631C15.2966 30.2804 14.4779 30.5001 13.6445 30.5001C12.8111 30.5001 11.9924 30.2804 11.271 29.8631L2.463 24.7851C1.7104 24.3454 1.08666 23.7156 0.654354 22.9587C0.22205 22.2019 -0.00361824 21.3447 -3.8147e-06 20.4731V10.5321C-0.00361824 9.66046 0.22205 8.80324 0.654354 8.0464C1.08666 7.28956 1.7104 6.65972 2.463 6.22006L11.271 1.13706C11.9924 0.71974 12.8111 0.5 13.6445 0.5C14.4779 0.5 15.2966 0.71974 16.018 1.13706L24.826 6.21506C25.5793 6.65514 26.2035 7.28577 26.6359 8.04357C27.0682 8.80136 27.2935 9.65962 27.289 10.5321V20.4731Z" fill="#1542EA"/>
<g clip-path="url(#clip0_2202_8045)">
<path d="M20.0939 15.463H19.4609C19.0207 15.4627 18.5907 15.5951 18.2269 15.843C18.5824 16.1104 18.8898 16.4364 19.1359 16.807C19.2396 16.7651 19.3501 16.7424 19.4619 16.74H20.0949C20.3477 16.7416 20.5897 16.8433 20.7677 17.0228C20.9458 17.2024 21.0454 17.4451 21.0449 17.698C21.0449 17.866 21.1116 18.0271 21.2304 18.146C21.3492 18.2648 21.5104 18.3315 21.6784 18.3315C21.8464 18.3315 22.0075 18.2648 22.1263 18.146C22.2451 18.0271 22.3119 17.866 22.3119 17.698C22.3135 17.1077 22.0809 16.5409 21.665 16.1219C21.2492 15.7029 20.6842 15.4659 20.0939 15.463ZM19.7769 14.611C20.1989 14.6148 20.6126 14.493 20.9654 14.2613C21.3181 14.0296 21.5941 13.6982 21.7582 13.3094C21.9224 12.9205 21.9673 12.4917 21.8872 12.0772C21.8072 11.6628 21.6059 11.2815 21.3088 10.9817C21.0116 10.6819 20.6322 10.4772 20.2185 10.3934C19.8048 10.3097 19.3755 10.3507 18.9852 10.5114C18.5949 10.672 18.2611 10.945 18.0262 11.2957C17.7913 11.6464 17.6659 12.0589 17.6659 12.481C17.6635 13.0434 17.8845 13.5836 18.2804 13.9831C18.6763 14.3825 19.2145 14.6084 19.7769 14.611ZM19.7769 11.629C19.9457 11.6274 20.1112 11.676 20.2524 11.7687C20.3936 11.8613 20.504 11.9938 20.5697 12.1494C20.6354 12.3049 20.6534 12.4765 20.6215 12.6423C20.5895 12.8081 20.509 12.9606 20.3902 13.0806C20.2713 13.2005 20.1196 13.2825 19.9541 13.316C19.7886 13.3495 19.6169 13.3331 19.4607 13.2689C19.3046 13.2046 19.171 13.0954 19.077 12.9552C18.9831 12.8149 18.9329 12.6498 18.9329 12.481C18.9324 12.2563 19.0209 12.0406 19.1791 11.8811C19.3373 11.7216 19.5522 11.6303 19.7769 11.629ZM9.50589 15.844C9.14212 15.5961 8.71207 15.4637 8.27189 15.464H7.63889C7.04859 15.4672 6.48365 15.7044 6.06802 16.1236C5.6524 16.5428 5.42002 17.1097 5.42189 17.7C5.42189 17.868 5.48863 18.0291 5.60743 18.148C5.72624 18.2668 5.88737 18.3335 6.05539 18.3335C6.2234 18.3335 6.38453 18.2668 6.50334 18.148C6.62214 18.0291 6.68889 17.868 6.68889 17.7C6.68835 17.4471 6.78802 17.2044 6.96606 17.0248C7.14411 16.8453 7.38603 16.7436 7.63889 16.742H8.27189C8.38371 16.7444 8.49416 16.7671 8.59789 16.809C8.84399 16.4384 9.15138 16.1124 9.50689 15.845L9.50589 15.844ZM7.95489 14.611C8.37695 14.6148 8.79062 14.493 9.14338 14.2613C9.49615 14.0296 9.77211 13.6982 9.93624 13.3094C10.1004 12.9205 10.1453 12.4917 10.0652 12.0772C9.98522 11.6628 9.78387 11.2815 9.48676 10.9817C9.18964 10.6819 8.81016 10.4772 8.39647 10.3934C7.98278 10.3097 7.55353 10.3507 7.16322 10.5114C6.7729 10.672 6.43912 10.945 6.20422 11.2957C5.96932 11.6464 5.8439 12.0589 5.84389 12.481C5.84149 13.0434 6.06253 13.5836 6.45839 13.9831C6.85425 14.3825 7.39253 14.6084 7.95489 14.611ZM7.95489 11.629C8.12373 11.6274 8.28923 11.676 8.43039 11.7687C8.57155 11.8613 8.682 11.9938 8.74771 12.1494C8.81343 12.3049 8.83144 12.4765 8.79948 12.6423C8.76751 12.8081 8.68701 12.9606 8.56818 13.0806C8.44935 13.2005 8.29755 13.2825 8.13207 13.316C7.96658 13.3495 7.79486 13.3331 7.63871 13.2689C7.48257 13.2046 7.34903 13.0954 7.25505 12.9552C7.16107 12.8149 7.11089 12.6498 7.11089 12.481C7.11035 12.2563 7.19888 12.0406 7.35708 11.8811C7.51527 11.7216 7.73024 11.6303 7.95489 11.629ZM15.0439 16.136C14.2763 16.3745 13.4544 16.3745 12.6869 16.136C12.0801 15.9366 11.4254 15.9366 10.8186 16.1362C10.2118 16.3358 9.68487 16.7243 9.31489 17.245C8.97713 17.7516 8.79753 18.3471 8.79889 18.956V20.149C8.7981 20.3161 8.83025 20.4818 8.89351 20.6365C8.95677 20.7912 9.04989 20.9319 9.16755 21.0506C9.28522 21.1692 9.42512 21.2636 9.57926 21.3282C9.7334 21.3928 9.89876 21.4263 10.0659 21.427H17.6659C17.833 21.4263 17.9984 21.3928 18.1525 21.3282C18.3067 21.2636 18.4466 21.1692 18.5642 21.0506C18.6819 20.9319 18.775 20.7912 18.8383 20.6365C18.9015 20.4818 18.9337 20.3161 18.9329 20.149V18.956C18.9341 18.3475 18.7545 17.7523 18.4169 17.246C18.047 16.7251 17.5202 16.3364 16.9134 16.1366C16.3066 15.9369 15.6518 15.9367 15.0449 16.136H15.0439ZM17.6649 20.148H10.0649V18.956C10.0636 18.4919 10.2433 18.0455 10.5657 17.7117C10.8881 17.3779 11.328 17.1828 11.7919 17.168C12.4475 17.4487 13.1532 17.5934 13.8664 17.5934C14.5795 17.5934 15.2853 17.4487 15.9409 17.168C16.4044 17.1833 16.8438 17.3786 17.1658 17.7124C17.4878 18.0461 17.6672 18.4922 17.6659 18.956L17.6649 20.148ZM13.8649 15.462C14.6521 15.4588 15.4059 15.1431 15.9604 14.5843C16.5149 14.0254 16.8248 13.2693 16.8219 12.482V9.5L15.3439 10.245L13.8659 9.5L12.3879 10.245L10.9109 9.5V12.482C10.9077 13.2691 11.2172 14.0252 11.7713 14.5842C12.3254 15.1432 13.0788 15.4593 13.8659 15.463L13.8649 15.462ZM12.1769 12.056H15.5549V12.482C15.5549 12.9299 15.3769 13.3596 15.0602 13.6763C14.7434 13.9931 14.3138 14.171 13.8659 14.171C13.4179 14.171 12.9883 13.9931 12.6716 13.6763C12.3548 13.3596 12.1769 12.9299 12.1769 12.482V12.056Z" fill="white"/>
</g>
<defs>
<clipPath id="clip0_2202_8045">
<rect width="16.888" height="11.927" fill="white" transform="translate(5.42188 9.5)"/>
</clipPath>
</defs>
</svg>
