<svg id="Layer_1" data-name="Layer 1" xmlns="http://www.w3.org/2000/svg" viewBox="0 0 80.77 80.43"><defs><style>.cls-1{fill:#e8ecd7;}.cls-2{fill:#3f65ef;}.cls-3{fill:#293e83;}.cls-4{fill:#3550af;}.cls-5{fill:#ffbc00;}</style></defs><g id="Layer_2" data-name="Layer 2"><g id="Layer_2-2" data-name="Layer 2-2"><path class="cls-1" d="M1.64,28.91l.12-.41Z" transform="translate(0)"/><path class="cls-1" d="M1.83,28.26A39.77,39.77,0,0,1,6.06,19,38.57,38.57,0,0,0,1.83,28.26Z" transform="translate(0)"/><path class="cls-1" d="M37.89,0h0Z" transform="translate(0)"/><path class="cls-1" d="M1.76,28.5a1.09,1.09,0,0,1,.07-.24C1.81,28.34,1.78,28.42,1.76,28.5Z" transform="translate(0)"/><path class="cls-1" d="M1.64,28.91a29,29,0,0,0-.83,3.3c.15-.65.29-1.3.46-1.94C1.38,29.81,1.51,29.36,1.64,28.91Z" transform="translate(0)"/><path class="cls-2" d="M9.09,56.84c5.15-.33,10.29-.74,15.43-1.12,5.8-.43,11.59-.87,17.39-1.25a2.59,2.59,0,0,0,2.49-1.32,2.75,2.75,0,0,0-.22-2.77l-.37-.51q-5.66-8.11-11.4-16.18c-1.58-2.2-3.66-2-5,.38-.69,1.27-1.21,2.63-1.86,3.93-.91,1.85-2.31,2.53-3.81,1.9s-1.92-2.11-1-4c1.34-2.9,2.68-5.79,4.12-8.63a4.11,4.11,0,0,0-.36-4.82c-2.63-3.55-5.09-7.23-7.65-10.84C16.3,10.78,15.65,10,15,9.17c-.6.43-1,.68-1.4,1A41.88,41.88,0,0,0,6.06,19a39.67,39.67,0,0,0-4.23,9.22,1.09,1.09,0,0,1-.07.24l-.12.41c-.13.45-.26.9-.37,1.36-.17.64-.31,1.29-.46,1.94A41.26,41.26,0,0,0,0,40.32,40,40,0,0,0,2.78,55.06a14.53,14.53,0,0,0,.93,2C5.62,57,7.37,57,9.09,56.84Z" transform="translate(0)"/><path class="cls-3" d="M43,1.14q-5,10.4-9.92,20.79a4,4,0,0,0,.51,4.45c4.72,6.61,9.49,13.19,14,19.93,2.29,3.42,4.74,3.16,6.43-.56C58,37.11,62.19,28.59,66.26,20c1.16-2.44,2.28-4.9,3.47-7.45a40.66,40.66,0,0,0-12.68-9A42.15,42.15,0,0,0,43.77.1,8.74,8.74,0,0,0,43,1.14Z" transform="translate(0)"/><path class="cls-3" d="M37.74,79.9C40.36,74.42,43,69,45.56,63.43c.93-2-.36-3.79-2.67-3.78-1.88,0-3.77.26-5.65.39-7.17.47-14.34.93-21.52,1.42-3,.2-5.9.49-9.11.76a28.44,28.44,0,0,0,2,3,40.65,40.65,0,0,0,5.73,6A42.05,42.05,0,0,0,27.92,78.8l.35.11.37.12.42.12a30.63,30.63,0,0,0,8.29,1.28C37.45,80.21,37.65,80.09,37.74,79.9Z" transform="translate(0)"/><path class="cls-2" d="M61,53.11c5.44-.28,10.87-.64,16.3-1h0a2.58,2.58,0,0,0,2.27-2A40.5,40.5,0,0,0,76,21.26a2.61,2.61,0,0,0-3.52-1.07,2.66,2.66,0,0,0-1.12,1.18L58,49.41a2.62,2.62,0,0,0,0,2.16C58.65,53,59.17,53.2,61,53.11Z" transform="translate(0)"/><path class="cls-4" d="M25.76,15.21c1.62,2.22,3.88,2,5.12-.43s2.26-4.69,3.37-7S36.51,2.93,37.89,0H37.5a45.38,45.38,0,0,0-8.26,1.46,39.82,39.82,0,0,0-8,3.28c-.68.37-1.34.76-2,1.17C21.5,9.2,23.59,12.23,25.76,15.21Z" transform="translate(0)"/><path class="cls-5" d="M50,66.41c-2.06,4.22-4.07,8.47-6.08,12.71a8.26,8.26,0,0,0-.37,1.29,40,40,0,0,0,17.82-5.66c-2.15-3.08-4.1-5.94-6.13-8.75C53.33,63.41,51.36,63.56,50,66.41Z" transform="translate(0)"/><path class="cls-4" d="M76.06,57.38c-4.93.31-9.86.58-14.78,1a2.62,2.62,0,0,0-2.68,2.56,2.66,2.66,0,0,0,.57,1.69c1.34,2.15,2.89,4.17,4.35,6.24l2.14,3A40.36,40.36,0,0,0,76.92,57.55,5,5,0,0,0,76.06,57.38Z" transform="translate(0)"/></g></g></svg>