<svg height="512" viewBox="0 0 512 512" width="512" xmlns="http://www.w3.org/2000/svg"><rect fill="#f06423" height="304" rx="48" width="480" x="16" y="104"/><rect fill="#faa51e" height="304" rx="48" width="448" x="16" y="104"/><rect fill="#d7e6e6" height="224" rx="8" width="176" x="56" y="144"/><rect fill="#3c3c3c" height="96" rx="8" width="48" x="264" y="144"/><rect fill="#828787" height="8" rx="4" width="32" x="272" y="152"/><path d="m312 176h104a8 8 0 0 1 8 8v16a8 8 0 0 1 -8 8h-104a0 0 0 0 1 0 0v-32a0 0 0 0 1 0 0z" fill="#a55528"/><path d="m312 192v16h104a8 8 0 0 0 8-8v-8z" fill="#784119"/><path d="m116 272h56a60 60 0 0 1 60 60v28a8 8 0 0 1 -8 8h-160a8 8 0 0 1 -8-8v-28a60 60 0 0 1 60-60z" fill="#f05555"/><circle cx="144" cy="288" fill="#f0915a" r="32"/><path d="m120 160h48a24 24 0 0 1 24 24v56a48 48 0 0 1 -48 48 48 48 0 0 1 -48-48v-56a24 24 0 0 1 24-24z" fill="#fab991"/><path d="m88 232h8a8 8 0 0 0 8-8v-16a16 16 0 0 1 16-16h48a16 16 0 0 1 16 16v16a8 8 0 0 0 8 8h8v-40a32 32 0 0 0 -32-32h-48a32 32 0 0 0 -32 32z" fill="#3c3c3c"/><path d="m92 216h4a0 0 0 0 1 0 0v24a0 0 0 0 1 0 0h-4a12 12 0 0 1 -12-12 12 12 0 0 1 12-12z" fill="#f0915a"/><path d="m204 216h4a0 0 0 0 1 0 0v24a0 0 0 0 1 0 0h-4a12 12 0 0 1 -12-12 12 12 0 0 1 12-12z" fill="#f0915a" transform="matrix(-1 0 0 -1 400 456)"/><path d="m140 253.333h8a4 4 0 0 1 4 4v12a8 8 0 0 1 -8 8 8 8 0 0 1 -8-8v-12a4 4 0 0 1 4-4z" fill="#f05555"/><path d="m152 258.667v-1.334a4 4 0 0 0 -4-4h-8a4 4 0 0 0 -4 4v1.334z" fill="#d7e6e6"/><path d="m136 234h-16a2 2 0 0 1 0-4h11.171l-12.585-12.586a2 2 0 0 1 2.828-2.828l16 16a2 2 0 0 1 -1.414 3.414z" fill="#3c3c3c"/><path d="m168 234h-16a2 2 0 0 1 -1.414-3.414l16-16a2 2 0 0 1 2.828 2.828l-12.585 12.586h11.171a2 2 0 0 1 0 4z" fill="#3c3c3c"/><g fill="#d7e6e6"><rect height="32" rx="16" width="160" x="264" y="272"/><rect height="32" rx="16" width="88" x="264" y="336"/></g></svg>