<svg height="512" viewBox="0 0 128 128" width="512" xmlns="http://www.w3.org/2000/svg"><g><circle cx="64" cy="64" fill="#f57e23" r="37.29"/><path d="m93.75 64c0 .59-.02 1.17-.06 1.75a29.559 29.559 0 0 1 -7.45 18.01 32.239 32.239 0 0 1 -2.48 2.48 29.559 29.559 0 0 1 -18.01 7.45c-.58.04-1.16.06-1.75.06s-1.17-.02-1.75-.06a29.559 29.559 0 0 1 -18.01-7.45 32.239 32.239 0 0 1 -2.48-2.48 29.559 29.559 0 0 1 -7.45-18.01c-.04-.58-.06-1.16-.06-1.75s.02-1.17.06-1.75a29.559 29.559 0 0 1 7.45-18.01 32.239 32.239 0 0 1 2.48-2.48 29.559 29.559 0 0 1 18.01-7.45c.58-.04 1.16-.06 1.75-.06s1.17.02 1.75.06a29.559 29.559 0 0 1 18.01 7.45 32.239 32.239 0 0 1 2.48 2.48 29.559 29.559 0 0 1 7.45 18.01c.04.58.06 1.16.06 1.75z" fill="#eae2e1"/><path d="m64 14.583a49.532 49.532 0 0 0 -33.935 13.517v-2.83a1.75 1.75 0 0 0 -3.5 0v7.184a1.751 1.751 0 0 0 1.75 1.75h7.185a1.75 1.75 0 0 0 0-3.5h-3.1a45.672 45.672 0 1 1 -7.456 9.13 1.75 1.75 0 1 0 -2.974-1.845 49.422 49.422 0 1 0 42.03-23.406z" fill="#fc4c50"/><g fill="#8c7a7a"><path d="m65.75 63.26v-14.093a1.75 1.75 0 0 0 -3.5 0v14.833a1.75 1.75 0 0 0 .531 1.256l5.667 5.5a1.75 1.75 0 1 0 2.438-2.512z"/><path d="m65.75 34.31v3.19a1.75 1.75 0 0 1 -3.5 0v-3.19c.58-.04 1.16-.06 1.75-.06s1.17.02 1.75.06z"/><path d="m86.24 44.24-2.26 2.26a1.754 1.754 0 0 1 -2.48-2.48l2.26-2.26a32.239 32.239 0 0 1 2.48 2.48z"/><path d="m93.75 64c0 .59-.02 1.17-.06 1.75h-3.19a1.75 1.75 0 0 1 0-3.5h3.19c.04.58.06 1.16.06 1.75z"/><path d="m86.24 83.76a32.239 32.239 0 0 1 -2.48 2.48l-2.26-2.26a1.754 1.754 0 0 1 2.48-2.48z"/><path d="m65.75 90.5v3.19c-.58.04-1.16.06-1.75.06s-1.17-.02-1.75-.06v-3.19a1.75 1.75 0 0 1 3.5 0z"/><path d="m46.5 83.98-2.26 2.26a32.239 32.239 0 0 1 -2.48-2.48l2.26-2.26a1.754 1.754 0 0 1 2.48 2.48z"/><path d="m39.25 64a1.746 1.746 0 0 1 -1.75 1.75h-3.19c-.04-.58-.06-1.16-.06-1.75s.02-1.17.06-1.75h3.19a1.746 1.746 0 0 1 1.75 1.75z"/><path d="m46.5 46.5a1.762 1.762 0 0 1 -2.48 0l-2.26-2.26a32.239 32.239 0 0 1 2.48-2.48l2.26 2.26a1.762 1.762 0 0 1 0 2.48z"/></g></g></svg>