<svg height="512pt" viewBox="0 0 512 512" width="512pt" xmlns="http://www.w3.org/2000/svg"><path d="m512 256c0 47.300781-12.832031 91.617188-35.203125 129.640625-44.492187 75.609375-126.714844 126.359375-220.796875 126.359375-53.65625 0-103.457031-16.507812-144.59375-44.722656-67.28125-46.121094-111.40625-123.546875-111.40625-211.277344 0-54.199219 16.84375-104.46875 45.589844-145.855469 30.929687-44.535156 75.628906-78.789062 127.945312-96.570312 25.875-8.800781 53.613282-13.574219 82.464844-13.574219 39.027344 0 76.015625 8.734375 109.109375 24.347656 18.273437 8.628906 35.367187 19.351563 50.96875 31.867188 58.484375 46.917968 95.921875 118.984375 95.921875 199.785156zm0 0" fill="#f974ac"/><path d="m476.796875 385.640625c-44.492187 75.609375-126.714844 126.359375-220.796875 126.359375-53.65625 0-103.457031-16.507812-144.59375-44.722656-34.292969-116.390625-56.359375-236.082032-65.816406-357.132813-2.519532-32.308593-4.148438-64.722656-4.859375-97.1875 20.949219 9.101563 41.960937 17.867188 63.039062 26.277344 20.375-10.007813 40.824219-19.683594 61.367188-29.027344 2.800781 1.128907 5.597656 2.25 8.398437 3.367188 18.152344 7.207031 36.351563 14.167969 54.585938 20.867187 20.398437-9.332031 40.867187-18.320312 61.429687-26.980468 20.917969 7.742187 41.890625 15.140624 62.925781 22.183593 4.210938-1.777343 8.421876-3.542969 12.632813-5.296875 16.238281-6.75 32.535156-13.292968 48.867187-19.625.378907 17.1875 1.089844 34.355469 2.101563 51.492188 6.699219 111.917968 27.09375 222.5625 60.71875 329.425781zm0 0" fill="#f1f4fe"/><path d="m476.796875 385.640625c-44.492187 75.609375-126.714844 126.359375-220.796875 126.359375-53.65625 0-103.457031-16.507812-144.59375-44.722656-5.757812-19.527344-11.167969-39.152344-16.226562-58.859375 8.339843 7.492187 17.167968 14.441406 26.4375 20.792969 41.136718 28.214843 90.9375 44.722656 144.589843 44.722656 84.367188 0 159.203125-40.8125 205.824219-103.769532 1.558594 5.171876 3.148438 10.324219 4.765625 15.476563zm0 0" fill="#c5cae2"/><g fill="#274b7b"><path d="m108.921875 154.636719c-7.789063 0-14.542969-5.800781-15.53125-13.730469-1.074219-8.589844 5.019531-16.425781 13.609375-17.5l261.441406-32.679688c8.582032-1.066406 16.421875 5.019532 17.496094 13.609376 1.074219 8.589843-5.019531 16.421874-13.609375 17.496093l-261.441406 32.679688c-.660157.082031-1.316407.125-1.964844.125zm0 0"/><path d="m123.902344 230.890625c-7.707032 0-14.421875-5.683594-15.507813-13.53125-1.183593-8.574219 4.804688-16.484375 13.378907-17.671875l255.996093-35.402344c8.566407-1.191406 16.484375 4.804688 17.671875 13.378906 1.1875 8.574219-4.804687 16.488282-13.378906 17.671876l-255.996094 35.402343c-.726562.101563-1.449218.152344-2.164062.152344zm0 0"/><path d="m263.050781 370.527344c-7.4375 0-14.039062-5.3125-15.40625-12.890625-1.539062-8.515625 4.121094-16.671875 12.640625-18.207031l154.972656-27.980469c8.515626-1.542969 16.667969 4.121093 18.207032 12.636719 1.539062 8.519531-4.121094 16.671874-12.636719 18.210937l-154.976563 27.980469c-.941406.167968-1.875.25-2.800781.25zm0 0"/><path d="m217.46875 473.011719c-21.324219 5.335937-41.695312-.644531-44.917969-11.90625-1.710937-5.984375 1.054688-16.296875 7.742188-18.210938 7.390625-2.113281 16.347656 6.558594 30.027343 5.121094l-8.15625-28.511719c-17.957031-1.53125-39.128906-3.660156-45.574218-26.191406-6.394532-22.351562 7.078125-37.824219 24.980468-45.800781l-1.410156-4.925781c-.703125-2.464844 1.457032-5.558594 5.332032-6.664063 3.339843-.957031 7.339843.375 8.046874 2.835937l1.257813 4.402344c11.011719-2.769531 32.414063-5.84375 35.886719 6.300782 1.359375 4.75.960937 15.339843-6.785156 17.554687-5.808594 1.660156-10.761719-3.015625-22.457032-.625l7.351563 25.699219c17.730469 1.402344 38.753906 4.339844 45.550781 28.101562 6.242188 21.824219-4.0625 39.054688-23.699219 48.289063l1.457031 5.105469c.707032 2.460937-1.984374 5.707031-5.328124 6.664062-3.871094 1.105469-7.34375-.375-8.046876-2.839844zm-21.5-81.820313-5.992188-20.945312c-7.46875 3.847656-9.65625 8.851562-8.445312 13.078125 1.460938 5.101562 6.941406 6.964843 14.4375 7.867187zm19.171875 29.742188 6.746094 23.585937c5.582031-3.121093 9.375-7.824219 7.566406-14.160156-1.664063-5.808594-7.121094-8.246094-14.3125-9.425781zm0 0"/></g></svg>