<svg height="512pt" viewBox="0 0 512 512" width="512pt" xmlns="http://www.w3.org/2000/svg"><path d="m199.59375 104.136719c.011719 49.15625-37.308594 90.289062-86.238281 95.035156-48.929688 4.75-93.460938-28.4375-102.902344-76.683594-9.4375-48.242187 19.304687-95.765625 66.414063-109.808593 47.109374-14.039063 97.183593 9.992187 115.695312 55.527343 4.640625 11.410157 7.027344 23.613281 7.03125 35.929688zm0 0" fill="#90bae1"/><path d="m192.5625 68.207031c-110.640625 3.734375-143.964844 65.171875-153.859375 105.4375-28.429687-26.753906-37.703125-68.125-23.414063-104.457031 14.292969-36.332031 49.265626-60.296875 88.308594-60.511719 39.039063-.21875 74.273438 23.363281 88.964844 59.53125zm0 0" fill="#b0d3f0"/><path d="m215.90625 224.066406c-2.300781 0-4.507812-.917968-6.132812-2.542968l-44-44c-3.285157-3.402344-3.238282-8.816407.109374-12.164063 3.34375-3.347656 8.757813-3.394531 12.164063-.105469l43.996094 43.996094c2.480469 2.484375 3.222656 6.214844 1.878906 9.457031-1.339844 3.242188-4.503906 5.355469-8.015625 5.359375zm0 0" fill="#3d324c"/><path d="m304.683594 224.671875c-3.507813 0-6.671875-2.113281-8.015625-5.355469-1.34375-3.242187-.601563-6.976562 1.878906-9.457031l44.335937-44.335937c3.40625-3.289063 8.820313-3.242188 12.164063.105468 3.347656 3.347656 3.394531 8.761719.109375 12.164063l-44.335938 44.363281c-1.632812 1.617188-3.839843 2.523438-6.136718 2.515625zm0 0" fill="#3d324c"/><path d="m138.847656 112.8125h-34.710937c-4.792969 0-8.679688-3.882812-8.679688-8.675781v-60.746094c0-4.792969 3.886719-8.679687 8.679688-8.679687s8.675781 3.886718 8.675781 8.679687v52.066406h26.035156c4.792969 0 8.679688 3.886719 8.679688 8.679688s-3.886719 8.675781-8.679688 8.675781zm0 0" fill="#35495e"/><path d="m512 104.136719c0 9.585937-7.769531 17.355469-17.355469 17.355469h-7.664062c-1.894531.015624-3.550781 1.277343-4.078125 3.097656-1.277344 4.167968-2.957032 8.203125-5.007813 12.054687-.917969 1.660157-.632812 3.726563.703125 5.074219l5.398438 5.363281c3.257812 3.257813 5.089844 7.671875 5.089844 12.28125 0 4.605469-1.832032 9.023438-5.089844 12.277344-3.253906 3.261719-7.671875 5.089844-12.277344 5.089844-4.609375 0-9.027344-1.828125-12.28125-5.089844l-5.363281-5.398437c-1.347657-1.335938-3.414063-1.621094-5.078125-.703126-3.847656 2.054688-7.890625 3.730469-12.058594 5.007813-1.824219.527344-3.082031 2.183594-3.101562 4.078125v7.613281c0 9.585938-7.769532 17.355469-17.355469 17.355469-9.585938 0-17.355469-7.769531-17.355469-17.355469v-7.664062c-.015625-1.894531-1.277344-3.554688-3.097656-4.078125-4.171875-1.28125-8.210938-2.957032-12.0625-5.007813-1.660156-.917969-3.726563-.632812-5.074219.703125l-5.363281 5.398438c-3.257813 3.257812-7.675782 5.089844-12.28125 5.089844-4.605469 0-9.023438-1.832032-12.277344-5.089844-3.261719-3.253906-5.09375-7.671875-5.09375-12.28125 0-4.605469 1.832031-9.023438 5.09375-12.277344l5.394531-5.363281c1.339844-1.347657 1.625-3.417969.703125-5.078125-2.050781-3.847656-3.726562-7.882813-5.007812-12.050782-.523438-1.820312-2.183594-3.082031-4.078125-3.097656h-7.539063c-9.585937 0-17.355468-7.773437-17.355468-17.359375 0-9.582031 7.769531-17.355469 17.355468-17.355469h7.660156c1.898438-.015624 3.554688-1.277343 4.082032-3.097656 1.277344-4.167968 2.953125-8.203125 5.003906-12.054687.921875-1.660157.636719-3.726563-.703125-5.074219l-5.394531-5.363281c-3.261719-3.257813-5.089844-7.671875-5.089844-12.28125 0-4.605469 1.828125-9.023438 5.089844-12.277344 3.253906-3.257813 7.671875-5.089844 12.277344-5.089844 4.605468 0 9.023437 1.832031 12.28125 5.089844l5.363281 5.398437c1.347656 1.335938 3.414062 1.621094 5.074219.703126 3.847656-2.050782 7.886718-3.730469 12.054687-5.007813 1.769531-.535156 2.996094-2.144531 3.046875-3.992187v-7.644532c0-9.585937 7.769531-17.355468 17.355469-17.355468 9.585937 0 17.355469 7.769531 17.355469 17.355468v7.660156c.019531 1.894532 1.277343 3.554688 3.097656 4.078126 4.167968 1.28125 8.207031 2.957031 12.054687 5.007812 1.660157.921875 3.726563.636719 5.074219-.703125l5.363281-5.394531c3.257813-3.261719 7.675781-5.09375 12.28125-5.09375s9.023438 1.832031 12.277344 5.09375c3.261719 3.253906 5.089844 7.671875 5.089844 12.277344 0 4.605468-1.828125 9.023437-5.089844 12.28125l-5.394531 5.359374c-1.339844 1.347657-1.625 3.417969-.703125 5.078126 2.050781 3.847656 3.726562 7.886718 5.003906 12.054687.527344 1.820313 2.183594 3.078125 4.082031 3.097656h7.609375c9.566407 0 17.328125 7.738281 17.355469 17.304688zm0 0" fill="#35495e"/><path d="m451.253906 104.136719c0 19.167969-15.539062 34.710937-34.710937 34.710937s-34.710938-15.542968-34.710938-34.710937c0-19.171875 15.539063-34.714844 34.710938-34.714844s34.710937 15.542969 34.710937 34.714844zm0 0" fill="#2c3e50"/><path d="m390.507812 457.761719c0 54.238281-130.167968 54.238281-130.167968 54.238281s-130.171875 0-130.171875-54.238281c-1.140625-18.636719 4.742187-37.027344 16.488281-51.546875 16.339844-14.855469 37.382812-23.488282 59.445312-24.382813 0 0 0 32.539063 54.238282 75.929688 54.238281-43.390625 54.238281-75.929688 54.238281-75.929688 22.0625.894531 43.105469 9.527344 59.441406 24.382813 11.746094 14.519531 17.628907 32.910156 16.488281 51.546875zm0 0" fill="#955ba5"/><path d="m314.578125 381.832031s0 32.539063-54.238281 75.929688c-54.238282-43.390625-54.238282-75.929688-54.238282-75.929688 17.554688 5.875 35.773438 9.519531 54.238282 10.847657 18.460937-1.328126 36.683594-4.972657 54.238281-10.847657zm0 0" fill="#e6e7e8"/><path d="m314.578125 381.832031c-17.554687 5.875-35.777344 9.519531-54.238281 10.847657-18.464844-1.328126-36.683594-4.972657-54.238282-10.847657 21.695313-32.542969 21.695313-43.390625 21.695313-43.390625h65.085937s0 10.847656 21.695313 43.390625zm0 0" fill="#f09372"/><path d="m308.9375 256.242188c4.441406-3.5625 10.195312-5.058594 15.808594-4.113282 8.078125 2.230469 4.035156 22.5625 4.035156 22.5625s-3.625 14.355469-25.332031 21.445313h-88.105469c-10.902344-2.859375-19.707031-10.886719-23.5625-21.480469 0 0-3.675781-20.296875 3.871094-22.5625 5.238281-.933594 10.613281.582031 14.589844 4.113281zm0 0" fill="#f09372"/><path d="m314.140625 238.644531c-1.933594-37.195312-50.242187-39.050781-50.242187-39.050781h-7.734376s-48.308593 1.855469-50.246093 39.050781c-1.933594 37.191407 3.863281 40.90625 3.863281 53.925781 0 13.015626-3.820312 24.175782 11.636719 37.191407 15.457031 13.019531 15.464843 26.035156 30.921875 26.035156h15.460937c15.464844 0 15.464844-13.015625 30.921875-26.035156 15.453125-13.015625 11.59375-24.175781 11.59375-37.191407 0-13.019531 5.796875-16.734374 3.824219-53.925781zm0 0" fill="#fdd7ad"/><path d="m104.136719 208.269531c-57.511719 0-104.136719-46.621093-104.136719-104.132812s46.625-104.136719 104.136719-104.136719 104.132812 46.625 104.132812 104.136719c-.058593 57.484375-46.648437 104.074219-104.132812 104.132812zm0-190.914062c-47.929688 0-86.78125 38.851562-86.78125 86.78125 0 47.925781 38.851562 86.777343 86.78125 86.777343 47.925781 0 86.777343-38.851562 86.777343-86.777343-.054687-47.90625-38.875-86.722657-86.777343-86.78125zm0 0" fill="#7f8c8d"/></svg>