<svg xmlns="http://www.w3.org/2000/svg" width="30" height="30" viewBox="0 0 30 30">
  <g id="Group_2504" data-name="Group 2504" transform="translate(1.645 1.645)">
    <path id="Path_433" data-name="Path 433" d="M15,0A15,15,0,1,1,0,15,15,15,0,0,1,15,0Z" transform="translate(-1.645 -1.645)" fill="#242f5d"/>
    <path id="cog" d="M30.066,15.561l1.051-.607a.794.794,0,0,0,.369-.893A8.175,8.175,0,0,0,29.371,10.4a.793.793,0,0,0-.957-.126l-1.05.606a6.481,6.481,0,0,0-1.086-.628V9.041a.793.793,0,0,0-.589-.766,8.242,8.242,0,0,0-4.224,0,.793.793,0,0,0-.589.766v1.214a6.481,6.481,0,0,0-1.086.628l-1.05-.606a.793.793,0,0,0-.957.126,8.175,8.175,0,0,0-2.115,3.659.794.794,0,0,0,.369.893l1.051.607a6.529,6.529,0,0,0,0,1.255l-1.051.607a.794.794,0,0,0-.369.893,8.175,8.175,0,0,0,2.115,3.659.793.793,0,0,0,.957.126l1.05-.606a6.479,6.479,0,0,0,1.086.628v1.214a.793.793,0,0,0,.589.766,8.242,8.242,0,0,0,4.224,0,.793.793,0,0,0,.589-.766V22.123a6.483,6.483,0,0,0,1.086-.628l1.05.606a.793.793,0,0,0,.957-.126,8.175,8.175,0,0,0,2.115-3.659.794.794,0,0,0-.369-.893l-1.051-.607A6.529,6.529,0,0,0,30.066,15.561Zm-1.74,2.081,1.447.835a6.609,6.609,0,0,1-1.118,1.933l-1.447-.836a5.625,5.625,0,0,1-2.515,1.454V22.7a6.634,6.634,0,0,1-2.233,0V21.028a5.627,5.627,0,0,1-2.515-1.454L18.5,20.41a6.609,6.609,0,0,1-1.118-1.933l1.447-.835a5.684,5.684,0,0,1,0-2.907L17.38,13.9A6.61,6.61,0,0,1,18.5,11.967l1.447.836a5.625,5.625,0,0,1,2.515-1.454V9.678a6.634,6.634,0,0,1,2.233,0v1.671A5.627,5.627,0,0,1,27.208,12.8l1.447-.836A6.609,6.609,0,0,1,29.773,13.9l-1.447.835A5.683,5.683,0,0,1,28.326,17.642Zm-4.75-4.624a3.17,3.17,0,1,0,3.17,3.17A3.174,3.174,0,0,0,23.577,13.019Zm0,4.755a1.585,1.585,0,1,1,1.585-1.585A1.587,1.587,0,0,1,23.577,17.774Z" transform="translate(-10.222 -2.834)" fill="#fff"/>
  </g>
</svg>
