<svg xmlns="http://www.w3.org/2000/svg" width="30" height="30" viewBox="0 0 30 30">
  <g id="Group_2503" data-name="Group 2503" transform="translate(1.645 1.645)">
    <path id="Path_433" data-name="Path 433" d="M15,0A15,15,0,1,1,0,15,15,15,0,0,1,15,0Z" transform="translate(-1.645 -1.645)" fill="#242f5d"/>
    <path id="bullhorn" d="M15.344,5.215V.9a.912.912,0,0,0-.9-.9h0a.9.9,0,0,0-.564.2l-2.4,1.919A6.846,6.846,0,0,1,7.221,3.61H1.805A1.805,1.805,0,0,0,0,5.415V8.123A1.805,1.805,0,0,0,1.805,9.928l-.014.9a7.145,7.145,0,0,0,.721,3.129.885.885,0,0,0,.8.481h3a.9.9,0,0,0,.731-1.426A3.592,3.592,0,0,1,6.3,10.831a3.413,3.413,0,0,1,.124-.9h.792a6.845,6.845,0,0,1,4.258,1.493l2.4,1.919a.9.9,0,0,0,1.466-.7V8.324a1.791,1.791,0,0,0,0-3.11ZM3.6,13.087a5.758,5.758,0,0,1-.457-2.256,6.318,6.318,0,0,1,.073-.9H5.05a4.728,4.728,0,0,0-.1.9,4.918,4.918,0,0,0,.542,2.256ZM6.769,8.575H1.805a.452.452,0,0,1-.451-.451V5.415a.452.452,0,0,1,.451-.451H6.769ZM13.99,11.7l-1.665-1.332a8.2,8.2,0,0,0-4.2-1.733V4.908a8.2,8.2,0,0,0,4.2-1.734L13.99,1.842Z" transform="translate(5.227 5.662)" fill="#fff"/>
  </g>
</svg>
