<svg xmlns="http://www.w3.org/2000/svg" width="30" height="30" viewBox="0 0 30 30">
  <g id="Group_2502" data-name="Group 2502" transform="translate(1.645 1.645)">
    <path id="Path_433" data-name="Path 433" d="M15,0A15,15,0,1,1,0,15,15,15,0,0,1,15,0Z" transform="translate(-1.645 -1.645)" fill="#242f5d"/>
    <path id="Path_210" data-name="Path 210" d="M8.876,64C3.976,64,0,65.567,0,67.5v2.724c0,1.72,3.976,3.113,8.876,3.113s8.876-1.393,8.876-3.113V67.5C17.751,65.567,13.776,64,8.876,64ZM3.051,71.28c-.887-.346-1.387-.734-1.387-1.055v-.687a8.885,8.885,0,0,0,1.387.6Zm3.328.751a16.429,16.429,0,0,1-2.219-.4V70.465a17.608,17.608,0,0,0,2.219.4Zm3.883.1c-.444.027-.9.043-1.387.043s-.943-.017-1.387-.043V70.957c.453.028.914.047,1.387.047s.934-.019,1.387-.047Zm3.328-.493a16.43,16.43,0,0,1-2.219.4V70.861a17.608,17.608,0,0,0,2.219-.4Zm2.5-1.409c0,.321-.5.709-1.387,1.055V70.14a8.885,8.885,0,0,0,1.387-.6Zm-7.211-.389c-4.126,0-7.211-1.232-7.211-2.335s3.086-2.335,7.211-2.335S16.087,66.4,16.087,67.5,13,69.836,8.876,69.836Z" transform="translate(4.479 -55.314)" fill="#fff"/>
  </g>
</svg>
