<svg width="18" height="13" viewBox="0 0 18 13" fill="none" xmlns="http://www.w3.org/2000/svg">
<path d="M15.0939 6.463H14.4609C14.0207 6.46271 13.5907 6.59514 13.2269 6.843C13.5824 7.11042 13.8898 7.43641 14.1359 7.807C14.2396 7.7651 14.3501 7.7424 14.4619 7.74H15.0949C15.3477 7.74159 15.5897 7.84328 15.7677 8.02283C15.9458 8.20237 16.0454 8.44514 16.0449 8.698C16.0449 8.86602 16.1116 9.02715 16.2304 9.14595C16.3492 9.26475 16.5104 9.3315 16.6784 9.3315C16.8464 9.3315 17.0075 9.26475 17.1263 9.14595C17.2451 9.02715 17.3119 8.86602 17.3119 8.698C17.3135 8.1077 17.0809 7.54086 16.665 7.12186C16.2492 6.70286 15.6842 6.46591 15.0939 6.463ZM14.7769 5.611C15.1989 5.61477 15.6126 5.49305 15.9654 5.2613C16.3181 5.02956 16.5941 4.69823 16.7582 4.30937C16.9224 3.92051 16.9673 3.49165 16.8872 3.07723C16.8072 2.66281 16.6059 2.2815 16.3088 1.98171C16.0116 1.68192 15.6322 1.47716 15.2185 1.39342C14.8048 1.30969 14.3755 1.35074 13.9852 1.51138C13.5949 1.67202 13.2611 1.94501 13.0262 2.29568C12.7913 2.64636 12.6659 3.05892 12.6659 3.481C12.6635 4.04335 12.8845 4.58364 13.2804 4.98306C13.6763 5.38249 14.2145 5.60835 14.7769 5.611ZM14.7769 2.629C14.9457 2.62742 15.1112 2.67603 15.2524 2.76868C15.3936 2.86133 15.504 2.99384 15.5697 3.14937C15.6354 3.30491 15.6534 3.47646 15.6215 3.64226C15.5895 3.80805 15.509 3.96061 15.3902 4.08057C15.2713 4.20053 15.1196 4.28247 14.9541 4.316C14.7886 4.34953 14.6169 4.33313 14.4607 4.26888C14.3046 4.20464 14.171 4.09544 14.077 3.95517C13.9831 3.81489 13.9329 3.64985 13.9329 3.481C13.9324 3.25635 14.0209 3.04065 14.1791 2.88114C14.3373 2.72163 14.5522 2.63032 14.7769 2.629ZM4.50589 6.844C4.14212 6.59614 3.71207 6.46371 3.27189 6.464H2.63889C2.04859 6.46718 1.48365 6.70438 1.06802 7.12357C0.652397 7.54275 0.420024 8.10969 0.421886 8.7C0.421886 8.86802 0.48863 9.02915 0.607434 9.14795C0.726238 9.26676 0.887371 9.3335 1.05539 9.3335C1.2234 9.3335 1.38453 9.26676 1.50334 9.14795C1.62214 9.02915 1.68889 8.86802 1.68889 8.7C1.68835 8.44714 1.78802 8.20437 1.96606 8.02483C2.14411 7.84528 2.38603 7.74359 2.63889 7.742H3.27189C3.38371 7.74444 3.49416 7.76714 3.59789 7.809C3.84399 7.43841 4.15138 7.11243 4.50689 6.845L4.50589 6.844ZM2.95489 5.611C3.37695 5.61477 3.79062 5.49305 4.14338 5.2613C4.49615 5.02956 4.77211 4.69823 4.93624 4.30937C5.10038 3.92051 5.14528 3.49165 5.06525 3.07723C4.98522 2.66281 4.78387 2.2815 4.48676 1.98171C4.18964 1.68192 3.81016 1.47716 3.39647 1.39342C2.98278 1.30969 2.55353 1.35074 2.16322 1.51138C1.7729 1.67202 1.43912 1.94501 1.20422 2.29568C0.969319 2.64636 0.843903 3.05892 0.843886 3.481C0.841494 4.04335 1.06253 4.58364 1.45839 4.98306C1.85425 5.38249 2.39253 5.60835 2.95489 5.611ZM2.95489 2.629C3.12373 2.62742 3.28923 2.67603 3.43039 2.76868C3.57155 2.86133 3.682 2.99384 3.74771 3.14937C3.81343 3.30491 3.83144 3.47646 3.79948 3.64226C3.76751 3.80805 3.68701 3.96061 3.56818 4.08057C3.44935 4.20053 3.29755 4.28247 3.13207 4.316C2.96658 4.34953 2.79486 4.33313 2.63871 4.26888C2.48257 4.20464 2.34903 4.09544 2.25505 3.95517C2.16107 3.81489 2.11089 3.64985 2.11089 3.481C2.11035 3.25635 2.19888 3.04065 2.35708 2.88114C2.51527 2.72163 2.73024 2.63032 2.95489 2.629ZM10.0439 7.136C9.27633 7.37454 8.45445 7.37454 7.68689 7.136C7.08007 6.93657 6.42535 6.93664 5.81858 7.1362C5.21182 7.33576 4.68487 7.72432 4.31489 8.245C3.97713 8.75159 3.79753 9.34713 3.79889 9.956V11.149C3.7981 11.3161 3.83025 11.4818 3.89351 11.6365C3.95677 11.7912 4.04989 11.9319 4.16755 12.0506C4.28522 12.1692 4.42512 12.2636 4.57926 12.3282C4.7334 12.3928 4.89876 12.4263 5.06589 12.427H12.6659C12.833 12.4263 12.9984 12.3928 13.1525 12.3282C13.3067 12.2636 13.4466 12.1692 13.5642 12.0506C13.6819 11.9319 13.775 11.7912 13.8383 11.6365C13.9015 11.4818 13.9337 11.3161 13.9329 11.149V9.956C13.9341 9.34747 13.7545 8.75229 13.4169 8.246C13.047 7.72514 12.5202 7.33638 11.9134 7.13664C11.3066 6.9369 10.6518 6.93668 10.0449 7.136H10.0439ZM12.6649 11.148H5.06489V9.956C5.06361 9.49188 5.24326 9.04552 5.5657 8.71169C5.88815 8.37786 6.328 8.18283 6.79189 8.168C7.44749 8.44868 8.15323 8.5934 8.86639 8.5934C9.57954 8.5934 10.2853 8.44868 10.9409 8.168C11.4044 8.18334 11.8438 8.37859 12.1658 8.71237C12.4878 9.04615 12.6672 9.49221 12.6659 9.956L12.6649 11.148ZM8.86489 6.462C9.65214 6.45883 10.4059 6.14311 10.9604 5.58427C11.5149 5.02544 11.8248 4.26926 11.8219 3.482V0.5L10.3439 1.245L8.86589 0.5L7.38789 1.245L5.91089 0.5V3.482C5.9077 4.26908 6.21717 5.02523 6.77129 5.58422C7.3254 6.14321 8.0788 6.4593 8.86589 6.463L8.86489 6.462ZM7.17689 3.056H10.5549V3.482C10.5549 3.92995 10.3769 4.35956 10.0602 4.6763C9.74344 4.99305 9.31384 5.171 8.86589 5.171C8.41794 5.171 7.98833 4.99305 7.67158 4.6763C7.35483 4.35956 7.17689 3.92995 7.17689 3.482V3.056Z" fill="white"/>
</svg>
