<svg width="25" height="21" viewBox="0 0 25 21" fill="none" xmlns="http://www.w3.org/2000/svg">
<path d="M3.33203 2.375H21.332V7.59453C21.9935 7.69453 22.6074 7.94258 23.132 8.32539V2.43711C23.132 1.36914 22.3247 0.5 21.332 0.5H3.33203C2.33941 0.5 1.53203 1.36914 1.53203 2.43711V8.325C2.05666 7.94219 2.67053 7.69414 3.33203 7.59414V2.375ZM4.38203 16.2812H3.48203C1.74541 16.2812 0.332031 17.7535 0.332031 19.5625C0.332031 20.0801 0.735156 20.5 1.23203 20.5C1.72891 20.5 2.13203 20.0801 2.13203 19.5625C2.13203 18.7875 2.73803 18.1562 3.48203 18.1562H4.38203C5.12603 18.1562 5.73203 18.7875 5.73203 19.5625C5.73203 20.0801 6.13516 20.5 6.63203 20.5C7.12891 20.5 7.53203 20.0801 7.53203 19.5625C7.53203 17.7535 6.11866 16.2812 4.38203 16.2812ZM20.732 8.78125C19.0753 8.78125 17.732 10.1805 17.732 11.9062C17.732 13.632 19.0753 15.0312 20.732 15.0312C22.3888 15.0312 23.732 13.632 23.732 11.9062C23.732 10.1805 22.3888 8.78125 20.732 8.78125ZM20.732 13.1562C20.0705 13.1562 19.532 12.5953 19.532 11.9062C19.532 11.2172 20.0705 10.6562 20.732 10.6562C21.3935 10.6562 21.932 11.2172 21.932 11.9062C21.932 12.5953 21.3935 13.1562 20.732 13.1562ZM21.182 16.2812H20.282C18.5454 16.2812 17.132 17.7535 17.132 19.5625C17.132 20.0801 17.5352 20.5 18.032 20.5C18.5289 20.5 18.932 20.0801 18.932 19.5625C18.932 18.7875 19.538 18.1562 20.282 18.1562H21.182C21.926 18.1562 22.532 18.7875 22.532 19.5625C22.532 20.0801 22.9352 20.5 23.432 20.5C23.9289 20.5 24.332 20.0801 24.332 19.5625C24.332 17.7535 22.9187 16.2812 21.182 16.2812ZM3.93203 15.0312C5.58878 15.0312 6.93203 13.632 6.93203 11.9062C6.93203 10.1805 5.58878 8.78125 3.93203 8.78125C2.27528 8.78125 0.932031 10.1805 0.932031 11.9062C0.932031 13.632 2.27528 15.0312 3.93203 15.0312ZM3.93203 10.6562C4.59353 10.6562 5.13203 11.2172 5.13203 11.9062C5.13203 12.5953 4.59353 13.1562 3.93203 13.1562C3.27053 13.1562 2.73203 12.5953 2.73203 11.9062C2.73203 11.2172 3.27053 10.6562 3.93203 10.6562ZM9.33203 11.9062C9.33203 13.632 10.6753 15.0312 12.332 15.0312C13.9888 15.0312 15.332 13.632 15.332 11.9062C15.332 10.1805 13.9888 8.78125 12.332 8.78125C10.6753 8.78125 9.33203 10.1805 9.33203 11.9062ZM13.532 11.9062C13.532 12.5953 12.9935 13.1562 12.332 13.1562C11.6705 13.1562 11.132 12.5953 11.132 11.9062C11.132 11.2172 11.6705 10.6562 12.332 10.6562C12.9935 10.6562 13.532 11.2172 13.532 11.9062ZM12.782 16.2812H11.882C10.1454 16.2812 8.73203 17.7535 8.73203 19.5625C8.73203 20.0801 9.13516 20.5 9.63203 20.5C10.1289 20.5 10.532 20.0801 10.532 19.5625C10.532 18.7875 11.138 18.1562 11.882 18.1562H12.782C13.526 18.1562 14.132 18.7875 14.132 19.5625C14.132 20.0801 14.5352 20.5 15.032 20.5C15.5289 20.5 15.932 20.0801 15.932 19.5625C15.932 17.7535 14.5187 16.2812 12.782 16.2812Z" fill="#7A748B"/>
</svg>
