<svg width="17" height="20" viewBox="0 0 17 20" fill="none" xmlns="http://www.w3.org/2000/svg">
<path d="M16.3929 6.25H4.25C4.25 4.92773 5.05522 3.80117 6.22397 3.3457C6.5617 4.3082 7.4485 5 8.5 5H9.71429C11.0557 5 12.1429 3.88086 12.1429 2.5C12.1429 1.11914 11.0557 0 9.71429 0H8.5C7.56538 0 6.76319 0.549609 6.35717 1.34648C4.12212 1.79453 2.42857 3.82031 2.42857 6.25H0.607143C0.271696 6.25 0 6.52969 0 6.875V7.5C0 7.84531 0.271696 8.125 0.607143 8.125H2.54317L3.44288 18.125H1.82143C1.48598 18.125 1.21429 18.4047 1.21429 18.75V19.375C1.21429 19.7203 1.48598 20 1.82143 20H15.1786C15.514 20 15.7857 19.7203 15.7857 19.375V18.75C15.7857 18.4047 15.514 18.125 15.1786 18.125H13.5571L14.4568 8.125H16.3929C16.7283 8.125 17 7.84531 17 7.5V6.875C17 6.52969 16.7283 6.25 16.3929 6.25ZM8.5 1.875H9.71429C10.049 1.875 10.3214 2.15547 10.3214 2.5C10.3214 2.84453 10.049 3.125 9.71429 3.125H8.5C8.16531 3.125 7.89286 2.84453 7.89286 2.5C7.89286 2.15547 8.16531 1.875 8.5 1.875ZM11.727 18.125H5.27304L4.37333 8.125H12.6267L11.727 18.125Z" fill="#7A748B"/>
</svg>
