<svg xmlns="http://www.w3.org/2000/svg" width="15.478" height="17.689" viewBox="0 0 15.478 17.689">
  <path id="bell" d="M15.18,12.517c-.668-.717-1.916-1.8-1.916-5.331a5.456,5.456,0,0,0-4.42-5.361v-.72a1.1,1.1,0,1,0-2.21,0v.72a5.456,5.456,0,0,0-4.42,5.361C2.213,10.721.964,11.8.3,12.517a1.079,1.079,0,0,0-.3.75,1.107,1.107,0,0,0,1.109,1.106h13.26a1.106,1.106,0,0,0,1.109-1.106,1.079,1.079,0,0,0-.3-.75Zm-12.848.2A8.652,8.652,0,0,0,3.871,7.206c0-.007,0-.013,0-.02a3.87,3.87,0,1,1,7.739,0c0,.007,0,.013,0,.02a8.65,8.65,0,0,0,1.538,5.508Zm5.406,4.975a2.211,2.211,0,0,0,2.21-2.211H5.528A2.211,2.211,0,0,0,7.738,17.689Z" transform="translate(0.001)" fill="#84878e"/>
</svg>
