<svg width="20" height="21" viewBox="0 0 20 21" fill="none" xmlns="http://www.w3.org/2000/svg">
<path d="M18.125 5.5H15V3.625C15 2.58945 14.1605 1.75 13.125 1.75H6.875C5.83945 1.75 5 2.58945 5 3.625V5.5H1.875C0.839453 5.5 0 6.33945 0 7.375V17.375C0 18.4105 0.839453 19.25 1.875 19.25H18.125C19.1605 19.25 20 18.4105 20 17.375V7.375C20 6.33945 19.1605 5.5 18.125 5.5ZM6.875 3.625H13.125V5.5H6.875V3.625ZM2.10938 7.375H17.8906C18.0199 7.375 18.125 7.48008 18.125 7.60938V10.5H1.875V7.60938C1.875 7.48008 1.98008 7.375 2.10938 7.375ZM17.8906 17.375H2.10938C1.98008 17.375 1.875 17.2699 1.875 17.1406V12.375H7.5V13.3125C7.5 13.8301 7.91992 14.25 8.4375 14.25H11.5625C12.0801 14.25 12.5 13.8301 12.5 13.3125V12.375H18.125V17.1406C18.125 17.2699 18.0199 17.375 17.8906 17.375Z" fill="#7A748B"/>
</svg>
