<svg width="20" height="21" viewBox="0 0 20 21" fill="none" xmlns="http://www.w3.org/2000/svg">
<path d="M17.75 13.9983C17.1531 13.9983 16.6156 14.2358 16.2125 14.614L13.7688 13.2171C13.9094 12.8358 14 12.4296 14 11.9983C14 10.064 12.4344 8.49834 10.5 8.49834C10.2375 8.49834 9.98125 8.53271 9.7375 8.58896L8.73125 6.43271C9.2 6.02022 9.5 5.42334 9.5 4.75146C9.5 3.50771 8.49375 2.50146 7.25 2.50146C6.00625 2.50146 5 3.50771 5 4.75146C5 5.99521 6.00625 7.00146 7.25 7.00146C7.27812 7.00146 7.30625 6.99521 7.33437 6.99209L8.38125 9.23271C7.54688 9.87021 7 10.8671 7 11.9983C7 13.9327 8.56563 15.4983 10.5 15.4983C11.4594 15.4983 12.3312 15.1108 12.9625 14.4827L15.5312 15.9515C15.5188 16.0483 15.5 16.1483 15.5 16.2483C15.5 17.4921 16.5063 18.4983 17.75 18.4983C18.9937 18.4983 20 17.4921 20 16.2483C20 15.0046 18.9937 13.9983 17.75 13.9983ZM7.25 5.49834C6.8375 5.49834 6.5 5.16084 6.5 4.74834C6.5 4.33584 6.8375 3.99834 7.25 3.99834C7.6625 3.99834 8 4.33584 8 4.74834C8 5.16084 7.6625 5.49834 7.25 5.49834ZM10.5 13.9983C9.39688 13.9983 8.5 13.1015 8.5 11.9983C8.5 10.8952 9.39688 9.99834 10.5 9.99834C11.6031 9.99834 12.5 10.8952 12.5 11.9983C12.5 13.1015 11.6031 13.9983 10.5 13.9983ZM17.75 16.9983C17.3375 16.9983 17 16.6608 17 16.2483C17 15.8358 17.3375 15.4983 17.75 15.4983C18.1625 15.4983 18.5 15.8358 18.5 16.2483C18.5 16.6608 18.1625 16.9983 17.75 16.9983ZM16.05 8.83584L15.45 8.03584L13.95 9.16084L14.55 9.96084L16.05 8.83584ZM18 8.49834C19.1031 8.49834 20 7.60146 20 6.49834C20 5.39522 19.1031 4.49834 18 4.49834C16.8969 4.49834 16 5.39522 16 6.49834C16 7.60146 16.8969 8.49834 18 8.49834ZM4.75 12.4983H6.25V11.4983H4.75V12.4983ZM2 9.99834C0.896875 9.99834 0 10.8952 0 11.9983C0 13.1015 0.896875 13.9983 2 13.9983C3.10313 13.9983 4 13.1015 4 11.9983C4 10.8952 3.10313 9.99834 2 9.99834Z" fill="#7A748B"/>
</svg>
