<svg width="20" height="21" viewBox="0 0 20 21" fill="none" xmlns="http://www.w3.org/2000/svg">
<g clip-path="url(#clip0_662_3852)">
<path d="M17.6768 9.75784L18.9206 9.03979C19.2888 8.82725 19.4673 8.39362 19.3572 7.98299C18.9118 6.32163 18.0353 4.83663 16.855 3.65498C16.555 3.35467 16.0903 3.29381 15.7227 3.50612L14.4811 4.22323C14.0778 3.93459 13.6474 3.68577 13.196 3.48026V2.04459C13.196 1.83781 13.1276 1.63683 13.0016 1.4729C12.8756 1.30897 12.6989 1.19127 12.4991 1.13811C10.8678 0.704243 9.13512 0.703696 7.5018 1.13807C7.0909 1.24737 6.80477 1.61936 6.80477 2.04456V3.48022C6.35337 3.68573 5.92299 3.93455 5.51965 4.22319L4.27805 3.50608C3.91047 3.29377 3.44582 3.35463 3.14582 3.65495C1.96551 4.83659 1.08903 6.32155 0.643559 7.98295C0.533442 8.39358 0.711958 8.82721 1.08016 9.03975L2.32403 9.75784C2.27637 10.2515 2.27637 10.7485 2.32403 11.2422L1.08016 11.9602C0.711958 12.1728 0.533442 12.6064 0.643559 13.017C1.08903 14.6784 1.96551 16.1634 3.14582 17.345C3.44582 17.6453 3.91047 17.7062 4.27805 17.4939L5.51965 16.7768C5.92298 17.0654 6.35337 17.3142 6.80477 17.5197V18.9554C6.80479 19.1622 6.87314 19.3631 6.99918 19.5271C7.12522 19.691 7.30189 19.8087 7.50172 19.8619C9.13301 20.2957 10.8657 20.2963 12.499 19.8619C12.9099 19.7526 13.196 19.3806 13.196 18.9554V17.5197C13.6474 17.3142 14.0778 17.0654 14.4811 16.7768L15.7227 17.4939C16.0903 17.7062 16.555 17.6454 16.855 17.3451C18.0353 16.1634 18.9118 14.6784 19.3572 13.0171C19.4673 12.6064 19.2888 12.1728 18.9206 11.9603L17.6768 11.2422C17.7244 10.7481 17.7244 10.252 17.6768 9.75784ZM15.619 12.2195L17.3307 13.2074C17.0228 14.0389 16.5756 14.812 16.0084 15.4936L14.2964 14.505C13.047 15.5752 12.8644 15.6799 11.3211 16.2249V18.2014C10.4469 18.3506 9.55385 18.3506 8.67973 18.2014V16.2249C7.13661 15.6799 6.95332 15.5748 5.70442 14.505L3.99235 15.4936C3.42515 14.812 2.97803 14.0389 2.67012 13.2074L4.3818 12.2195C4.08375 10.6063 4.0836 10.3946 4.3818 8.78053L2.67012 7.79268C2.97676 6.96342 3.42442 6.1892 3.99235 5.50639L5.70442 6.49502C6.95379 5.42483 7.13645 5.3201 8.67973 4.77514V2.79866C9.55385 2.64944 10.4469 2.64944 11.3211 2.79866V4.77518C12.8642 5.3201 13.0475 5.42526 14.2964 6.49506L16.0084 5.50643C16.5757 6.18803 17.0228 6.96115 17.3307 7.79272L15.619 8.78057C15.9171 10.3939 15.9172 10.6055 15.619 12.2195ZM10.0004 6.75002C7.93262 6.75002 6.25039 8.43225 6.25039 10.5C6.25039 12.5678 7.93262 14.25 10.0004 14.25C12.0682 14.25 13.7504 12.5678 13.7504 10.5C13.7504 8.43225 12.0682 6.75002 10.0004 6.75002ZM10.0004 12.375C8.96649 12.375 8.12539 11.5339 8.12539 10.5C8.12539 9.46616 8.96649 8.62502 10.0004 8.62502C11.0343 8.62502 11.8754 9.46616 11.8754 10.5C11.8754 11.5339 11.0343 12.375 10.0004 12.375Z" fill="#7A748B"/>
</g>
<defs>
<clipPath id="clip0_662_3852">
<rect width="20" height="20" fill="white" transform="translate(0 0.5)"/>
</clipPath>
</defs>
</svg>
