<svg xmlns="http://www.w3.org/2000/svg" width="18" height="11.392" viewBox="0 0 18 11.392">
  <path id="Path_756" data-name="Path 756" d="M9,64c-4.969,0-9,1.912-9,4.272v3.323c0,2.1,4.031,3.8,9,3.8s9-1.7,9-3.8V68.272C18,65.912,13.969,64,9,64ZM3.094,72.882c-.9-.422-1.406-.9-1.406-1.287v-.839a8.3,8.3,0,0,0,1.406.734Zm3.375.916a14.143,14.143,0,0,1-2.25-.484V71.887a15.157,15.157,0,0,0,2.25.483Zm3.938.119c-.45.033-.918.053-1.406.053s-.956-.02-1.406-.053V72.487c.459.034.927.057,1.406.057s.947-.023,1.406-.057Zm3.375-.6a14.142,14.142,0,0,1-2.25.484V72.37a15.157,15.157,0,0,0,2.25-.483Zm2.531-1.72c0,.392-.507.865-1.406,1.287V71.491a8.3,8.3,0,0,0,1.406-.734ZM9,71.12c-4.184,0-7.312-1.5-7.312-2.848S4.816,65.424,9,65.424s7.313,1.5,7.313,2.848S13.185,71.12,9,71.12Z" transform="translate(0 -64)" fill="#84878e"/>
</svg>
