<svg width="20" height="17" viewBox="0 0 20 17" fill="none" xmlns="http://www.w3.org/2000/svg">
<path d="M2.5 2.00009H17.5V6.17572C18.0513 6.25572 18.5628 6.45415 19 6.7604V2.04978C19 1.1954 18.3272 0.500092 17.5 0.500092H2.5C1.67281 0.500092 1 1.1954 1 2.04978V6.76009C1.43719 6.45384 1.94875 6.2554 2.5 6.1754V2.00009ZM3.375 13.1251H2.625C1.17781 13.1251 0 14.3029 0 15.7501C0 16.1642 0.335938 16.5001 0.75 16.5001C1.16406 16.5001 1.5 16.1642 1.5 15.7501C1.5 15.1301 2.005 14.6251 2.625 14.6251H3.375C3.995 14.6251 4.5 15.1301 4.5 15.7501C4.5 16.1642 4.83594 16.5001 5.25 16.5001C5.66406 16.5001 6 16.1642 6 15.7501C6 14.3029 4.82219 13.1251 3.375 13.1251ZM17 7.12509C15.6194 7.12509 14.5 8.24447 14.5 9.62509C14.5 11.0057 15.6194 12.1251 17 12.1251C18.3806 12.1251 19.5 11.0057 19.5 9.62509C19.5 8.24447 18.3806 7.12509 17 7.12509ZM17 10.6251C16.4487 10.6251 16 10.1763 16 9.62509C16 9.07384 16.4487 8.62509 17 8.62509C17.5513 8.62509 18 9.07384 18 9.62509C18 10.1763 17.5513 10.6251 17 10.6251ZM17.375 13.1251H16.625C15.1778 13.1251 14 14.3029 14 15.7501C14 16.1642 14.3359 16.5001 14.75 16.5001C15.1641 16.5001 15.5 16.1642 15.5 15.7501C15.5 15.1301 16.005 14.6251 16.625 14.6251H17.375C17.995 14.6251 18.5 15.1301 18.5 15.7501C18.5 16.1642 18.8359 16.5001 19.25 16.5001C19.6641 16.5001 20 16.1642 20 15.7501C20 14.3029 18.8222 13.1251 17.375 13.1251ZM3 12.1251C4.38062 12.1251 5.5 11.0057 5.5 9.62509C5.5 8.24447 4.38062 7.12509 3 7.12509C1.61937 7.12509 0.5 8.24447 0.5 9.62509C0.5 11.0057 1.61937 12.1251 3 12.1251ZM3 8.62509C3.55125 8.62509 4 9.07384 4 9.62509C4 10.1763 3.55125 10.6251 3 10.6251C2.44875 10.6251 2 10.1763 2 9.62509C2 9.07384 2.44875 8.62509 3 8.62509ZM7.5 9.62509C7.5 11.0057 8.61938 12.1251 10 12.1251C11.3806 12.1251 12.5 11.0057 12.5 9.62509C12.5 8.24447 11.3806 7.12509 10 7.12509C8.61938 7.12509 7.5 8.24447 7.5 9.62509ZM11 9.62509C11 10.1763 10.5513 10.6251 10 10.6251C9.44875 10.6251 9 10.1763 9 9.62509C9 9.07384 9.44875 8.62509 10 8.62509C10.5513 8.62509 11 9.07384 11 9.62509ZM10.375 13.1251H9.625C8.17781 13.1251 7 14.3029 7 15.7501C7 16.1642 7.33594 16.5001 7.75 16.5001C8.16406 16.5001 8.5 16.1642 8.5 15.7501C8.5 15.1301 9.005 14.6251 9.625 14.6251H10.375C10.995 14.6251 11.5 15.1301 11.5 15.7501C11.5 16.1642 11.8359 16.5001 12.25 16.5001C12.6641 16.5001 13 16.1642 13 15.7501C13 14.3029 11.8222 13.1251 10.375 13.1251Z" fill="#7A748B"/>
</svg>
