<svg width="20" height="21" viewBox="0 0 20 21" fill="none" xmlns="http://www.w3.org/2000/svg">
<path d="M17.7778 4.125H12.7778V3.0625C12.7778 2.4748 12.2813 2 11.6667 2H8.33333C7.71875 2 7.22222 2.4748 7.22222 3.0625V4.125H2.22222C0.996528 4.125 0 5.07793 0 6.25V16.875C0 18.0471 0.996528 19 2.22222 19H17.7778C19.0035 19 20 18.0471 20 16.875V6.25C20 5.07793 19.0035 4.125 17.7778 4.125ZM8.88889 3.59375H11.1111V5.71875H8.88889V3.59375ZM18.3333 16.875C18.3333 17.1672 18.0833 17.4062 17.7778 17.4062H13.8611C13.8681 17.3697 13.8889 17.3365 13.8889 17.3V16.6625C13.8889 15.6066 12.8438 14.75 11.5556 14.75C11.1806 14.75 10.9063 15.0156 10 15.0156C9.06597 15.0156 8.84028 14.75 8.44444 14.75C7.15625 14.75 6.11111 15.6066 6.11111 16.6625V17.3C6.11111 17.3365 6.12847 17.3697 6.13889 17.4062H2.22222C1.91667 17.4062 1.66667 17.1672 1.66667 16.875V6.25C1.66667 5.95781 1.91667 5.71875 2.22222 5.71875H7.22222V7.3125H12.7778V5.71875H17.7778C18.0833 5.71875 18.3333 5.95781 18.3333 6.25V16.875ZM10 9.4375C8.77431 9.4375 7.77778 10.3904 7.77778 11.5625C7.77778 12.7346 8.77431 13.6875 10 13.6875C11.2257 13.6875 12.2222 12.7346 12.2222 11.5625C12.2222 10.3904 11.2257 9.4375 10 9.4375Z" fill="#7A748B"/>
</svg>
