<svg xmlns="http://www.w3.org/2000/svg" width="20.788" height="22.113" viewBox="0 0 20.788 22.113">
  <path id="Path_974" data-name="Path 974" d="M10.373,3.928a.86.86,0,1,0-.861-.86.861.861,0,0,0,.861.86Zm7.1,8.161,2.367-1.917.476,3.009.476,3.01-1.486-.57a9.358,9.358,0,0,1-17.817,0L0,16.191l.477-3.01.476-3.009,2.368,1.917,2.366,1.918-1.775.681a6.774,6.774,0,0,0,5.167,4.7V8.812H4.919V6.437H9.078V5.851a3.069,3.069,0,1,1,2.59,0v.586h3.943V8.811H11.668V19.4a6.769,6.769,0,0,0,5.21-4.712L15.1,14.007l2.367-1.918Z" fill="#3e3b46"/>
</svg>
