<svg id="image-svgrepo-com" xmlns="http://www.w3.org/2000/svg" viewBox="0 0 33.489 33.487">
  <path id="Path_982" data-name="Path 982" d="M8.794,33.488h15.9a8.8,8.8,0,0,0,8.794-8.794V8.795A8.8,8.8,0,0,0,24.695,0H8.794A8.8,8.8,0,0,0,0,8.795v15.9A8.8,8.8,0,0,0,8.794,33.488ZM2.294,8.795a6.507,6.507,0,0,1,6.5-6.5h15.9a6.507,6.507,0,0,1,6.5,6.5v15.9a6.507,6.507,0,0,1-6.5,6.5H8.794a6.507,6.507,0,0,1-6.5-6.5Z" transform="translate(0 -0.001)" fill="#fff"/>
  <path id="Path_983" data-name="Path 983" d="M10.7,30.114H25.62a4.868,4.868,0,0,0,4.97-4.748A8.723,8.723,0,0,0,28.343,19l-2.922-2.959a4.2,4.2,0,0,0-6.291-.1l-3.145,3.05a20.354,20.354,0,0,0-1.392,1.531,12.749,12.749,0,0,1-1.071,1.168l-.219-.168c-1.344-1.031-2.652-1.956-3.9-1.956a2.091,2.091,0,0,0-1.334.457,7.959,7.959,0,0,0-2.341,5.693A4.715,4.715,0,0,0,10.7,30.114Zm-1.252-8.25a8.213,8.213,0,0,1,2.458,1.48c.218.167.409.314.561.421a1.754,1.754,0,0,0,1.014.327c1.1,0,1.914-.967,2.861-2.085.4-.468.807-.952,1.234-1.363l3.145-3.05a1.9,1.9,0,0,1,3.064.057l2.922,2.959a6.545,6.545,0,0,1,1.587,4.757,2.575,2.575,0,0,1-2.676,2.454H10.7a2.445,2.445,0,0,1-2.676-2.1A5.951,5.951,0,0,1,9.448,21.864Z" transform="translate(-1.348 -3.43)" fill="#fff"/>
  <circle id="Ellipse_443" data-name="Ellipse 443" cx="2.748" cy="2.748" r="2.748" transform="translate(8.524 8.823)" fill="#fff"/>
</svg>
