<svg xmlns="http://www.w3.org/2000/svg" width="16.351" height="16.349" viewBox="0 0 16.351 16.349">
  <path id="Path_214" data-name="Path 214" d="M14.092.232.808,7.892A1.533,1.533,0,0,0,.99,10.635l3.65,1.51v2.7a1.535,1.535,0,0,0,2.765.913l1.4-1.887,3.573,1.475a1.536,1.536,0,0,0,2.1-1.185l1.9-12.364A1.536,1.536,0,0,0,14.092.232ZM6.173,14.841V12.778l1.169.482Zm6.789-.916L8.051,11.9l4.477-6.46a.512.512,0,0,0-.757-.677L5.017,10.645,1.575,9.221,14.859,1.557Z" transform="translate(-0.043 -0.025)" fill="#84878e"/>
</svg>
