<svg xmlns="http://www.w3.org/2000/svg" width="18" height="14.4" viewBox="0 0 18 14.4">
  <path id="Path_754" data-name="Path 754" d="M8.1,8.018a.279.279,0,0,0,.394,0L11.81,4.736a.279.279,0,0,0,0-.394l-.653-.658a.279.279,0,0,0-.394,0L8.308,6.12,7.242,5.046a.279.279,0,0,0-.394,0L6.19,5.7a.279.279,0,0,0,0,.394L8.1,8.018ZM16.65,7.65H14.4V1.074A1,1,0,0,0,13.492,0H4.508A1,1,0,0,0,3.6,1.074V7.65H1.35A1.35,1.35,0,0,0,0,9v4.05A1.35,1.35,0,0,0,1.35,14.4h15.3A1.35,1.35,0,0,0,18,13.05V9A1.35,1.35,0,0,0,16.65,7.65Zm-3.6-6.3v9H4.95v-9Zm3.6,11.7H1.35V9H3.6v1.35H2.97a.251.251,0,0,0-.27.225v.9a.251.251,0,0,0,.27.225H15.03a.251.251,0,0,0,.27-.225v-.9a.251.251,0,0,0-.27-.225H14.4V9h2.25Z" fill="#84878e"/>
</svg>
