<svg id="Group_2101" data-name="Group 2101" xmlns="http://www.w3.org/2000/svg" width="110.304" height="33.703" viewBox="0 0 110.304 33.703">
  <path id="Path_663" data-name="Path 663" d="M-1136.974,2332.073a9.719,9.719,0,0,0-1.852-.4,16.619,16.619,0,0,1-9.849-6.72c-.09-.131-.169-.27-.3-.477a9.369,9.369,0,0,1,2.206-.256c4.174-.317,8.353-.588,12.53-.874a3.432,3.432,0,0,1,.416,0c1.044.04,1.524.74,1.087,1.677-.706,1.551-1.454,3.083-2.186,4.623-.278.582-.553,1.164-.834,1.745a1.362,1.362,0,0,1-.526.682Z" transform="translate(1152.005 -2298.382)" fill="#2b3f83"/>
  <path id="Path_664" data-name="Path 664" d="M-510.326,2254.3c-.091.069-.185.135-.274.207a1.118,1.118,0,0,1-1.942-.733c-.026-.152-.02-.313-.035-.556a7.167,7.167,0,0,1-2.525,1.465,4.9,4.9,0,0,1-4.2-.535,5.567,5.567,0,0,1-2.694-5.424c.21-4.029,3.811-6.383,7.707-5.254a5.574,5.574,0,0,1,3.811,4.087c.04.13.015.281.152.368Zm-5.783-1.381a3.616,3.616,0,0,0,3.694-3.812,3.872,3.872,0,0,0-3.659-4.008,3.857,3.857,0,0,0-3.837,3.976,3.664,3.664,0,0,0,3.8,3.84Z" transform="translate(620.616 -2230.448)" fill="#3e3b46"/>
  <path id="Path_665" data-name="Path 665" d="M-1047.5,2342.438c-.093-.627.3-1.091.546-1.6.7-1.476,1.4-2.95,2.134-4.4.553-1.078,1.279-1.157,2.015-.2.855,1.113,1.625,2.287,2.439,3.43.248.346.055.458-.227.61a16.038,16.038,0,0,1-5.729,1.928,1.466,1.466,0,0,0-.915.233Z" transform="translate(1066.005 -2308.748)" fill="#fbbc09"/>
  <path id="Path_666" data-name="Path 666" d="M-1167.112,2199.1a16.458,16.458,0,0,1,5.572-12.44c.66-.6.689-.61,1.189.079,1.208,1.663,2.394,3.344,3.581,5.022a1.79,1.79,0,0,1,.053,1.959q-.915,1.866-1.767,3.757a.957.957,0,0,0,.389,1.372,1.048,1.048,0,0,0,1.448-.391,5.691,5.691,0,0,0,.427-.79c.174-.351.317-.718.5-1.067.634-1.169,1.468-1.245,2.23-.178q2.379,3.328,4.726,6.68c.692.993.286,1.84-.915,1.91-5.152.305-10.288.833-15.445,1.067-.457.02-.561-.215-.686-.518A16.16,16.16,0,0,1-1167.112,2199.1Z" transform="translate(1167.372 -2182.164)" fill="#4064ec"/>
  <path id="Path_667" data-name="Path 667" d="M-1077.662,2171a1.692,1.692,0,0,1,.2-.8q2-4.176,4-8.356a.9.9,0,0,1,1.1-.636,17.045,17.045,0,0,1,9.873,4.772.612.612,0,0,1,.132.838c-2.134,4.494-4.255,9-6.4,13.487-.666,1.4-1.677,1.475-2.569.215-1.982-2.787-3.939-5.586-5.909-8.385A1.87,1.87,0,0,1-1077.662,2171Z" transform="translate(1091.56 -2160.962)" fill="#2b3f83"/>
  <path id="Path_668" data-name="Path 668" d="M-871.5,2205.489v7.969c0,.5-.055,1.023-.61,1.265a1.066,1.066,0,0,1-1.61-1.038c-.015-1.829-.029-3.65.008-5.474.014-.639-.183-.846-.829-.836-2.061.035-4.125.009-6.188.014-1.154,0-1.2.055-1.2,1.2,0,1.709-.011,3.418,0,5.127a1.025,1.025,0,0,1-.866,1.143,1.186,1.186,0,0,1-1.328-.93,2.4,2.4,0,0,1-.032-.482v-12.68c0-1.009.457-1.406,1.4-1.288a.84.84,0,0,1,.82.983c-.009,1.455.015,2.911-.011,4.365,0,.483.142.639.631.634,2.317-.021,4.636-.027,6.952,0,.558,0,.645-.213.64-.7-.02-2.426,0-4.851-.011-7.277a1.452,1.452,0,0,1,.418-1.192,1.034,1.034,0,0,1,.956-.255,1.036,1.036,0,0,1,.733.665,2.4,2.4,0,0,1,.117.884Q-871.506,2201.54-871.5,2205.489Z" transform="translate(927.557 -2190.464)" fill="#3e3b46"/>
  <path id="Path_669" data-name="Path 669" d="M-1007.605,2228.875c-1.163.055-1.692-.681-1.2-1.732q2.709-5.723,5.438-11.426a1.077,1.077,0,0,1,1.023-.7,1.094,1.094,0,0,1,1.046.664,16.252,16.252,0,0,1,1.866,6.25,16.175,16.175,0,0,1-.123,4.133c-.09.534-.252,1.049-.337,1.587-.09.573-.585.779-1.145.813Q-1004.32,2228.666-1007.605,2228.875Z" transform="translate(1033.355 -2206.577)" fill="#4064ec"/>
  <path id="Path_670" data-name="Path 670" d="M-701.893,2252.9v4.513a1.076,1.076,0,0,1-1.134,1.169,1.219,1.219,0,0,1-1.015-1.392,13.725,13.725,0,0,0,.056-2.277q.023-3.049,0-6.1a5.341,5.341,0,0,1,3.279-5.237,5.816,5.816,0,0,1,6.988,1.511,6.1,6.1,0,0,1-1.255,8.875,5.128,5.128,0,0,1-6.4-.611C-701.512,2253.235-701.646,2253.116-701.893,2252.9Zm3.714-.129a3.564,3.564,0,0,0,3.746-3.871c-.066-2.006-1.032-4.151-4.36-3.906-1.468.106-2.993,1.386-3.131,3.768-.117,2,1.628,4.3,3.746,4.007Z" transform="translate(774.914 -2230.302)" fill="#3e3b46"/>
  <path id="Path_671" data-name="Path 671" d="M-611.424,2225.923c0-2.1-.012-4.2,0-6.3.009-1.119.77-1.761,1.7-1.524.663.172.781.667.791,1.22.023,1.038.017,2.076,0,3.115,0,.449.015.671.541.333a5.431,5.431,0,0,1,5.653-.235,3.933,3.933,0,0,1,2.163,2.786c.5,2.327.192,4.683.258,7.025a1.066,1.066,0,0,1-1.105,1.208c-.744-.051-1.107-.468-1.107-1.282,0-1.709.02-3.417-.008-5.124-.026-1.551-.582-2.8-2.235-3.217-1.9-.481-4.345.458-4.179,2.907.117,1.745.026,3.507.021,5.26,0,.93-.445,1.465-1.194,1.458a1.3,1.3,0,0,1-1.3-1.462Q-611.425,2229-611.424,2225.923Z" transform="translate(696.407 -2209.146)" fill="#3e3b46"/>
  <path id="Path_672" data-name="Path 672" d="M-780.625,2251.847c.779-1.524,1.389-3.108,2.035-4.673.412-1,.826-1.991,1.275-2.969a.922.922,0,0,1,1.393-.555c.646.26.79.556.479,1.328-.817,2.021-1.665,4.029-2.517,6.037-.762,1.8-1.549,3.594-2.325,5.387-.271.628-.535,1.258-.82,1.879a1.058,1.058,0,0,1-1.281.624,1.014,1.014,0,0,1-.54-1.525c.438-.986.832-1.982,1.259-2.981a.5.5,0,0,0-.04-.506q-1.331-2.451-2.633-4.92c-.665-1.26-1.339-2.516-1.968-3.793-.458-.924-.27-1.359.546-1.625a.908.908,0,0,1,1.182.562c.585,1.245,1.2,2.477,1.829,3.693A43.424,43.424,0,0,0-780.625,2251.847Z" transform="translate(844.829 -2230.713)" fill="#3e3b46"/>
  <path id="Path_673" data-name="Path 673" d="M-1106.264,2160.42c-1.081,2.237-2.072,4.362-3.136,6.451a1.037,1.037,0,0,1-1.8.181c-.983-1.249-1.878-2.569-2.8-3.865-.261-.366.124-.425.3-.532a15.907,15.907,0,0,1,5.238-1.923C-1107.775,2160.612-1107.09,2160.536-1106.264,2160.42Z" transform="translate(1122.431 -2160.301)" fill="#3952ae"/>
  <path id="Path_674" data-name="Path 674" d="M-1001.98,2317.3c.807-.053,1.613-.11,2.419-.16.409-.026.558.1.343.52a17.345,17.345,0,0,1-4.185,5.275c-.256.219-.405.208-.6-.072-.8-1.155-1.646-2.287-2.419-3.453-.624-.947-.152-1.793.985-1.878s2.3-.16,3.456-.24Z" transform="translate(1031.415 -2293.127)" fill="#3952ae"/>
  <rect id="Rectangle_510" data-name="Rectangle 510" width="110.304" height="33.703" fill="none"/>
  <rect id="Rectangle_511" data-name="Rectangle 511" width="110.304" height="33.703" fill="none"/>
</svg>
