<svg xmlns="http://www.w3.org/2000/svg" viewBox="0 0 263.68 80.41"><defs><style>.cls-1{fill:#e8ecd7;}.cls-2{fill:#3f65ef;}.cls-3{fill:#293e83;}.cls-4{fill:#3550af;}.cls-5{fill:#ffbc00;}</style></defs><g id="Layer_2" data-name="Layer 2"><g id="Layer_2-2" data-name="Layer 2"><path class="cls-1" d="M1.64,28.91l.12-.41Z"/><path class="cls-1" d="M1.83,28.26A39.58,39.58,0,0,1,6.06,19,38.45,38.45,0,0,0,1.83,28.26Z"/><path class="cls-1" d="M37.89,0,37.5,0l.39,0Z"/><path class="cls-1" d="M1.76,28.5c0-.08.05-.16.07-.24C1.81,28.34,1.78,28.42,1.76,28.5Z"/><path class="cls-1" d="M1.64,28.91C1.32,30,1,31.09.81,32.21c.15-.65.29-1.3.46-1.94C1.38,29.81,1.51,29.36,1.64,28.91Z"/><path class="cls-2" d="M9.09,56.84c5.15-.33,10.29-.74,15.43-1.12,5.8-.43,11.59-.87,17.39-1.25a2.6,2.6,0,0,0,2.49-1.32,2.76,2.76,0,0,0-.22-2.77l-.37-.51q-5.66-8.11-11.4-16.18c-1.58-2.2-3.66-2-5,.38-.69,1.27-1.21,2.63-1.86,3.93-.91,1.85-2.31,2.53-3.81,1.9s-1.92-2.11-1-4c1.34-2.9,2.68-5.79,4.12-8.63a4.11,4.11,0,0,0-.36-4.82c-2.63-3.55-5.09-7.23-7.65-10.84C16.3,10.78,15.65,10,15,9.17c-.6.43-1,.68-1.4,1A41.67,41.67,0,0,0,6.06,19a39.58,39.58,0,0,0-4.23,9.22c0,.08-.05.16-.07.24l-.12.41c-.13.45-.26.9-.37,1.36-.17.64-.31,1.29-.46,1.94A40.86,40.86,0,0,0,0,40.32,40.12,40.12,0,0,0,2.78,55.06a16,16,0,0,0,.93,2C5.62,57,7.37,57,9.09,56.84Z"/><path class="cls-3" d="M43,1.14q-5,10.4-9.92,20.79a4,4,0,0,0,.51,4.45c4.72,6.61,9.49,13.19,14,19.93,2.29,3.42,4.74,3.16,6.43-.56C58,37.11,62.19,28.59,66.26,20c1.16-2.44,2.28-4.9,3.47-7.45a40.6,40.6,0,0,0-12.68-9A42.16,42.16,0,0,0,43.77.1,8.24,8.24,0,0,0,43,1.14Z"/><path class="cls-3" d="M37.74,79.9C40.36,74.42,43,69,45.56,63.43c.93-2-.36-3.79-2.67-3.78-1.88,0-3.77.26-5.65.39-7.17.47-14.34.93-21.52,1.42-3,.2-5.9.49-9.11.76a28.26,28.26,0,0,0,2,3,40.8,40.8,0,0,0,5.73,6,42.09,42.09,0,0,0,13.58,7.58l.35.11.37.12.42.12a30.63,30.63,0,0,0,8.29,1.28C37.45,80.21,37.65,80.09,37.74,79.9Z"/><path class="cls-2" d="M61,53.11c5.44-.28,10.87-.64,16.3-1h0a2.58,2.58,0,0,0,2.27-2A40.51,40.51,0,0,0,76,21.26a2.6,2.6,0,0,0-4.64.11L58,49.41a2.62,2.62,0,0,0,0,2.16C58.65,53,59.17,53.2,61,53.11Z"/><path class="cls-4" d="M25.76,15.21c1.62,2.22,3.88,2,5.12-.43s2.26-4.69,3.37-7S36.51,2.93,37.89,0L37.5,0a45.06,45.06,0,0,0-8.26,1.46,39.81,39.81,0,0,0-8,3.28c-.68.37-1.34.76-2,1.17C21.5,9.2,23.59,12.23,25.76,15.21Z"/><path class="cls-5" d="M50,66.41c-2.06,4.22-4.07,8.47-6.08,12.71a8.32,8.32,0,0,0-.37,1.29,40,40,0,0,0,17.82-5.66c-2.15-3.08-4.1-5.94-6.13-8.75C53.33,63.41,51.36,63.56,50,66.41Z"/><path class="cls-4" d="M76.06,57.38c-4.93.31-9.86.58-14.78,1a2.62,2.62,0,0,0-2.11,4.25c1.34,2.15,2.89,4.17,4.35,6.24l2.14,3A40.39,40.39,0,0,0,76.92,57.55,4.63,4.63,0,0,0,76.06,57.38Z"/><path class="cls-1" d="M131,13a2.6,2.6,0,0,0-1.88.73,2.53,2.53,0,0,0-.76,1.91V35.73H108.75v-12A2.53,2.53,0,0,0,106.11,21a2.6,2.6,0,0,0-1.88.74,2.51,2.51,0,0,0-.76,1.9V55.55A2.67,2.67,0,0,0,108,57.43a2.62,2.62,0,0,0,.74-1.88V40.41h19.62V55.55A2.6,2.6,0,0,0,131,58.19a2.49,2.49,0,0,0,1.88-.76,2.68,2.68,0,0,0,.71-1.88V15.61a2.65,2.65,0,0,0-.71-1.91A2.5,2.5,0,0,0,131,13Z"/><path class="cls-1" d="M164.42,30.69a2.21,2.21,0,0,0-3.2,1.22l-8,18.9-9.56-19a2.33,2.33,0,0,0-3.15-1.22,2.41,2.41,0,0,0-1.34,1.3,2.06,2.06,0,0,0,.12,1.85L151,55.85a.86.86,0,0,0,.1.16l-3.5,8.14a2.32,2.32,0,0,0,1.24,3.16A2.43,2.43,0,0,0,152,66l13.67-32.1A2.11,2.11,0,0,0,164.42,30.69Z"/><path class="cls-1" d="M190.38,32.05a14.7,14.7,0,0,0-14.28,0,13.59,13.59,0,0,0-5,5.06,14.79,14.79,0,0,0-1.88,7.21V65a2.65,2.65,0,0,0,4.48,1.85,2.57,2.57,0,0,0,.71-1.85V53.77a13,13,0,0,0,4.29,3.38,12.89,12.89,0,0,0,12.17-.61,13.23,13.23,0,0,0,4.64-5,14.92,14.92,0,0,0,1.71-7.19,14.06,14.06,0,0,0-1.86-7.21A13.71,13.71,0,0,0,190.38,32.05Zm.68,17.12a9,9,0,0,1-3.22,3.4,9.13,9.13,0,0,1-9.22,0,8.8,8.8,0,0,1-3.23-3.4,10,10,0,0,1-1.17-4.85,10.11,10.11,0,0,1,1.17-4.9A8.83,8.83,0,0,1,178.62,36a9.19,9.19,0,0,1,9.22,0,9,9,0,0,1,3.22,3.41,9.91,9.91,0,0,1,1.2,4.9A9.8,9.8,0,0,1,191.06,49.17Z"/><path class="cls-1" d="M223.75,31.64a13,13,0,0,0-6.26-1.49,12.27,12.27,0,0,0-6,1.47,7.4,7.4,0,0,0-2.55,1.92V23.63A2.49,2.49,0,0,0,206.29,21a3.27,3.27,0,0,0-2.12.71,2.75,2.75,0,0,0-1,1.88v32a2.78,2.78,0,0,0,1,1.85,2.83,2.83,0,0,0,2,.74,2.7,2.7,0,0,0,2-.74,2.62,2.62,0,0,0,.81-1.85V41.32a5.63,5.63,0,0,1,1-3.33,7.18,7.18,0,0,1,2.72-2.31,8.55,8.55,0,0,1,3.86-.86,9.26,9.26,0,0,1,4.13.89,6.44,6.44,0,0,1,2.75,2.72,9.34,9.34,0,0,1,.94,4.72v12.5a2.63,2.63,0,0,0,.86,1.85,2.66,2.66,0,0,0,1.92.74,2.43,2.43,0,0,0,1.81-.74,2.49,2.49,0,0,0,.7-1.85V43.15A14.49,14.49,0,0,0,228.08,36,10.8,10.8,0,0,0,223.75,31.64Z"/><path class="cls-1" d="M261.83,37.11a13.66,13.66,0,0,0-12.12-6.91,14,14,0,0,0-7.14,1.85,13.69,13.69,0,0,0-5,5.06,14.06,14.06,0,0,0-1.86,7.21,15,15,0,0,0,1.7,7.19,13.34,13.34,0,0,0,4.65,5,12.9,12.9,0,0,0,13.31,0,13.06,13.06,0,0,0,3.15-2.82v1.93a2.59,2.59,0,1,0,5.18,0V44.32A14.15,14.15,0,0,0,261.83,37.11Zm-4.29,12.06a8.88,8.88,0,0,1-3.2,3.4,9.14,9.14,0,0,1-9.23,0,9,9,0,0,1-3.25-3.4,9.9,9.9,0,0,1-1.19-4.85,10,10,0,0,1,1.19-4.9A9,9,0,0,1,245.11,36a9.21,9.21,0,0,1,9.23,0,8.91,8.91,0,0,1,3.2,3.41,10.22,10.22,0,0,1,1.16,4.9A10.11,10.11,0,0,1,257.54,49.17Z"/></g></g></svg>