<svg xmlns="http://www.w3.org/2000/svg" width="650.761" height="186.335" viewBox="0 0 650.761 186.335">
  <g id="Group_2119" data-name="Group 2119" transform="translate(-920.387 -458.758)">
    <g id="Group_2103" data-name="Group 2103" transform="translate(701.4 -238.305)">
      <path id="Path_675" data-name="Path 675" d="M976.079,431.23a.316.316,0,0,1-.331-.331v-8.594a.316.316,0,0,1,.331-.331h1.706a.344.344,0,0,1,.245.092.313.313,0,0,1,.1.239v3.187h3.252v-3.187a.316.316,0,0,1,.331-.331h1.706a.317.317,0,0,1,.33.331V430.9a.328.328,0,0,1-.093.232.31.31,0,0,1-.237.1h-1.706a.312.312,0,0,1-.238-.1.33.33,0,0,1-.093-.232v-3.292h-3.252V430.9a.319.319,0,0,1-.1.232.33.33,0,0,1-.245.1Zm10.657,2.513a.271.271,0,0,1-.278-.278.606.606,0,0,1,.007-.072.339.339,0,0,1,.033-.1l1.031-2.486-2.539-6a.418.418,0,0,1-.04-.159.433.433,0,0,1,.106-.2.258.258,0,0,1,.2-.086h1.507a.35.35,0,0,1,.258.086.529.529,0,0,1,.126.192l1.507,3.848,1.547-3.848a.731.731,0,0,1,.139-.192.35.35,0,0,1,.258-.086h1.481a.278.278,0,0,1,.2.086.264.264,0,0,1,.086.192.521.521,0,0,1-.04.172l-3.742,8.66a.5.5,0,0,1-.132.192.376.376,0,0,1-.265.086Zm6.942,0a.314.314,0,0,1-.238-.1.33.33,0,0,1-.093-.231v-8.727a.316.316,0,0,1,.331-.331h1.494a.33.33,0,0,1,.232.092.313.313,0,0,1,.1.239v.476a2.634,2.634,0,0,1,.82-.668,2.557,2.557,0,0,1,1.23-.271,3.057,3.057,0,0,1,1.163.2,2.368,2.368,0,0,1,.866.6,2.741,2.741,0,0,1,.562.965,4.442,4.442,0,0,1,.225,1.309c.009.176.013.339.013.489s0,.313-.013.489a4.37,4.37,0,0,1-.225,1.283,2.808,2.808,0,0,1-.555.965,2.446,2.446,0,0,1-.866.615,2.944,2.944,0,0,1-1.17.218,2.593,2.593,0,0,1-1.131-.231,2.149,2.149,0,0,1-.8-.654v2.935a.33.33,0,0,1-.093.231.313.313,0,0,1-.238.1Zm3.16-4.152a1.159,1.159,0,0,0,.7-.186,1.027,1.027,0,0,0,.364-.5,2.657,2.657,0,0,0,.139-.7,6.313,6.313,0,0,0,0-.82,2.653,2.653,0,0,0-.139-.7,1.029,1.029,0,0,0-.364-.5,1.159,1.159,0,0,0-.7-.185,1.141,1.141,0,0,0-.688.192,1.094,1.094,0,0,0-.383.5,2.263,2.263,0,0,0-.145.661c-.009.167-.013.331-.013.489s0,.326.013.5a1.608,1.608,0,0,0,.145.615,1.122,1.122,0,0,0,.4.462A1.176,1.176,0,0,0,996.838,429.591Zm5.183,1.639a.309.309,0,0,1-.238-.1.33.33,0,0,1-.093-.232v-8.726a.317.317,0,0,1,.331-.331h1.692a.317.317,0,0,1,.331.331v2.948a2.621,2.621,0,0,1,.879-.654,2.823,2.823,0,0,1,1.21-.245,2.708,2.708,0,0,1,1.368.344,2.391,2.391,0,0,1,.945,1,3.523,3.523,0,0,1,.344,1.64V430.9a.331.331,0,0,1-.093.232.31.31,0,0,1-.238.1h-1.706a.338.338,0,0,1-.331-.331v-3.609a1.4,1.4,0,0,0-.3-.959,1.094,1.094,0,0,0-.866-.337,1.184,1.184,0,0,0-.886.337,1.313,1.313,0,0,0-.331.959V430.9a.331.331,0,0,1-.093.232.31.31,0,0,1-.238.1Zm10.327.133a2.9,2.9,0,0,1-1.276-.271,2.3,2.3,0,0,1-.893-.734,1.756,1.756,0,0,1-.331-1.045,1.735,1.735,0,0,1,.767-1.488,4.71,4.71,0,0,1,2.036-.747l1.653-.251v-.185a1.152,1.152,0,0,0-.2-.727.882.882,0,0,0-.727-.251,1.114,1.114,0,0,0-.6.145,1.014,1.014,0,0,0-.364.4.38.38,0,0,1-.33.172H1010.6a.292.292,0,0,1-.225-.086.249.249,0,0,1-.066-.2,1.14,1.14,0,0,1,.178-.549,2.309,2.309,0,0,1,.549-.614,3.014,3.014,0,0,1,.952-.5,4.415,4.415,0,0,1,1.415-.2,4.716,4.716,0,0,1,1.454.2,2.628,2.628,0,0,1,.992.555,2.151,2.151,0,0,1,.562.84,3.044,3.044,0,0,1,.179,1.064V430.9a.338.338,0,0,1-.33.331h-1.534a.309.309,0,0,1-.238-.1.329.329,0,0,1-.093-.232v-.462a1.914,1.914,0,0,1-.463.462,2.373,2.373,0,0,1-.681.337A2.952,2.952,0,0,1,1012.347,431.363Zm.621-1.507a1.458,1.458,0,0,0,.694-.165,1.16,1.16,0,0,0,.489-.516,1.925,1.925,0,0,0,.178-.879v-.185l-1.124.2a2.088,2.088,0,0,0-.906.324.631.631,0,0,0-.284.509.583.583,0,0,0,.132.383.853.853,0,0,0,.351.245A1.279,1.279,0,0,0,1012.969,429.856Zm5.421-3.253a.339.339,0,0,1-.331-.331v-1.6a.339.339,0,0,1,.331-.331h1.679a.33.33,0,0,1,.245.1.316.316,0,0,1,.1.231v1.6a.317.317,0,0,1-.1.231.332.332,0,0,1-.245.1Zm0,4.627a.338.338,0,0,1-.331-.331v-1.6a.339.339,0,0,1,.331-.331h1.679a.33.33,0,0,1,.245.1.316.316,0,0,1,.1.231v1.6a.318.318,0,0,1-.1.232.332.332,0,0,1-.245.1Z" transform="translate(-542.857 430.218)" fill="#fff"/>
      <path id="Path_676" data-name="Path 676" d="M1049.464,431.827a.271.271,0,0,1-.264-.264.414.414,0,0,1,.04-.159l4.522-10.843a.723.723,0,0,1,.112-.158.3.3,0,0,1,.231-.079h.516a.271.271,0,0,1,.264.264.715.715,0,0,1-.026.159l-4.535,10.842a.545.545,0,0,1-.106.152.31.31,0,0,1-.238.086Zm7.656-1.111a.291.291,0,0,1-.225-.085.309.309,0,0,1-.079-.218v-8.634a.328.328,0,0,1,.079-.232.291.291,0,0,1,.225-.085h.608a.339.339,0,0,1,.238.073.331.331,0,0,1,.093.112l4.39,6.743v-6.611a.329.329,0,0,1,.079-.232.292.292,0,0,1,.225-.085h.635a.3.3,0,0,1,.317.317V430.4a.319.319,0,0,1-.086.225.285.285,0,0,1-.218.092h-.635a.279.279,0,0,1-.218-.079c-.048-.052-.081-.088-.1-.105l-4.377-6.677v6.558a.3.3,0,0,1-.086.218.314.314,0,0,1-.231.085Zm11.53.133a3.361,3.361,0,0,1-1.679-.383,2.58,2.58,0,0,1-1.031-1.065,3.658,3.658,0,0,1-.4-1.553q-.013-.225-.013-.575t.013-.562a3.576,3.576,0,0,1,.4-1.56,2.632,2.632,0,0,1,1.038-1.058,3.811,3.811,0,0,1,3.332,0,2.627,2.627,0,0,1,1.038,1.058,3.573,3.573,0,0,1,.4,1.56q.013.211.013.562t-.013.575a3.658,3.658,0,0,1-.4,1.553,2.581,2.581,0,0,1-1.031,1.065A3.362,3.362,0,0,1,1068.649,430.848Zm0-1.018a1.709,1.709,0,0,0,1.309-.522,2.293,2.293,0,0,0,.529-1.527c.009-.132.013-.3.013-.5s0-.371-.013-.5a2.29,2.29,0,0,0-.529-1.527,1.706,1.706,0,0,0-1.309-.522,1.728,1.728,0,0,0-1.316.522,2.226,2.226,0,0,0-.522,1.527c-.009.132-.013.3-.013.5s0,.37.013.5a2.229,2.229,0,0,0,.522,1.527A1.731,1.731,0,0,0,1068.649,429.83Zm7.338,1.018a2.607,2.607,0,0,1-1.435-.378,2.375,2.375,0,0,1-.893-1.05,3.735,3.735,0,0,1-.3-1.547v-3.729a.295.295,0,0,1,.3-.3h.661a.294.294,0,0,1,.3.3v3.663q0,1.97,1.72,1.97a1.731,1.731,0,0,0,1.315-.522,2.022,2.022,0,0,0,.5-1.448v-3.663a.293.293,0,0,1,.3-.3h.661a.273.273,0,0,1,.212.086.309.309,0,0,1,.08.218v6.267a.311.311,0,0,1-.08.218.275.275,0,0,1-.212.085h-.621a.293.293,0,0,1-.3-.3v-.582a2.759,2.759,0,0,1-.865.74A2.8,2.8,0,0,1,1075.988,430.848Zm5.7-.133a.293.293,0,0,1-.3-.3v-6.267a.294.294,0,0,1,.3-.3h.621a.294.294,0,0,1,.3.3v.582a2.68,2.68,0,0,1,.866-.734,2.788,2.788,0,0,1,1.342-.284,2.7,2.7,0,0,1,1.46.377,2.394,2.394,0,0,1,.913,1.045,3.647,3.647,0,0,1,.311,1.554v3.729a.293.293,0,0,1-.3.3h-.661a.292.292,0,0,1-.3-.3v-3.663a2.144,2.144,0,0,0-.45-1.448,1.646,1.646,0,0,0-1.322-.522,1.728,1.728,0,0,0-1.315.522,2.016,2.016,0,0,0-.5,1.448v3.663a.293.293,0,0,1-.3.3Zm10.578,1.111a.273.273,0,0,1-.265-.264.405.405,0,0,1,.04-.159l4.522-10.843a.7.7,0,0,1,.112-.158.3.3,0,0,1,.231-.079h.516a.27.27,0,0,1,.264.264.735.735,0,0,1-.026.159l-4.535,10.842a.541.541,0,0,1-.106.152.31.31,0,0,1-.238.086Z" transform="translate(-567.748 430.733)" fill="#fff"/>
      <text id="_" data-name="ˈ" transform="translate(530.275 855.549)" fill="#fff" font-size="7" font-family="ArialMT, Arial"><tspan x="0" y="0">ˈ</tspan></text>
      <path id="Path_677" data-name="Path 677" d="M1131.512,431.027a.293.293,0,0,1-.3-.3v-8.78a.294.294,0,0,1,.3-.3h.661a.29.29,0,0,1,.225.086.307.307,0,0,1,.079.217v3.081a2.785,2.785,0,0,1,.873-.727,2.745,2.745,0,0,1,1.309-.278,2.7,2.7,0,0,1,1.461.377,2.4,2.4,0,0,1,.912,1.045,3.649,3.649,0,0,1,.311,1.554v3.729a.31.31,0,0,1-.079.218.293.293,0,0,1-.225.085h-.661a.293.293,0,0,1-.3-.3v-3.663a2.148,2.148,0,0,0-.45-1.448,1.649,1.649,0,0,0-1.322-.522,1.749,1.749,0,0,0-1.322.522,2,2,0,0,0-.5,1.448v3.663a.31.31,0,0,1-.079.218.292.292,0,0,1-.225.085Zm6.876-8.158a.273.273,0,0,1-.291-.291v-.41a.273.273,0,0,1,.291-.291h2.948a.3.3,0,0,1,.225.079.285.285,0,0,1,.079.212v.41a.286.286,0,0,1-.079.212.3.3,0,0,1-.225.079Zm1.163,8.158a.293.293,0,0,1-.3-.3v-6.267a.294.294,0,0,1,.3-.3h.635a.294.294,0,0,1,.3.3v6.267a.293.293,0,0,1-.3.3Zm3.887,0a.293.293,0,0,1-.3-.3V425.21h-1.124a.294.294,0,0,1-.3-.3v-.45a.294.294,0,0,1,.3-.3h1.124v-.661a2.9,2.9,0,0,1,.224-1.183,1.638,1.638,0,0,1,.721-.787,2.719,2.719,0,0,1,1.329-.278h.793a.294.294,0,0,1,.3.3V422a.294.294,0,0,1-.3.3h-.767a.962.962,0,0,0-.846.324,1.624,1.624,0,0,0-.225.932v.595h1.706a.294.294,0,0,1,.3.3v.45a.294.294,0,0,1-.3.3h-1.706v5.514a.293.293,0,0,1-.3.3Z" transform="translate(-595.54 430.421)" fill="#fff"/>
      <text id="ə" transform="translate(551.013 857.549)" fill="#fff" font-size="9" font-family="ArialMT, Arial"><tspan x="0" y="0">ə</tspan></text>
      <path id="Path_678" data-name="Path 678" d="M1166.322,431.827a.271.271,0,0,1-.265-.264.416.416,0,0,1,.04-.159l4.522-10.843a.693.693,0,0,1,.113-.158.3.3,0,0,1,.231-.079h.516a.271.271,0,0,1,.264.264.774.774,0,0,1-.026.159l-4.535,10.842a.546.546,0,0,1-.106.152.31.31,0,0,1-.238.086Zm12.733-.978a2.884,2.884,0,0,1-2.182-.84,3.459,3.459,0,0,1-.886-2.294c-.009-.115-.013-.263-.013-.443s0-.329.013-.443a3.868,3.868,0,0,1,.436-1.647,2.715,2.715,0,0,1,1.051-1.09,3.088,3.088,0,0,1,1.567-.383,3.137,3.137,0,0,1,1.686.423,2.7,2.7,0,0,1,1.038,1.2,4.345,4.345,0,0,1,.357,1.825v.225a.293.293,0,0,1-.086.225.314.314,0,0,1-.219.079h-4.574v.119a2.747,2.747,0,0,0,.238,1.011,1.86,1.86,0,0,0,.615.761,1.573,1.573,0,0,0,.945.291,1.9,1.9,0,0,0,.793-.146,2,2,0,0,0,.516-.324,1.55,1.55,0,0,0,.264-.284.687.687,0,0,1,.185-.192.49.49,0,0,1,.211-.034h.648a.306.306,0,0,1,.2.073.223.223,0,0,1,.073.2,1.026,1.026,0,0,1-.211.482,2.606,2.606,0,0,1-.562.563,3.068,3.068,0,0,1-.9.456A3.819,3.819,0,0,1,1179.055,430.848Zm-1.812-4.072h3.623v-.04a2.453,2.453,0,0,0-.218-1.058,1.76,1.76,0,0,0-.628-.733,1.732,1.732,0,0,0-.979-.271,1.7,1.7,0,0,0-.972.271,1.726,1.726,0,0,0-.615.733,2.515,2.515,0,0,0-.211,1.058Zm8.382,4.072a2.717,2.717,0,0,1-1.2-.264,2.337,2.337,0,0,1-.873-.714,1.678,1.678,0,0,1-.331-1.018,1.711,1.711,0,0,1,.741-1.454,4.247,4.247,0,0,1,1.931-.714l1.969-.278v-.383a1.326,1.326,0,0,0-.363-.992,1.647,1.647,0,0,0-1.183-.357,1.736,1.736,0,0,0-.953.238,1.272,1.272,0,0,0-.516.608.281.281,0,0,1-.277.2h-.6a.27.27,0,0,1-.218-.086.306.306,0,0,1-.073-.2,1.109,1.109,0,0,1,.152-.49,2,2,0,0,1,.469-.568,2.7,2.7,0,0,1,.814-.469,3.358,3.358,0,0,1,1.21-.192,3.791,3.791,0,0,1,1.335.2,2.146,2.146,0,0,1,.854.549,2.1,2.1,0,0,1,.449.78,2.9,2.9,0,0,1,.139.886v4.284a.294.294,0,0,1-.3.3h-.609a.291.291,0,0,1-.224-.085.307.307,0,0,1-.079-.218v-.569a2.441,2.441,0,0,1-1.19.853A3.292,3.292,0,0,1,1185.625,430.848Zm.278-.992a2.139,2.139,0,0,0,.991-.231,1.642,1.642,0,0,0,.707-.721,2.618,2.618,0,0,0,.258-1.229v-.37l-1.533.225a3.529,3.529,0,0,0-1.415.443.917.917,0,0,0-.476.787.89.89,0,0,0,.218.615,1.314,1.314,0,0,0,.555.364A2.085,2.085,0,0,0,1185.9,429.856Zm7.88.992a3.4,3.4,0,0,1-1.62-.364,2.527,2.527,0,0,1-1.051-1.045,3.574,3.574,0,0,1-.4-1.633c-.009-.132-.013-.309-.013-.529s0-.4.013-.529a3.572,3.572,0,0,1,.4-1.633,2.52,2.52,0,0,1,1.051-1.045,3.39,3.39,0,0,1,1.62-.364,3.653,3.653,0,0,1,1.316.212,2.786,2.786,0,0,1,.906.542,2.3,2.3,0,0,1,.535.714,1.911,1.911,0,0,1,.192.727.234.234,0,0,1-.08.212.334.334,0,0,1-.225.079h-.635a.289.289,0,0,1-.2-.059.641.641,0,0,1-.133-.206,1.758,1.758,0,0,0-.647-.912,1.848,1.848,0,0,0-1.018-.264,1.755,1.755,0,0,0-1.289.489,2.263,2.263,0,0,0-.536,1.573q-.013.476,0,.925a2.257,2.257,0,0,0,.536,1.58,1.77,1.77,0,0,0,1.289.483,1.848,1.848,0,0,0,1.018-.264,1.758,1.758,0,0,0,.647-.912.723.723,0,0,1,.133-.212.266.266,0,0,1,.2-.066h.635a.318.318,0,0,1,.225.086.249.249,0,0,1,.08.217,1.962,1.962,0,0,1-.119.569,2.186,2.186,0,0,1-.337.588,2.469,2.469,0,0,1-.576.53,2.916,2.916,0,0,1-.82.37A3.948,3.948,0,0,1,1193.784,430.848Zm4.839-.133a.293.293,0,0,1-.3-.3v-8.78a.294.294,0,0,1,.3-.3h.661a.29.29,0,0,1,.225.086.307.307,0,0,1,.079.217v3.082a2.782,2.782,0,0,1,.873-.727,2.743,2.743,0,0,1,1.309-.278,2.7,2.7,0,0,1,1.461.377,2.4,2.4,0,0,1,.913,1.045,3.651,3.651,0,0,1,.311,1.554v3.729a.31.31,0,0,1-.079.218.292.292,0,0,1-.225.085h-.661a.293.293,0,0,1-.3-.3v-3.663a2.148,2.148,0,0,0-.45-1.448,1.649,1.649,0,0,0-1.322-.522,1.749,1.749,0,0,0-1.322.522,2,2,0,0,0-.5,1.448v3.663a.31.31,0,0,1-.079.218.292.292,0,0,1-.225.085Zm13.79.133a3.36,3.36,0,0,1-1.679-.383,2.581,2.581,0,0,1-1.031-1.065,3.656,3.656,0,0,1-.4-1.553q-.013-.225-.013-.575t.013-.562a3.578,3.578,0,0,1,.4-1.56,2.632,2.632,0,0,1,1.038-1.058,3.811,3.811,0,0,1,3.332,0,2.628,2.628,0,0,1,1.038,1.058,3.571,3.571,0,0,1,.4,1.56c.01.141.013.328.013.562s0,.425-.013.575a3.656,3.656,0,0,1-.4,1.553,2.584,2.584,0,0,1-1.031,1.065A3.361,3.361,0,0,1,1212.414,430.848Zm0-1.018a1.709,1.709,0,0,0,1.309-.522,2.293,2.293,0,0,0,.529-1.527c.009-.132.013-.3.013-.5s0-.371-.013-.5a2.29,2.29,0,0,0-.529-1.527,1.706,1.706,0,0,0-1.309-.522,1.727,1.727,0,0,0-1.315.522,2.223,2.223,0,0,0-.522,1.527c-.009.132-.013.3-.013.5s0,.37.013.5a2.226,2.226,0,0,0,.522,1.527A1.729,1.729,0,0,0,1212.414,429.83Zm5.686.885a.293.293,0,0,1-.3-.3V424.9h-1.125a.294.294,0,0,1-.3-.3v-.45a.294.294,0,0,1,.3-.3h1.125v-.661a2.914,2.914,0,0,1,.224-1.183,1.644,1.644,0,0,1,.721-.787,2.72,2.72,0,0,1,1.328-.278h.794a.3.3,0,0,1,.3.3v.45a.3.3,0,0,1-.3.3h-.767a.964.964,0,0,0-.847.324,1.628,1.628,0,0,0-.224.932v.595h1.7a.294.294,0,0,1,.3.3v.45a.294.294,0,0,1-.3.3h-1.7v5.514a.293.293,0,0,1-.3.3Zm9.466,0a2.276,2.276,0,0,1-1.2-.284,1.643,1.643,0,0,1-.674-.807,3.288,3.288,0,0,1-.212-1.236V424.9h-1.031a.294.294,0,0,1-.3-.3v-.45a.294.294,0,0,1,.3-.3h1.031v-2.209a.294.294,0,0,1,.3-.3h.622a.3.3,0,0,1,.218.086.292.292,0,0,1,.086.217v2.209h1.64a.29.29,0,0,1,.225.086.307.307,0,0,1,.079.218v.45a.309.309,0,0,1-.079.218.292.292,0,0,1-.225.086h-1.64v3.4a1.925,1.925,0,0,0,.211.978.8.8,0,0,0,.754.357h.806a.294.294,0,0,1,.3.3v.476a.293.293,0,0,1-.3.3Zm2.8,0a.293.293,0,0,1-.3-.3v-8.78a.294.294,0,0,1,.3-.3h.661a.29.29,0,0,1,.225.086.308.308,0,0,1,.079.217v3.082a2.785,2.785,0,0,1,.873-.727,2.745,2.745,0,0,1,1.309-.278,2.7,2.7,0,0,1,1.461.377,2.388,2.388,0,0,1,.912,1.045,3.647,3.647,0,0,1,.311,1.554v3.729a.31.31,0,0,1-.079.218.291.291,0,0,1-.225.085h-.661a.293.293,0,0,1-.3-.3v-3.663a2.144,2.144,0,0,0-.45-1.448,1.648,1.648,0,0,0-1.322-.522,1.75,1.75,0,0,0-1.322.522,2,2,0,0,0-.5,1.448v3.663a.311.311,0,0,1-.079.218.292.292,0,0,1-.225.085Zm10.485.133a2.884,2.884,0,0,1-2.181-.84,3.462,3.462,0,0,1-.886-2.294q-.013-.173-.013-.443c0-.181,0-.329.013-.443a3.868,3.868,0,0,1,.436-1.647,2.727,2.727,0,0,1,1.051-1.09,3.089,3.089,0,0,1,1.567-.383,3.138,3.138,0,0,1,1.686.423,2.694,2.694,0,0,1,1.038,1.2,4.348,4.348,0,0,1,.357,1.825v.225a.291.291,0,0,1-.086.225.313.313,0,0,1-.218.079h-4.575v.119a2.777,2.777,0,0,0,.238,1.011,1.86,1.86,0,0,0,.615.761,1.574,1.574,0,0,0,.945.291,1.9,1.9,0,0,0,.793-.146,2,2,0,0,0,.516-.324,1.553,1.553,0,0,0,.265-.284.677.677,0,0,1,.185-.192.491.491,0,0,1,.211-.034h.648a.305.305,0,0,1,.2.073.222.222,0,0,1,.073.2,1.017,1.017,0,0,1-.212.482,2.594,2.594,0,0,1-.562.563,3.066,3.066,0,0,1-.9.456A3.812,3.812,0,0,1,1240.855,430.848Zm-1.811-4.072h3.623v-.04a2.453,2.453,0,0,0-.218-1.058,1.76,1.76,0,0,0-.628-.733,1.729,1.729,0,0,0-.978-.271,1.7,1.7,0,0,0-.972.271,1.727,1.727,0,0,0-.615.733,2.522,2.522,0,0,0-.212,1.058Zm13.1,4.072a2.775,2.775,0,0,1-1.322-.284,2.551,2.551,0,0,1-.846-.707v.555a.293.293,0,0,1-.3.3h-.608a.293.293,0,0,1-.3-.3v-8.78a.292.292,0,0,1,.086-.217.3.3,0,0,1,.218-.086h.648a.274.274,0,0,1,.212.086.308.308,0,0,1,.079.217v3.042a2.612,2.612,0,0,1,2.142-.965,2.828,2.828,0,0,1,1.263.258,2.357,2.357,0,0,1,.86.707,3.235,3.235,0,0,1,.509,1.018,4.821,4.821,0,0,1,.2,1.19c.009.141.013.273.013.4s0,.255-.013.4a4.865,4.865,0,0,1-.2,1.2,3.157,3.157,0,0,1-.509,1.011,2.39,2.39,0,0,1-.86.7A2.828,2.828,0,0,1,1252.147,430.848Zm-.278-1.071a1.736,1.736,0,0,0,1.078-.3,1.654,1.654,0,0,0,.562-.779,3.6,3.6,0,0,0,.2-1.039c.009-.255.009-.511,0-.766a3.6,3.6,0,0,0-.2-1.038,1.656,1.656,0,0,0-.562-.78,2.036,2.036,0,0,0-2.109-.007,1.822,1.822,0,0,0-.615.74,2.336,2.336,0,0,0-.218.912q-.013.211-.013.509t.013.508a2.951,2.951,0,0,0,.218.959,1.807,1.807,0,0,0,.595.774A1.7,1.7,0,0,0,1251.869,429.777Zm5.051.938a.293.293,0,0,1-.3-.3v-6.254a.319.319,0,0,1,.086-.225.286.286,0,0,1,.218-.092h.608a.314.314,0,0,1,.317.317v.582a1.675,1.675,0,0,1,.727-.674,2.553,2.553,0,0,1,1.124-.225h.516a.294.294,0,0,1,.3.3v.541a.275.275,0,0,1-.086.212.31.31,0,0,1-.218.079h-.793a1.5,1.5,0,0,0-1.124.417,1.542,1.542,0,0,0-.41,1.13v3.887a.286.286,0,0,1-.093.218.319.319,0,0,1-.225.085Zm6.545.133a2.713,2.713,0,0,1-1.2-.264,2.327,2.327,0,0,1-.873-.714,1.678,1.678,0,0,1-.331-1.018,1.71,1.71,0,0,1,.74-1.454,4.249,4.249,0,0,1,1.931-.714l1.97-.278v-.383a1.324,1.324,0,0,0-.364-.992,1.646,1.646,0,0,0-1.184-.357,1.731,1.731,0,0,0-.952.238,1.27,1.27,0,0,0-.516.608.281.281,0,0,1-.278.2h-.595a.271.271,0,0,1-.218-.086.309.309,0,0,1-.073-.2,1.118,1.118,0,0,1,.152-.49,2.01,2.01,0,0,1,.469-.568,2.7,2.7,0,0,1,.813-.469,3.36,3.36,0,0,1,1.21-.192,3.8,3.8,0,0,1,1.335.2,2.14,2.14,0,0,1,.853.549,2.1,2.1,0,0,1,.449.78,2.9,2.9,0,0,1,.139.886v4.284a.293.293,0,0,1-.3.3h-.608a.292.292,0,0,1-.225-.085.31.31,0,0,1-.079-.218v-.569a2.43,2.43,0,0,1-1.19.853A3.289,3.289,0,0,1,1263.465,430.848Zm.278-.992a2.137,2.137,0,0,0,.992-.231,1.648,1.648,0,0,0,.708-.721,2.618,2.618,0,0,0,.258-1.229v-.37l-1.534.225a3.527,3.527,0,0,0-1.415.443.917.917,0,0,0-.476.787.891.891,0,0,0,.218.615,1.318,1.318,0,0,0,.555.364A2.087,2.087,0,0,0,1263.743,429.856Zm5.408.859a.293.293,0,0,1-.3-.3v-6.267a.294.294,0,0,1,.3-.3h.621a.294.294,0,0,1,.3.3v.582a2.688,2.688,0,0,1,.866-.734,2.79,2.79,0,0,1,1.342-.284,2.7,2.7,0,0,1,1.461.377,2.391,2.391,0,0,1,.912,1.045,3.651,3.651,0,0,1,.311,1.554v3.729a.293.293,0,0,1-.3.3H1274a.293.293,0,0,1-.3-.3v-3.663a2.149,2.149,0,0,0-.449-1.448,1.649,1.649,0,0,0-1.323-.522,1.728,1.728,0,0,0-1.315.522,2.017,2.017,0,0,0-.5,1.448v3.663a.293.293,0,0,1-.3.3Zm10.485.133a3.4,3.4,0,0,1-1.62-.364,2.529,2.529,0,0,1-1.051-1.045,3.593,3.593,0,0,1-.4-1.633q-.013-.2-.013-.529c0-.221,0-.4.013-.529a3.591,3.591,0,0,1,.4-1.633,2.521,2.521,0,0,1,1.051-1.045,3.39,3.39,0,0,1,1.62-.364,3.651,3.651,0,0,1,1.316.212,2.788,2.788,0,0,1,.906.542,2.3,2.3,0,0,1,.535.714,1.9,1.9,0,0,1,.192.727.233.233,0,0,1-.079.212.334.334,0,0,1-.225.079h-.635a.292.292,0,0,1-.2-.059.637.637,0,0,1-.132-.206,1.763,1.763,0,0,0-.648-.912,1.844,1.844,0,0,0-1.018-.264,1.755,1.755,0,0,0-1.289.489,2.26,2.26,0,0,0-.536,1.573q-.013.476,0,.925a2.254,2.254,0,0,0,.536,1.58,1.77,1.77,0,0,0,1.289.483,1.845,1.845,0,0,0,1.018-.264,1.763,1.763,0,0,0,.648-.912.719.719,0,0,1,.132-.212.269.269,0,0,1,.2-.066h.635a.317.317,0,0,1,.225.086.248.248,0,0,1,.079.217,1.914,1.914,0,0,1-.119.569,2.186,2.186,0,0,1-.337.588,2.455,2.455,0,0,1-.575.53,2.937,2.937,0,0,1-.82.37A3.951,3.951,0,0,1,1279.636,430.848Zm4.839-.133a.293.293,0,0,1-.3-.3v-8.78a.294.294,0,0,1,.3-.3h.661a.29.29,0,0,1,.225.086.308.308,0,0,1,.079.217v3.082a2.782,2.782,0,0,1,.873-.727,2.743,2.743,0,0,1,1.309-.278,2.7,2.7,0,0,1,1.461.377,2.388,2.388,0,0,1,.912,1.045,3.647,3.647,0,0,1,.311,1.554v3.729a.31.31,0,0,1-.079.218.292.292,0,0,1-.225.085h-.661a.293.293,0,0,1-.3-.3v-3.663a2.148,2.148,0,0,0-.45-1.448,1.648,1.648,0,0,0-1.322-.522,1.75,1.75,0,0,0-1.322.522,2,2,0,0,0-.5,1.448v3.663a.311.311,0,0,1-.079.218.292.292,0,0,1-.225.085Zm7.933-8.158a.294.294,0,0,1-.3-.3v-.714a.317.317,0,0,1,.086-.225.285.285,0,0,1,.218-.093h.833a.317.317,0,0,1,.317.318v.714a.286.286,0,0,1-.093.218.321.321,0,0,1-.225.086Zm.106,8.158a.293.293,0,0,1-.3-.3v-6.267a.294.294,0,0,1,.3-.3h.635a.294.294,0,0,1,.3.3v6.267a.293.293,0,0,1-.3.3Zm3.306,0a.293.293,0,0,1-.3-.3v-6.267a.294.294,0,0,1,.3-.3h.621a.294.294,0,0,1,.3.3v.582a2.69,2.69,0,0,1,.866-.734,2.791,2.791,0,0,1,1.342-.284,2.7,2.7,0,0,1,1.461.377,2.389,2.389,0,0,1,.912,1.045,3.651,3.651,0,0,1,.311,1.554v3.729a.293.293,0,0,1-.3.3h-.661a.293.293,0,0,1-.3-.3v-3.663a2.148,2.148,0,0,0-.449-1.448,1.648,1.648,0,0,0-1.322-.522,1.728,1.728,0,0,0-1.316.522,2.018,2.018,0,0,0-.5,1.448v3.663a.293.293,0,0,1-.3.3Zm10.525,2.91a3.893,3.893,0,0,1-1.474-.238,2.63,2.63,0,0,1-.9-.575,2.207,2.207,0,0,1-.463-.674,1.845,1.845,0,0,1-.152-.535.26.26,0,0,1,.086-.225.313.313,0,0,1,.218-.092h.635a.347.347,0,0,1,.2.053.4.4,0,0,1,.132.225,2.646,2.646,0,0,0,.238.443,1.311,1.311,0,0,0,.489.423,1.971,1.971,0,0,0,.926.179,2.786,2.786,0,0,0,1.044-.172,1.235,1.235,0,0,0,.642-.582,2.453,2.453,0,0,0,.218-1.138v-.9a2.512,2.512,0,0,1-.833.682,2.769,2.769,0,0,1-1.3.271,2.872,2.872,0,0,1-1.27-.258,2.382,2.382,0,0,1-.866-.7,3.056,3.056,0,0,1-.5-1.011,5.007,5.007,0,0,1-.192-1.19c-.009-.247-.009-.489,0-.727a5,5,0,0,1,.192-1.19,3.131,3.131,0,0,1,.5-1.018,2.348,2.348,0,0,1,.866-.707,2.872,2.872,0,0,1,1.27-.258,2.551,2.551,0,0,1,2.168,1.018v-.569a.319.319,0,0,1,.086-.225.285.285,0,0,1,.218-.092h.608a.314.314,0,0,1,.317.317v6.413a3.932,3.932,0,0,1-.3,1.573,2.283,2.283,0,0,1-.979,1.084A3.63,3.63,0,0,1,1306.345,433.625Zm-.026-3.914a1.727,1.727,0,0,0,1.064-.3,1.815,1.815,0,0,0,.595-.767,2.636,2.636,0,0,0,.205-.939q.013-.185.013-.457c0-.18,0-.333-.013-.455a2.639,2.639,0,0,0-.205-.939,1.81,1.81,0,0,0-.595-.766,2.022,2.022,0,0,0-2.122-.007,1.636,1.636,0,0,0-.568.78,3.6,3.6,0,0,0-.2,1.038c-.009.229-.009.463,0,.7a3.6,3.6,0,0,0,.2,1.038,1.639,1.639,0,0,0,.568.78A1.721,1.721,0,0,0,1306.319,429.711Zm9.084,1a.293.293,0,0,1-.3-.3V424.9h-1.124a.3.3,0,0,1-.218-.086.3.3,0,0,1-.086-.218v-.45a.293.293,0,0,1,.086-.218.3.3,0,0,1,.218-.086h1.124v-.661a2.906,2.906,0,0,1,.225-1.183,1.642,1.642,0,0,1,.721-.787,2.719,2.719,0,0,1,1.329-.278h2.036a.294.294,0,0,1,.3.3v.45a.294.294,0,0,1-.3.3h-2.01a.962.962,0,0,0-.846.324,1.622,1.622,0,0,0-.225.932v.595h3.081a.294.294,0,0,1,.3.3v6.267a.293.293,0,0,1-.3.3h-.608a.291.291,0,0,1-.225-.085.311.311,0,0,1-.079-.218V424.9h-2.168v5.514a.293.293,0,0,1-.3.3Zm6.585,0a.293.293,0,0,1-.3-.3v-8.78a.294.294,0,0,1,.3-.3h.621a.289.289,0,0,1,.225.086.307.307,0,0,1,.079.217v8.78a.31.31,0,0,1-.079.218.291.291,0,0,1-.225.085Zm4.813.133a2.712,2.712,0,0,1-1.2-.264,2.328,2.328,0,0,1-.873-.714,1.673,1.673,0,0,1-.331-1.018,1.71,1.71,0,0,1,.741-1.454,4.246,4.246,0,0,1,1.93-.714l1.97-.278v-.383a1.326,1.326,0,0,0-.364-.992,1.646,1.646,0,0,0-1.183-.357,1.733,1.733,0,0,0-.952.238,1.264,1.264,0,0,0-.516.608.281.281,0,0,1-.278.2h-.595a.271.271,0,0,1-.218-.086.308.308,0,0,1-.073-.2,1.119,1.119,0,0,1,.152-.49,2,2,0,0,1,.469-.568,2.7,2.7,0,0,1,.813-.469,3.356,3.356,0,0,1,1.21-.192,3.8,3.8,0,0,1,1.335.2,2.143,2.143,0,0,1,.853.549,2.1,2.1,0,0,1,.45.78,2.9,2.9,0,0,1,.139.886v4.284a.293.293,0,0,1-.3.3h-.608a.292.292,0,0,1-.225-.085.311.311,0,0,1-.079-.218v-.569a2.429,2.429,0,0,1-.463.469,2.456,2.456,0,0,1-.727.384A3.29,3.29,0,0,1,1326.8,430.848Zm.278-.992a2.14,2.14,0,0,0,.992-.231,1.65,1.65,0,0,0,.708-.721,2.618,2.618,0,0,0,.258-1.229v-.37l-1.534.225a3.529,3.529,0,0,0-1.415.443.917.917,0,0,0-.476.787.89.89,0,0,0,.218.615,1.318,1.318,0,0,0,.555.364A2.085,2.085,0,0,0,1327.078,429.856Zm5.408.859a.293.293,0,0,1-.3-.3v-6.267a.294.294,0,0,1,.3-.3h.595a.294.294,0,0,1,.3.3v.462a2.245,2.245,0,0,1,.767-.654,2.344,2.344,0,0,1,1.111-.245,2.157,2.157,0,0,1,2.116,1.216,2.249,2.249,0,0,1,.886-.885,2.625,2.625,0,0,1,1.322-.331,2.506,2.506,0,0,1,1.25.317,2.216,2.216,0,0,1,.886.959,3.539,3.539,0,0,1,.324,1.606v3.822a.293.293,0,0,1-.3.3h-.621a.293.293,0,0,1-.3-.3v-3.7a2.638,2.638,0,0,0-.212-1.164,1.247,1.247,0,0,0-.568-.6,1.769,1.769,0,0,0-.78-.172,1.6,1.6,0,0,0-.7.172,1.342,1.342,0,0,0-.588.6,2.434,2.434,0,0,0-.231,1.164v3.7a.293.293,0,0,1-.3.3h-.621a.293.293,0,0,1-.3-.3v-3.7a2.5,2.5,0,0,0-.225-1.164,1.312,1.312,0,0,0-.582-.6,1.709,1.709,0,0,0-.754-.172,1.6,1.6,0,0,0-.7.172,1.343,1.343,0,0,0-.588.6,2.409,2.409,0,0,0-.231,1.15v3.715a.293.293,0,0,1-.3.3Zm14.2.133a2.884,2.884,0,0,1-2.182-.84,3.462,3.462,0,0,1-.886-2.294q-.013-.173-.013-.443c0-.181,0-.329.013-.443a3.872,3.872,0,0,1,.436-1.647,2.726,2.726,0,0,1,1.051-1.09,3.089,3.089,0,0,1,1.567-.383,3.137,3.137,0,0,1,1.686.423,2.694,2.694,0,0,1,1.038,1.2,4.348,4.348,0,0,1,.357,1.825v.225a.291.291,0,0,1-.086.225.313.313,0,0,1-.218.079h-4.575v.119a2.767,2.767,0,0,0,.238,1.011,1.859,1.859,0,0,0,.615.761,1.575,1.575,0,0,0,.946.291,1.9,1.9,0,0,0,.793-.146,2,2,0,0,0,.515-.324,1.553,1.553,0,0,0,.265-.284.677.677,0,0,1,.185-.192.494.494,0,0,1,.211-.034h.648a.306.306,0,0,1,.205.073.222.222,0,0,1,.073.2,1.02,1.02,0,0,1-.212.482,2.592,2.592,0,0,1-.562.563,3.073,3.073,0,0,1-.9.456A3.814,3.814,0,0,1,1346.686,430.848Zm-1.812-4.072h3.623v-.04a2.457,2.457,0,0,0-.218-1.058,1.764,1.764,0,0,0-.628-.733,1.731,1.731,0,0,0-.979-.271,1.7,1.7,0,0,0-.972.271,1.726,1.726,0,0,0-.615.733,2.522,2.522,0,0,0-.212,1.058Zm6.77,3.94a.293.293,0,0,1-.3-.3v-6.267a.294.294,0,0,1,.3-.3h.621a.294.294,0,0,1,.3.3v.582a2.684,2.684,0,0,1,.866-.734,2.79,2.79,0,0,1,1.342-.284,2.7,2.7,0,0,1,1.461.377,2.389,2.389,0,0,1,.912,1.045,3.647,3.647,0,0,1,.311,1.554v3.729a.293.293,0,0,1-.3.3h-.661a.293.293,0,0,1-.3-.3v-3.663a2.149,2.149,0,0,0-.449-1.448,1.648,1.648,0,0,0-1.323-.522,1.727,1.727,0,0,0-1.315.522,2.017,2.017,0,0,0-.5,1.448v3.663a.293.293,0,0,1-.3.3Zm10.313,0a2.276,2.276,0,0,1-1.2-.284,1.643,1.643,0,0,1-.674-.807,3.288,3.288,0,0,1-.212-1.236V424.9h-1.031a.294.294,0,0,1-.3-.3v-.45a.294.294,0,0,1,.3-.3h1.031v-2.209a.294.294,0,0,1,.3-.3h.622a.3.3,0,0,1,.218.086.293.293,0,0,1,.086.217v2.209h1.639a.29.29,0,0,1,.225.086.307.307,0,0,1,.079.218v.45a.309.309,0,0,1-.079.218.292.292,0,0,1-.225.086H1361.1v3.4a1.922,1.922,0,0,0,.211.978.8.8,0,0,0,.754.357h.807a.294.294,0,0,1,.3.3v.476a.293.293,0,0,1-.3.3Zm4.866.133a3.867,3.867,0,0,1-1.269-.185,2.917,2.917,0,0,1-.86-.45,2.2,2.2,0,0,1-.5-.529,1.053,1.053,0,0,1-.178-.423.236.236,0,0,1,.093-.225.348.348,0,0,1,.212-.079h.595a.284.284,0,0,1,.112.02.4.4,0,0,1,.125.112q.173.184.384.37a1.731,1.731,0,0,0,.522.3,2.551,2.551,0,0,0,1.884-.139.831.831,0,0,0,.436-.76.759.759,0,0,0-.178-.529,1.539,1.539,0,0,0-.635-.357,11.147,11.147,0,0,0-1.25-.331,4.6,4.6,0,0,1-1.256-.456,1.67,1.67,0,0,1-.661-.648,1.8,1.8,0,0,1-.2-.853,1.735,1.735,0,0,1,.291-.945,2.149,2.149,0,0,1,.853-.747,3.041,3.041,0,0,1,1.408-.291,3.552,3.552,0,0,1,1.177.172,2.673,2.673,0,0,1,.806.43,2.168,2.168,0,0,1,.476.509.983.983,0,0,1,.172.423.25.25,0,0,1-.08.218.3.3,0,0,1-.211.086h-.555a.27.27,0,0,1-.152-.04.754.754,0,0,1-.112-.093,3.028,3.028,0,0,0-.311-.344,1.386,1.386,0,0,0-.463-.284,2.057,2.057,0,0,0-.747-.112,1.512,1.512,0,0,0-.992.278.877.877,0,0,0-.331.7.741.741,0,0,0,.146.45,1.234,1.234,0,0,0,.556.357,9.5,9.5,0,0,0,1.216.344,4.516,4.516,0,0,1,1.375.463,1.825,1.825,0,0,1,.714.674,1.806,1.806,0,0,1,.211.885,1.764,1.764,0,0,1-.317,1.019,2.134,2.134,0,0,1-.952.734A3.979,3.979,0,0,1,1366.824,430.848Zm10.022-.133a2.277,2.277,0,0,1-1.2-.284,1.643,1.643,0,0,1-.674-.807,3.283,3.283,0,0,1-.212-1.236V424.9h-1.031a.294.294,0,0,1-.3-.3v-.45a.294.294,0,0,1,.3-.3h1.031v-2.209a.292.292,0,0,1,.086-.217.3.3,0,0,1,.218-.086h.621a.294.294,0,0,1,.3.3v2.209h1.64a.29.29,0,0,1,.225.086.308.308,0,0,1,.079.218v.45a.311.311,0,0,1-.079.218.292.292,0,0,1-.225.086h-1.64v3.4a1.922,1.922,0,0,0,.212.978.8.8,0,0,0,.754.357h.807a.294.294,0,0,1,.3.3v.476a.293.293,0,0,1-.3.3Zm2.8,0a.293.293,0,0,1-.3-.3v-8.78a.294.294,0,0,1,.3-.3h.661a.29.29,0,0,1,.225.086.308.308,0,0,1,.079.217v3.082a2.783,2.783,0,0,1,.873-.727,2.742,2.742,0,0,1,1.309-.278,2.7,2.7,0,0,1,1.461.377,2.388,2.388,0,0,1,.912,1.045,3.647,3.647,0,0,1,.311,1.554v3.729a.31.31,0,0,1-.08.218.292.292,0,0,1-.225.085h-.661a.293.293,0,0,1-.3-.3v-3.663a2.148,2.148,0,0,0-.45-1.448,1.647,1.647,0,0,0-1.322-.522,1.75,1.75,0,0,0-1.322.522,2,2,0,0,0-.5,1.448v3.663a.311.311,0,0,1-.079.218.291.291,0,0,1-.225.085Zm9.652.133a2.713,2.713,0,0,1-1.2-.264,2.324,2.324,0,0,1-.873-.714,1.678,1.678,0,0,1-.331-1.018,1.71,1.71,0,0,1,.74-1.454,4.25,4.25,0,0,1,1.93-.714l1.97-.278v-.383a1.324,1.324,0,0,0-.364-.992,1.646,1.646,0,0,0-1.184-.357,1.732,1.732,0,0,0-.952.238,1.272,1.272,0,0,0-.516.608.281.281,0,0,1-.278.2h-.595a.27.27,0,0,1-.218-.086.309.309,0,0,1-.073-.2,1.119,1.119,0,0,1,.152-.49,2.005,2.005,0,0,1,.469-.568,2.7,2.7,0,0,1,.813-.469,3.358,3.358,0,0,1,1.21-.192,3.793,3.793,0,0,1,1.335.2,2.139,2.139,0,0,1,.853.549,2.1,2.1,0,0,1,.449.78,2.9,2.9,0,0,1,.139.886v4.284a.293.293,0,0,1-.3.3h-.608a.291.291,0,0,1-.225-.085.31.31,0,0,1-.08-.218v-.569a2.427,2.427,0,0,1-.463.469,2.461,2.461,0,0,1-.727.384A3.288,3.288,0,0,1,1389.3,430.848Zm.278-.992a2.136,2.136,0,0,0,.992-.231,1.648,1.648,0,0,0,.708-.721,2.618,2.618,0,0,0,.258-1.229v-.37l-1.534.225a3.528,3.528,0,0,0-1.415.443.917.917,0,0,0-.476.787.89.89,0,0,0,.218.615,1.318,1.318,0,0,0,.555.364A2.085,2.085,0,0,0,1389.579,429.856Zm7.735.859a2.276,2.276,0,0,1-1.2-.284,1.644,1.644,0,0,1-.674-.807,3.288,3.288,0,0,1-.212-1.236V424.9h-1.031a.294.294,0,0,1-.3-.3v-.45a.294.294,0,0,1,.3-.3h1.031v-2.209a.294.294,0,0,1,.3-.3h.621a.294.294,0,0,1,.3.3v2.209h1.64a.289.289,0,0,1,.225.086.306.306,0,0,1,.079.218v.45a.308.308,0,0,1-.079.218.292.292,0,0,1-.225.086h-1.64v3.4a1.925,1.925,0,0,0,.211.978.8.8,0,0,0,.754.357h.806a.294.294,0,0,1,.3.3v.476a.293.293,0,0,1-.3.3Zm6.029,0a.293.293,0,0,1-.3-.3v-6.267a.294.294,0,0,1,.3-.3h.6a.294.294,0,0,1,.3.3v.462a2.247,2.247,0,0,1,.767-.654,2.348,2.348,0,0,1,1.111-.245,2.156,2.156,0,0,1,2.115,1.216,2.255,2.255,0,0,1,.886-.885,2.624,2.624,0,0,1,1.322-.331,2.5,2.5,0,0,1,1.25.317,2.212,2.212,0,0,1,.886.959,3.542,3.542,0,0,1,.324,1.606v3.822a.293.293,0,0,1-.3.3h-.622a.293.293,0,0,1-.3-.3v-3.7a2.642,2.642,0,0,0-.212-1.164,1.245,1.245,0,0,0-.569-.6,1.769,1.769,0,0,0-.78-.172,1.6,1.6,0,0,0-.7.172,1.342,1.342,0,0,0-.588.6,2.443,2.443,0,0,0-.231,1.164v3.7a.293.293,0,0,1-.3.3h-.622a.293.293,0,0,1-.3-.3v-3.7a2.5,2.5,0,0,0-.225-1.164,1.311,1.311,0,0,0-.582-.6,1.711,1.711,0,0,0-.754-.172,1.6,1.6,0,0,0-.7.172,1.344,1.344,0,0,0-.588.6,2.409,2.409,0,0,0-.231,1.15v3.715a.293.293,0,0,1-.3.3Zm13.368.133a2.715,2.715,0,0,1-1.2-.264,2.328,2.328,0,0,1-.873-.714,1.678,1.678,0,0,1-.331-1.018,1.71,1.71,0,0,1,.74-1.454,4.249,4.249,0,0,1,1.93-.714l1.97-.278v-.383a1.324,1.324,0,0,0-.363-.992,1.646,1.646,0,0,0-1.184-.357,1.731,1.731,0,0,0-.952.238,1.271,1.271,0,0,0-.516.608.281.281,0,0,1-.278.2h-.595a.27.27,0,0,1-.218-.086.308.308,0,0,1-.073-.2,1.118,1.118,0,0,1,.152-.49,2.012,2.012,0,0,1,.47-.568,2.694,2.694,0,0,1,.813-.469,3.358,3.358,0,0,1,1.21-.192,3.794,3.794,0,0,1,1.335.2,2.139,2.139,0,0,1,.853.549,2.1,2.1,0,0,1,.449.78,2.9,2.9,0,0,1,.139.886v4.284a.293.293,0,0,1-.3.3h-.608a.291.291,0,0,1-.225-.085.31.31,0,0,1-.079-.218v-.569a2.427,2.427,0,0,1-.463.469,2.461,2.461,0,0,1-.727.384A3.288,3.288,0,0,1,1416.712,430.848Zm.278-.992a2.136,2.136,0,0,0,.992-.231,1.65,1.65,0,0,0,.708-.721,2.618,2.618,0,0,0,.258-1.229v-.37l-1.533.225a3.529,3.529,0,0,0-1.415.443.916.916,0,0,0-.476.787.89.89,0,0,0,.218.615,1.32,1.32,0,0,0,.555.364A2.085,2.085,0,0,0,1416.989,429.856Zm5.421.859a.293.293,0,0,1-.3-.3v-8.78a.294.294,0,0,1,.3-.3h.622a.294.294,0,0,1,.3.3v4.6l2.6-2.168a1.608,1.608,0,0,1,.244-.179.637.637,0,0,1,.285-.046h.7a.267.267,0,0,1,.245.4.391.391,0,0,1-.125.132l-3.054,2.538,3.385,3.293c.105.088.159.167.159.238a.271.271,0,0,1-.278.277h-.687a.692.692,0,0,1-.291-.046,1.188,1.188,0,0,1-.238-.178l-2.949-2.816v2.737a.293.293,0,0,1-.3.3Zm8.938.133a2.886,2.886,0,0,1-2.181-.84,3.462,3.462,0,0,1-.886-2.294q-.013-.173-.013-.443c0-.181,0-.329.013-.443a3.886,3.886,0,0,1,.437-1.647,2.724,2.724,0,0,1,1.051-1.09,3.092,3.092,0,0,1,1.567-.383,3.135,3.135,0,0,1,1.686.423,2.7,2.7,0,0,1,1.039,1.2,4.345,4.345,0,0,1,.356,1.825v.225a.29.29,0,0,1-.086.225.31.31,0,0,1-.218.079h-4.575v.119a2.782,2.782,0,0,0,.238,1.011,1.874,1.874,0,0,0,.615.761,1.576,1.576,0,0,0,.946.291,1.9,1.9,0,0,0,.793-.146,2.015,2.015,0,0,0,.516-.324,1.544,1.544,0,0,0,.265-.284.684.684,0,0,1,.185-.192.5.5,0,0,1,.212-.034h.647a.3.3,0,0,1,.2.073.22.22,0,0,1,.073.2,1.01,1.01,0,0,1-.212.482,2.592,2.592,0,0,1-.562.563,3.065,3.065,0,0,1-.9.456A3.821,3.821,0,0,1,1431.349,430.848Zm-1.812-4.072h3.624v-.04a2.443,2.443,0,0,0-.219-1.058,1.757,1.757,0,0,0-.627-.733,1.731,1.731,0,0,0-.979-.271,1.7,1.7,0,0,0-.972.271,1.73,1.73,0,0,0-.614.733,2.511,2.511,0,0,0-.212,1.058Zm12.271,4.072a2.607,2.607,0,0,1-1.435-.378,2.373,2.373,0,0,1-.892-1.05,3.725,3.725,0,0,1-.3-1.547v-3.729a.294.294,0,0,1,.3-.3h.661a.294.294,0,0,1,.3.3v3.663q0,1.97,1.719,1.97a1.731,1.731,0,0,0,1.315-.522,2.019,2.019,0,0,0,.5-1.448v-3.663a.294.294,0,0,1,.3-.3h.661a.273.273,0,0,1,.211.086.307.307,0,0,1,.08.218v6.267a.31.31,0,0,1-.08.218.274.274,0,0,1-.211.085h-.622a.293.293,0,0,1-.3-.3v-.582a2.756,2.756,0,0,1-.866.74A2.8,2.8,0,0,1,1441.808,430.848Zm5.712,2.38a.294.294,0,0,1-.3-.3v-8.78a.294.294,0,0,1,.3-.3h.608a.294.294,0,0,1,.3.3v.582a2.54,2.54,0,0,1,.846-.727,2.713,2.713,0,0,1,1.323-.291,2.886,2.886,0,0,1,1.263.251,2.35,2.35,0,0,1,.859.688,3.1,3.1,0,0,1,.509.992,4.674,4.674,0,0,1,.2,1.19c.009.141.013.291.013.45s0,.308-.013.45a4.732,4.732,0,0,1-.2,1.183,3.03,3.03,0,0,1-.509.992,2.456,2.456,0,0,1-.859.688,2.828,2.828,0,0,1-1.263.258,2.674,2.674,0,0,1-1.289-.284,2.712,2.712,0,0,1-.853-.707v3.068a.311.311,0,0,1-.079.218.276.276,0,0,1-.212.086Zm2.8-3.451a1.735,1.735,0,0,0,1.078-.3,1.649,1.649,0,0,0,.562-.779,3.6,3.6,0,0,0,.2-1.039c.009-.255.009-.511,0-.766a3.6,3.6,0,0,0-.2-1.038,1.651,1.651,0,0,0-.562-.78,1.739,1.739,0,0,0-1.078-.3,1.7,1.7,0,0,0-1.051.3,1.8,1.8,0,0,0-.6.774,2.943,2.943,0,0,0-.218.959q-.013.211-.013.5t.013.515a2.364,2.364,0,0,0,.218.913,1.822,1.822,0,0,0,.615.74A1.736,1.736,0,0,0,1450.323,429.777Zm10.419.938a2.277,2.277,0,0,1-1.2-.284,1.643,1.643,0,0,1-.674-.807,3.288,3.288,0,0,1-.212-1.236V424.9h-1.031a.294.294,0,0,1-.3-.3v-.45a.294.294,0,0,1,.3-.3h1.031v-2.209a.292.292,0,0,1,.086-.217.3.3,0,0,1,.218-.086h.622a.294.294,0,0,1,.3.3v2.209h1.64a.29.29,0,0,1,.225.086.308.308,0,0,1,.079.218v.45a.311.311,0,0,1-.079.218.292.292,0,0,1-.225.086h-1.64v3.4a1.922,1.922,0,0,0,.212.978.8.8,0,0,0,.753.357h.806a.294.294,0,0,1,.3.3v.476a.293.293,0,0,1-.3.3Zm2.8,0a.293.293,0,0,1-.3-.3v-8.78a.294.294,0,0,1,.3-.3h.661a.289.289,0,0,1,.225.086.307.307,0,0,1,.079.217v3.082a2.783,2.783,0,0,1,.873-.727,2.743,2.743,0,0,1,1.309-.278,2.7,2.7,0,0,1,1.461.377,2.388,2.388,0,0,1,.912,1.045,3.651,3.651,0,0,1,.311,1.554v3.729a.311.311,0,0,1-.079.218.292.292,0,0,1-.225.085h-.661a.293.293,0,0,1-.3-.3v-3.663a2.148,2.148,0,0,0-.45-1.448,1.648,1.648,0,0,0-1.322-.522,1.75,1.75,0,0,0-1.322.522,2,2,0,0,0-.5,1.448v3.663a.31.31,0,0,1-.079.218.291.291,0,0,1-.225.085Zm10.485.133a2.885,2.885,0,0,1-2.182-.84,3.462,3.462,0,0,1-.886-2.294c-.008-.115-.013-.263-.013-.443s0-.329.013-.443a3.868,3.868,0,0,1,.437-1.647,2.725,2.725,0,0,1,1.051-1.09,3.089,3.089,0,0,1,1.567-.383,3.139,3.139,0,0,1,1.686.423,2.693,2.693,0,0,1,1.038,1.2,4.345,4.345,0,0,1,.357,1.825v.225a.29.29,0,0,1-.086.225.313.313,0,0,1-.218.079h-4.575v.119a2.776,2.776,0,0,0,.238,1.011,1.86,1.86,0,0,0,.615.761,1.574,1.574,0,0,0,.945.291,1.9,1.9,0,0,0,.793-.146,2,2,0,0,0,.516-.324,1.55,1.55,0,0,0,.264-.284.684.684,0,0,1,.185-.192.492.492,0,0,1,.211-.034h.648a.306.306,0,0,1,.2.073.222.222,0,0,1,.073.2,1.019,1.019,0,0,1-.211.482,2.6,2.6,0,0,1-.562.563,3.068,3.068,0,0,1-.9.456A3.81,3.81,0,0,1,1474.031,430.848Zm-1.812-4.072h3.623v-.04a2.453,2.453,0,0,0-.218-1.058,1.762,1.762,0,0,0-.628-.733,1.73,1.73,0,0,0-.979-.271,1.7,1.7,0,0,0-.972.271,1.727,1.727,0,0,0-.615.733,2.522,2.522,0,0,0-.211,1.058Z" transform="translate(-607.35 430.733)" fill="#fff"/>
      <path id="Path_679" data-name="Path 679" d="M976.133,459.977a.294.294,0,0,1-.3-.3v-6.267a.294.294,0,0,1,.3-.3h.6a.294.294,0,0,1,.3.3v.463a2.236,2.236,0,0,1,.767-.654,2.343,2.343,0,0,1,1.111-.245,2.157,2.157,0,0,1,2.116,1.216,2.247,2.247,0,0,1,.886-.886,2.623,2.623,0,0,1,1.322-.331,2.5,2.5,0,0,1,1.25.317,2.206,2.206,0,0,1,.886.958,3.553,3.553,0,0,1,.324,1.607v3.821a.294.294,0,0,1-.3.3h-.622a.294.294,0,0,1-.3-.3v-3.7a2.637,2.637,0,0,0-.212-1.163,1.247,1.247,0,0,0-.568-.595,1.769,1.769,0,0,0-.78-.172,1.6,1.6,0,0,0-.7.172,1.343,1.343,0,0,0-.589.595,2.435,2.435,0,0,0-.231,1.163v3.7a.294.294,0,0,1-.3.3h-.621a.294.294,0,0,1-.3-.3v-3.7a2.507,2.507,0,0,0-.225-1.163,1.311,1.311,0,0,0-.582-.595,1.71,1.71,0,0,0-.754-.172,1.6,1.6,0,0,0-.7.172,1.342,1.342,0,0,0-.588.595,2.4,2.4,0,0,0-.232,1.15v3.715a.294.294,0,0,1-.3.3Zm12.456,2.512a.271.271,0,0,1-.265-.264.412.412,0,0,1,.013-.106.664.664,0,0,1,.053-.132l1.018-2.42-2.525-5.963a.7.7,0,0,1-.066-.225.271.271,0,0,1,.278-.278h.648a.32.32,0,0,1,.218.065.342.342,0,0,1,.1.159l2.01,4.814,2.063-4.814a.45.45,0,0,1,.112-.159.317.317,0,0,1,.218-.065h.621a.269.269,0,0,1,.2.079.253.253,0,0,1,.079.185.84.84,0,0,1-.066.238l-3.755,8.66a.447.447,0,0,1-.112.159.314.314,0,0,1-.218.067Zm8.647-2.381a3.4,3.4,0,0,1-1.62-.363,2.53,2.53,0,0,1-1.051-1.045,3.594,3.594,0,0,1-.4-1.633q-.013-.2-.013-.529t.013-.529a3.6,3.6,0,0,1,.4-1.634,2.53,2.53,0,0,1,1.051-1.045,3.4,3.4,0,0,1,1.62-.363,3.65,3.65,0,0,1,1.316.211,2.789,2.789,0,0,1,.906.542,2.293,2.293,0,0,1,.535.714,1.9,1.9,0,0,1,.192.727.233.233,0,0,1-.079.212.334.334,0,0,1-.225.079h-.635a.289.289,0,0,1-.2-.059.627.627,0,0,1-.132-.205,1.757,1.757,0,0,0-.648-.912,1.839,1.839,0,0,0-1.018-.264,1.755,1.755,0,0,0-1.289.489,2.259,2.259,0,0,0-.536,1.573q-.013.475,0,.926a2.256,2.256,0,0,0,.536,1.58,1.772,1.772,0,0,0,1.289.483,1.845,1.845,0,0,0,1.018-.264,1.762,1.762,0,0,0,.648-.913.716.716,0,0,1,.132-.211.269.269,0,0,1,.2-.066h.635a.317.317,0,0,1,.225.086.248.248,0,0,1,.079.218,1.924,1.924,0,0,1-.119.569,2.209,2.209,0,0,1-.337.588,2.471,2.471,0,0,1-.575.529,2.935,2.935,0,0,1-.82.37A3.93,3.93,0,0,1,997.236,460.108Zm7.272,0a2.884,2.884,0,0,1-2.182-.839,3.463,3.463,0,0,1-.886-2.295q-.013-.172-.013-.442t.013-.443a3.86,3.86,0,0,1,.436-1.646,2.722,2.722,0,0,1,1.051-1.091,3.088,3.088,0,0,1,1.567-.383,3.137,3.137,0,0,1,1.686.423,2.692,2.692,0,0,1,1.038,1.2,4.344,4.344,0,0,1,.357,1.825v.224a.291.291,0,0,1-.086.225.309.309,0,0,1-.218.079H1002.7v.119a2.779,2.779,0,0,0,.238,1.011,1.856,1.856,0,0,0,.615.76,1.571,1.571,0,0,0,.945.292,1.91,1.91,0,0,0,.793-.145,2.056,2.056,0,0,0,.516-.324,1.568,1.568,0,0,0,.264-.285.684.684,0,0,1,.185-.191.5.5,0,0,1,.212-.033h.648a.3.3,0,0,1,.2.073.221.221,0,0,1,.073.2,1.024,1.024,0,0,1-.211.483,2.621,2.621,0,0,1-.562.562,3.076,3.076,0,0,1-.9.456A3.816,3.816,0,0,1,1004.508,460.108Zm-1.811-4.072h3.623V456a2.453,2.453,0,0,0-.218-1.058,1.758,1.758,0,0,0-.628-.734,1.731,1.731,0,0,0-.979-.271,1.7,1.7,0,0,0-.972.271,1.725,1.725,0,0,0-.615.734A2.519,2.519,0,0,0,1002.7,456Zm6.783,3.94a.294.294,0,0,1-.3-.3v-8.78a.294.294,0,0,1,.3-.3h.621a.29.29,0,0,1,.225.086.307.307,0,0,1,.08.218v8.78a.31.31,0,0,1-.08.218.293.293,0,0,1-.225.086Zm3.213-8.158a.294.294,0,0,1-.3-.3V450.8a.319.319,0,0,1,.086-.225.284.284,0,0,1,.218-.092h.833a.315.315,0,0,1,.317.317v.713a.286.286,0,0,1-.093.219.321.321,0,0,1-.225.086Zm.106,8.158a.294.294,0,0,1-.3-.3v-6.267a.294.294,0,0,1,.3-.3h.635a.294.294,0,0,1,.3.3v6.267a.294.294,0,0,1-.3.3Zm5.461.132a2.606,2.606,0,0,1-1.435-.376,2.376,2.376,0,0,1-.893-1.051,3.725,3.725,0,0,1-.3-1.548v-3.728a.294.294,0,0,1,.3-.3h.661a.294.294,0,0,1,.3.3v3.663q0,1.969,1.719,1.969a1.731,1.731,0,0,0,1.316-.522,2.018,2.018,0,0,0,.5-1.448v-3.663a.294.294,0,0,1,.3-.3h.661a.274.274,0,0,1,.211.086.307.307,0,0,1,.079.218v6.267a.31.31,0,0,1-.079.218.276.276,0,0,1-.211.086h-.622a.294.294,0,0,1-.3-.3v-.582a2.737,2.737,0,0,1-.866.74A2.79,2.79,0,0,1,1018.26,460.108Zm5.7-.132a.3.3,0,0,1-.218-.086.3.3,0,0,1-.086-.218v-6.267a.294.294,0,0,1,.3-.3h.595a.294.294,0,0,1,.3.3v.463a2.243,2.243,0,0,1,.767-.654,2.348,2.348,0,0,1,1.111-.245,2.156,2.156,0,0,1,2.116,1.216,2.25,2.25,0,0,1,.886-.886,2.624,2.624,0,0,1,1.322-.331,2.5,2.5,0,0,1,1.25.317,2.2,2.2,0,0,1,.886.958,3.546,3.546,0,0,1,.324,1.607v3.821a.294.294,0,0,1-.3.3h-.621a.294.294,0,0,1-.3-.3v-3.7a2.638,2.638,0,0,0-.211-1.163,1.245,1.245,0,0,0-.569-.595,1.767,1.767,0,0,0-.78-.172,1.6,1.6,0,0,0-.7.172,1.343,1.343,0,0,0-.588.595,2.441,2.441,0,0,0-.232,1.163v3.7a.294.294,0,0,1-.3.3h-.622a.294.294,0,0,1-.3-.3v-3.7a2.5,2.5,0,0,0-.225-1.163,1.311,1.311,0,0,0-.582-.595,1.71,1.71,0,0,0-.754-.172,1.6,1.6,0,0,0-.7.172,1.343,1.343,0,0,0-.588.595,2.409,2.409,0,0,0-.231,1.15v3.715a.3.3,0,0,1-.086.218.3.3,0,0,1-.218.086Zm14.994,0a.294.294,0,0,1-.3-.3v-6.267a.294.294,0,0,1,.3-.3h.621a.294.294,0,0,1,.3.3v.581a2.7,2.7,0,0,1,.866-.734,2.8,2.8,0,0,1,1.342-.284,2.693,2.693,0,0,1,1.461.377,2.39,2.39,0,0,1,.912,1.045,3.649,3.649,0,0,1,.311,1.554v3.729a.294.294,0,0,1-.3.3h-.661a.294.294,0,0,1-.3-.3V456.01a2.148,2.148,0,0,0-.45-1.448,1.648,1.648,0,0,0-1.322-.522,1.728,1.728,0,0,0-1.315.522,2.015,2.015,0,0,0-.5,1.448v3.663a.3.3,0,0,1-.086.218.3.3,0,0,1-.219.086Zm10.459.132a2.883,2.883,0,0,1-2.182-.839,3.463,3.463,0,0,1-.886-2.295q-.013-.172-.013-.442t.013-.443a3.859,3.859,0,0,1,.436-1.646,2.722,2.722,0,0,1,1.051-1.091,3.088,3.088,0,0,1,1.567-.383,3.138,3.138,0,0,1,1.686.423,2.692,2.692,0,0,1,1.038,1.2,4.344,4.344,0,0,1,.357,1.825v.224a.292.292,0,0,1-.086.225.31.31,0,0,1-.218.079H1047.6v.119a2.778,2.778,0,0,0,.238,1.011,1.856,1.856,0,0,0,.615.76,1.571,1.571,0,0,0,.946.292,1.911,1.911,0,0,0,.793-.145,2.058,2.058,0,0,0,.516-.324,1.567,1.567,0,0,0,.264-.285.684.684,0,0,1,.185-.191.5.5,0,0,1,.211-.033h.648a.305.305,0,0,1,.2.073.222.222,0,0,1,.073.2,1.026,1.026,0,0,1-.212.483,2.622,2.622,0,0,1-.562.562,3.075,3.075,0,0,1-.9.456A3.816,3.816,0,0,1,1049.411,460.108Zm-1.812-4.072h3.623V456a2.452,2.452,0,0,0-.218-1.058,1.759,1.759,0,0,0-.628-.734,1.73,1.73,0,0,0-.978-.271,1.7,1.7,0,0,0-.972.271,1.727,1.727,0,0,0-.615.734A2.519,2.519,0,0,0,1047.6,456Zm9.11,3.94a2.278,2.278,0,0,1-1.2-.284,1.644,1.644,0,0,1-.674-.807,3.281,3.281,0,0,1-.212-1.236v-3.491h-1.031a.293.293,0,0,1-.3-.3v-.45a.294.294,0,0,1,.3-.3h1.031v-2.208a.294.294,0,0,1,.3-.3h.622a.294.294,0,0,1,.3.3V453.1h1.64a.29.29,0,0,1,.225.086.308.308,0,0,1,.079.218v.45a.31.31,0,0,1-.079.218.292.292,0,0,1-.225.085h-1.64v3.4a1.928,1.928,0,0,0,.212.979.8.8,0,0,0,.754.357h.807a.294.294,0,0,1,.3.3v.476a.294.294,0,0,1-.3.3Zm4.31,0a.377.377,0,0,1-.265-.086.7.7,0,0,1-.159-.245l-1.878-6.135a.352.352,0,0,1-.026-.132.258.258,0,0,1,.086-.2.276.276,0,0,1,.192-.079h.582a.3.3,0,0,1,.225.079.468.468,0,0,1,.106.145l1.468,4.985,1.574-4.932a.458.458,0,0,1,.112-.185.334.334,0,0,1,.258-.093h.449a.357.357,0,0,1,.265.093.334.334,0,0,1,.106.185l1.573,4.932,1.468-4.985a.315.315,0,0,1,.317-.224h.6a.253.253,0,0,1,.185.079.269.269,0,0,1,.079.2.35.35,0,0,1-.026.132l-1.864,6.135a.576.576,0,0,1-.146.245.418.418,0,0,1-.291.086h-.516a.457.457,0,0,1-.284-.086.427.427,0,0,1-.152-.245l-1.534-4.734-1.534,4.734a.514.514,0,0,1-.158.245.452.452,0,0,1-.291.086Zm11.411.132a3.362,3.362,0,0,1-1.679-.383,2.582,2.582,0,0,1-1.031-1.064,3.658,3.658,0,0,1-.4-1.554q-.013-.225-.013-.575c0-.234,0-.421.013-.563a3.582,3.582,0,0,1,.4-1.56,2.636,2.636,0,0,1,1.038-1.057,3.811,3.811,0,0,1,3.332,0,2.634,2.634,0,0,1,1.038,1.057,3.582,3.582,0,0,1,.4,1.56c.009.141.013.329.013.563s0,.425-.013.575a3.664,3.664,0,0,1-.4,1.554,2.587,2.587,0,0,1-1.031,1.064A3.363,3.363,0,0,1,1072.431,460.108Zm0-1.017a1.709,1.709,0,0,0,1.309-.522,2.3,2.3,0,0,0,.529-1.527c.009-.132.013-.3.013-.5s0-.37-.013-.5a2.294,2.294,0,0,0-.529-1.527,1.707,1.707,0,0,0-1.309-.523,1.729,1.729,0,0,0-1.316.523,2.228,2.228,0,0,0-.522,1.527q-.013.2-.013.5c0,.2,0,.37.013.5a2.23,2.23,0,0,0,.522,1.527A1.731,1.731,0,0,0,1072.431,459.091Zm5.077.886a.294.294,0,0,1-.3-.3v-6.255a.315.315,0,0,1,.086-.224.284.284,0,0,1,.218-.093h.608a.316.316,0,0,1,.317.317V454a1.68,1.68,0,0,1,.727-.674,2.56,2.56,0,0,1,1.124-.224h.516a.294.294,0,0,1,.3.3v.542a.271.271,0,0,1-.086.211.307.307,0,0,1-.218.08h-.793a1.5,1.5,0,0,0-1.124.416,1.544,1.544,0,0,0-.41,1.131v3.887a.286.286,0,0,1-.093.218.32.32,0,0,1-.225.086Zm5.038,0a.294.294,0,0,1-.3-.3v-8.78a.294.294,0,0,1,.3-.3h.621a.294.294,0,0,1,.3.3v4.6l2.6-2.169a1.637,1.637,0,0,1,.245-.178.636.636,0,0,1,.284-.046h.7a.271.271,0,0,1,.278.278.261.261,0,0,1-.033.118.389.389,0,0,1-.126.133l-3.054,2.539,3.385,3.292c.106.088.159.167.159.237a.271.271,0,0,1-.278.278h-.687a.7.7,0,0,1-.291-.046,1.2,1.2,0,0,1-.238-.179l-2.949-2.816v2.737a.294.294,0,0,1-.3.3Zm12.046,0a2.277,2.277,0,0,1-1.2-.284,1.645,1.645,0,0,1-.674-.807,3.293,3.293,0,0,1-.212-1.236v-3.491h-1.031a.293.293,0,0,1-.3-.3v-.45a.294.294,0,0,1,.3-.3h1.031v-2.208a.294.294,0,0,1,.3-.3h.621a.294.294,0,0,1,.3.3V453.1h1.64a.289.289,0,0,1,.225.086.307.307,0,0,1,.079.218v.45a.309.309,0,0,1-.079.218.291.291,0,0,1-.225.085h-1.64v3.4a1.926,1.926,0,0,0,.212.979.8.8,0,0,0,.754.357h.807a.294.294,0,0,1,.3.3v.476a.294.294,0,0,1-.3.3Zm2.8,0a.294.294,0,0,1-.3-.3v-8.78a.294.294,0,0,1,.3-.3h.661a.289.289,0,0,1,.225.086.307.307,0,0,1,.079.218v3.081a2.787,2.787,0,0,1,.873-.727,2.744,2.744,0,0,1,1.309-.278,2.691,2.691,0,0,1,1.461.377,2.388,2.388,0,0,1,.912,1.045,3.649,3.649,0,0,1,.311,1.554v3.729a.311.311,0,0,1-.079.218.293.293,0,0,1-.225.086h-.661a.294.294,0,0,1-.3-.3V456.01a2.148,2.148,0,0,0-.449-1.448,1.648,1.648,0,0,0-1.322-.522,1.751,1.751,0,0,0-1.322.522,2,2,0,0,0-.5,1.448v3.663a.31.31,0,0,1-.079.218.292.292,0,0,1-.225.086Zm9.652.132a2.713,2.713,0,0,1-1.2-.264,2.328,2.328,0,0,1-.873-.714,1.679,1.679,0,0,1-.331-1.018,1.711,1.711,0,0,1,.74-1.454,4.248,4.248,0,0,1,1.93-.714l1.97-.278v-.383a1.325,1.325,0,0,0-.364-.992,1.645,1.645,0,0,0-1.183-.357,1.732,1.732,0,0,0-.952.238,1.267,1.267,0,0,0-.516.608.281.281,0,0,1-.278.2h-.595a.27.27,0,0,1-.218-.085.308.308,0,0,1-.073-.2,1.113,1.113,0,0,1,.152-.489,2,2,0,0,1,.469-.569,2.715,2.715,0,0,1,.813-.47,3.371,3.371,0,0,1,1.21-.191,3.809,3.809,0,0,1,1.335.2,2.148,2.148,0,0,1,.853.549,2.1,2.1,0,0,1,.45.78,2.9,2.9,0,0,1,.139.886v4.284a.294.294,0,0,1-.3.3h-.608a.292.292,0,0,1-.225-.086.31.31,0,0,1-.079-.218V459.1a2.443,2.443,0,0,1-.463.469,2.472,2.472,0,0,1-.727.383A3.289,3.289,0,0,1,1107.047,460.108Zm.278-.992a2.134,2.134,0,0,0,.991-.231,1.647,1.647,0,0,0,.707-.721,2.621,2.621,0,0,0,.258-1.23v-.371l-1.534.225a3.53,3.53,0,0,0-1.415.443.917.917,0,0,0-.476.787.89.89,0,0,0,.218.615,1.318,1.318,0,0,0,.555.364A2.069,2.069,0,0,0,1107.325,459.116Zm7.735.86a2.277,2.277,0,0,1-1.2-.284,1.644,1.644,0,0,1-.674-.807,3.3,3.3,0,0,1-.211-1.236v-3.491h-1.031a.293.293,0,0,1-.3-.3v-.45a.294.294,0,0,1,.3-.3h1.031v-2.208a.294.294,0,0,1,.3-.3h.621a.294.294,0,0,1,.3.3V453.1h1.639a.29.29,0,0,1,.225.086.308.308,0,0,1,.079.218v.45a.31.31,0,0,1-.079.218.292.292,0,0,1-.225.085H1114.2v3.4a1.926,1.926,0,0,0,.211.979.8.8,0,0,0,.754.357h.807a.294.294,0,0,1,.3.3v.476a.294.294,0,0,1-.3.3Zm8.5.132a3.4,3.4,0,0,1-1.62-.363,2.528,2.528,0,0,1-1.051-1.045,3.591,3.591,0,0,1-.4-1.633q-.013-.2-.013-.529t.013-.529a3.594,3.594,0,0,1,.4-1.634,2.527,2.527,0,0,1,1.051-1.045,3.4,3.4,0,0,1,1.62-.363,3.648,3.648,0,0,1,1.316.211,2.789,2.789,0,0,1,.906.542,2.292,2.292,0,0,1,.535.714,1.9,1.9,0,0,1,.192.727.234.234,0,0,1-.079.212.334.334,0,0,1-.225.079h-.635a.29.29,0,0,1-.2-.059.638.638,0,0,1-.132-.205,1.758,1.758,0,0,0-.648-.912,1.839,1.839,0,0,0-1.018-.264,1.755,1.755,0,0,0-1.289.489,2.26,2.26,0,0,0-.536,1.573q-.013.475,0,.926a2.257,2.257,0,0,0,.536,1.58,1.772,1.772,0,0,0,1.289.483,1.845,1.845,0,0,0,1.018-.264,1.762,1.762,0,0,0,.648-.913.73.73,0,0,1,.132-.211.269.269,0,0,1,.2-.066h.635a.317.317,0,0,1,.225.086.25.25,0,0,1,.079.218,1.922,1.922,0,0,1-.119.569,2.209,2.209,0,0,1-.337.588,2.464,2.464,0,0,1-.575.529,2.932,2.932,0,0,1-.82.37A3.93,3.93,0,0,1,1123.562,460.108Zm7.339,0a3.363,3.363,0,0,1-1.679-.383,2.587,2.587,0,0,1-1.031-1.064,3.664,3.664,0,0,1-.4-1.554q-.013-.225-.013-.575c0-.234,0-.421.013-.563a3.587,3.587,0,0,1,.4-1.56,2.634,2.634,0,0,1,1.038-1.057,3.811,3.811,0,0,1,3.332,0,2.634,2.634,0,0,1,1.038,1.057,3.582,3.582,0,0,1,.4,1.56c.009.141.013.329.013.563s0,.425-.013.575a3.662,3.662,0,0,1-.4,1.554,2.584,2.584,0,0,1-1.032,1.064A3.36,3.36,0,0,1,1130.9,460.108Zm0-1.017a1.709,1.709,0,0,0,1.309-.522,2.3,2.3,0,0,0,.529-1.527c.009-.132.013-.3.013-.5s0-.37-.013-.5a2.293,2.293,0,0,0-.529-1.527,1.707,1.707,0,0,0-1.309-.523,1.73,1.73,0,0,0-1.316.523,2.226,2.226,0,0,0-.522,1.527q-.013.2-.013.5c0,.2,0,.37.013.5a2.229,2.229,0,0,0,.522,1.527A1.732,1.732,0,0,0,1130.9,459.091Zm7.59,1.017a3.364,3.364,0,0,1-1.679-.383,2.578,2.578,0,0,1-1.031-1.064,3.653,3.653,0,0,1-.4-1.554q-.013-.225-.013-.575c0-.234,0-.421.013-.563a3.585,3.585,0,0,1,.4-1.56,2.63,2.63,0,0,1,1.037-1.057,3.811,3.811,0,0,1,3.332,0,2.631,2.631,0,0,1,1.038,1.057,3.575,3.575,0,0,1,.4,1.56c.009.141.013.329.013.563s0,.425-.013.575a3.653,3.653,0,0,1-.4,1.554,2.584,2.584,0,0,1-1.031,1.064A3.36,3.36,0,0,1,1138.49,460.108Zm0-1.017a1.709,1.709,0,0,0,1.309-.522,2.293,2.293,0,0,0,.529-1.527c.009-.132.013-.3.013-.5s0-.37-.013-.5a2.291,2.291,0,0,0-.529-1.527,1.707,1.707,0,0,0-1.309-.523,1.73,1.73,0,0,0-1.316.523,2.226,2.226,0,0,0-.522,1.527q-.013.2-.013.5c0,.2,0,.37.013.5a2.229,2.229,0,0,0,.522,1.527A1.732,1.732,0,0,0,1138.49,459.091Zm5.078.886a.293.293,0,0,1-.3-.3v-6.255a.319.319,0,0,1,.085-.224.284.284,0,0,1,.219-.093h.608a.315.315,0,0,1,.317.317V454a1.683,1.683,0,0,1,.728-.674,2.558,2.558,0,0,1,1.124-.224h.516a.294.294,0,0,1,.3.3v.542a.273.273,0,0,1-.086.211.307.307,0,0,1-.218.08h-.793a1.507,1.507,0,0,0-1.125.416,1.544,1.544,0,0,0-.409,1.131v3.887a.287.287,0,0,1-.093.218.321.321,0,0,1-.225.086Zm7.087.132a2.838,2.838,0,0,1-1.256-.257,2.38,2.38,0,0,1-.866-.7,3.051,3.051,0,0,1-.5-1.011,5.018,5.018,0,0,1-.192-1.2c-.009-.142-.013-.274-.013-.4s0-.256.013-.4a4.971,4.971,0,0,1,.192-1.189,3.115,3.115,0,0,1,.5-1.018,2.344,2.344,0,0,1,.866-.707,2.829,2.829,0,0,1,1.256-.258,2.587,2.587,0,0,1,2.142.965v-3.041a.294.294,0,0,1,.3-.3h.635a.294.294,0,0,1,.3.3v8.78a.294.294,0,0,1-.3.3h-.594a.294.294,0,0,1-.225-.086.313.313,0,0,1-.079-.218v-.556a2.689,2.689,0,0,1-.859.708A2.777,2.777,0,0,1,1150.655,460.108Zm.277-1.071a1.7,1.7,0,0,0,1.058-.3,1.876,1.876,0,0,0,.594-.774,2.622,2.622,0,0,0,.212-.958c.009-.141.013-.311.013-.509s0-.368-.013-.51a2.353,2.353,0,0,0-.219-.912,1.843,1.843,0,0,0-.608-.741,2.039,2.039,0,0,0-2.109.007,1.643,1.643,0,0,0-.569.78,3.58,3.58,0,0,0-.2,1.038q-.014.383,0,.767a3.579,3.579,0,0,0,.2,1.037,1.648,1.648,0,0,0,.569.781A1.743,1.743,0,0,0,1150.932,459.037Zm5.276-7.219a.3.3,0,0,1-.3-.3V450.8a.32.32,0,0,1,.087-.225.284.284,0,0,1,.218-.092h.833a.315.315,0,0,1,.317.317v.713a.287.287,0,0,1-.092.219.322.322,0,0,1-.225.086Zm.106,8.158a.294.294,0,0,1-.3-.3v-6.267a.294.294,0,0,1,.3-.3h.635a.294.294,0,0,1,.3.3v6.267a.294.294,0,0,1-.3.3Zm3.319,0a.294.294,0,0,1-.3-.3v-6.267a.294.294,0,0,1,.3-.3h.622a.294.294,0,0,1,.3.3v.581a2.7,2.7,0,0,1,.866-.734,2.8,2.8,0,0,1,1.342-.284,2.7,2.7,0,0,1,1.461.377,2.4,2.4,0,0,1,.912,1.045,3.647,3.647,0,0,1,.311,1.554v3.729a.294.294,0,0,1-.3.3h-.661a.294.294,0,0,1-.3-.3V456.01a2.149,2.149,0,0,0-.449-1.448,1.649,1.649,0,0,0-1.322-.522,1.728,1.728,0,0,0-1.316.522,2.016,2.016,0,0,0-.5,1.448v3.663a.294.294,0,0,1-.3.3Zm9.626.132a2.712,2.712,0,0,1-1.2-.264,2.324,2.324,0,0,1-.873-.714,1.673,1.673,0,0,1-.331-1.018,1.711,1.711,0,0,1,.74-1.454,4.244,4.244,0,0,1,1.93-.714l1.97-.278v-.383a1.328,1.328,0,0,0-.364-.992,1.646,1.646,0,0,0-1.183-.357,1.732,1.732,0,0,0-.952.238,1.258,1.258,0,0,0-.516.608.281.281,0,0,1-.278.2h-.6a.27.27,0,0,1-.218-.085.3.3,0,0,1-.073-.2,1.106,1.106,0,0,1,.152-.489,2,2,0,0,1,.469-.569,2.713,2.713,0,0,1,.813-.47,3.371,3.371,0,0,1,1.21-.191,3.81,3.81,0,0,1,1.336.2,2.159,2.159,0,0,1,.853.549,2.1,2.1,0,0,1,.449.78,2.9,2.9,0,0,1,.139.886v4.284a.294.294,0,0,1-.3.3h-.608a.292.292,0,0,1-.225-.086.31.31,0,0,1-.079-.218V459.1a2.421,2.421,0,0,1-1.19.853A3.291,3.291,0,0,1,1169.259,460.108Zm.278-.992a2.139,2.139,0,0,0,.992-.231,1.649,1.649,0,0,0,.707-.721,2.623,2.623,0,0,0,.258-1.23v-.371l-1.534.225a3.532,3.532,0,0,0-1.415.443.917.917,0,0,0-.476.787.889.889,0,0,0,.218.615,1.316,1.316,0,0,0,.555.364A2.07,2.07,0,0,0,1169.536,459.116Zm7.735.86a2.277,2.277,0,0,1-1.2-.284,1.644,1.644,0,0,1-.674-.807,3.276,3.276,0,0,1-.212-1.236v-3.491h-1.031a.293.293,0,0,1-.3-.3v-.45a.294.294,0,0,1,.3-.3h1.031v-2.208a.294.294,0,0,1,.3-.3h.621a.294.294,0,0,1,.3.3V453.1h1.64a.291.291,0,0,1,.225.086.308.308,0,0,1,.079.218v.45a.31.31,0,0,1-.079.218.293.293,0,0,1-.225.085h-1.64v3.4a1.919,1.919,0,0,0,.212.979.8.8,0,0,0,.754.357h.807a.294.294,0,0,1,.3.3v.476a.294.294,0,0,1-.3.3Zm5.236.132a2.884,2.884,0,0,1-2.182-.839,3.462,3.462,0,0,1-.886-2.295q-.013-.172-.013-.442t.013-.443a3.859,3.859,0,0,1,.436-1.646,2.723,2.723,0,0,1,1.051-1.091,3.089,3.089,0,0,1,1.567-.383,3.137,3.137,0,0,1,1.686.423,2.692,2.692,0,0,1,1.038,1.2,4.344,4.344,0,0,1,.357,1.825v.224a.291.291,0,0,1-.086.225.31.31,0,0,1-.218.079H1180.7v.119a2.781,2.781,0,0,0,.238,1.011,1.856,1.856,0,0,0,.615.76,1.57,1.57,0,0,0,.946.292,1.91,1.91,0,0,0,.793-.145,2.063,2.063,0,0,0,.516-.324,1.571,1.571,0,0,0,.265-.285.684.684,0,0,1,.185-.191.494.494,0,0,1,.212-.033h.648a.3.3,0,0,1,.2.073.221.221,0,0,1,.073.2,1.021,1.021,0,0,1-.212.483,2.618,2.618,0,0,1-.562.562,3.076,3.076,0,0,1-.9.456A3.817,3.817,0,0,1,1182.508,460.108Zm-1.812-4.072h3.623V456a2.456,2.456,0,0,0-.218-1.058,1.76,1.76,0,0,0-.628-.734,1.73,1.73,0,0,0-.978-.271,1.7,1.7,0,0,0-.972.271,1.726,1.726,0,0,0-.615.734A2.519,2.519,0,0,0,1180.7,456Zm8.846,4.072a3.866,3.866,0,0,1-1.269-.184,2.912,2.912,0,0,1-.86-.45,2.171,2.171,0,0,1-.5-.53,1.041,1.041,0,0,1-.178-.422.236.236,0,0,1,.093-.225.354.354,0,0,1,.212-.079h.595a.284.284,0,0,1,.112.02.414.414,0,0,1,.125.112q.172.184.384.37a1.733,1.733,0,0,0,.522.3,2.542,2.542,0,0,0,1.884-.139.832.832,0,0,0,.436-.761.76.76,0,0,0-.178-.528,1.536,1.536,0,0,0-.635-.357,11.032,11.032,0,0,0-1.25-.33,4.591,4.591,0,0,1-1.256-.456,1.668,1.668,0,0,1-.661-.649,1.8,1.8,0,0,1-.2-.852,1.735,1.735,0,0,1,.291-.945,2.159,2.159,0,0,1,.853-.748,3.049,3.049,0,0,1,1.408-.29,3.554,3.554,0,0,1,1.177.172,2.671,2.671,0,0,1,.807.43,2.181,2.181,0,0,1,.476.508.985.985,0,0,1,.172.424.25.25,0,0,1-.079.218.3.3,0,0,1-.211.086h-.555a.268.268,0,0,1-.152-.04.777.777,0,0,1-.112-.093,3.2,3.2,0,0,0-.311-.345,1.412,1.412,0,0,0-.463-.284,2.072,2.072,0,0,0-.747-.112,1.512,1.512,0,0,0-.992.278.875.875,0,0,0-.33.7.741.741,0,0,0,.145.45,1.23,1.23,0,0,0,.555.357,9.421,9.421,0,0,0,1.216.343,4.558,4.558,0,0,1,1.375.463,1.831,1.831,0,0,1,.714.675,1.8,1.8,0,0,1,.212.886,1.764,1.764,0,0,1-.317,1.018,2.133,2.133,0,0,1-.952.734A3.981,3.981,0,0,1,1189.542,460.108Zm10.023-.132a2.275,2.275,0,0,1-1.2-.284,1.644,1.644,0,0,1-.674-.807,3.278,3.278,0,0,1-.212-1.236v-3.491h-1.031a.293.293,0,0,1-.3-.3v-.45a.294.294,0,0,1,.3-.3h1.031v-2.208a.294.294,0,0,1,.3-.3h.621a.294.294,0,0,1,.3.3V453.1h1.64a.29.29,0,0,1,.225.086.307.307,0,0,1,.079.218v.45a.309.309,0,0,1-.079.218.293.293,0,0,1-.225.085h-1.64v3.4a1.917,1.917,0,0,0,.212.979.8.8,0,0,0,.754.357h.807a.294.294,0,0,1,.3.3v.476a.294.294,0,0,1-.3.3Zm2.8,0a.294.294,0,0,1-.3-.3v-8.78a.294.294,0,0,1,.3-.3h.661a.291.291,0,0,1,.225.086.307.307,0,0,1,.079.218v3.081a2.783,2.783,0,0,1,.873-.727,2.742,2.742,0,0,1,1.309-.278,2.694,2.694,0,0,1,1.461.377,2.4,2.4,0,0,1,.912,1.045,3.645,3.645,0,0,1,.311,1.554v3.729a.31.31,0,0,1-.079.218.293.293,0,0,1-.225.086h-.661a.294.294,0,0,1-.3-.3V456.01a2.148,2.148,0,0,0-.45-1.448,1.649,1.649,0,0,0-1.322-.522,1.749,1.749,0,0,0-1.322.522,2,2,0,0,0-.5,1.448v3.663a.31.31,0,0,1-.079.218.293.293,0,0,1-.225.086Zm8.039,0a.294.294,0,0,1-.3-.3v-6.255a.316.316,0,0,1,.086-.224.282.282,0,0,1,.218-.093h.608a.316.316,0,0,1,.317.317V454a1.679,1.679,0,0,1,.727-.674,2.557,2.557,0,0,1,1.124-.224h.516a.294.294,0,0,1,.3.3v.542a.273.273,0,0,1-.086.211.307.307,0,0,1-.218.08h-.793a1.5,1.5,0,0,0-1.124.416,1.542,1.542,0,0,0-.41,1.131v3.887a.286.286,0,0,1-.093.218.321.321,0,0,1-.225.086Zm4.919-8.158a.294.294,0,0,1-.3-.3V450.8a.319.319,0,0,1,.086-.225.284.284,0,0,1,.218-.092h.833a.315.315,0,0,1,.317.317v.713a.286.286,0,0,1-.093.219.321.321,0,0,1-.225.086Zm.106,8.158a.294.294,0,0,1-.3-.3v-6.267a.294.294,0,0,1,.3-.3h.635a.294.294,0,0,1,.3.3v6.267a.294.294,0,0,1-.3.3Zm5.289,0a.476.476,0,0,1-.311-.092.658.658,0,0,1-.178-.238l-2.446-6.135a.35.35,0,0,1-.026-.132.271.271,0,0,1,.277-.278h.635a.3.3,0,0,1,.225.079.469.469,0,0,1,.106.145l2.01,5.21,2.01-5.21a.482.482,0,0,1,.1-.145.281.281,0,0,1,.218-.079h.648a.277.277,0,0,1,.192.079.261.261,0,0,1,.086.2.368.368,0,0,1-.026.132l-2.459,6.135a.553.553,0,0,1-.165.238.5.5,0,0,1-.324.092Zm5.13-8.158a.294.294,0,0,1-.3-.3V450.8a.319.319,0,0,1,.086-.225.284.284,0,0,1,.218-.092h.833a.315.315,0,0,1,.318.317v.713a.287.287,0,0,1-.093.219.321.321,0,0,1-.225.086Zm.106,8.158a.294.294,0,0,1-.3-.3v-6.267a.294.294,0,0,1,.3-.3h.635a.294.294,0,0,1,.3.3v6.267a.294.294,0,0,1-.3.3Zm3.306,0a.294.294,0,0,1-.3-.3v-6.267a.294.294,0,0,1,.3-.3h.621a.294.294,0,0,1,.3.3v.581a2.7,2.7,0,0,1,.866-.734,2.8,2.8,0,0,1,1.342-.284,2.7,2.7,0,0,1,1.461.377,2.394,2.394,0,0,1,.912,1.045,3.649,3.649,0,0,1,.311,1.554v3.729a.294.294,0,0,1-.3.3h-.661a.294.294,0,0,1-.3-.3V456.01a2.148,2.148,0,0,0-.449-1.448,1.648,1.648,0,0,0-1.322-.522,1.728,1.728,0,0,0-1.316.522,2.017,2.017,0,0,0-.5,1.448v3.663a.294.294,0,0,1-.3.3Zm10.525,2.909a3.905,3.905,0,0,1-1.474-.238,2.611,2.611,0,0,1-.9-.575,2.2,2.2,0,0,1-.463-.674,1.824,1.824,0,0,1-.152-.536.258.258,0,0,1,.086-.224.312.312,0,0,1,.218-.093h.635a.353.353,0,0,1,.2.052.409.409,0,0,1,.132.225,2.57,2.57,0,0,0,.238.443,1.291,1.291,0,0,0,.489.423,1.964,1.964,0,0,0,.926.179,2.79,2.79,0,0,0,1.044-.172,1.236,1.236,0,0,0,.642-.582,2.452,2.452,0,0,0,.218-1.137v-.9a2.523,2.523,0,0,1-.833.681,2.77,2.77,0,0,1-1.3.27,2.871,2.871,0,0,1-1.269-.258,2.376,2.376,0,0,1-.866-.7,3.059,3.059,0,0,1-.5-1.012,4.994,4.994,0,0,1-.192-1.19c-.009-.247-.009-.489,0-.728a4.983,4.983,0,0,1,.192-1.189,3.124,3.124,0,0,1,.5-1.018,2.348,2.348,0,0,1,.866-.707,2.862,2.862,0,0,1,1.269-.258,2.682,2.682,0,0,1,1.316.29,2.716,2.716,0,0,1,.853.727v-.569a.316.316,0,0,1,.086-.224.282.282,0,0,1,.218-.093h.608a.316.316,0,0,1,.317.317v6.413a3.932,3.932,0,0,1-.3,1.574,2.284,2.284,0,0,1-.979,1.084A3.638,3.638,0,0,1,1239.786,462.886Zm-.026-3.914a1.726,1.726,0,0,0,1.064-.3,1.827,1.827,0,0,0,.6-.767,2.641,2.641,0,0,0,.2-.939q.013-.184.013-.456t-.013-.456a2.634,2.634,0,0,0-.2-.939,1.818,1.818,0,0,0-.6-.767,2.022,2.022,0,0,0-2.122-.007,1.636,1.636,0,0,0-.569.78,3.572,3.572,0,0,0-.2,1.038c-.009.229-.009.463,0,.7a3.58,3.58,0,0,0,.2,1.039,1.64,1.64,0,0,0,.569.78A1.725,1.725,0,0,0,1239.76,458.972Zm11.093,1.136a2.884,2.884,0,0,1-2.182-.839,3.46,3.46,0,0,1-.886-2.295c-.009-.114-.013-.262-.013-.442s0-.329.013-.443a3.863,3.863,0,0,1,.436-1.646,2.714,2.714,0,0,1,1.051-1.091,3.089,3.089,0,0,1,1.567-.383,3.136,3.136,0,0,1,1.686.423,2.7,2.7,0,0,1,1.038,1.2,4.344,4.344,0,0,1,.357,1.825v.224a.293.293,0,0,1-.086.225.31.31,0,0,1-.218.079h-4.575v.119a2.746,2.746,0,0,0,.238,1.011,1.855,1.855,0,0,0,.615.76,1.569,1.569,0,0,0,.946.292,1.911,1.911,0,0,0,.793-.145,2.063,2.063,0,0,0,.516-.324,1.567,1.567,0,0,0,.264-.285.687.687,0,0,1,.185-.191.493.493,0,0,1,.212-.033h.648a.3.3,0,0,1,.2.073.222.222,0,0,1,.073.2,1.03,1.03,0,0,1-.212.483,2.631,2.631,0,0,1-.562.562,3.073,3.073,0,0,1-.9.456A3.814,3.814,0,0,1,1250.854,460.108Zm-1.811-4.072h3.623V456a2.452,2.452,0,0,0-.218-1.058,1.76,1.76,0,0,0-.628-.734,1.732,1.732,0,0,0-.978-.271,1.7,1.7,0,0,0-.972.271,1.725,1.725,0,0,0-.615.734,2.517,2.517,0,0,0-.212,1.058Zm9.242,4.072a3.4,3.4,0,0,1-1.62-.363,2.527,2.527,0,0,1-1.051-1.045,3.574,3.574,0,0,1-.4-1.633q-.013-.2-.013-.529t.013-.529a3.577,3.577,0,0,1,.4-1.634,2.527,2.527,0,0,1,1.051-1.045,3.4,3.4,0,0,1,1.62-.363,3.652,3.652,0,0,1,1.316.211,2.787,2.787,0,0,1,.906.542,2.3,2.3,0,0,1,.535.714,1.908,1.908,0,0,1,.192.727.233.233,0,0,1-.08.212.334.334,0,0,1-.225.079h-.635a.287.287,0,0,1-.2-.059.622.622,0,0,1-.132-.205,1.758,1.758,0,0,0-.648-.912,1.841,1.841,0,0,0-1.018-.264,1.755,1.755,0,0,0-1.289.489,2.26,2.26,0,0,0-.536,1.573q-.014.475,0,.926a2.256,2.256,0,0,0,.536,1.58,1.772,1.772,0,0,0,1.289.483,1.847,1.847,0,0,0,1.018-.264,1.763,1.763,0,0,0,.648-.913.71.71,0,0,1,.132-.211.267.267,0,0,1,.2-.066h.635a.318.318,0,0,1,.225.086.248.248,0,0,1,.08.218,1.966,1.966,0,0,1-.119.569,2.2,2.2,0,0,1-.337.588,2.488,2.488,0,0,1-.575.529,2.939,2.939,0,0,1-.82.37A3.93,3.93,0,0,1,1258.285,460.108Zm7.339,0a3.361,3.361,0,0,1-1.679-.383,2.585,2.585,0,0,1-1.031-1.064,3.667,3.667,0,0,1-.4-1.554c-.009-.15-.013-.342-.013-.575s0-.421.013-.563a3.585,3.585,0,0,1,.4-1.56,2.635,2.635,0,0,1,1.038-1.057,3.811,3.811,0,0,1,3.332,0,2.635,2.635,0,0,1,1.038,1.057,3.592,3.592,0,0,1,.4,1.56c.008.141.013.329.013.563s0,.425-.013.575a3.665,3.665,0,0,1-.4,1.554,2.584,2.584,0,0,1-1.031,1.064A3.362,3.362,0,0,1,1265.623,460.108Zm0-1.017a1.711,1.711,0,0,0,1.309-.522,2.3,2.3,0,0,0,.529-1.527c.009-.132.013-.3.013-.5s0-.37-.013-.5a2.294,2.294,0,0,0-.529-1.527,1.709,1.709,0,0,0-1.309-.523,1.729,1.729,0,0,0-1.316.523,2.227,2.227,0,0,0-.522,1.527c-.009.132-.013.3-.013.5s0,.37.013.5a2.229,2.229,0,0,0,.522,1.527A1.731,1.731,0,0,0,1265.623,459.091Zm7.153,1.017a3.869,3.869,0,0,1-1.269-.184,2.914,2.914,0,0,1-.86-.45,2.189,2.189,0,0,1-.5-.53,1.038,1.038,0,0,1-.179-.422.237.237,0,0,1,.093-.225.355.355,0,0,1,.211-.079h.6a.283.283,0,0,1,.112.02.416.416,0,0,1,.126.112,5.241,5.241,0,0,0,.383.37,1.737,1.737,0,0,0,.522.3,2.542,2.542,0,0,0,1.884-.139.832.832,0,0,0,.437-.761.76.76,0,0,0-.178-.528,1.532,1.532,0,0,0-.635-.357,11.021,11.021,0,0,0-1.25-.33,4.609,4.609,0,0,1-1.256-.456,1.669,1.669,0,0,1-.661-.649,1.8,1.8,0,0,1-.2-.852,1.736,1.736,0,0,1,.291-.945,2.159,2.159,0,0,1,.853-.748,3.047,3.047,0,0,1,1.408-.29,3.553,3.553,0,0,1,1.177.172,2.671,2.671,0,0,1,.807.43,2.185,2.185,0,0,1,.476.508,1,1,0,0,1,.172.424.249.249,0,0,1-.079.218.305.305,0,0,1-.212.086h-.555a.27.27,0,0,1-.152-.04.786.786,0,0,1-.113-.093,3.072,3.072,0,0,0-.311-.345,1.406,1.406,0,0,0-.463-.284,2.075,2.075,0,0,0-.747-.112,1.512,1.512,0,0,0-.992.278.877.877,0,0,0-.331.7.741.741,0,0,0,.146.45,1.224,1.224,0,0,0,.555.357,9.4,9.4,0,0,0,1.217.343,4.557,4.557,0,0,1,1.375.463,1.831,1.831,0,0,1,.714.675,1.8,1.8,0,0,1,.212.886,1.765,1.765,0,0,1-.317,1.018,2.133,2.133,0,0,1-.952.734A3.981,3.981,0,0,1,1272.776,460.108Zm5.342,2.381a.271.271,0,0,1-.264-.264.45.45,0,0,1,.013-.106.671.671,0,0,1,.053-.132l1.018-2.42-2.526-5.963a.7.7,0,0,1-.066-.225.271.271,0,0,1,.278-.278h.648a.319.319,0,0,1,.218.065.341.341,0,0,1,.1.159l2.01,4.814,2.063-4.814a.451.451,0,0,1,.112-.159.316.316,0,0,1,.218-.065h.621a.269.269,0,0,1,.2.079.254.254,0,0,1,.079.185.842.842,0,0,1-.066.238l-3.755,8.66a.451.451,0,0,1-.113.159.316.316,0,0,1-.218.067Zm8.264-2.381a3.868,3.868,0,0,1-1.269-.184,2.912,2.912,0,0,1-.859-.45,2.168,2.168,0,0,1-.5-.53,1.039,1.039,0,0,1-.178-.422.236.236,0,0,1,.093-.225.354.354,0,0,1,.211-.079h.595a.286.286,0,0,1,.112.02.428.428,0,0,1,.126.112,5.316,5.316,0,0,0,.383.37,1.73,1.73,0,0,0,.522.3,2.542,2.542,0,0,0,1.884-.139.832.832,0,0,0,.436-.761.76.76,0,0,0-.178-.528,1.533,1.533,0,0,0-.635-.357,11.036,11.036,0,0,0-1.249-.33,4.591,4.591,0,0,1-1.256-.456,1.667,1.667,0,0,1-.661-.649,1.8,1.8,0,0,1-.2-.852,1.731,1.731,0,0,1,.291-.945,2.158,2.158,0,0,1,.853-.748,3.047,3.047,0,0,1,1.408-.29,3.557,3.557,0,0,1,1.177.172,2.676,2.676,0,0,1,.807.43,2.184,2.184,0,0,1,.476.508,1,1,0,0,1,.172.424.249.249,0,0,1-.079.218.3.3,0,0,1-.211.086h-.555a.269.269,0,0,1-.152-.04.776.776,0,0,1-.112-.093,3.16,3.16,0,0,0-.311-.345,1.415,1.415,0,0,0-.463-.284,2.076,2.076,0,0,0-.747-.112,1.512,1.512,0,0,0-.992.278.874.874,0,0,0-.33.7.74.74,0,0,0,.145.45,1.226,1.226,0,0,0,.556.357,9.392,9.392,0,0,0,1.216.343,4.558,4.558,0,0,1,1.375.463,1.839,1.839,0,0,1,.714.675,1.8,1.8,0,0,1,.212.886,1.765,1.765,0,0,1-.317,1.018,2.133,2.133,0,0,1-.952.734A3.981,3.981,0,0,1,1286.382,460.108Zm7.034-.132a2.273,2.273,0,0,1-1.2-.284,1.644,1.644,0,0,1-.674-.807,3.278,3.278,0,0,1-.211-1.236v-3.491H1290.3a.292.292,0,0,1-.3-.3v-.45a.293.293,0,0,1,.3-.3h1.031v-2.208a.293.293,0,0,1,.3-.3h.621a.293.293,0,0,1,.3.3V453.1h1.64a.289.289,0,0,1,.224.086.3.3,0,0,1,.079.218v.45a.307.307,0,0,1-.079.218.291.291,0,0,1-.224.085h-1.64v3.4a1.928,1.928,0,0,0,.211.979.8.8,0,0,0,.754.357h.807a.3.3,0,0,1,.3.3v.476a.3.3,0,0,1-.3.3Zm5.237.132a2.885,2.885,0,0,1-2.182-.839,3.46,3.46,0,0,1-.886-2.295c-.009-.114-.013-.262-.013-.442s0-.329.013-.443a3.861,3.861,0,0,1,.436-1.646,2.712,2.712,0,0,1,1.051-1.091,3.089,3.089,0,0,1,1.567-.383,3.137,3.137,0,0,1,1.686.423,2.7,2.7,0,0,1,1.038,1.2,4.344,4.344,0,0,1,.357,1.825v.224a.293.293,0,0,1-.086.225.31.31,0,0,1-.218.079h-4.575v.119a2.754,2.754,0,0,0,.238,1.011,1.855,1.855,0,0,0,.615.76,1.569,1.569,0,0,0,.945.292,1.911,1.911,0,0,0,.794-.145,2.058,2.058,0,0,0,.516-.324,1.572,1.572,0,0,0,.264-.285.687.687,0,0,1,.185-.191.493.493,0,0,1,.211-.033h.648a.305.305,0,0,1,.2.073.223.223,0,0,1,.073.2,1.029,1.029,0,0,1-.211.483,2.635,2.635,0,0,1-.562.562,3.071,3.071,0,0,1-.9.456A3.815,3.815,0,0,1,1298.652,460.108Zm-1.811-4.072h3.623V456a2.449,2.449,0,0,0-.218-1.058,1.758,1.758,0,0,0-.628-.734,1.731,1.731,0,0,0-.979-.271,1.7,1.7,0,0,0-.972.271,1.726,1.726,0,0,0-.615.734,2.512,2.512,0,0,0-.211,1.058Zm6.77,3.94a.294.294,0,0,1-.3-.3v-6.267a.294.294,0,0,1,.3-.3h.595a.294.294,0,0,1,.3.3v.463a2.233,2.233,0,0,1,.767-.654,2.343,2.343,0,0,1,1.111-.245,2.156,2.156,0,0,1,2.116,1.216,2.247,2.247,0,0,1,.886-.886,2.623,2.623,0,0,1,1.322-.331,2.5,2.5,0,0,1,1.25.317,2.207,2.207,0,0,1,.886.958,3.554,3.554,0,0,1,.324,1.607v3.821a.3.3,0,0,1-.3.3h-.622a.294.294,0,0,1-.3-.3v-3.7a2.632,2.632,0,0,0-.212-1.163,1.247,1.247,0,0,0-.568-.595,1.772,1.772,0,0,0-.78-.172,1.6,1.6,0,0,0-.7.172,1.344,1.344,0,0,0-.588.595,2.437,2.437,0,0,0-.231,1.163v3.7a.3.3,0,0,1-.3.3h-.621a.295.295,0,0,1-.3-.3v-3.7a2.5,2.5,0,0,0-.224-1.163,1.31,1.31,0,0,0-.582-.595,1.709,1.709,0,0,0-.754-.172,1.6,1.6,0,0,0-.7.172,1.339,1.339,0,0,0-.589.595,2.4,2.4,0,0,0-.232,1.15v3.715a.294.294,0,0,1-.3.3Zm13.831.132a3.868,3.868,0,0,1-1.269-.184,2.91,2.91,0,0,1-.859-.45,2.174,2.174,0,0,1-.5-.53,1.038,1.038,0,0,1-.178-.422.235.235,0,0,1,.093-.225.354.354,0,0,1,.211-.079h.6a.286.286,0,0,1,.112.02.423.423,0,0,1,.126.112,5.123,5.123,0,0,0,.384.37,1.727,1.727,0,0,0,.522.3,2.542,2.542,0,0,0,1.884-.139.832.832,0,0,0,.436-.761.76.76,0,0,0-.178-.528,1.534,1.534,0,0,0-.635-.357,11.042,11.042,0,0,0-1.25-.33,4.6,4.6,0,0,1-1.256-.456,1.669,1.669,0,0,1-.661-.649,1.8,1.8,0,0,1-.2-.852,1.728,1.728,0,0,1,.291-.945,2.157,2.157,0,0,1,.853-.748,3.046,3.046,0,0,1,1.408-.29,3.556,3.556,0,0,1,1.177.172,2.674,2.674,0,0,1,.807.43,2.184,2.184,0,0,1,.476.508.985.985,0,0,1,.172.424.249.249,0,0,1-.079.218.305.305,0,0,1-.211.086h-.555a.269.269,0,0,1-.152-.04.8.8,0,0,1-.112-.093,3.207,3.207,0,0,0-.311-.345,1.419,1.419,0,0,0-.463-.284,2.074,2.074,0,0,0-.747-.112,1.512,1.512,0,0,0-.992.278.875.875,0,0,0-.331.7.741.741,0,0,0,.146.45,1.225,1.225,0,0,0,.555.357,9.389,9.389,0,0,0,1.216.343,4.557,4.557,0,0,1,1.375.463,1.839,1.839,0,0,1,.714.675,1.805,1.805,0,0,1,.212.886,1.764,1.764,0,0,1-.317,1.018,2.133,2.133,0,0,1-.952.734A3.979,3.979,0,0,1,1317.441,460.108Zm4.575-.132a.294.294,0,0,1-.3-.3v-.952a.294.294,0,0,1,.3-.3h.952a.318.318,0,0,1,.225.086.284.284,0,0,1,.093.218v.952a.286.286,0,0,1-.093.218.322.322,0,0,1-.225.086Z" transform="translate(-542.884 420.512)" fill="#fff"/>
    </g>
    <g id="Group_2118" data-name="Group 2118" transform="translate(2089.205 -1700.881)">
      <g id="Group_2117" data-name="Group 2117" transform="translate(-1167.573 2160.21)">
        <path id="Path_680" data-name="Path 680" d="M-1091.087,2365.44c-2.821-1.345-5.972-1.169-8.93-1.93-19.766-5.084-35.775-15.6-47.477-32.4-.439-.63-.819-1.3-1.44-2.3,3.628-1.137,7.2-.975,10.637-1.235,20.126-1.527,40.27-2.838,60.407-4.214a18.882,18.882,0,0,1,2.009-.022c5.034.193,7.315,3.565,5.241,8.116-3.406,7.476-7.015,14.861-10.542,22.282-1.334,2.807-2.666,5.616-4.018,8.415a6.584,6.584,0,0,1-2.536,3.287Z" transform="translate(1162.304 -2203.59)" fill="#2b3f83"/>
        <path id="Path_681" data-name="Path 681" d="M-465.7,2296.761c-.441.333-.891.656-1.322,1-4.1,3.274-8.483,1.627-9.36-3.537-.126-.74-.1-1.506-.168-2.684a34.493,34.493,0,0,1-12.178,7.063,23.6,23.6,0,0,1-20.234-2.581c-9.781-5.929-13.563-15.167-12.99-26.146,1.014-19.424,18.383-30.778,37.15-25.327,9.852,2.861,15.482,10.145,18.369,19.7.188.625.071,1.349.733,1.771Zm-27.874-6.661c11.3.463,17.565-8.792,17.807-18.357.281-11.093-8.885-19.422-17.667-19.323-11.643.132-18.46,9.5-18.5,19.167C-511.973,2282.245-503.61,2290.9-493.571,2290.1Z" transform="translate(996.154 -2182.351)" fill="#e7ebd7"/>
        <path id="Path_682" data-name="Path 682" d="M-1047.448,2368.685c-.444-3.016,1.481-5.261,2.635-7.715,3.348-7.118,6.73-14.224,10.318-21.223,2.667-5.2,6.166-5.581,9.719-.952,4.119,5.367,7.835,11.04,11.782,16.539,1.2,1.665.259,2.2-1.1,2.935a77.2,77.2,0,0,1-27.621,9.295c-1.475.18-3.138-.042-4.393,1.122Z" transform="translate(1135.425 -2206.835)" fill="#fbbc09"/>
        <path id="Path_683" data-name="Path 683" d="M-1167.116,2248.333c.379-23.8,9.134-43.886,26.864-59.98,3.187-2.894,3.321-2.952,5.739.382,5.817,8.024,11.535,16.12,17.258,24.211,2.166,3.062,1.848,6.2.263,9.447q-4.382,9-8.52,18.107c-1.174,2.6-.914,5.052,1.872,6.625,2.486,1.4,5.116.724,6.985-1.893a26.946,26.946,0,0,0,2.055-3.8c.836-1.694,1.53-3.461,2.428-5.119,3.056-5.637,7.079-6,10.753-.859q11.462,16.04,22.742,32.208c3.34,4.783,1.385,8.869-4.417,9.205-24.841,1.441-49.6,4.014-74.467,5.115-2.175.1-2.7-1.033-3.305-2.494A77.912,77.912,0,0,1-1167.116,2248.333Z" transform="translate(1167.124 -2167.251)" fill="#4064ec"/>
        <path id="Path_684" data-name="Path 684" d="M-1077.663,2208.467a8.175,8.175,0,0,1,.947-3.84q9.667-20.128,19.276-40.283c1.111-2.344,2.261-3.47,5.292-3.067a82.249,82.249,0,0,1,47.6,23.006c1.416,1.369,1.4,2.434.636,4.041-10.3,21.667-20.51,43.377-30.844,65.028-3.214,6.733-8.071,7.108-12.385,1.034-9.542-13.433-18.99-26.93-28.49-40.392A9.094,9.094,0,0,1-1077.663,2208.467Z" transform="translate(1143.416 -2160.623)" fill="#2b3f83"/>
        <path id="Path_685" data-name="Path 685" d="M-823.144,2241.721c0,12.805.027,25.611-.022,38.416-.009,2.422-.261,4.928-2.908,6.1-4.187,1.855-7.725-.4-7.761-5.01-.071-8.8-.141-17.6.038-26.389.063-3.08-.885-4.081-4-4.029-9.941.165-19.886.044-29.83.067-5.564.012-5.785.264-5.784,5.758,0,8.24-.05,16.48.025,24.719.027,3.015-1.305,4.944-4.174,5.515a5.708,5.708,0,0,1-6.4-4.486,11.359,11.359,0,0,1-.161-2.32q-.011-30.566,0-61.132c.006-4.863,2.219-6.777,6.755-6.21,2.911.364,3.97,1.984,3.953,4.742-.044,7.015.073,14.031-.051,21.045-.042,2.328.681,3.077,3.043,3.055,11.172-.105,22.346-.128,33.517.012,2.683.034,3.105-1.022,3.086-3.351-.1-11.691-.035-23.383-.054-35.075,0-2.173.259-4.184,2.013-5.753a5,5,0,0,1,8.145,1.981,11.514,11.514,0,0,1,.566,4.261Q-823.149,2222.68-823.144,2241.721Z" transform="translate(1092.124 -2169.856)" fill="#e7ebd7"/>
        <path id="Path_686" data-name="Path 686" d="M-1002.32,2281.813c-5.609.269-8.161-3.282-5.77-8.345q13.028-27.584,26.216-55.093a5.2,5.2,0,0,1,4.928-3.355,5.3,5.3,0,0,1,5.045,3.195,78.426,78.426,0,0,1,8.993,30.138,77.7,77.7,0,0,1-.6,19.925c-.431,2.568-1.208,5.057-1.618,7.652-.436,2.759-2.822,3.752-5.521,3.915Q-986.484,2280.8-1002.32,2281.813Z" transform="translate(1125.214 -2174.887)" fill="#4064ec"/>
        <path id="Path_687" data-name="Path 687" d="M-693.622,2290.685c0,7.741.014,14.748-.006,21.754-.01,3.458-2.445,5.938-5.468,5.642a5.854,5.854,0,0,1-4.9-6.716c.639-3.648.248-7.32.274-10.979q.106-14.688.009-29.376c-.09-11.784,5.408-20.6,15.8-25.244,9.809-4.38,23.731-4.423,33.694,7.284,11.091,13.033,7.7,34.305-6.046,42.779-10.068,6.208-20.945,5.474-30.871-2.969C-691.783,2292.3-692.426,2291.729-693.622,2290.685Zm17.911-.621c11.321.7,18.383-8.688,18.058-18.665-.316-9.673-4.979-20.012-21.026-18.831-7.076.519-14.424,6.686-15.1,18.168C-694.34,2280.392-685.923,2291.475-675.712,2290.063Z" transform="translate(1044.406 -2182.318)" fill="#e7ebd7"/>
        <path id="Path_688" data-name="Path 688" d="M-611.4,2256.012c0-10.125-.057-20.25.024-30.374.043-5.4,3.709-8.487,8.168-7.333,3.2.827,3.765,3.209,3.822,5.846.107,5,.075,10.013.009,15.02-.029,2.164.074,3.236,2.608,1.6,8.812-5.687,18.122-5.656,27.26-1.13a18.933,18.933,0,0,1,10.424,13.431c2.431,11.222.928,22.573,1.241,33.861.1,3.715-2.353,6.021-5.326,5.82-3.587-.241-5.332-2.25-5.336-6.18-.007-8.232.1-16.467-.035-24.7-.122-7.479-2.811-13.5-10.774-15.511-9.183-2.323-20.946,2.235-20.149,14.016.57,8.417.124,16.9.105,25.359-.01,4.482-2.148,7.06-5.751,7.026-3.806-.035-6.275-2.771-6.283-7.048Q-611.418,2270.864-611.4,2256.012Z" transform="translate(1019.85 -2175.694)" fill="#e7ebd7"/>
        <path id="Path_689" data-name="Path 689" d="M-757.982,2283.76c3.759-7.373,6.7-14.987,9.816-22.526,1.984-4.8,3.984-9.6,6.142-14.323,1.521-3.329,3.458-3.986,6.72-2.671,3.116,1.256,3.809,2.678,2.306,6.4-3.937,9.745-8.029,19.428-12.135,29.1-3.684,8.682-7.467,17.323-11.211,25.98-1.307,3.022-2.575,6.062-3.954,9.052-1.182,2.564-4.175,3.958-6.174,3-3.36-1.606-4.1-3.948-2.6-7.331,2.106-4.754,4.014-9.6,6.07-14.373a2.433,2.433,0,0,0-.19-2.439q-6.424-11.816-12.692-23.718c-3.21-6.072-6.458-12.127-9.489-18.288-2.19-4.452-1.305-6.548,2.628-7.833,2.86-.935,4.7.579,5.7,2.711,2.822,6,5.8,11.94,8.844,17.8C-764.858,2270.753-762.116,2277.541-757.982,2283.76Z" transform="translate(1066.262 -2182.438)" fill="#e7ebd7"/>
        <path id="Path_690" data-name="Path 690" d="M-1076.372,2160.416c-5.209,10.783-9.988,21.032-15.118,31.1a5,5,0,0,1-8.671.874c-4.743-6.021-9.054-12.382-13.5-18.633-1.253-1.761.6-2.046,1.495-2.567a76.668,76.668,0,0,1,25.252-9.266C-1083.652,2161.348-1080.351,2160.979-1076.372,2160.416Z" transform="translate(1153.068 -2160.416)" fill="#3952ae"/>
        <path id="Path_691" data-name="Path 691" d="M-983.952,2317.928c3.888-.261,7.775-.534,11.664-.777,1.971-.123,2.691.484,1.651,2.506a83.5,83.5,0,0,1-20.174,25.43c-1.235,1.058-1.955,1.005-2.888-.341-3.86-5.57-7.941-10.994-11.665-16.651-3-4.56-.75-8.642,4.751-9.053,5.55-.414,11.1-.77,16.658-1.152Z" transform="translate(1124.609 -2201.95)" fill="#3952ae"/>
      </g>
      <rect id="Rectangle_512" data-name="Rectangle 512" width="531.77" height="162.485" transform="translate(-1168.818 2159.639)" fill="none"/>
      <rect id="Rectangle_513" data-name="Rectangle 513" width="531.77" height="162.485" transform="translate(-1168.818 2159.639)" fill="none"/>
    </g>
  </g>
</svg>
