<svg width="207" height="207" viewBox="0 0 207 207" fill="none" xmlns="http://www.w3.org/2000/svg">
<path fill-rule="evenodd" clip-rule="evenodd" d="M25.773 2.98023e-08H34.364L34.3641 0.000109933L42.9278 -0.0358887L38.6285 4.26339L42.9562 8.58991L51.5471 2.98023e-08H60.1371L47.2567 12.8894L51.5487 17.1802L68.7289 2.98023e-08L85.9156 17.1768L87.8199 15.273L90.2063 12.8865L77.3198 2.98023e-08H85.9108L94.5062 8.58634L98.7965 4.29571L94.5009 2.98023e-08H103.092L111.656 -0.0358887L107.357 4.26338L111.684 8.58992L120.274 2.98023e-08H128.865L115.985 12.8894L120.276 17.1797L137.456 2.98023e-08L154.642 17.177L150.342 21.477L137.456 8.591L124.577 21.4791L128.869 25.7702L137.457 17.1819L146.053 25.7673L150.343 21.477L152.049 19.7731L158.935 12.8868L146.048 2.98023e-08H154.638L163.235 8.58671L167.526 4.29557L163.23 2.98023e-08H171.821L180.385 -0.0358887L176.086 4.26337L180.413 8.58991L189.002 2.98023e-08H197.593L184.714 12.8894L189.006 17.1802L206.186 2.98023e-08L206.191 8.596L193.306 21.4797L197.597 25.7694L206.194 17.1819V25.7729L201.898 30.0689L206.19 34.36L201.89 38.66L171.821 8.591L141.758 38.6641L146.049 42.9539L171.821 17.1819L197.6 42.9523L206.19 34.364V42.959L176.121 73.0278L180.413 77.3182L206.185 51.5459V60.1419L184.711 81.6151L189.005 85.9085L206.19 68.728V77.323L193.306 90.2079L197.597 94.4976L206.194 85.9099V94.5009L201.898 98.797L206.195 103.093L206.19 103.098V111.687L176.122 141.755L180.414 146.046L206.185 120.275V128.87L184.712 150.343L189.006 154.636L206.19 137.456V146.052L193.307 158.935L197.598 163.225L206.194 154.638V163.229L201.898 167.525L206.195 171.82L206.185 171.83V180.412L180.412 206.185H171.821L176.121 201.885L171.83 197.594L167.53 201.894L163.23 197.594L171.821 189.003L180.421 197.585L184.707 193.299L171.825 180.417L158.939 193.303L154.639 189.003L171.821 171.821L189.007 188.999L193.301 184.705L171.825 163.23L150.348 184.707L146.048 180.412L171.821 154.639L197.598 180.407L201.89 176.115L171.826 146.051L141.757 176.12L137.462 171.825L137.461 171.826L171.82 206.185H163.229L137.456 180.412L111.683 206.185H103.092L107.392 201.885L103.101 197.594L98.801 201.894L103.092 206.185H94.5008L68.7278 180.412L42.9548 206.185H34.364L38.6599 201.889L34.373 197.594L30.073 201.894L34.3638 206.185H25.773L0 180.412V171.821L8.59082 180.412L34.3638 154.639L60.1394 180.409L64.433 176.116L34.369 146.051L4.3 176.12L0 171.82L4.29557 167.525L0 163.229V154.638L8.59556 163.225L12.8865 158.934L0 146.048V137.457L17.184 154.636L21.4776 150.342L0 128.866V120.275L25.7776 146.042L30.0685 141.752L0 111.683V103.093V103.092L0.000488345 103.093L4.29606 98.797L0 94.5009V85.9099L8.59605 94.497L12.887 90.206L0 77.319V68.728L17.187 85.906L30.0685 73.0245L0 42.956V34.365L4.296 30.0689L0 25.7729V17.1819L8.59593 25.7688L12.8868 21.4778L0 8.591V2.98023e-08L17.1868 17.1777L21.4776 12.8868L21.4769 12.8861L8.59082 2.98023e-08H17.1818L25.7769 8.58609L25.7775 8.58672L30.0686 4.29556L25.773 2.98023e-08ZM103.097 146.053L133.161 176.116L128.87 180.407L103.093 154.639L77.3198 180.412L81.6198 184.707L103.097 163.23L124.572 184.704L120.279 188.998L103.093 171.821L85.9111 189.003L90.2111 193.303L103.097 180.417L115.979 193.298L111.692 197.585L103.092 189.003L94.501 197.594L73.028 176.121L103.097 146.053ZM47.251 193.298L42.9599 197.589L34.364 189.003L25.7729 197.594L21.4821 193.303L34.3691 180.417L47.251 193.298ZM55.8418 184.707L51.551 188.998L34.3641 171.821L17.1821 189.003L8.63985 180.461L12.8908 184.707L34.3688 163.23L55.8418 184.707ZM171.826 77.325L201.892 107.39L197.6 111.681L171.821 85.9109L146.049 111.683L141.757 107.393L171.826 77.325ZM171.825 94.5059L193.3 115.981L189.008 120.272L171.821 103.093L154.641 120.273L150.349 115.982L171.825 94.5059ZM171.825 111.688L184.708 124.571L180.421 128.857L171.821 120.275L163.233 128.863L158.942 124.572L171.825 111.688ZM167.534 133.162L171.83 128.866L176.121 133.157L171.825 137.452L167.534 133.162ZM137.462 111.688L167.525 141.752L163.234 146.043L137.457 120.275L111.685 146.047L107.393 141.757L137.462 111.688ZM120.277 154.637L115.985 150.347L137.461 128.87L158.934 150.343L154.642 154.635L137.457 137.457L120.277 154.637ZM137.461 146.048L150.345 158.932L146.057 163.22L137.457 154.639L128.869 163.227L124.575 158.934L137.461 146.048ZM137.466 163.23L141.757 167.52L137.461 171.816L133.17 167.526L137.466 163.23ZM103.093 137.457L105.615 139.979L103.092 137.457H103.093ZM68.7328 111.688L98.7964 141.753L94.5056 146.043L68.7281 120.275L42.9566 146.046L38.6649 141.756L68.7328 111.688ZM68.7331 128.87L90.2056 150.343L85.9125 154.637L68.7279 137.457L51.5487 154.636L47.2572 150.346L68.7331 128.87ZM68.7329 146.048L81.6149 158.934L77.3242 163.225L68.7282 154.639L60.1409 163.226L55.8467 158.933L68.7329 146.048ZM68.7372 163.23L73.0242 167.525L68.733 171.816L64.4415 167.526L68.7372 163.23ZM103.097 77.323L133.162 107.388L128.87 111.679L103.093 85.9109L77.3204 111.683L73.028 107.392L103.097 77.323ZM73.028 107.392L68.7329 103.098H68.7335L73.028 107.392ZM103.097 94.5059L124.57 115.979L120.279 120.27L103.093 103.093L85.9127 120.273L81.6209 115.983L103.097 94.5059ZM103.097 111.688L115.979 124.57L111.692 128.857L103.092 120.275L94.5042 128.863L90.2133 124.573L103.097 111.688ZM103.101 128.866L107.392 133.157L103.097 137.453L98.8047 133.162L103.101 128.866ZM34.369 77.325L64.4329 107.388L60.1418 111.679L34.3638 85.9109L8.59247 111.682L4.30105 107.392L34.369 77.325ZM34.3688 94.5059L55.8418 115.979L51.5505 120.27L34.3641 103.093L17.1848 120.272L12.893 115.982L34.3688 94.5059ZM34.3691 111.688L47.2504 124.57L42.9599 128.861L34.364 120.275L25.7768 128.862L21.4854 124.572L34.3691 111.688ZM34.373 128.866L38.6599 133.161L34.369 137.452L30.0773 133.161L34.373 128.866ZM171.825 25.7769L193.3 47.252L189.008 51.5431L171.821 34.364L154.641 51.544L150.349 47.2533L171.825 25.7769ZM171.825 42.959L184.708 55.8428L180.422 60.1285L171.821 51.5459L163.233 60.1337L158.942 55.8434L171.825 42.959ZM171.83 60.1369L176.121 64.4282L171.825 68.7235L167.534 64.4331L171.83 60.1369ZM171.825 68.7329V68.7325L174.352 71.2597L171.825 68.7329ZM137.462 42.959L167.526 73.0241L163.235 77.3154L137.457 51.5459L111.685 77.3182L107.393 73.0278L137.462 42.959ZM137.461 60.1409L158.935 81.6154L154.643 85.9066L137.457 68.728L120.277 85.908L115.985 81.6176L137.461 60.1409ZM137.461 77.324L150.343 90.2066L146.057 94.4929L137.457 85.9109L128.87 94.4983L124.578 90.2073L137.461 77.324ZM137.466 94.5019L141.757 98.7928L137.462 103.088L133.17 98.7977L137.466 94.5019ZM103.093 68.728L105.636 71.2716L103.092 68.728L94.5061 77.3139L68.7281 51.5459L42.9557 77.3182L38.664 73.0278L68.7328 42.959L98.7968 73.023L103.097 68.723L98.8052 64.4327L103.101 60.1369L107.388 64.4319L111.688 60.1319L103.092 51.5459L94.5046 60.1333L90.2136 55.8436L103.097 42.959L115.98 55.841L103.093 68.728ZM68.7331 60.1409L90.2061 81.6139L85.9149 85.905L68.7279 68.728L51.548 85.908L47.2564 81.6176L68.7331 60.1409ZM68.7329 77.324L81.6149 90.205L77.3237 94.4964L68.7282 85.9109L60.1408 94.4983L55.8486 90.2073L68.7329 77.324ZM68.7372 94.5019L73.0237 98.7964L68.7325 103.088L64.4414 98.7977L68.7372 94.5019ZM34.3649 68.7291L36.99 71.3542L34.3645 68.7295L34.3649 68.7291ZM144.503 27.3184L137.457 34.3646V34.364L137.461 34.36L133.169 30.0696L137.466 25.7729L141.753 30.0679L145.119 26.702L144.503 27.3184ZM103.092 8.591L133.161 38.66L128.871 42.9499L103.093 17.1819L77.3205 42.9542L73.0295 38.6645L103.092 8.591ZM103.097 25.7769L124.571 47.2499L120.28 51.5408L103.093 34.364L85.913 51.5442L81.6211 47.2536L103.097 25.7769ZM68.729 34.365L69.5714 35.2074L68.7284 34.3646L68.733 34.36L64.441 30.0691L68.7372 25.7729L73.0242 30.0679L77.3242 25.7679L68.7282 17.1819L60.1404 25.7697L55.8492 21.4796L68.7289 8.591L81.6159 21.477L85.9109 17.182L68.729 34.365ZM34.364 8.591L64.4324 38.6594L60.1418 42.9499L34.3638 17.1819L8.59148 42.9542L4.30057 38.6644L34.364 8.591ZM34.3688 25.7769L55.8418 47.2499L51.5509 51.5408L34.3641 34.364L17.1838 51.5443L12.892 47.2537L34.3688 25.7769ZM34.3691 42.959L47.2509 55.8408L42.9599 60.1319L34.364 51.5459L25.7758 60.134L21.4844 55.8438L34.3691 42.959ZM34.373 60.1369L38.6599 64.4319L34.3679 68.7239L30.0764 64.4335L34.373 60.1369ZM21.478 81.6139L0 60.1369V51.5459L25.778 77.3139L21.478 81.6139ZM8.591 206.184L0 197.593V189.003L17.182 206.184H8.591ZM60.1379 206.185H51.5469L68.7289 189.003L85.9109 206.185H77.3199L68.7289 197.594L60.1379 206.185ZM128.865 206.185H120.274L137.456 189.003L154.638 206.185H146.047L137.456 197.594L128.865 206.185ZM197.595 206.185H189.004L206.186 189.003V197.594L197.595 206.185Z" fill="black"/>
</svg>
