<svg xmlns="http://www.w3.org/2000/svg" width="220.018" height="206.185" viewBox="0 0 220.018 206.185">
  <path id="Path_12719" data-name="Path 12719" d="M28.563,186.863v-5.494L44,172.455l15.441,8.914v5.494L44,195.778Zm44,0v-5.494l15.441-8.914,15.441,8.914v5.494l-15.441,8.915Zm44,0v-5.494l15.441-8.914,15.441,8.914v5.494l-15.441,8.915Zm44,0v-5.494l15.441-8.914,15.44,8.914v5.494l-15.44,8.915Zm-143.1-6.67-10.917-6.3V163.442L22,172.357l15.441-8.915v10.448l-10.917,6.3v18.295L22.1,195.934l-.1.176-.1-.176-4.422,2.553Zm44,0-10.917-6.3V163.442l15.441,8.915,15.441-8.915v10.448l-10.917,6.3v18.295l-4.422-2.553-.1.176-.1-.176-4.422,2.553Zm44,0-10.916-6.3V163.442l15.441,8.915,15.441-8.915v10.448l-10.916,6.3v18.295l-4.423-2.553-.1.176-.1-.176-4.422,2.553Zm44,0-10.917-6.3V163.442l15.441,8.915,15.441-8.915v10.448l-10.917,6.3v18.295l-4.422-2.553-.1.176-.1-.176-4.422,2.553Zm44,0-10.917-6.3V163.442l15.441,8.915,15.441-8.915v10.448l-10.916,6.3v18.295l-4.422-2.553-.1.176-.1-.176-4.422,2.553ZM22,146.682l13.778,7.954h0l1.663.96v5.494L22,170,6.561,161.09V155.6l1.664-.96h0Zm44,0,13.778,7.954h0l1.663.96v5.494L66.006,170,50.565,161.09V155.6l1.664-.96h0Zm44,0,13.777,7.954h0l1.664.96v5.494L110.009,170,94.569,161.09V155.6l1.663-.96h0Zm44,0,13.778,7.954h0l1.663.96v5.494L154.013,170l-15.441-8.915V155.6l1.663-.96h0Zm28.563,14.408V155.6l1.663-.96,13.777-7.954,13.778,7.954,1.663.96v5.494L198.016,170ZM59.444,137.669v10.448l-10.917,6.3v18.294l-4.422-2.553-.1.176-.1-.176-4.422,2.553V154.42l-10.916-6.3V137.669L44,146.584Zm44,0v10.448l-10.917,6.3v18.294l-4.422-2.553-.1.176-.1-.176-4.422,2.553V154.42l-10.917-6.3V137.669l15.441,8.914Zm44,0v10.448l-10.917,6.3v18.294l-4.422-2.553-.1.176-.1-.176-4.422,2.553V154.42l-10.917-6.3V137.669l15.441,8.914Zm44,0v10.448l-10.917,6.3v18.294l-4.422-2.553-.1.176-.1-.176-4.422,2.553V154.42l-10.916-6.3V137.669l15.441,8.914ZM28.563,135.317v-5.494L44,120.908l15.441,8.915v5.494L44,144.232Zm44,0v-5.494l15.441-8.915,15.441,8.915v5.494l-15.441,8.914Zm44,0v-5.494l15.441-8.915,15.441,8.915v5.494l-15.441,8.914Zm44,0v-5.494l15.441-8.915,15.44,8.915v5.494l-15.44,8.914Zm-143.1-6.67-10.917-6.3V111.9L22,120.811,37.443,111.9v10.448l-10.917,6.3v18.295L22.1,144.388l-.1.177-.1-.177-4.422,2.553Zm44,0-10.917-6.3V111.9l15.441,8.915L81.446,111.9v10.448l-10.917,6.3v18.295l-4.422-2.553-.1.177-.1-.177-4.422,2.553Zm44,0-10.916-6.3V111.9l15.441,8.915L125.45,111.9v10.448l-10.916,6.3v18.295l-4.423-2.553-.1.177-.1-.177-4.422,2.553Zm44,0-10.917-6.3V111.9l15.441,8.915,15.441-8.914v10.448l-10.917,6.3v18.295l-4.422-2.553-.1.177-.1-.177-4.422,2.553Zm44,0-10.917-6.3V111.9l15.441,8.915,15.441-8.914v10.448l-10.916,6.3v18.295l-4.422-2.553-.1.177-.1-.177-4.422,2.553ZM22,95.135l13.778,7.954h0l1.663.96v5.494L22,118.458,6.561,109.544V104.05l1.664-.96h0Zm44,0,13.778,7.954h0l1.663.96v5.494l-15.441,8.914-15.441-8.915V104.05l1.664-.96h0Zm44,0,13.777,7.954h0l1.664.96v5.494l-15.441,8.914-15.441-8.915V104.05l1.663-.96h0Zm44,0,13.778,7.954h0l1.663.96v5.494l-15.441,8.914-15.441-8.915V104.05l1.663-.96h0Zm28.563,14.408V104.05l1.663-.96,13.777-7.954,13.778,7.954,1.663.96v5.494l-15.441,8.914ZM59.444,86.123V96.571l-10.917,6.3v18.294l-4.422-2.553-.1.176-.1-.176-4.422,2.553V102.874l-10.916-6.3V86.123L44,95.037Zm44,0V96.571l-10.917,6.3v18.294l-4.422-2.553-.1.176-.1-.176-4.422,2.553V102.874l-10.917-6.3V86.123l15.441,8.914Zm44,0V96.571l-10.917,6.3v18.294l-4.422-2.553-.1.176-.1-.176-4.422,2.553V102.874l-10.917-6.3V86.123l15.441,8.914Zm44,0V96.571l-10.917,6.3v18.294l-4.422-2.553-.1.176-.1-.176-4.422,2.553V102.874l-10.916-6.3V86.123l15.441,8.914ZM28.563,83.771V78.277L44,69.362l15.441,8.915v5.494L44,92.685Zm44,0V78.277l15.441-8.915,15.441,8.915v5.494L88.007,92.685Zm44,0V78.277l15.441-8.915,15.441,8.915v5.494l-15.441,8.915Zm44,0V78.277l15.441-8.915,15.44,8.915v5.494l-15.44,8.915ZM17.478,77.1,6.561,70.8V60.35L22,69.265,37.443,60.35V70.8L26.526,77.1V95.4L22.1,92.842l-.1.176-.1-.176-4.422,2.553Zm44,0L50.565,70.8V60.35l15.441,8.915L81.446,60.35V70.8L70.53,77.1V95.4l-4.422-2.553-.1.176-.1-.176-4.422,2.553Zm44,0L94.569,70.8V60.35l15.441,8.915L125.45,60.35V70.8l-10.916,6.3V95.4l-4.423-2.553-.1.176-.1-.176-4.422,2.553Zm44,0-10.917-6.3V60.35l15.441,8.915,15.441-8.915V70.8l-10.917,6.3V95.4l-4.422-2.553-.1.176-.1-.176-4.422,2.553Zm44,0-10.917-6.3V60.35l15.441,8.915,15.441-8.915V70.8l-10.916,6.3V95.4l-4.422-2.553-.1.176-.1-.176-4.422,2.553ZM22,43.589l13.778,7.954h0l1.663.96V58L22,66.912,6.561,58V52.5l1.664-.96h0Zm44,0,13.778,7.954h0l1.663.96V58L66.006,66.912,50.565,58V52.5l1.664-.96h0Zm44,0,13.777,7.954h0l1.664.96V58l-15.441,8.915L94.569,58V52.5l1.663-.96h0Zm44,0,13.778,7.954h0l1.663.96V58l-15.441,8.915L138.572,58V52.5l1.663-.96h0ZM182.576,58V52.5l1.663-.96,13.777-7.954,13.778,7.954,1.663.96V58l-15.441,8.915ZM59.444,34.577V45.025l-10.917,6.3V69.622l-4.422-2.553-.1.176-.1-.176L39.48,69.622V51.327l-10.916-6.3V34.577L44,43.491Zm44,0V45.025l-10.917,6.3V69.622l-4.422-2.553-.1.176-.1-.176-4.422,2.553V51.327l-10.917-6.3V34.577l15.441,8.914Zm44,0V45.025l-10.917,6.3V69.622l-4.422-2.553-.1.176-.1-.176-4.422,2.553V51.327l-10.917-6.3V34.577l15.441,8.914Zm44,0V45.025l-10.917,6.3V69.622l-4.422-2.553-.1.176-.1-.176-4.422,2.553V51.327l-10.916-6.3V34.577l15.441,8.914ZM28.563,32.225V26.73L44,17.816,59.444,26.73v5.494L44,41.139Zm44,0V26.73l15.441-8.914,15.441,8.914v5.494L88.007,41.139Zm44,0V26.73l15.441-8.914,15.441,8.914v5.494l-15.441,8.914Zm44,0V26.73l15.441-8.914,15.44,8.914v5.494l-15.44,8.914ZM37.443,8.8V19.252l-10.917,6.3V43.848L22.1,41.3l-.1.176-.1-.176-4.422,2.553V25.554l-10.917-6.3V8.8L22,17.718Zm44,0V19.252l-10.917,6.3V43.848L66.107,41.3l-.1.176-.1-.176-4.422,2.553V25.554l-10.917-6.3V8.8l15.441,8.914Zm44,0V19.252l-10.916,6.3V43.848L110.111,41.3l-.1.176-.1-.176-4.422,2.553V25.554l-10.916-6.3V8.8l15.441,8.914Zm44,0V19.252l-10.917,6.3V43.848L154.115,41.3l-.1.176-.1-.176-4.422,2.553V25.554l-10.917-6.3V8.8l15.441,8.914Zm44,0V19.252l-10.916,6.3V43.848L198.118,41.3l-.1.176-.1-.176-4.422,2.553V25.554l-10.917-6.3V8.8l15.441,8.914ZM211.794,0l1.663.96V6.451l-15.441,8.914L182.576,6.451V.957L184.239,0h-3.7V18.076l-4.422-2.553-.1.176-.1-.176-4.422,2.553V0h-3.7l1.663.96V6.451l-15.441,8.914L138.572,6.451V.957L140.235,0h-3.7V18.076l-4.422-2.553-.1.176-.1-.176-4.422,2.553V0h-3.7l1.664.96V6.451l-15.441,8.914L94.569,6.451V.957L96.232,0h-3.7V18.076l-4.422-2.553-.1.176-.1-.176-4.422,2.553V0h-3.7l1.663.96V6.451L66.006,15.366,50.565,6.451V.957L52.228,0h-3.7V18.076l-4.422-2.553L44,15.7l-.1-.176L39.48,18.076V0h-3.7l1.663.96V6.451L22,15.366,6.561,6.451V.957L8.225,0h-3.7V18.076L.1,15.522,0,15.7H0v2.117H0L15.441,26.73v5.494L0,41.139v2.352l15.441-8.914V45.025l-10.917,6.3V69.622L.1,67.068l-.1.176H0v2.117H0l15.441,8.915v5.494L0,92.685v2.352l15.441-8.914V96.571l-10.917,6.3v18.294L.1,118.615l-.1.176H0v2.117H0l15.441,8.915v5.494L0,144.232v2.352l15.441-8.914v10.448l-10.917,6.3v18.294L.1,170.161l-.1.176H0v2.117H0l15.441,8.914v5.494L0,195.778v2.352l15.441-8.914v10.448l-10.917,6.3v.216h3.7L22,198.228l13.778,7.954h3.7v-.216l-10.916-6.3V189.216L44,198.13l15.441-8.914v10.448l-10.917,6.3v.216h3.7l13.777-7.954,13.778,7.954h3.7v-.216l-10.917-6.3V189.216l15.441,8.914,15.441-8.914v10.448l-10.917,6.3v.216h3.7l13.777-7.954,13.777,7.954h3.7v-.216l-10.917-6.3V189.216l15.441,8.914,15.441-8.914v10.448l-10.917,6.3v.216h3.7l13.778-7.954,13.778,7.954h3.7v-.216l-10.916-6.3V189.216l15.441,8.914,15.44-8.914v10.448l-10.917,6.3v.216h3.7l13.777-7.954,13.778,7.954h3.7v-.216l-10.917-6.3V189.216l15.44,8.914v-2.352l-15.44-8.915v-5.494l15.44-8.914v-2.117l-.1-.176-4.422,2.553V154.42l-10.917-6.3V137.669l15.44,8.914v-2.352l-15.44-8.914v-5.494l15.44-8.915v-2.117l-.1-.176-4.422,2.553V102.874l-10.917-6.3V86.123l15.44,8.914V92.685l-15.44-8.915V78.277l15.44-8.915V67.245l-.1-.176-4.422,2.553V51.327l-10.917-6.3V34.577l15.44,8.914V41.139l-15.44-8.914V26.73l15.44-8.914V15.7l-.1-.176-4.422,2.553V0Z" transform="translate(0 0.003)" fill="#3e3b46"/>
</svg>
