<svg xmlns="http://www.w3.org/2000/svg" xmlns:xlink="http://www.w3.org/1999/xlink" width="223.771" height="209.111" viewBox="0 0 223.771 209.111">
  <defs>
    <clipPath id="clip-path">
      <rect id="Rectangle_708" data-name="Rectangle 708" width="223.771" height="209.111" transform="translate(0 0)" fill="#3e3b46"/>
    </clipPath>
  </defs>
  <g id="Group_2876" data-name="Group 2876" transform="translate(-0.001)">
    <g id="Group_2875" data-name="Group 2875" transform="translate(0.001 0)" clip-path="url(#clip-path)">
      <path id="Path_12732" data-name="Path 12732" d="M216.626,0h-1.7a34.836,34.836,0,0,0-11.337,23.023h-.028c-.058.751-.1,1.507-.116,2.27a32.346,32.346,0,0,1-7.127-9.186,36.087,36.087,0,0,0,3.67-12.991h.028c.073-.952.124-1.911.124-2.884,0-.077,0-.154,0-.231h-.908q-.008,1.166-.089,2.312c-.014.2-.029.4-.046.6a35.073,35.073,0,0,1-3.3,12.158,35.063,35.063,0,0,1-3.3-12.153q-.025-.311-.048-.623-.079-1.135-.087-2.29h-.908c0,.077,0,.154,0,.231,0,.973.051,1.932.124,2.884h.028a36.088,36.088,0,0,0,3.67,12.991,32.346,32.346,0,0,1-7.127,9.186c-.016-.763-.059-1.519-.116-2.27h-.028A34.835,34.835,0,0,0,176.67,0h-1.7a33.255,33.255,0,0,0-7.145,9.03A33.258,33.258,0,0,0,160.683,0h-1.7a34.835,34.835,0,0,0-11.337,23.023h-.028c-.058.751-.1,1.507-.116,2.27a32.347,32.347,0,0,1-7.127-9.186,36.088,36.088,0,0,0,3.67-12.991h.028c.073-.952.124-1.911.124-2.884,0-.077,0-.154,0-.231h-.908q-.008,1.166-.089,2.312c-.014.2-.029.4-.046.6a35.073,35.073,0,0,1-3.3,12.158,35.07,35.07,0,0,1-3.3-12.153q-.025-.311-.048-.623-.079-1.135-.087-2.29h-.908c0,.077,0,.154,0,.231,0,.973.051,1.932.124,2.884h.028a36.087,36.087,0,0,0,3.67,12.991,32.347,32.347,0,0,1-7.127,9.186c-.016-.763-.059-1.519-.116-2.27h-.028A34.835,34.835,0,0,0,120.727,0h-1.7a33.252,33.252,0,0,0-7.145,9.03A33.259,33.259,0,0,0,104.74,0h-1.7A34.835,34.835,0,0,0,91.706,23.021h-.028c-.058.751-.1,1.507-.116,2.27A32.351,32.351,0,0,1,84.436,16.1a36.083,36.083,0,0,0,3.67-12.991h.028c.073-.952.124-1.911.124-2.884,0-.077,0-.154,0-.231h-.908q-.007,1.166-.088,2.312c-.014.2-.029.4-.046.6a35.073,35.073,0,0,1-3.3,12.158,35.071,35.071,0,0,1-3.3-12.153q-.024-.311-.048-.623Q80.49,1.153,80.482,0h-.908c0,.077,0,.154,0,.231,0,.973.051,1.932.124,2.884h.028A36.079,36.079,0,0,0,83.393,16.1a32.348,32.348,0,0,1-7.127,9.186c-.016-.763-.058-1.519-.116-2.27h-.028A34.836,34.836,0,0,0,64.785,0h-1.7a33.252,33.252,0,0,0-7.145,9.03A33.259,33.259,0,0,0,48.8,0H47.1A34.835,34.835,0,0,0,35.764,23.021h-.028c-.058.751-.1,1.507-.116,2.27A32.35,32.35,0,0,1,28.493,16.1a36.083,36.083,0,0,0,3.67-12.991h.028c.073-.952.124-1.911.124-2.884,0-.077,0-.154,0-.231H31.4Q31.4,1.164,31.315,2.31c-.014.2-.029.4-.046.6a35.073,35.073,0,0,1-3.3,12.158,35.066,35.066,0,0,1-3.3-12.153q-.024-.311-.048-.623Q24.547,1.153,24.539,0h-.908c0,.077,0,.154,0,.231,0,.973.051,1.932.124,2.884h.028A36.08,36.08,0,0,0,27.45,16.1a32.351,32.351,0,0,1-7.127,9.186c-.016-.763-.058-1.519-.116-2.27h-.028A34.837,34.837,0,0,0,8.842,0h-1.7A33.256,33.256,0,0,0,0,9.028v2.043A35.064,35.064,0,0,1,3.3,23.229c.017.2.032.4.046.594q.08,1.147.088,2.314-.007,1.166-.088,2.312c-.014.2-.029.4-.046.6A35.075,35.075,0,0,1,0,41.2v2.043a33.248,33.248,0,0,0,7.145,9.03h0A33.256,33.256,0,0,0,0,61.306v2.043A35.063,35.063,0,0,1,3.3,75.507c.017.2.032.4.046.594q.08,1.147.088,2.314-.007,1.166-.088,2.312c-.014.2-.029.4-.046.6A35.075,35.075,0,0,1,0,93.48v2.043a33.248,33.248,0,0,0,7.145,9.03h0A33.255,33.255,0,0,0,0,113.583H0v2.042a35.065,35.065,0,0,1,3.3,12.158c.017.2.032.4.046.594q.08,1.146.088,2.314-.007,1.166-.088,2.312c-.014.2-.029.4-.046.6A35.072,35.072,0,0,1,0,145.758V147.8a33.25,33.25,0,0,0,7.145,9.03h0A33.257,33.257,0,0,0,0,165.861V167.9a35.066,35.066,0,0,1,3.3,12.158c.017.2.032.4.046.594q.08,1.147.088,2.314-.007,1.167-.088,2.313c-.014.2-.029.4-.046.6A35.075,35.075,0,0,1,0,198.036v2.042a33.252,33.252,0,0,0,7.145,9.03h1.7a34.836,34.836,0,0,0,11.337-23.024h.028c.058-.751.1-1.507.116-2.27A32.356,32.356,0,0,1,27.45,193a36.079,36.079,0,0,0-3.67,12.991h-.028c-.073.952-.124,1.912-.124,2.885,0,.077,0,.154,0,.231h.908q.007-1.156.087-2.292c.014-.208.03-.415.048-.621a35.072,35.072,0,0,1,3.3-12.154,35.072,35.072,0,0,1,3.3,12.158q.024.3.046.594.08,1.147.088,2.314h.908c0-.077,0-.154,0-.231,0-.973-.051-1.933-.124-2.885h-.028A36.082,36.082,0,0,0,28.493,193a32.356,32.356,0,0,1,7.127-9.187c.016.763.059,1.519.116,2.27h.028A34.836,34.836,0,0,0,47.1,209.109h1.7a33.257,33.257,0,0,0,7.145-9.03,33.255,33.255,0,0,0,7.145,9.03h1.7a34.837,34.837,0,0,0,11.337-23.024h.028c.058-.751.1-1.507.116-2.27A32.353,32.353,0,0,1,83.393,193a36.082,36.082,0,0,0-3.67,12.991h-.028c-.073.952-.124,1.912-.124,2.885,0,.077,0,.154,0,.231h.908q.007-1.156.087-2.292c.014-.208.03-.415.048-.621a35.076,35.076,0,0,1,3.3-12.154,35.072,35.072,0,0,1,3.3,12.158q.023.3.046.594.08,1.147.088,2.314h.908c0-.077,0-.154,0-.231,0-.973-.051-1.933-.124-2.885h-.028A36.082,36.082,0,0,0,84.436,193a32.356,32.356,0,0,1,7.127-9.187c.016.763.059,1.519.116,2.27h.028a34.836,34.836,0,0,0,11.338,23.024h1.7a33.257,33.257,0,0,0,7.145-9.03,33.253,33.253,0,0,0,7.145,9.03h1.7a34.836,34.836,0,0,0,11.337-23.024h.028c.058-.751.1-1.507.116-2.27A32.352,32.352,0,0,1,139.335,193a36.082,36.082,0,0,0-3.67,12.991h-.028c-.073.952-.124,1.912-.124,2.885,0,.077,0,.154,0,.231h.908q.007-1.156.087-2.292c.015-.208.03-.415.048-.621a35.075,35.075,0,0,1,3.3-12.154,35.076,35.076,0,0,1,3.3,12.158q.024.3.046.594.08,1.147.089,2.314h.908c0-.077,0-.154,0-.231,0-.973-.051-1.933-.124-2.885h-.028A36.083,36.083,0,0,0,140.379,193a32.353,32.353,0,0,1,7.127-9.187c.016.763.059,1.519.116,2.27h.028a34.834,34.834,0,0,0,11.337,23.024h1.7a33.256,33.256,0,0,0,7.145-9.03,33.256,33.256,0,0,0,7.145,9.03h1.7a34.835,34.835,0,0,0,11.337-23.024h.028c.058-.751.1-1.507.116-2.27A32.352,32.352,0,0,1,195.278,193a36.083,36.083,0,0,0-3.67,12.991h-.028c-.073.952-.124,1.912-.124,2.885,0,.077,0,.154,0,.231h.908q.007-1.156.087-2.292c.015-.208.03-.415.048-.621a35.068,35.068,0,0,1,3.3-12.154,35.075,35.075,0,0,1,3.3,12.158q.024.3.046.594.08,1.147.089,2.314h.908c0-.077,0-.154,0-.231,0-.973-.051-1.933-.124-2.885h-.028A36.083,36.083,0,0,0,196.321,193a32.351,32.351,0,0,1,7.127-9.187c.016.763.059,1.519.116,2.27h.028a34.835,34.835,0,0,0,11.337,23.024h1.7a33.257,33.257,0,0,0,7.145-9.03v-2.042a35.062,35.062,0,0,1-3.3-12.153c-.018-.208-.033-.416-.048-.624q-.078-1.134-.087-2.289.007-1.156.087-2.293c.015-.207.03-.413.048-.619a35.064,35.064,0,0,1,3.3-12.154v-2.043a33.26,33.26,0,0,0-7.145-9.03,33.255,33.255,0,0,0,7.145-9.03v-2.043a35.063,35.063,0,0,1-3.3-12.153c-.018-.208-.033-.416-.048-.625q-.078-1.134-.087-2.288.007-1.156.087-2.293c.015-.207.03-.413.048-.619a35.062,35.062,0,0,1,3.3-12.154h0v-2.042h0a33.258,33.258,0,0,0-7.145-9.03,33.259,33.259,0,0,0,7.145-9.03V93.48a35.062,35.062,0,0,1-3.3-12.153c-.018-.208-.033-.416-.048-.625q-.078-1.134-.087-2.288.007-1.157.087-2.293c.015-.207.03-.413.048-.619a35.063,35.063,0,0,1,3.3-12.154h0V61.306h0a33.26,33.26,0,0,0-7.145-9.03,33.256,33.256,0,0,0,7.145-9.03V41.2a35.064,35.064,0,0,1-3.3-12.153c-.018-.208-.033-.416-.048-.625q-.078-1.134-.087-2.288.007-1.156.087-2.293c.015-.207.03-.413.048-.619a35.064,35.064,0,0,1,3.3-12.154V9.028h0A33.259,33.259,0,0,0,216.626,0M204.438,23.845c.014-.207.03-.415.048-.621A33.854,33.854,0,0,1,215.2,1.052q-.022.621-.065,1.236c-.014.208-.03.416-.048.623a33.854,33.854,0,0,1-10.711,22.172q.022-.622.065-1.238m10.646,25.518q.025.31.048.621.043.616.065,1.238A33.853,33.853,0,0,1,204.486,29.05q-.025-.311-.048-.623-.043-.615-.065-1.236a33.853,33.853,0,0,1,10.711,22.172m.112,56.244q-.022.621-.065,1.236c-.014.208-.03.416-.048.623a33.854,33.854,0,0,1-10.711,22.172q.022-.622.065-1.238c.014-.208.03-.415.048-.621A33.855,33.855,0,0,1,215.2,105.607m-11.6,21.969h-.028c-.058.751-.1,1.507-.116,2.27a32.346,32.346,0,0,1-7.127-9.186,36.086,36.086,0,0,0,3.67-12.992h.028c.073-.952.124-1.911.124-2.884,0-.077,0-.154,0-.231s0-.154,0-.231c0-.973-.051-1.933-.124-2.885h-.028a36.085,36.085,0,0,0-3.67-12.991,32.347,32.347,0,0,1,7.127-9.187c.016.763.059,1.519.116,2.27h.028a34.835,34.835,0,0,0,11.337,23.023,34.835,34.835,0,0,0-11.337,23.023m11.493,26.342q.025.31.048.621.043.616.065,1.237a33.852,33.852,0,0,1-10.711-22.172q-.025-.311-.048-.623-.043-.616-.065-1.236a33.852,33.852,0,0,1,10.711,22.172m-26.43-23.226a33.259,33.259,0,0,0,7.145-9.03,33.252,33.252,0,0,0,7.145,9.03,33.261,33.261,0,0,0-7.145,9.03,33.255,33.255,0,0,0-7.145-9.03M199.1,153.923q.024.3.046.594.08,1.147.089,2.314-.008,1.166-.089,2.313c-.014.2-.029.4-.046.6a35.074,35.074,0,0,1-3.3,12.157,35.063,35.063,0,0,1-3.3-12.153q-.025-.312-.048-.623-.079-1.135-.087-2.29.007-1.156.087-2.292c.015-.207.03-.415.048-.621a35.064,35.064,0,0,1,3.3-12.153,35.07,35.07,0,0,1,3.3,12.158m-66.387-23.231a33.26,33.26,0,0,0,7.145-9.03,33.251,33.251,0,0,0,7.145,9.03,33.262,33.262,0,0,0-7.145,9.03,33.256,33.256,0,0,0-7.145-9.03m10.444,23.231q.024.3.046.594.08,1.147.089,2.314-.008,1.166-.089,2.313c-.014.2-.029.4-.046.6a35.075,35.075,0,0,1-3.3,12.157,35.07,35.07,0,0,1-3.3-12.153q-.025-.312-.048-.623-.079-1.135-.087-2.29.007-1.156.087-2.292c.015-.207.03-.415.048-.621a35.071,35.071,0,0,1,3.3-12.153,35.071,35.071,0,0,1,3.3,12.158M76.769,130.692a33.259,33.259,0,0,0,7.145-9.03,33.249,33.249,0,0,0,7.145,9.03,33.259,33.259,0,0,0-7.145,9.03,33.252,33.252,0,0,0-7.145-9.03m10.444,23.231q.023.3.046.594.08,1.147.088,2.314-.007,1.166-.088,2.313c-.014.2-.029.4-.046.6a35.075,35.075,0,0,1-3.3,12.157,35.071,35.071,0,0,1-3.3-12.153q-.024-.312-.048-.623-.079-1.135-.087-2.29.007-1.156.087-2.292c.014-.207.03-.415.048-.621a35.072,35.072,0,0,1,3.3-12.153,35.067,35.067,0,0,1,3.3,12.158M20.826,130.692a33.256,33.256,0,0,0,7.145-9.03,33.249,33.249,0,0,0,7.145,9.03,33.259,33.259,0,0,0-7.145,9.03,33.253,33.253,0,0,0-7.145-9.03M31.27,153.923q.024.3.046.594.08,1.147.088,2.314-.007,1.166-.088,2.313c-.014.2-.029.4-.046.6a35.075,35.075,0,0,1-3.3,12.157,35.066,35.066,0,0,1-3.3-12.153q-.024-.312-.048-.623-.079-1.135-.087-2.29.007-1.156.087-2.292c.014-.207.03-.415.048-.621a35.067,35.067,0,0,1,3.3-12.153,35.067,35.067,0,0,1,3.3,12.158M8.842,104.553A34.836,34.836,0,0,0,20.179,81.53h.028c.058-.751.1-1.507.116-2.27a32.352,32.352,0,0,1,7.127,9.187,36.081,36.081,0,0,0-3.67,12.991h-.028c-.073.952-.124,1.912-.124,2.885,0,.077,0,.154,0,.231s0,.154,0,.231c0,.973.051,1.932.124,2.884h.028a36.077,36.077,0,0,0,3.67,12.992,32.351,32.351,0,0,1-7.127,9.186c-.016-.763-.058-1.519-.116-2.27h-.028A34.837,34.837,0,0,0,8.842,104.553M19.4,129.638A33.854,33.854,0,0,1,8.686,107.466q-.025-.311-.048-.623-.043-.615-.065-1.236A33.855,33.855,0,0,1,19.285,127.78c.016.206.032.412.047.619q.043.616.065,1.239M8.574,103.5q.022-.622.065-1.238c.014-.207.03-.415.048-.621A33.855,33.855,0,0,1,19.4,79.469q-.022.62-.064,1.235c-.014.209-.03.417-.048.625A33.853,33.853,0,0,1,8.574,103.5m.112-48.311q-.025-.311-.048-.623-.043-.615-.065-1.236A33.855,33.855,0,0,1,19.285,75.5q.025.309.047.619.043.617.065,1.239A33.853,33.853,0,0,1,8.686,55.189m26.43,23.226a33.253,33.253,0,0,0-7.145,9.03,33.253,33.253,0,0,0-7.145-9.03,33.256,33.256,0,0,0,7.145-9.03,33.249,33.249,0,0,0,7.145,9.03M24.673,55.189q-.024-.312-.048-.623-.079-1.135-.087-2.29.007-1.156.087-2.292c.014-.207.03-.415.048-.621a35.067,35.067,0,0,1,3.3-12.153,35.068,35.068,0,0,1,3.3,12.158q.024.3.046.594.08,1.147.088,2.314-.007,1.166-.088,2.312c-.014.2-.029.4-.046.6a35.073,35.073,0,0,1-3.3,12.157,35.066,35.066,0,0,1-3.3-12.153m6.6,46.456q.024.3.046.594.08,1.146.088,2.314-.007,1.166-.088,2.312c-.014.2-.029.4-.046.6a35.071,35.071,0,0,1-3.3,12.157,35.061,35.061,0,0,1-3.3-12.152q-.024-.311-.048-.623-.079-1.134-.087-2.29.007-1.156.087-2.292c.014-.207.03-.415.048-.621a35.067,35.067,0,0,1,3.3-12.153,35.067,35.067,0,0,1,3.3,12.158M28.493,120.66a36.082,36.082,0,0,0,3.67-12.992h.028c.073-.952.124-1.911.124-2.884,0-.077,0-.154,0-.231s0-.154,0-.231c0-.973-.051-1.933-.124-2.885h-.028a36.085,36.085,0,0,0-3.67-12.991A32.351,32.351,0,0,1,35.62,79.26c.016.763.059,1.519.116,2.27h.028A34.836,34.836,0,0,0,47.1,104.553a34.835,34.835,0,0,0-11.338,23.023h-.028c-.058.751-.1,1.507-.116,2.27a32.35,32.35,0,0,1-7.127-9.186M63.088,52.276h0a33.253,33.253,0,0,0-7.145,9.03,33.26,33.26,0,0,0-7.145-9.03,33.256,33.256,0,0,0,7.145-9.03,33.251,33.251,0,0,0,7.145,9.03M59.241,75.507c.017.2.032.4.046.594q.08,1.147.088,2.314-.007,1.166-.088,2.312c-.014.2-.029.4-.046.6a35.075,35.075,0,0,1-3.3,12.157,35.07,35.07,0,0,1-3.3-12.153c-.018-.208-.033-.416-.048-.625q-.078-1.134-.087-2.288.007-1.157.087-2.293c.014-.207.029-.413.047-.619a35.075,35.075,0,0,1,3.3-12.154h0a35.067,35.067,0,0,1,3.3,12.158M48.8,104.553a33.26,33.26,0,0,0,7.145-9.03,33.251,33.251,0,0,0,7.145,9.03h0a33.251,33.251,0,0,0-7.145,9.03,33.258,33.258,0,0,0-7.145-9.03m14.91-3.116c-.058.751-.1,1.507-.116,2.27a32.351,32.351,0,0,1-7.127-9.187,36.083,36.083,0,0,0,3.67-12.991h.028c.073-.952.124-1.912.124-2.885,0-.077,0-.154,0-.231s0-.154,0-.231c0-.973-.051-1.932-.124-2.885h-.028a36.085,36.085,0,0,0-3.67-12.991,32.35,32.35,0,0,1,7.127-9.186c.016.763.059,1.519.116,2.27h.028A34.837,34.837,0,0,0,75.072,78.415a34.836,34.836,0,0,0-11.337,23.023ZM51.751,75.3h-.028c-.073.952-.124,1.911-.124,2.885,0,.077,0,.154,0,.231s0,.154,0,.231c0,.973.051,1.932.124,2.884h.028a36.085,36.085,0,0,0,3.67,12.991,32.349,32.349,0,0,1-7.127,9.187c-.016-.763-.058-1.519-.116-2.27H48.15A34.836,34.836,0,0,0,36.813,78.415,34.835,34.835,0,0,0,48.15,55.391h.028c.058-.751.1-1.507.116-2.27a32.344,32.344,0,0,1,7.127,9.186A36.084,36.084,0,0,0,51.751,75.3m-3.6,32.37h.028c.058-.751.1-1.507.116-2.27a32.343,32.343,0,0,1,7.127,9.187,36.08,36.08,0,0,0-3.67,12.991h-.028c-.073.952-.124,1.912-.124,2.885,0,.077,0,.154,0,.231s0,.154,0,.231c0,.973.051,1.932.124,2.884h.028a36.085,36.085,0,0,0,3.67,12.991,32.346,32.346,0,0,1-7.127,9.187c-.016-.763-.058-1.519-.116-2.27H48.15a34.836,34.836,0,0,0-11.337-23.023A34.835,34.835,0,0,0,48.15,107.669m-11.605,21.97q.022-.622.065-1.238c.014-.208.029-.415.048-.621a33.855,33.855,0,0,1,10.711-22.173q-.022.621-.065,1.236c-.014.208-.029.416-.048.623a33.854,33.854,0,0,1-10.711,22.172m16.1,3.967c-.018-.208-.033-.416-.048-.625q-.078-1.134-.087-2.288.007-1.156.087-2.293c.014-.207.029-.413.047-.619a35.074,35.074,0,0,1,3.3-12.154h0a35.069,35.069,0,0,1,3.3,12.158c.017.2.032.4.046.594q.08,1.146.088,2.314-.007,1.166-.088,2.312c-.014.2-.029.4-.046.6a35.072,35.072,0,0,1-3.3,12.157,35.071,35.071,0,0,1-3.3-12.153m7.49.2h.028c.073-.952.124-1.912.124-2.885,0-.077,0-.154,0-.231s0-.154,0-.231c0-.973-.051-1.932-.124-2.885h-.028a36.08,36.08,0,0,0-3.67-12.991,32.349,32.349,0,0,1,7.127-9.187c.016.763.059,1.519.116,2.27h.028a34.836,34.836,0,0,0,11.337,23.023,34.835,34.835,0,0,0-11.337,23.023h-.028c-.058.751-.1,1.507-.116,2.27a32.349,32.349,0,0,1-7.127-9.187,36.081,36.081,0,0,0,3.67-12.991m4.447-31.546c.014-.207.029-.415.048-.621A33.854,33.854,0,0,1,75.34,79.469q-.022.62-.065,1.235c-.014.209-.03.417-.048.625A33.853,33.853,0,0,1,64.517,103.5q.022-.622.065-1.238m.048-47.073q-.025-.311-.048-.623-.043-.615-.065-1.236A33.855,33.855,0,0,1,75.228,75.5q.025.309.047.619.043.617.065,1.239A33.854,33.854,0,0,1,64.629,55.189M47.3,54.566c-.014.208-.029.416-.048.623A33.853,33.853,0,0,1,36.545,77.36q.022-.622.065-1.238c.014-.207.029-.415.048-.621A33.854,33.854,0,0,1,47.369,53.33q-.022.621-.065,1.236m-.048,47.075q.025.31.048.621.043.616.065,1.237A33.853,33.853,0,0,1,36.658,81.327q-.025-.311-.048-.623-.043-.615-.065-1.236a33.853,33.853,0,0,1,10.711,22.172m0,52.278q.025.31.048.621.043.616.065,1.237a33.853,33.853,0,0,1-10.711-22.172q-.025-.311-.048-.623-.043-.616-.065-1.236a33.852,33.852,0,0,1,10.711,22.172m8.686-6.117a33.253,33.253,0,0,0,7.145,9.03h0a33.253,33.253,0,0,0-7.145,9.03,33.261,33.261,0,0,0-7.145-9.03,33.255,33.255,0,0,0,7.145-9.03m8.639,6.738c.014-.207.029-.415.048-.621A33.854,33.854,0,0,1,75.34,131.746q-.022.62-.065,1.234c-.014.209-.03.417-.048.625a33.854,33.854,0,0,1-10.711,22.172q.022-.622.065-1.238m.048-47.073q-.025-.311-.048-.623-.043-.615-.065-1.236A33.854,33.854,0,0,1,75.228,127.78c.017.206.032.412.047.619q.043.616.065,1.239a33.855,33.855,0,0,1-10.711-22.172m.156-2.913h0A34.836,34.836,0,0,0,76.122,81.53h.028c.058-.751.1-1.507.116-2.27a32.349,32.349,0,0,1,7.127,9.187,36.085,36.085,0,0,0-3.67,12.991h-.028c-.073.952-.124,1.912-.124,2.885,0,.077,0,.154,0,.231s0,.154,0,.231c0,.973.051,1.932.124,2.884h.028a36.077,36.077,0,0,0,3.67,12.992,32.348,32.348,0,0,1-7.127,9.186c-.016-.763-.058-1.519-.116-2.27h-.028a34.835,34.835,0,0,0-11.337-23.023M91.06,78.415a33.253,33.253,0,0,0-7.145,9.03,33.253,33.253,0,0,0-7.145-9.03,33.259,33.259,0,0,0,7.145-9.03,33.249,33.249,0,0,0,7.145,9.03M80.616,55.189q-.024-.312-.048-.623-.079-1.135-.087-2.29.007-1.156.087-2.292c.014-.207.03-.415.048-.621a35.072,35.072,0,0,1,3.3-12.153,35.067,35.067,0,0,1,3.3,12.158q.023.3.046.594.08,1.147.088,2.314-.007,1.166-.088,2.312c-.014.2-.029.4-.046.6a35.073,35.073,0,0,1-3.3,12.157,35.071,35.071,0,0,1-3.3-12.153m6.6,46.456q.023.3.046.594.08,1.146.088,2.314-.007,1.166-.088,2.312c-.014.2-.029.4-.046.6a35.071,35.071,0,0,1-3.3,12.157,35.066,35.066,0,0,1-3.3-12.152q-.024-.311-.048-.623-.079-1.134-.087-2.29.007-1.156.087-2.292c.014-.207.03-.415.048-.621a35.072,35.072,0,0,1,3.3-12.153,35.067,35.067,0,0,1,3.3,12.158M84.436,120.66a36.082,36.082,0,0,0,3.67-12.992h.028c.073-.952.124-1.911.124-2.884,0-.077,0-.154,0-.231s0-.154,0-.231c0-.973-.051-1.933-.124-2.885h-.028a36.085,36.085,0,0,0-3.67-12.991,32.352,32.352,0,0,1,7.127-9.187c.016.763.059,1.519.116,2.27h.028a34.836,34.836,0,0,0,11.338,23.023,34.835,34.835,0,0,0-11.338,23.023h-.028c-.058.751-.1,1.507-.116,2.27a32.35,32.35,0,0,1-7.127-9.186m34.6-68.385a33.253,33.253,0,0,0-7.145,9.03,33.26,33.26,0,0,0-7.145-9.03,33.256,33.256,0,0,0,7.145-9.03,33.249,33.249,0,0,0,7.145,9.03m-3.847,23.231c.017.2.032.4.046.594q.08,1.147.089,2.314-.008,1.166-.089,2.312c-.014.2-.029.4-.046.6a35.075,35.075,0,0,1-3.3,12.157,35.078,35.078,0,0,1-3.3-12.153c-.018-.208-.033-.416-.048-.625q-.078-1.134-.087-2.288.007-1.157.087-2.293c.015-.207.03-.413.048-.619a35.074,35.074,0,0,1,3.3-12.154h0a35.071,35.071,0,0,1,3.3,12.158M104.74,104.553a33.26,33.26,0,0,0,7.145-9.03,33.249,33.249,0,0,0,7.145,9.03,33.251,33.251,0,0,0-7.145,9.03,33.258,33.258,0,0,0-7.145-9.03m14.91-3.116c-.058.751-.1,1.507-.116,2.27a32.351,32.351,0,0,1-7.127-9.187,36.087,36.087,0,0,0,3.67-12.991h.028c.073-.952.124-1.912.124-2.885,0-.077,0-.154,0-.231s0-.154,0-.231c0-.973-.051-1.932-.124-2.885h-.028a36.085,36.085,0,0,0-3.67-12.991,32.351,32.351,0,0,1,7.127-9.186c.016.763.059,1.519.116,2.27h.028a34.833,34.833,0,0,0,11.337,23.023,34.834,34.834,0,0,0-11.337,23.023ZM107.694,75.3h-.028c-.073.952-.124,1.911-.124,2.885,0,.077,0,.154,0,.231s0,.154,0,.231c0,.973.051,1.932.124,2.884h.028a36.085,36.085,0,0,0,3.67,12.991,32.349,32.349,0,0,1-7.127,9.187c-.016-.763-.058-1.519-.116-2.27h-.028A34.836,34.836,0,0,0,92.756,78.415a34.835,34.835,0,0,0,11.337-23.023h.028c.058-.751.1-1.507.116-2.27a32.344,32.344,0,0,1,7.127,9.186,36.084,36.084,0,0,0-3.67,12.991m-3.6,32.37h.028c.058-.751.1-1.507.116-2.27a32.343,32.343,0,0,1,7.127,9.187,36.08,36.08,0,0,0-3.67,12.991h-.028c-.073.952-.124,1.912-.124,2.885,0,.077,0,.154,0,.231s0,.154,0,.231c0,.973.051,1.932.124,2.884h.028a36.085,36.085,0,0,0,3.67,12.991,32.346,32.346,0,0,1-7.127,9.187c-.016-.763-.058-1.519-.116-2.27h-.028a34.835,34.835,0,0,0-11.337-23.023,34.835,34.835,0,0,0,11.337-23.023m-11.605,21.97q.022-.622.065-1.238c.014-.208.029-.415.048-.621a33.855,33.855,0,0,1,10.711-22.173q-.022.621-.065,1.236c-.014.208-.029.416-.048.623a33.854,33.854,0,0,1-10.711,22.172m16.1,3.967c-.018-.208-.033-.416-.048-.625q-.078-1.134-.087-2.288.007-1.156.087-2.293c.015-.207.03-.413.048-.619a35.073,35.073,0,0,1,3.3-12.154h0a35.073,35.073,0,0,1,3.3,12.158c.017.2.032.4.046.594q.08,1.146.089,2.314-.008,1.166-.089,2.312c-.014.2-.029.4-.046.6a35.073,35.073,0,0,1-3.3,12.157,35.078,35.078,0,0,1-3.3-12.153m7.49.2h.028c.073-.952.124-1.912.124-2.885,0-.077,0-.154,0-.231s0-.154,0-.231c0-.973-.051-1.932-.124-2.885h-.028a36.08,36.08,0,0,0-3.67-12.991,32.349,32.349,0,0,1,7.127-9.187c.016.763.059,1.519.116,2.27h.028a34.832,34.832,0,0,0,11.337,23.023,34.834,34.834,0,0,0-11.337,23.023h-.028c-.058.751-.1,1.507-.116,2.27a32.349,32.349,0,0,1-7.127-9.187,36.085,36.085,0,0,0,3.67-12.991m4.447-31.546q.021-.311.048-.621a33.853,33.853,0,0,1,10.711-22.172q-.022.62-.065,1.235c-.015.209-.03.417-.048.625A33.853,33.853,0,0,1,120.459,103.5q.022-.622.065-1.238m.048-47.073q-.025-.311-.048-.623-.043-.615-.065-1.236A33.855,33.855,0,0,1,131.171,75.5q.024.309.047.619.043.617.065,1.239a33.853,33.853,0,0,1-10.711-22.172m-17.325-.623c-.014.208-.029.416-.048.623A33.853,33.853,0,0,1,92.488,77.36q.022-.622.065-1.238c.014-.207.029-.415.048-.621A33.854,33.854,0,0,1,103.312,53.33q-.022.621-.065,1.236m-.048,47.075q.025.31.048.621.042.616.065,1.237A33.853,33.853,0,0,1,92.6,81.327q-.025-.311-.048-.623-.043-.615-.065-1.236A33.853,33.853,0,0,1,103.2,101.641m0,52.278q.025.31.048.621.042.616.065,1.237A33.853,33.853,0,0,1,92.6,133.605q-.025-.311-.048-.623-.043-.616-.065-1.236A33.852,33.852,0,0,1,103.2,153.918m8.686-6.117a33.251,33.251,0,0,0,7.145,9.03,33.253,33.253,0,0,0-7.145,9.03,33.261,33.261,0,0,0-7.145-9.03,33.255,33.255,0,0,0,7.145-9.03m8.639,6.738c.014-.207.03-.415.048-.621a33.853,33.853,0,0,1,10.711-22.173q-.022.62-.065,1.234c-.015.209-.03.417-.048.625a33.854,33.854,0,0,1-10.711,22.172q.022-.622.065-1.238m.048-47.073q-.025-.311-.048-.623-.043-.615-.065-1.236a33.854,33.854,0,0,1,10.711,22.173c.016.206.032.412.047.619q.043.616.065,1.239a33.854,33.854,0,0,1-10.711-22.172m.155-2.913h0A34.835,34.835,0,0,0,132.064,81.53h.028c.058-.751.1-1.507.116-2.27a32.348,32.348,0,0,1,7.127,9.187,36.085,36.085,0,0,0-3.67,12.991h-.028c-.073.952-.124,1.912-.124,2.885,0,.077,0,.154,0,.231s0,.154,0,.231c0,.973.051,1.932.124,2.884h.028a36.084,36.084,0,0,0,3.67,12.992,32.347,32.347,0,0,1-7.127,9.186c-.016-.763-.059-1.519-.116-2.27h-.028a34.834,34.834,0,0,0-11.337-23.023M147,78.415a33.255,33.255,0,0,0-7.145,9.03,33.257,33.257,0,0,0-7.145-9.03,33.26,33.26,0,0,0,7.145-9.03A33.251,33.251,0,0,0,147,78.415M136.559,55.189q-.025-.312-.048-.623-.079-1.135-.087-2.29.007-1.156.087-2.292c.015-.207.03-.415.048-.621a35.071,35.071,0,0,1,3.3-12.153,35.071,35.071,0,0,1,3.3,12.158q.024.3.046.594.08,1.147.089,2.314-.008,1.166-.089,2.312c-.014.2-.029.4-.046.6a35.073,35.073,0,0,1-3.3,12.157,35.07,35.07,0,0,1-3.3-12.153m6.6,46.456q.024.3.046.594.08,1.146.089,2.314-.008,1.166-.089,2.312c-.014.2-.029.4-.046.6a35.071,35.071,0,0,1-3.3,12.157,35.065,35.065,0,0,1-3.3-12.152q-.025-.311-.048-.623-.079-1.134-.087-2.29.007-1.156.087-2.292c.015-.207.03-.415.048-.621a35.071,35.071,0,0,1,3.3-12.153,35.071,35.071,0,0,1,3.3,12.158m-2.777,19.015a36.086,36.086,0,0,0,3.67-12.992h.028c.073-.952.124-1.911.124-2.884,0-.077,0-.154,0-.231s0-.154,0-.231c0-.973-.051-1.933-.124-2.885h-.028a36.085,36.085,0,0,0-3.67-12.991,32.348,32.348,0,0,1,7.127-9.187c.016.763.059,1.519.116,2.27h.028a34.834,34.834,0,0,0,11.337,23.023,34.834,34.834,0,0,0-11.337,23.023h-.028c-.058.751-.1,1.507-.116,2.27a32.347,32.347,0,0,1-7.127-9.186m34.6-68.385a33.256,33.256,0,0,0-7.145,9.03,33.259,33.259,0,0,0-7.145-9.03,33.255,33.255,0,0,0,7.145-9.03,33.252,33.252,0,0,0,7.145,9.03m-3.847,23.231c.017.2.032.4.046.594q.08,1.147.089,2.314-.008,1.166-.089,2.312c-.014.2-.029.4-.046.6a35.074,35.074,0,0,1-3.3,12.157,35.07,35.07,0,0,1-3.3-12.153c-.018-.208-.033-.416-.048-.625q-.078-1.134-.087-2.288.007-1.157.087-2.293c.015-.207.03-.413.048-.619a35.071,35.071,0,0,1,3.3-12.154h0a35.071,35.071,0,0,1,3.3,12.158m-10.444,29.047a33.259,33.259,0,0,0,7.145-9.03,33.252,33.252,0,0,0,7.145,9.03,33.255,33.255,0,0,0-7.145,9.03,33.257,33.257,0,0,0-7.145-9.03m14.91-3.116c-.058.751-.1,1.507-.116,2.27a32.348,32.348,0,0,1-7.127-9.187,36.087,36.087,0,0,0,3.67-12.991h.028c.073-.952.124-1.912.124-2.885,0-.077,0-.154,0-.231s0-.154,0-.231c0-.973-.051-1.932-.124-2.885h-.028a36.084,36.084,0,0,0-3.67-12.991,32.347,32.347,0,0,1,7.127-9.186c.016.763.059,1.519.116,2.27h.028a34.834,34.834,0,0,0,11.337,23.023,34.834,34.834,0,0,0-11.337,23.023ZM163.637,75.3h-.028c-.073.952-.124,1.911-.124,2.885,0,.077,0,.154,0,.231s0,.154,0,.231c0,.973.051,1.932.124,2.884h.028a36.082,36.082,0,0,0,3.67,12.991,32.348,32.348,0,0,1-7.127,9.187c-.016-.763-.059-1.519-.116-2.27h-.028A34.835,34.835,0,0,0,148.7,78.415a34.834,34.834,0,0,0,11.337-23.023h.028c.058-.751.1-1.507.116-2.27a32.347,32.347,0,0,1,7.127,9.186,36.077,36.077,0,0,0-3.67,12.991m-3.6,32.37h.028c.058-.751.1-1.507.116-2.27a32.346,32.346,0,0,1,7.127,9.187,36.073,36.073,0,0,0-3.67,12.991h-.028c-.073.952-.124,1.912-.124,2.885,0,.077,0,.154,0,.231s0,.154,0,.231c0,.973.051,1.932.124,2.884h.028a36.081,36.081,0,0,0,3.67,12.991,32.345,32.345,0,0,1-7.127,9.187c-.016-.763-.059-1.519-.116-2.27h-.028A34.835,34.835,0,0,0,148.7,130.692a34.833,34.833,0,0,0,11.337-23.023m-11.6,21.97q.022-.622.065-1.238c.014-.208.03-.415.048-.621a33.855,33.855,0,0,1,10.711-22.173q-.022.621-.065,1.236c-.014.208-.03.416-.048.623a33.854,33.854,0,0,1-10.711,22.172m16.1,3.967c-.018-.208-.033-.416-.048-.625q-.078-1.134-.087-2.288.007-1.156.087-2.293c.015-.207.03-.413.048-.619a35.07,35.07,0,0,1,3.3-12.154h0a35.072,35.072,0,0,1,3.3,12.158c.017.2.032.4.046.594q.08,1.146.089,2.314-.008,1.166-.089,2.312c-.014.2-.029.4-.046.6a35.072,35.072,0,0,1-3.3,12.157,35.071,35.071,0,0,1-3.3-12.153m7.49.2h.028c.073-.952.124-1.912.124-2.885,0-.077,0-.154,0-.231s0-.154,0-.231c0-.973-.051-1.932-.124-2.885h-.028a36.08,36.08,0,0,0-3.67-12.991,32.346,32.346,0,0,1,7.127-9.187c.016.763.059,1.519.116,2.27h.028a34.833,34.833,0,0,0,11.337,23.023,34.834,34.834,0,0,0-11.337,23.023h-.028c-.058.751-.1,1.507-.116,2.27a32.345,32.345,0,0,1-7.127-9.187,36.085,36.085,0,0,0,3.67-12.991m4.447-31.546c.014-.207.03-.415.048-.621a33.854,33.854,0,0,1,10.711-22.172q-.022.62-.065,1.235c-.015.209-.03.417-.048.625A33.853,33.853,0,0,1,176.4,103.5q.022-.622.065-1.238m.048-47.073q-.025-.311-.048-.623-.043-.615-.065-1.236A33.855,33.855,0,0,1,187.114,75.5q.024.309.047.619.043.617.065,1.239a33.853,33.853,0,0,1-10.711-22.172m-17.325-.623c-.014.208-.03.416-.048.623A33.853,33.853,0,0,1,148.431,77.36q.022-.622.065-1.238c.014-.207.03-.415.048-.621A33.854,33.854,0,0,1,159.254,53.33q-.022.621-.065,1.236m-.048,47.075q.025.31.048.621.043.616.065,1.237a33.853,33.853,0,0,1-10.711-22.172q-.025-.311-.048-.623-.043-.615-.065-1.236a33.853,33.853,0,0,1,10.711,22.172m0,52.278q.025.31.048.621.043.616.065,1.237a33.852,33.852,0,0,1-10.711-22.172q-.025-.311-.048-.623-.043-.616-.065-1.236a33.852,33.852,0,0,1,10.711,22.172m8.686-6.117a33.254,33.254,0,0,0,7.145,9.03,33.257,33.257,0,0,0-7.145,9.03,33.26,33.26,0,0,0-7.145-9.03,33.254,33.254,0,0,0,7.145-9.03m8.639,6.738c.014-.207.03-.415.048-.621a33.854,33.854,0,0,1,10.711-22.173q-.022.62-.065,1.234c-.015.209-.03.417-.048.625A33.854,33.854,0,0,1,176.4,155.777q.022-.622.065-1.238m.048-47.073q-.025-.311-.048-.623-.043-.615-.065-1.236a33.854,33.854,0,0,1,10.711,22.173c.016.206.032.412.047.619q.043.616.065,1.239a33.854,33.854,0,0,1-10.711-22.172m.155-2.913h0A34.835,34.835,0,0,0,188.007,81.53h.028c.058-.751.1-1.507.116-2.27a32.347,32.347,0,0,1,7.127,9.187,36.086,36.086,0,0,0-3.67,12.991h-.028c-.073.952-.124,1.912-.124,2.885,0,.077,0,.154,0,.231s0,.154,0,.231c0,.973.051,1.932.124,2.884h.028a36.085,36.085,0,0,0,3.67,12.992,32.346,32.346,0,0,1-7.127,9.186c-.016-.763-.059-1.519-.116-2.27h-.028a34.835,34.835,0,0,0-11.337-23.023m26.275-26.139a33.255,33.255,0,0,0-7.145,9.03,33.255,33.255,0,0,0-7.145-9.03,33.259,33.259,0,0,0,7.145-9.03,33.251,33.251,0,0,0,7.145,9.03M192.5,55.189q-.025-.312-.048-.623-.079-1.135-.087-2.29.007-1.156.087-2.292c.015-.207.03-.415.048-.621a35.064,35.064,0,0,1,3.3-12.153,35.071,35.071,0,0,1,3.3,12.158q.024.3.046.594.08,1.147.089,2.314-.008,1.166-.089,2.312c-.014.2-.029.4-.046.6a35.073,35.073,0,0,1-3.3,12.157,35.063,35.063,0,0,1-3.3-12.153m6.6,46.456q.024.3.046.594.08,1.146.089,2.314-.008,1.166-.089,2.312c-.014.2-.029.4-.046.6a35.071,35.071,0,0,1-3.3,12.157,35.058,35.058,0,0,1-3.3-12.152q-.025-.311-.048-.623-.079-1.134-.087-2.29.007-1.156.087-2.292c.015-.207.03-.415.048-.621a35.064,35.064,0,0,1,3.3-12.153,35.07,35.07,0,0,1,3.3,12.158m5.388-20.318q-.025-.311-.048-.623-.043-.615-.065-1.236a33.853,33.853,0,0,1,10.711,22.172q.025.31.048.621.043.616.065,1.237a33.852,33.852,0,0,1-10.711-22.172m-.922-52.075h.028a34.834,34.834,0,0,0,11.337,23.023A34.836,34.836,0,0,0,203.592,75.3h-.028c-.058.751-.1,1.507-.116,2.27a32.347,32.347,0,0,1-7.127-9.187,36.085,36.085,0,0,0,3.67-12.991h.028c.073-.952.124-1.911.124-2.884,0-.077,0-.154,0-.231s0-.154,0-.231c0-.973-.051-1.933-.124-2.885h-.028a36.087,36.087,0,0,0-3.67-12.991,32.346,32.346,0,0,1,7.127-9.186c.016.763.059,1.519.116,2.27M215.2,53.33q-.022.621-.065,1.236c-.014.208-.03.416-.048.623A33.853,33.853,0,0,1,204.374,77.36q.022-.622.065-1.238c.014-.207.03-.415.048-.621A33.854,33.854,0,0,1,215.2,53.33M195.8,17.106a33.252,33.252,0,0,0,7.145,9.03,33.254,33.254,0,0,0-7.145,9.03,33.256,33.256,0,0,0-7.145-9.03,33.255,33.255,0,0,0,7.145-9.03m-7.764,12.146c.058-.751.1-1.507.116-2.27a32.346,32.346,0,0,1,7.127,9.186,36.088,36.088,0,0,0-3.67,12.991h-.028c-.073.952-.124,1.911-.124,2.885,0,.077,0,.154,0,.231s0,.154,0,.231c0,.973.051,1.932.124,2.884h.028a36.086,36.086,0,0,0,3.67,12.991,32.347,32.347,0,0,1-7.127,9.187c-.016-.763-.059-1.519-.116-2.27h-.028A34.835,34.835,0,0,0,176.67,52.276h0a34.834,34.834,0,0,0,11.337-23.023ZM176.4,51.222q.022-.621.065-1.238c.014-.207.03-.415.048-.621a33.854,33.854,0,0,1,10.711-22.172q-.022.62-.065,1.234c-.015.209-.03.417-.048.625A33.853,33.853,0,0,1,176.4,51.222m10.711-28q.024.309.047.619.043.616.065,1.239A33.854,33.854,0,0,1,176.515,2.911q-.025-.311-.048-.623-.043-.615-.065-1.236a33.854,33.854,0,0,1,10.711,22.173M175.477.843c.016.763.059,1.519.116,2.27h.028a34.833,34.833,0,0,0,11.337,23.023A34.835,34.835,0,0,0,175.621,49.16h-.028c-.058.751-.1,1.507-.116,2.27a32.351,32.351,0,0,1-7.127-9.187,36.087,36.087,0,0,0,3.67-12.992h.028c.073-.952.124-1.911.124-2.884,0-.077,0-.154,0-.231s0-.154,0-.231c0-.973-.051-1.932-.124-2.885h-.028a36.085,36.085,0,0,0-3.67-12.991A32.348,32.348,0,0,1,175.477.843m-7.648,10.228a35.071,35.071,0,0,1,3.3,12.158c.017.2.032.4.046.594q.08,1.147.089,2.314-.008,1.166-.089,2.312c-.014.2-.029.4-.046.6a35.074,35.074,0,0,1-3.3,12.157,35.072,35.072,0,0,1-3.3-12.153c-.018-.208-.033-.416-.048-.625q-.078-1.134-.087-2.288.007-1.156.087-2.293c.015-.207.03-.413.048-.619A35.072,35.072,0,0,1,167.828,11.071Zm-7.793-7.957h.028c.058-.751.1-1.507.116-2.27a32.348,32.348,0,0,1,7.127,9.187,36.078,36.078,0,0,0-3.67,12.991h-.028c-.073.952-.124,1.912-.124,2.885,0,.077,0,.154,0,.231s0,.154,0,.231c0,.973.051,1.932.124,2.885h.028a36.081,36.081,0,0,0,3.67,12.991,32.344,32.344,0,0,1-7.127,9.187c-.016-.763-.059-1.519-.116-2.27h-.028A34.834,34.834,0,0,0,148.7,26.137,34.834,34.834,0,0,0,160.036,3.113M148.5,23.845c.014-.207.03-.415.048-.621A33.854,33.854,0,0,1,159.254,1.052q-.022.621-.065,1.236c-.014.208-.03.416-.048.623a33.853,33.853,0,0,1-10.711,22.172q.022-.622.065-1.238m10.646,25.518q.025.31.048.621.043.616.065,1.238A33.853,33.853,0,0,1,148.543,29.05q-.025-.311-.048-.623-.043-.615-.065-1.236a33.853,33.853,0,0,1,10.711,22.172M147.621,29.252h.028a34.834,34.834,0,0,0,11.337,23.023A34.835,34.835,0,0,0,147.649,75.3h-.028c-.058.751-.1,1.507-.116,2.27a32.348,32.348,0,0,1-7.127-9.187,36.085,36.085,0,0,0,3.67-12.991h.028c.073-.952.124-1.911.124-2.884,0-.077,0-.154,0-.231s0-.154,0-.231c0-.973-.051-1.933-.124-2.885h-.028a36.087,36.087,0,0,0-3.67-12.991,32.347,32.347,0,0,1,7.127-9.186c.016.763.059,1.519.116,2.27m-7.764-12.146A33.252,33.252,0,0,0,147,26.137a33.254,33.254,0,0,0-7.145,9.03,33.257,33.257,0,0,0-7.145-9.03,33.256,33.256,0,0,0,7.145-9.03m-7.764,12.146c.058-.751.1-1.507.116-2.27a32.347,32.347,0,0,1,7.127,9.186,36.087,36.087,0,0,0-3.67,12.991h-.028c-.073.952-.124,1.911-.124,2.885,0,.077,0,.154,0,.231s0,.154,0,.231c0,.973.051,1.932.124,2.884h.028a36.085,36.085,0,0,0,3.67,12.991,32.348,32.348,0,0,1-7.127,9.187c-.016-.763-.059-1.519-.116-2.27h-.028a34.835,34.835,0,0,0-11.337-23.023h0a34.835,34.835,0,0,0,11.337-23.023ZM120.459,51.222q.022-.621.065-1.238.021-.311.048-.621a33.853,33.853,0,0,1,10.711-22.172q-.022.62-.065,1.234c-.015.209-.03.417-.048.625a33.853,33.853,0,0,1-10.711,22.171m10.711-28q.024.309.047.619.043.616.065,1.239A33.854,33.854,0,0,1,120.572,2.911q-.025-.311-.048-.623-.043-.615-.065-1.236a33.854,33.854,0,0,1,10.711,22.173M119.534.843c.016.763.059,1.519.116,2.27h.028a34.832,34.832,0,0,0,11.337,23.023A34.835,34.835,0,0,0,119.678,49.16h-.028c-.058.751-.1,1.507-.116,2.27a32.354,32.354,0,0,1-7.127-9.187,36.087,36.087,0,0,0,3.67-12.992h.028c.073-.952.124-1.911.124-2.884,0-.077,0-.154,0-.231s0-.154,0-.231c0-.973-.051-1.932-.124-2.885h-.028a36.085,36.085,0,0,0-3.67-12.991A32.351,32.351,0,0,1,119.534.843m-7.648,10.228a35.072,35.072,0,0,1,3.3,12.158c.017.2.032.4.046.594q.08,1.147.089,2.314-.008,1.166-.089,2.312c-.014.2-.029.4-.046.6a35.075,35.075,0,0,1-3.3,12.157,35.08,35.08,0,0,1-3.3-12.153c-.018-.208-.033-.416-.048-.625q-.078-1.134-.087-2.288.007-1.156.087-2.293c.015-.207.03-.413.048-.619A35.075,35.075,0,0,1,111.886,11.071Zm-7.792-7.957h.028c.058-.751.1-1.507.116-2.27a32.345,32.345,0,0,1,7.127,9.187,36.085,36.085,0,0,0-3.67,12.991h-.028c-.073.952-.124,1.912-.124,2.885,0,.077,0,.154,0,.231s0,.154,0,.231c0,.973.051,1.932.124,2.885h.028a36.085,36.085,0,0,0,3.67,12.991,32.345,32.345,0,0,1-7.127,9.187c-.016-.763-.058-1.519-.116-2.27h-.028A34.835,34.835,0,0,0,92.756,26.137,34.836,34.836,0,0,0,104.093,3.113M92.553,23.845c.014-.207.029-.415.048-.621A33.854,33.854,0,0,1,103.312,1.052q-.022.621-.065,1.236c-.014.208-.029.416-.048.623A33.854,33.854,0,0,1,92.488,25.083q.022-.622.065-1.238M103.2,49.363q.025.31.048.621.042.616.065,1.238A33.854,33.854,0,0,1,92.6,29.05q-.025-.311-.048-.623-.043-.615-.065-1.236A33.853,33.853,0,0,1,103.2,49.363M91.679,29.252h.028a34.835,34.835,0,0,0,11.338,23.023A34.835,34.835,0,0,0,91.706,75.3h-.028c-.058.751-.1,1.507-.116,2.27a32.351,32.351,0,0,1-7.127-9.187,36.081,36.081,0,0,0,3.67-12.991h.028c.073-.952.124-1.911.124-2.884,0-.077,0-.154,0-.231s0-.154,0-.231c0-.973-.051-1.933-.124-2.885h-.028a36.087,36.087,0,0,0-3.67-12.991,32.35,32.35,0,0,1,7.127-9.186c.016.763.059,1.519.116,2.27M83.914,17.106a33.25,33.25,0,0,0,7.145,9.03,33.252,33.252,0,0,0-7.145,9.03,33.253,33.253,0,0,0-7.145-9.03,33.256,33.256,0,0,0,7.145-9.03M76.15,29.252c.058-.751.1-1.507.116-2.27a32.348,32.348,0,0,1,7.127,9.186,36.087,36.087,0,0,0-3.67,12.991h-.028c-.073.952-.124,1.911-.124,2.885,0,.077,0,.154,0,.231s0,.154,0,.231c0,.973.051,1.932.124,2.884h.028a36.077,36.077,0,0,0,3.67,12.991,32.348,32.348,0,0,1-7.127,9.187c-.016-.763-.058-1.519-.116-2.27h-.028A34.836,34.836,0,0,0,64.785,52.276h0A34.836,34.836,0,0,0,76.122,29.252ZM64.517,51.222q.022-.621.065-1.238c.014-.207.029-.415.048-.621A33.854,33.854,0,0,1,75.34,27.191q-.022.62-.065,1.234c-.014.209-.03.417-.048.625A33.853,33.853,0,0,1,64.517,51.222m10.711-28q.025.309.047.619.043.616.065,1.239A33.855,33.855,0,0,1,64.629,2.911q-.025-.311-.048-.623-.043-.615-.065-1.236A33.854,33.854,0,0,1,75.228,23.225M63.591.843c.016.763.059,1.519.116,2.27h.028A34.836,34.836,0,0,0,75.072,26.137,34.837,34.837,0,0,0,63.735,49.16h-.028c-.058.751-.1,1.507-.116,2.27a32.354,32.354,0,0,1-7.127-9.187,36.083,36.083,0,0,0,3.67-12.992h.028c.073-.952.124-1.911.124-2.884,0-.077,0-.154,0-.231s0-.154,0-.231c0-.973-.051-1.932-.124-2.885h-.028a36.085,36.085,0,0,0-3.67-12.991A32.351,32.351,0,0,1,63.591.843M55.943,11.071a35.068,35.068,0,0,1,3.3,12.158c.017.2.032.4.046.594q.08,1.147.088,2.314-.007,1.166-.088,2.312c-.014.2-.029.4-.046.6a35.075,35.075,0,0,1-3.3,12.157,35.072,35.072,0,0,1-3.3-12.153c-.018-.208-.033-.416-.048-.625q-.078-1.134-.087-2.288.007-1.156.087-2.293c.014-.207.029-.413.047-.619A35.076,35.076,0,0,1,55.943,11.071ZM48.15,3.113h.028c.058-.751.1-1.507.116-2.27a32.345,32.345,0,0,1,7.127,9.187,36.085,36.085,0,0,0-3.67,12.991h-.028c-.073.952-.124,1.912-.124,2.885,0,.077,0,.154,0,.231s0,.154,0,.231c0,.973.051,1.932.124,2.885h.028a36.085,36.085,0,0,0,3.67,12.991,32.346,32.346,0,0,1-7.127,9.187c-.016-.763-.058-1.519-.116-2.27H48.15A34.835,34.835,0,0,0,36.813,26.137,34.836,34.836,0,0,0,48.15,3.113M36.61,23.845c.014-.207.029-.415.048-.621A33.854,33.854,0,0,1,47.369,1.052q-.022.621-.065,1.236c-.014.208-.029.416-.048.623A33.854,33.854,0,0,1,36.545,25.083q.022-.622.065-1.238M47.256,49.363q.025.31.048.621.043.616.065,1.238A33.854,33.854,0,0,1,36.658,29.05q-.025-.311-.048-.623-.043-.615-.065-1.236A33.853,33.853,0,0,1,47.256,49.363M35.736,29.252h.028A34.835,34.835,0,0,0,47.1,52.276,34.835,34.835,0,0,0,35.764,75.3h-.028c-.058.751-.1,1.507-.116,2.27a32.351,32.351,0,0,1-7.127-9.187,36.081,36.081,0,0,0,3.67-12.991h.028c.073-.952.124-1.911.124-2.884,0-.077,0-.154,0-.231s0-.154,0-.231c0-.973-.051-1.933-.124-2.885h-.028a36.087,36.087,0,0,0-3.67-12.991,32.35,32.35,0,0,1,7.127-9.186c.016.763.059,1.519.116,2.27M27.971,17.106a33.249,33.249,0,0,0,7.145,9.03,33.252,33.252,0,0,0-7.145,9.03,33.253,33.253,0,0,0-7.145-9.03,33.252,33.252,0,0,0,7.145-9.03M20.207,29.252c.058-.751.1-1.507.116-2.27a32.351,32.351,0,0,1,7.127,9.186A36.083,36.083,0,0,0,23.78,49.16h-.028c-.073.952-.124,1.911-.124,2.885,0,.077,0,.154,0,.231s0,.154,0,.231c0,.973.051,1.932.124,2.884h.028a36.077,36.077,0,0,0,3.67,12.991,32.352,32.352,0,0,1-7.127,9.187c-.016-.763-.058-1.519-.116-2.27h-.028A34.837,34.837,0,0,0,8.842,52.276,34.835,34.835,0,0,0,20.179,29.252ZM8.574,51.222q.022-.621.065-1.238c.014-.207.03-.415.048-.621A33.855,33.855,0,0,1,19.4,27.191q-.022.62-.064,1.234c-.014.209-.03.417-.048.625A33.852,33.852,0,0,1,8.574,51.222m10.711-28q.025.309.047.619.043.616.065,1.239A33.854,33.854,0,0,1,8.686,2.911q-.025-.311-.048-.623Q8.6,1.673,8.574,1.052A33.854,33.854,0,0,1,19.285,23.225M.522,42.244a36.079,36.079,0,0,0,3.67-12.992H4.22c.073-.952.124-1.911.124-2.884,0-.077,0-.154,0-.231s0-.154,0-.231c0-.973-.051-1.932-.124-2.885H4.192A36.085,36.085,0,0,0,.522,10.03,32.348,32.348,0,0,1,7.648.843c.016.763.058,1.519.116,2.27h.028A34.836,34.836,0,0,0,19.129,26.137,34.837,34.837,0,0,0,7.792,49.16H7.764c-.058.751-.1,1.507-.116,2.27A32.351,32.351,0,0,1,.522,42.244m0,52.278A36.08,36.08,0,0,0,4.192,81.53H4.22c.073-.952.124-1.912.124-2.885,0-.077,0-.154,0-.231s0-.154,0-.231c0-.973-.051-1.932-.124-2.885H4.192A36.085,36.085,0,0,0,.522,62.308a32.348,32.348,0,0,1,7.127-9.186c.016.763.058,1.519.116,2.27h.028A34.837,34.837,0,0,0,19.129,78.415,34.836,34.836,0,0,0,7.792,101.438H7.764c-.058.751-.1,1.507-.116,2.27A32.348,32.348,0,0,1,.522,94.521m0,52.278a36.077,36.077,0,0,0,3.67-12.991H4.22c.073-.952.124-1.912.124-2.885,0-.077,0-.154,0-.231s0-.154,0-.231c0-.973-.051-1.932-.124-2.885H4.192a36.08,36.08,0,0,0-3.67-12.991A32.346,32.346,0,0,1,7.648,105.4c.016.763.058,1.519.116,2.27h.028a34.836,34.836,0,0,0,11.337,23.023A34.835,34.835,0,0,0,7.792,153.715H7.764c-.058.751-.1,1.507-.116,2.27A32.346,32.346,0,0,1,.522,146.8M19.4,131.746q-.022.62-.064,1.234c-.014.209-.03.417-.048.625A33.854,33.854,0,0,1,8.574,155.777q.022-.622.065-1.238c.014-.207.03-.415.048-.621A33.855,33.855,0,0,1,19.4,131.746M7.792,205.993H7.764c-.058.751-.1,1.507-.116,2.27a32.352,32.352,0,0,1-7.127-9.187,36.077,36.077,0,0,0,3.67-12.992H4.22c.073-.952.124-1.911.124-2.884,0-.077,0-.154,0-.231s0-.153,0-.231c0-.973-.051-1.932-.124-2.885H4.192a36.085,36.085,0,0,0-3.67-12.991,32.346,32.346,0,0,1,7.127-9.187c.016.763.058,1.519.116,2.27h.028A34.835,34.835,0,0,0,19.129,182.97,34.837,34.837,0,0,0,7.792,205.993m11.541-20.735c-.014.209-.03.417-.048.625A33.855,33.855,0,0,1,8.574,208.055q.022-.622.065-1.238c.014-.208.03-.415.048-.621A33.855,33.855,0,0,1,19.4,184.024q-.022.62-.064,1.235M8.686,159.744q-.025-.311-.048-.623-.043-.615-.065-1.236a33.855,33.855,0,0,1,10.711,22.173c.016.207.032.413.047.62q.043.617.065,1.239A33.853,33.853,0,0,1,8.686,159.744m11.52,20.11h-.028A34.838,34.838,0,0,0,8.842,156.831a34.835,34.835,0,0,0,11.337-23.023h.028c.058-.751.1-1.507.116-2.27a32.346,32.346,0,0,1,7.127,9.187,36.081,36.081,0,0,0-3.67,12.991h-.028c-.073.952-.124,1.912-.124,2.885,0,.077,0,.154,0,.231s0,.154,0,.231c0,.973.051,1.932.124,2.884h.028a36.077,36.077,0,0,0,3.67,12.992,32.354,32.354,0,0,1-7.127,9.187c-.016-.763-.058-1.519-.116-2.27M27.971,192a33.26,33.26,0,0,0-7.145-9.03,33.245,33.245,0,0,0,7.145-9.03,33.247,33.247,0,0,0,7.145,9.03A33.251,33.251,0,0,0,27.971,192m7.764-12.146c-.058.751-.1,1.507-.116,2.27a32.354,32.354,0,0,1-7.127-9.187,36.081,36.081,0,0,0,3.67-12.992h.028c.073-.952.124-1.911.124-2.884,0-.077,0-.154,0-.231s0-.154,0-.231c0-.973-.051-1.933-.124-2.885h-.028a36.085,36.085,0,0,0-3.67-12.991,32.346,32.346,0,0,1,7.127-9.187c.016.763.059,1.519.116,2.27h.028A34.835,34.835,0,0,0,47.1,156.831a34.836,34.836,0,0,0-11.338,23.023Zm11.633-21.969q-.022.621-.065,1.236c-.014.208-.029.416-.048.623a33.853,33.853,0,0,1-10.711,22.171q.022-.622.065-1.237c.014-.208.029-.414.048-.621a33.854,33.854,0,0,1,10.711-22.172m-10.711,28q-.025-.312-.048-.623-.043-.615-.065-1.236A33.852,33.852,0,0,1,47.256,206.2q.025.31.048.621.043.616.065,1.237a33.853,33.853,0,0,1-10.711-22.172m11.637,22.38c-.016-.763-.058-1.519-.116-2.27H48.15A34.836,34.836,0,0,0,36.813,182.97,34.836,34.836,0,0,0,48.15,159.946h.028c.058-.751.1-1.507.116-2.27a32.342,32.342,0,0,1,7.127,9.187,36.085,36.085,0,0,0-3.67,12.991h-.028c-.073.952-.124,1.912-.124,2.885,0,.077,0,.154,0,.231s0,.154,0,.231c0,.973.051,1.932.124,2.884h.028a36.08,36.08,0,0,0,3.67,12.991,32.345,32.345,0,0,1-7.127,9.187m4.35-22.38c-.018-.208-.033-.416-.048-.624q-.078-1.134-.087-2.289.007-1.156.087-2.293c.014-.207.029-.413.047-.619a35.076,35.076,0,0,1,3.3-12.154,35.07,35.07,0,0,1,3.3,12.158c.017.2.032.4.046.594q.08,1.147.088,2.314-.007,1.167-.088,2.313c-.014.2-.029.4-.046.6a35.075,35.075,0,0,1-3.3,12.157,35.07,35.07,0,0,1-3.3-12.153m11.09,20.11h-.028c-.058.751-.1,1.507-.116,2.27a32.354,32.354,0,0,1-7.127-9.187,36.081,36.081,0,0,0,3.67-12.992h.028c.073-.952.124-1.911.124-2.884,0-.077,0-.154,0-.231s0-.153,0-.231c0-.973-.051-1.932-.124-2.885h-.028a36.085,36.085,0,0,0-3.67-12.991,32.348,32.348,0,0,1,7.127-9.187c.016.763.059,1.519.116,2.27h.028A34.835,34.835,0,0,0,75.072,182.97a34.837,34.837,0,0,0-11.337,23.024m11.541-20.735c-.014.209-.03.417-.048.625a33.855,33.855,0,0,1-10.711,22.172q.022-.622.065-1.238c.014-.208.029-.415.048-.621A33.854,33.854,0,0,1,75.34,184.024q-.022.62-.065,1.235M64.629,159.744q-.025-.311-.048-.623-.043-.615-.065-1.236a33.854,33.854,0,0,1,10.711,22.173c.017.207.032.413.047.62q.043.617.065,1.239a33.854,33.854,0,0,1-10.711-22.172m11.521,20.11h-.028a34.837,34.837,0,0,0-11.337-23.023h0a34.836,34.836,0,0,0,11.337-23.023h.028c.058-.751.1-1.507.116-2.27a32.343,32.343,0,0,1,7.127,9.187,36.085,36.085,0,0,0-3.67,12.991h-.028c-.073.952-.124,1.912-.124,2.885,0,.077,0,.154,0,.231s0,.154,0,.231c0,.973.051,1.932.124,2.884h.028a36.077,36.077,0,0,0,3.67,12.992,32.351,32.351,0,0,1-7.127,9.187c-.016-.763-.058-1.519-.116-2.27M83.914,192a33.259,33.259,0,0,0-7.145-9.03,33.249,33.249,0,0,0,7.145-9.03,33.247,33.247,0,0,0,7.145,9.03A33.251,33.251,0,0,0,83.914,192m7.764-12.146c-.058.751-.1,1.507-.116,2.27a32.354,32.354,0,0,1-7.127-9.187,36.081,36.081,0,0,0,3.67-12.992h.028c.073-.952.124-1.911.124-2.884,0-.077,0-.154,0-.231s0-.154,0-.231c0-.973-.051-1.933-.124-2.885h-.028a36.085,36.085,0,0,0-3.67-12.991,32.346,32.346,0,0,1,7.127-9.187c.016.763.059,1.519.116,2.27h.028a34.835,34.835,0,0,0,11.338,23.023,34.836,34.836,0,0,0-11.338,23.023Zm11.633-21.969q-.022.621-.065,1.236c-.014.208-.029.416-.048.623a33.853,33.853,0,0,1-10.711,22.171q.022-.622.065-1.237c.014-.208.029-.414.048-.621a33.854,33.854,0,0,1,10.711-22.172m-10.711,28q-.025-.312-.048-.623-.043-.615-.065-1.236A33.852,33.852,0,0,1,103.2,206.2q.025.31.048.621.042.616.065,1.237A33.853,33.853,0,0,1,92.6,185.883m11.637,22.38c-.016-.763-.058-1.519-.116-2.27h-.028A34.835,34.835,0,0,0,92.756,182.97a34.836,34.836,0,0,0,11.337-23.024h.028c.058-.751.1-1.507.116-2.27a32.343,32.343,0,0,1,7.127,9.187,36.085,36.085,0,0,0-3.67,12.991h-.028c-.073.952-.124,1.912-.124,2.885,0,.077,0,.154,0,.231s0,.154,0,.231c0,.973.051,1.932.124,2.884h.028a36.08,36.08,0,0,0,3.67,12.991,32.345,32.345,0,0,1-7.127,9.187m4.35-22.38c-.018-.208-.033-.416-.048-.624q-.078-1.134-.087-2.289.007-1.156.087-2.293c.015-.207.03-.413.048-.619a35.075,35.075,0,0,1,3.3-12.154,35.074,35.074,0,0,1,3.3,12.158c.017.2.032.4.046.594q.08,1.147.089,2.314-.008,1.167-.089,2.313c-.014.2-.029.4-.046.6a35.075,35.075,0,0,1-3.3,12.157,35.078,35.078,0,0,1-3.3-12.153m11.091,20.11h-.028c-.058.751-.1,1.507-.116,2.27a32.355,32.355,0,0,1-7.127-9.187,36.085,36.085,0,0,0,3.67-12.992h.028c.073-.952.124-1.911.124-2.884,0-.077,0-.154,0-.231s0-.153,0-.231c0-.973-.051-1.932-.124-2.885h-.028a36.085,36.085,0,0,0-3.67-12.991,32.349,32.349,0,0,1,7.127-9.187c.016.763.059,1.519.116,2.27h.028a34.832,34.832,0,0,0,11.337,23.023,34.836,34.836,0,0,0-11.337,23.024m11.54-20.735c-.015.209-.03.417-.048.625a33.855,33.855,0,0,1-10.711,22.172q.022-.622.065-1.238.021-.311.048-.621a33.853,33.853,0,0,1,10.711-22.173q-.022.62-.065,1.235m-10.647-25.514q-.025-.311-.048-.623-.043-.615-.065-1.236a33.854,33.854,0,0,1,10.711,22.173c.016.207.032.413.047.62q.043.617.065,1.239a33.853,33.853,0,0,1-10.711-22.172m11.521,20.11h-.028a34.836,34.836,0,0,0-11.337-23.023h0a34.835,34.835,0,0,0,11.337-23.023h.028c.058-.751.1-1.507.116-2.27a32.342,32.342,0,0,1,7.127,9.187,36.085,36.085,0,0,0-3.67,12.991h-.028c-.073.952-.124,1.912-.124,2.885,0,.077,0,.154,0,.231s0,.154,0,.231c0,.973.051,1.932.124,2.884h.028a36.085,36.085,0,0,0,3.67,12.992,32.35,32.35,0,0,1-7.127,9.187c-.016-.763-.059-1.519-.116-2.27M139.857,192a33.263,33.263,0,0,0-7.145-9.03,33.249,33.249,0,0,0,7.145-9.03A33.249,33.249,0,0,0,147,182.97a33.254,33.254,0,0,0-7.145,9.03m7.764-12.146c-.058.751-.1,1.507-.116,2.27a32.351,32.351,0,0,1-7.127-9.187,36.085,36.085,0,0,0,3.67-12.992h.028c.073-.952.124-1.911.124-2.884,0-.077,0-.154,0-.231s0-.154,0-.231c0-.973-.051-1.933-.124-2.885h-.028a36.085,36.085,0,0,0-3.67-12.991,32.343,32.343,0,0,1,7.127-9.187c.016.763.059,1.519.116,2.27h.028a34.833,34.833,0,0,0,11.337,23.023,34.836,34.836,0,0,0-11.337,23.023Zm11.633-21.969q-.022.621-.065,1.236c-.014.208-.03.416-.048.623a33.853,33.853,0,0,1-10.711,22.171q.022-.622.065-1.237c.014-.208.03-.414.048-.621a33.854,33.854,0,0,1,10.711-22.172m-10.711,28q-.025-.312-.048-.623-.043-.615-.065-1.236A33.852,33.852,0,0,1,159.142,206.2q.025.31.048.621.043.616.065,1.237a33.852,33.852,0,0,1-10.711-22.172m11.637,22.38c-.016-.763-.059-1.519-.116-2.27h-.028A34.835,34.835,0,0,0,148.7,182.97a34.835,34.835,0,0,0,11.337-23.024h.028c.058-.751.1-1.507.116-2.27a32.345,32.345,0,0,1,7.127,9.187,36.078,36.078,0,0,0-3.67,12.991h-.028c-.073.952-.124,1.912-.124,2.885,0,.077,0,.154,0,.231s0,.154,0,.231c0,.973.051,1.932.124,2.884h.028a36.076,36.076,0,0,0,3.67,12.991,32.344,32.344,0,0,1-7.127,9.187m4.35-22.38c-.018-.208-.033-.416-.048-.624q-.078-1.134-.087-2.289.007-1.156.087-2.293c.015-.207.03-.413.048-.619a35.072,35.072,0,0,1,3.3-12.154,35.074,35.074,0,0,1,3.3,12.158c.017.2.032.4.046.594q.08,1.147.089,2.314-.008,1.167-.089,2.313c-.014.2-.029.4-.046.6a35.074,35.074,0,0,1-3.3,12.157,35.07,35.07,0,0,1-3.3-12.153m11.091,20.11h-.028c-.058.751-.1,1.507-.116,2.27a32.351,32.351,0,0,1-7.127-9.187,36.084,36.084,0,0,0,3.67-12.992h.028c.073-.952.124-1.911.124-2.884,0-.077,0-.154,0-.231s0-.153,0-.231c0-.973-.051-1.932-.124-2.885h-.028a36.085,36.085,0,0,0-3.67-12.991,32.345,32.345,0,0,1,7.127-9.187c.016.763.059,1.519.116,2.27h.028a34.832,34.832,0,0,0,11.337,23.023,34.836,34.836,0,0,0-11.337,23.024m11.54-20.735c-.015.209-.03.417-.048.625A33.855,33.855,0,0,1,176.4,208.055q.022-.622.065-1.238c.014-.208.03-.415.048-.621a33.854,33.854,0,0,1,10.711-22.173q-.022.62-.065,1.235m-10.647-25.514q-.025-.311-.048-.623-.043-.615-.065-1.236a33.854,33.854,0,0,1,10.711,22.173c.016.207.032.413.047.62q.043.617.065,1.239a33.853,33.853,0,0,1-10.711-22.172m11.521,20.11h-.028a34.836,34.836,0,0,0-11.337-23.023h0a34.834,34.834,0,0,0,11.337-23.023h.028c.058-.751.1-1.507.116-2.27a32.342,32.342,0,0,1,7.127,9.187,36.086,36.086,0,0,0-3.67,12.991h-.028c-.073.952-.124,1.912-.124,2.885,0,.077,0,.154,0,.231s0,.154,0,.231c0,.973.051,1.932.124,2.884h.028a36.085,36.085,0,0,0,3.67,12.992,32.35,32.35,0,0,1-7.127,9.187c-.016-.763-.059-1.519-.116-2.27M195.8,192a33.262,33.262,0,0,0-7.145-9.03,33.248,33.248,0,0,0,7.145-9.03,33.25,33.25,0,0,0,7.145,9.03A33.253,33.253,0,0,0,195.8,192m7.764-12.146c-.058.751-.1,1.507-.116,2.27a32.349,32.349,0,0,1-7.127-9.187,36.085,36.085,0,0,0,3.67-12.992h.028c.073-.952.124-1.911.124-2.884,0-.077,0-.154,0-.231s0-.154,0-.231c0-.973-.051-1.933-.124-2.885h-.028a36.085,36.085,0,0,0-3.67-12.991,32.341,32.341,0,0,1,7.127-9.187c.016.763.059,1.519.116,2.27h.028a34.834,34.834,0,0,0,11.337,23.023,34.837,34.837,0,0,0-11.337,23.023ZM215.2,157.885q-.022.621-.065,1.236c-.014.208-.03.416-.048.623a33.853,33.853,0,0,1-10.711,22.171q.022-.622.065-1.237c.014-.208.03-.414.048-.621A33.854,33.854,0,0,1,215.2,157.885m-10.711,28q-.025-.312-.048-.623-.043-.615-.065-1.236A33.852,33.852,0,0,1,215.085,206.2q.025.31.048.621.043.616.065,1.237a33.852,33.852,0,0,1-10.711-22.172m18.764-19.02a36.078,36.078,0,0,0-3.67,12.991h-.028c-.073.952-.124,1.912-.124,2.885,0,.077,0,.154,0,.231s0,.154,0,.231c0,.973.051,1.932.124,2.884h.028a36.076,36.076,0,0,0,3.67,12.991,32.345,32.345,0,0,1-7.127,9.187c-.016-.763-.059-1.519-.116-2.27h-.028a34.836,34.836,0,0,0-11.337-23.023,34.835,34.835,0,0,0,11.337-23.024h.028c.058-.751.1-1.507.116-2.27a32.346,32.346,0,0,1,7.127,9.187m0-52.278a36.073,36.073,0,0,0-3.67,12.991h-.028c-.073.952-.124,1.912-.124,2.885,0,.077,0,.154,0,.231s0,.154,0,.231c0,.973.051,1.932.124,2.884h.028a36.081,36.081,0,0,0,3.67,12.991,32.346,32.346,0,0,1-7.127,9.187c-.016-.763-.059-1.519-.116-2.27h-.028a34.836,34.836,0,0,0-11.337-23.023,34.834,34.834,0,0,0,11.337-23.023h.028c.058-.751.1-1.507.116-2.27a32.347,32.347,0,0,1,7.127,9.187m0-52.278a36.077,36.077,0,0,0-3.67,12.991h-.028c-.073.952-.124,1.911-.124,2.885,0,.077,0,.154,0,.231s0,.154,0,.231c0,.973.051,1.932.124,2.884h.028a36.081,36.081,0,0,0,3.67,12.991,32.349,32.349,0,0,1-7.127,9.187c-.016-.763-.059-1.519-.116-2.27h-.028a34.836,34.836,0,0,0-11.337-23.023,34.834,34.834,0,0,0,11.337-23.023h.028c.058-.751.1-1.507.116-2.27a32.348,32.348,0,0,1,7.127,9.186m-3.67-39.286h-.028c-.073.952-.124,1.912-.124,2.885,0,.077,0,.154,0,.231s0,.154,0,.231c0,.973.051,1.932.124,2.885h.028a36.081,36.081,0,0,0,3.67,12.991,32.345,32.345,0,0,1-7.127,9.187c-.016-.763-.059-1.519-.116-2.27h-.028a34.835,34.835,0,0,0-11.337-23.023A34.835,34.835,0,0,0,215.979,3.113h.028c.058-.751.1-1.507.116-2.27a32.349,32.349,0,0,1,7.127,9.187,36.078,36.078,0,0,0-3.67,12.991" transform="translate(0 0.002)" fill="#3e3b46"/>
    </g>
  </g>
</svg>
