<svg id="Group_2879" data-name="Group 2879" xmlns="http://www.w3.org/2000/svg" width="206.185" height="206.185" viewBox="0 0 206.185 206.185">
  <path id="Path_12795" data-name="Path 12795" d="M0,34.364l4.3-4.3,4.3-4.3ZM12.886,21.477l-4.3,4.3,8.591-8.591Zm4.3-4.3,4.3-4.3,4.3-4.3ZM25.773,0l4.3,4.3-4.3,4.3L34.364,0Z" transform="translate(0)" fill="#3e3b46"/>
  <path id="Path_12796" data-name="Path 12796" d="M50,0,62.887,12.887l4.3-4.3L58.591,0Z" transform="translate(-41.409 0)" fill="#3e3b46"/>
  <path id="Path_12797" data-name="Path 12797" d="M0,0V8.591L12.887,21.478l4.3-4.3Z" transform="translate(0 0)" fill="#3e3b46"/>
  <path id="Path_12798" data-name="Path 12798" d="M0,108.591l4.3,4.3,4.3-4.3L0,100Z" transform="translate(0 -82.818)" fill="#3e3b46"/>
  <path id="Path_12799" data-name="Path 12799" d="M200,0l34.364,34.364-4.3-4.3-4.3-4.3-4.3-4.3-4.3-4.3-4.3-4.3-4.3-4.3-4.3-4.3,4.3-4.3Z" transform="translate(-165.636 0)" fill="#3e3b46"/>
  <path id="Path_12800" data-name="Path 12800" d="M412.887,21.477l-4.3,4.3-4.3,4.3-4.3,4.3,14.728-14.728Zm1.841-1.841,2.455-2.454,1.909-1.909ZM425.773,0l4.3,4.3-4.3,4.3-4.3,4.3-2.387,2.386L434.364,0Z" transform="translate(-331.272)" fill="#3e3b46"/>
  <path id="Path_12801" data-name="Path 12801" d="M450,0l12.887,12.887,4.3-4.3L458.591,0Z" transform="translate(-372.68 0)" fill="#3e3b46"/>
  <path id="Path_12802" data-name="Path 12802" d="M258.592,0,250,8.591l4.3,4.3L267.182,0Z" transform="translate(-207.045 0)" fill="#3e3b46"/>
  <path id="Path_12803" data-name="Path 12803" d="M317.182,0,300,17.182l4.3,4.3L317.182,8.591l12.887,12.886,4.3-4.3Z" transform="translate(-248.453 0)" fill="#3e3b46"/>
  <path id="Path_12804" data-name="Path 12804" d="M362.887,112.886l4.3-4.3L358.591,100,350,108.591l4.3,4.3,4.3-4.3Z" transform="translate(-289.863 -82.818)" fill="#3e3b46"/>
  <path id="Path_12805" data-name="Path 12805" d="M600,0l34.364,34.364-4.3-4.3-4.3-4.3-4.3-4.3-4.3-4.3-4.3-4.3-4.3-4.3-4.3-4.3,4.3-4.3Z" transform="translate(-496.908 0)" fill="#3e3b46"/>
  <path id="Path_12806" data-name="Path 12806" d="M800,34.364l4.3-4.3Zm12.886-12.887-4.3,4.3-4.295,4.3,12.886-12.887Zm4.3-4.3,4.3-4.3,4.3-4.3ZM825.773,0l4.3,4.3-4.3,4.3L834.364,0Z" transform="translate(-662.543)" fill="#3e3b46"/>
  <path id="Path_12807" data-name="Path 12807" d="M658.591,0,650,8.591l4.3,4.3L667.182,0Z" transform="translate(-538.317 0)" fill="#3e3b46"/>
  <path id="Path_12808" data-name="Path 12808" d="M850,0l12.887,12.887,4.3-4.3L858.59,0Z" transform="translate(-703.952 0)" fill="#3e3b46"/>
  <path id="Path_12809" data-name="Path 12809" d="M717.182,0,700,17.182l4.3,4.3L717.182,8.591l12.886,12.886,4.3-4.3Z" transform="translate(-579.726 0)" fill="#3e3b46"/>
  <path id="Path_12810" data-name="Path 12810" d="M762.887,112.886l4.3-4.3L758.591,100,750,108.591l4.3,4.3,4.3-4.3Z" transform="translate(-621.134 -82.818)" fill="#3e3b46"/>
  <path id="Path_12811" data-name="Path 12811" d="M34.364,0,0,34.365l4.3,4.3L34.364,8.591,64.433,38.66l4.3-4.3Z" transform="translate(0 0)" fill="#3e3b46"/>
  <path id="Path_12812" data-name="Path 12812" d="M97.251,130.068l4.3-4.3L75.773,100,50,125.773l4.3,4.3,21.478-21.478Z" transform="translate(-41.409 -82.818)" fill="#3e3b46"/>
  <path id="Path_12813" data-name="Path 12813" d="M130.069,221.477l4.3-4.3L117.182,200,100,217.182l4.3,4.3,12.887-12.887Z" transform="translate(-82.818 -165.636)" fill="#3e3b46"/>
  <path id="Path_12814" data-name="Path 12814" d="M162.887,312.886l4.3-4.3L158.591,300,150,308.591l4.3,4.3,4.3-4.3Z" transform="translate(-124.227 -248.454)" fill="#3e3b46"/>
  <path id="Path_12815" data-name="Path 12815" d="M434.363,0,400,34.365l4.3,4.3L434.363,8.591,464.432,38.66l4.3-4.3Z" transform="translate(-331.271 0)" fill="#3e3b46"/>
  <path id="Path_12816" data-name="Path 12816" d="M497.251,130.068l4.3-4.3L475.773,100,450,125.773l4.3,4.3,21.477-21.478Z" transform="translate(-372.68 -82.818)" fill="#3e3b46"/>
  <path id="Path_12817" data-name="Path 12817" d="M530.069,221.477l4.3-4.3L517.182,200,500,217.182l4.3,4.3,12.886-12.887Z" transform="translate(-414.089 -165.636)" fill="#3e3b46"/>
  <path id="Path_12818" data-name="Path 12818" d="M562.887,312.886l4.3-4.3L558.591,300,550,308.591l4.3,4.3,4.3-4.3Z" transform="translate(-455.499 -248.454)" fill="#3e3b46"/>
  <path id="Path_12819" data-name="Path 12819" d="M834.364,0,800,34.365l4.3,4.3L834.364,8.591,864.433,38.66l4.3-4.3Z" transform="translate(-662.543 0)" fill="#3e3b46"/>
  <path id="Path_12820" data-name="Path 12820" d="M850,125.773l4.3,4.3,21.477-21.478,21.478,21.478,4.3-4.3L875.773,100Z" transform="translate(-703.952 -82.818)" fill="#3e3b46"/>
  <path id="Path_12821" data-name="Path 12821" d="M900,217.182l4.3,4.3,12.886-12.887,12.886,12.887,4.3-4.3L917.182,200Z" transform="translate(-745.361 -165.636)" fill="#3e3b46"/>
  <path id="Path_12822" data-name="Path 12822" d="M950,308.591l4.3,4.3,4.3-4.3,4.3,4.3,4.3-4.3L958.591,300Z" transform="translate(-786.77 -248.454)" fill="#3e3b46"/>
  <path id="Path_12823" data-name="Path 12823" d="M1000,0l34.364,34.364-4.3-4.3-4.3-4.3-4.3-4.3-4.3-4.3-4.3-4.3-4.3-4.3-4.3-4.3,4.3-4.3Z" transform="translate(-828.179 0)" fill="#3e3b46"/>
  <path id="Path_12824" data-name="Path 12824" d="M1058.59,0,1050,8.591l4.3,4.3L1067.181,0Z" transform="translate(-869.588 0)" fill="#3e3b46"/>
  <path id="Path_12825" data-name="Path 12825" d="M1117.182,0,1100,17.182l4.3,4.3,12.887-12.886Z" transform="translate(-910.996 0)" fill="#3e3b46"/>
  <path id="Path_12826" data-name="Path 12826" d="M1150,108.591l4.3,4.3,4.3-4.3V100Z" transform="translate(-952.406 -82.818)" fill="#3e3b46"/>
  <path id="Path_12827" data-name="Path 12827" d="M0,208.591l30.069,30.069,4.3-4.3L0,200Z" transform="translate(0 -165.635)" fill="#3e3b46"/>
  <path id="Path_12828" data-name="Path 12828" d="M0,308.591l21.478,21.477,4.3-4.3L0,300Z" transform="translate(0 -248.454)" fill="#3e3b46"/>
  <path id="Path_12829" data-name="Path 12829" d="M0,408.591l12.887,12.887,4.3-4.3L0,400Z" transform="translate(0 -331.272)" fill="#3e3b46"/>
  <path id="Path_12830" data-name="Path 12830" d="M0,508.591l4.3,4.3,4.3-4.3L0,500Z" transform="translate(0 -414.09)" fill="#3e3b46"/>
  <path id="Path_12831" data-name="Path 12831" d="M264.433,238.659l4.3-4.3L234.364,200,200,234.364l4.3,4.3,30.069-30.069Z" transform="translate(-165.636 -165.636)" fill="#3e3b46"/>
  <path id="Path_12832" data-name="Path 12832" d="M297.251,330.068l4.3-4.3L275.773,300,250,325.773l4.3,4.3,21.478-21.478Z" transform="translate(-207.045 -248.454)" fill="#3e3b46"/>
  <path id="Path_12833" data-name="Path 12833" d="M330.069,421.477l4.3-4.3L317.182,400,300,417.182l4.3,4.3,12.887-12.886Z" transform="translate(-248.454 -331.272)" fill="#3e3b46"/>
  <path id="Path_12834" data-name="Path 12834" d="M362.887,512.886l4.3-4.3L358.591,500,350,508.591l4.3,4.3,4.3-4.3Z" transform="translate(-289.863 -414.089)" fill="#3e3b46"/>
  <path id="Path_12835" data-name="Path 12835" d="M600,234.364l4.3,4.3,30.069-30.069,30.068,30.069,4.3-4.3L634.364,200Z" transform="translate(-496.907 -165.636)" fill="#3e3b46"/>
  <path id="Path_12836" data-name="Path 12836" d="M650,325.773l4.3,4.3,21.477-21.478,21.477,21.478,4.3-4.3L675.773,300Z" transform="translate(-538.316 -248.454)" fill="#3e3b46"/>
  <path id="Path_12837" data-name="Path 12837" d="M700,417.182l4.3,4.3,12.886-12.886,12.886,12.886,4.3-4.3L717.182,400Z" transform="translate(-579.725 -331.272)" fill="#3e3b46"/>
  <path id="Path_12838" data-name="Path 12838" d="M750,508.591l4.3,4.3,4.3-4.3,4.3,4.3,4.3-4.3L758.591,500Z" transform="translate(-621.134 -414.089)" fill="#3e3b46"/>
  <path id="Path_12839" data-name="Path 12839" d="M0,434.364l4.3,4.3,30.069-30.068,30.069,30.068,4.3-4.3L34.364,400Z" transform="translate(0 -331.271)" fill="#3e3b46"/>
  <path id="Path_12840" data-name="Path 12840" d="M97.251,530.068l4.3-4.3L75.773,500,50,525.773l4.3,4.3,21.478-21.478Z" transform="translate(-41.409 -414.089)" fill="#3e3b46"/>
  <path id="Path_12841" data-name="Path 12841" d="M130.069,621.478l4.3-4.3L117.182,600,100,617.182l4.3,4.3,12.887-12.887Z" transform="translate(-82.818 -496.907)" fill="#3e3b46"/>
  <path id="Path_12842" data-name="Path 12842" d="M162.887,712.886l4.3-4.3L158.591,700,150,708.591l4.3,4.3,4.3-4.3Z" transform="translate(-124.227 -579.725)" fill="#3e3b46"/>
  <path id="Path_12843" data-name="Path 12843" d="M400,434.364l4.3,4.3,30.069-30.069,30.069,30.069,4.3-4.3L434.364,400Z" transform="translate(-331.272 -331.272)" fill="#3e3b46"/>
  <path id="Path_12844" data-name="Path 12844" d="M450,525.773l4.3,4.3,21.477-21.478,21.478,21.478,4.3-4.3L475.773,500Z" transform="translate(-372.68 -414.089)" fill="#3e3b46"/>
  <path id="Path_12845" data-name="Path 12845" d="M500,617.182l4.3,4.3,12.886-12.887,12.887,12.887,4.3-4.3L517.182,600Z" transform="translate(-414.089 -496.907)" fill="#3e3b46"/>
  <path id="Path_12846" data-name="Path 12846" d="M550,708.591l4.3,4.3,4.3-4.3,4.3,4.3,4.3-4.3L558.591,700Z" transform="translate(-455.499 -579.725)" fill="#3e3b46"/>
  <path id="Path_12847" data-name="Path 12847" d="M800,434.364l4.3,4.3,30.069-30.068,30.069,30.068,4.3-4.3L834.364,400Z" transform="translate(-662.543 -331.271)" fill="#3e3b46"/>
  <path id="Path_12848" data-name="Path 12848" d="M850,525.773l4.3,4.3,21.477-21.478,21.478,21.478,4.3-4.3L875.773,500Z" transform="translate(-703.952 -414.089)" fill="#3e3b46"/>
  <path id="Path_12849" data-name="Path 12849" d="M900,617.182l4.3,4.3,12.886-12.887,12.886,12.887,4.3-4.3L917.182,600Z" transform="translate(-745.361 -496.907)" fill="#3e3b46"/>
  <path id="Path_12850" data-name="Path 12850" d="M950,708.591l4.3,4.3,4.3-4.3,4.3,4.3,4.3-4.3L958.591,700Z" transform="translate(-786.77 -579.725)" fill="#3e3b46"/>
  <path id="Path_12851" data-name="Path 12851" d="M1000,234.364l4.3,4.3,30.069-30.069V200Z" transform="translate(-828.179 -165.636)" fill="#3e3b46"/>
  <path id="Path_12852" data-name="Path 12852" d="M1050,325.773l4.295,4.3,21.478-21.477V300Z" transform="translate(-869.588 -248.454)" fill="#3e3b46"/>
  <path id="Path_12853" data-name="Path 12853" d="M1100,417.182l4.3,4.3,12.886-12.887V400Z" transform="translate(-910.996 -331.272)" fill="#3e3b46"/>
  <path id="Path_12854" data-name="Path 12854" d="M1150,508.591l4.3,4.3,4.3-4.3V500Z" transform="translate(-952.406 -414.09)" fill="#3e3b46"/>
  <path id="Path_12855" data-name="Path 12855" d="M0,608.591,30.069,638.66l4.3-4.3L0,600Z" transform="translate(0 -496.908)" fill="#3e3b46"/>
  <path id="Path_12856" data-name="Path 12856" d="M0,708.591l21.478,21.477,4.3-4.3L0,700Z" transform="translate(0 -579.725)" fill="#3e3b46"/>
  <path id="Path_12857" data-name="Path 12857" d="M0,808.591l12.887,12.886,4.3-4.295L0,800Z" transform="translate(0 -662.543)" fill="#3e3b46"/>
  <path id="Path_12858" data-name="Path 12858" d="M0,908.591l4.3,4.3,4.3-4.3L0,900Z" transform="translate(0 -745.362)" fill="#3e3b46"/>
  <path id="Path_12859" data-name="Path 12859" d="M264.433,638.66l4.3-4.3L234.364,600,200,634.364l4.3,4.3,30.069-30.069Z" transform="translate(-165.636 -496.907)" fill="#3e3b46"/>
  <path id="Path_12860" data-name="Path 12860" d="M297.251,730.069l4.3-4.3L275.773,700,250,725.773l4.3,4.3,21.478-21.478Z" transform="translate(-207.045 -579.725)" fill="#3e3b46"/>
  <path id="Path_12861" data-name="Path 12861" d="M330.069,821.477l4.3-4.295L317.182,800,300,817.182l4.3,4.295,12.887-12.886Z" transform="translate(-248.454 -662.543)" fill="#3e3b46"/>
  <path id="Path_12862" data-name="Path 12862" d="M362.887,912.886l4.3-4.3L358.591,900,350,908.591l4.3,4.3,4.3-4.3Z" transform="translate(-289.863 -745.361)" fill="#3e3b46"/>
  <path id="Path_12863" data-name="Path 12863" d="M600,634.364l4.3,4.3,30.069-30.069,30.068,30.069,4.3-4.3L634.364,600Z" transform="translate(-496.907 -496.907)" fill="#3e3b46"/>
  <path id="Path_12864" data-name="Path 12864" d="M650,725.773l4.3,4.3,21.477-21.478,21.477,21.478,4.3-4.3L675.773,700Z" transform="translate(-538.316 -579.725)" fill="#3e3b46"/>
  <path id="Path_12865" data-name="Path 12865" d="M700,817.182l4.3,4.295,12.886-12.886,12.886,12.886,4.3-4.295L717.182,800Z" transform="translate(-579.725 -662.543)" fill="#3e3b46"/>
  <path id="Path_12866" data-name="Path 12866" d="M750,908.591l4.3,4.3,4.3-4.3,4.3,4.3,4.3-4.3L758.591,900Z" transform="translate(-621.134 -745.361)" fill="#3e3b46"/>
  <path id="Path_12867" data-name="Path 12867" d="M0,834.364l4.3,4.3,30.069-30.069L64.433,838.66l4.3-4.3L34.364,800Z" transform="translate(0 -662.544)" fill="#3e3b46"/>
  <path id="Path_12868" data-name="Path 12868" d="M97.251,930.068l4.3-4.295L75.773,900,50,925.773l4.3,4.295,21.478-21.477Z" transform="translate(-41.409 -745.361)" fill="#3e3b46"/>
  <path id="Path_12869" data-name="Path 12869" d="M130.069,1021.477l4.3-4.3L117.182,1000,100,1017.182l4.3,4.3,12.887-12.886Z" transform="translate(-82.818 -828.179)" fill="#3e3b46"/>
  <path id="Path_12870" data-name="Path 12870" d="M162.887,1112.886l4.3-4.3L158.591,1100,150,1108.591l4.3,4.3,4.3-4.3Z" transform="translate(-124.227 -910.997)" fill="#3e3b46"/>
  <path id="Path_12871" data-name="Path 12871" d="M400,834.364l4.3,4.3,30.069-30.068,30.069,30.068,4.3-4.3L434.364,800Z" transform="translate(-331.272 -662.543)" fill="#3e3b46"/>
  <path id="Path_12872" data-name="Path 12872" d="M450,925.773l4.3,4.295,21.477-21.477,21.478,21.477,4.3-4.295L475.773,900Z" transform="translate(-372.68 -745.361)" fill="#3e3b46"/>
  <path id="Path_12873" data-name="Path 12873" d="M500,1017.182l4.3,4.3,12.886-12.886,12.887,12.886,4.3-4.3L517.182,1000Z" transform="translate(-414.089 -828.179)" fill="#3e3b46"/>
  <path id="Path_12874" data-name="Path 12874" d="M550,1108.591l4.3,4.3,4.3-4.3,4.3,4.3,4.3-4.3L558.591,1100Z" transform="translate(-455.499 -910.997)" fill="#3e3b46"/>
  <path id="Path_12875" data-name="Path 12875" d="M800,834.364l4.3,4.3,30.069-30.069,30.069,30.069,4.3-4.3L834.364,800Z" transform="translate(-662.543 -662.544)" fill="#3e3b46"/>
  <path id="Path_12876" data-name="Path 12876" d="M850,925.773l4.3,4.295,21.477-21.477,21.478,21.477,4.3-4.295L875.773,900Z" transform="translate(-703.952 -745.361)" fill="#3e3b46"/>
  <path id="Path_12877" data-name="Path 12877" d="M900,1017.182l4.3,4.3,12.886-12.886,12.886,12.886,4.3-4.3L917.182,1000Z" transform="translate(-745.361 -828.179)" fill="#3e3b46"/>
  <path id="Path_12878" data-name="Path 12878" d="M950,1108.591l4.3,4.3,4.3-4.3,4.3,4.3,4.3-4.3L958.591,1100Z" transform="translate(-786.77 -910.997)" fill="#3e3b46"/>
  <path id="Path_12879" data-name="Path 12879" d="M1000,634.363l4.3,4.3,30.069-30.069V600Z" transform="translate(-828.179 -496.907)" fill="#3e3b46"/>
  <path id="Path_12880" data-name="Path 12880" d="M1050,725.773l4.295,4.3,21.478-21.478V700Z" transform="translate(-869.588 -579.725)" fill="#3e3b46"/>
  <path id="Path_12881" data-name="Path 12881" d="M1100,817.182l4.3,4.3,12.886-12.886V800Z" transform="translate(-910.996 -662.544)" fill="#3e3b46"/>
  <path id="Path_12882" data-name="Path 12882" d="M1150,908.591l4.3,4.3,4.3-4.3V900Z" transform="translate(-952.406 -745.362)" fill="#3e3b46"/>
  <path id="Path_12883" data-name="Path 12883" d="M0,1008.591l25.773,25.773h8.591L0,1000Z" transform="translate(0 -828.179)" fill="#3e3b46"/>
  <path id="Path_12884" data-name="Path 12884" d="M0,1108.59l8.591,8.591h8.591L0,1100Z" transform="translate(0 -910.997)" fill="#3e3b46"/>
  <path id="Path_12885" data-name="Path 12885" d="M200,1034.364h8.591l25.773-25.773,25.773,25.773h8.591L234.364,1000Z" transform="translate(-165.636 -828.179)" fill="#3e3b46"/>
  <path id="Path_12886" data-name="Path 12886" d="M300,1117.182h8.591l8.591-8.591,8.591,8.591h8.591L317.182,1100Z" transform="translate(-248.453 -910.997)" fill="#3e3b46"/>
  <path id="Path_12887" data-name="Path 12887" d="M600,1034.364h8.591l25.773-25.773,25.773,25.773h8.591L634.364,1000Z" transform="translate(-496.908 -828.179)" fill="#3e3b46"/>
  <path id="Path_12888" data-name="Path 12888" d="M700,1117.182h8.591l8.591-8.591,8.591,8.591h8.591L717.182,1100Z" transform="translate(-579.726 -910.997)" fill="#3e3b46"/>
  <path id="Path_12889" data-name="Path 12889" d="M1000,1034.364h8.591l25.773-25.773V1000Z" transform="translate(-828.179 -828.179)" fill="#3e3b46"/>
  <path id="Path_12890" data-name="Path 12890" d="M1100,1117.182h8.591l8.591-8.591V1100Z" transform="translate(-910.996 -910.997)" fill="#3e3b46"/>
</svg>
