<svg width="236" height="206" viewBox="0 0 236 206" fill="none" xmlns="http://www.w3.org/2000/svg">
<path fill-rule="evenodd" clip-rule="evenodd" d="M232.532 -1.48908L232.638 -1.58008H235.901V0.387924L234.886 1.25792L222.423 11.9399L208.36 -0.122076L200.56 6.56692L194.295 11.9369L188.039 6.57492L190.393 3.82792L194.293 7.17192L198.204 3.81992L204.504 -1.58008H212.214L222.42 7.17492L222.432 7.16492L232.532 -1.48908ZM194.285 21.2441L208.354 9.18506L222.423 21.2441L235.903 9.69206V14.4571L222.425 26.0091L208.356 13.9501L194.287 26.0091L183.032 16.1841L171.776 26.0091L157.707 13.9501L143.638 26.0091L129.562 13.9491L128.452 14.9011L115.493 26.0091L104.238 16.1841L92.9861 26.0091L78.9171 13.9501C75.4331 16.9371 68.3601 23.0001 64.8481 26.0091L50.7791 13.9501L36.7101 26.0091L25.4551 16.1841L14.1991 26.0091L0.129086 13.9501L-0.461914 14.4571V9.69206L0.129086 9.18506L14.1991 21.2441L25.4651 11.3721C25.5621 11.4855 34.6344 19.4277 36.4105 20.9826L36.4131 20.9849L36.4175 20.9888L36.7091 21.2441L50.7791 9.18506L64.8481 21.2441L78.9171 9.18506L92.9861 21.2441L104.253 11.3721C104.353 11.4884 114.371 20.2584 115.411 21.1688L115.497 21.2441L129.566 9.18506L143.632 21.2491L143.644 21.2391L153.744 12.5851L157.705 9.18506L171.774 21.2441L183.041 11.3721C183.138 11.4854 192.21 19.4274 193.986 20.9825L193.987 20.9832L193.994 20.9889L194.285 21.2441ZM197.098 75.1089L210.946 86.9779L222.426 96.8139L235.904 85.2619V90.0269L222.426 101.579L208.594 89.7239L197.101 79.8729L183.032 91.9319L168.963 79.8729L143.638 101.58L129.8 89.7249L118.307 79.8739C109.833 87.1372 106.441 90.0446 105.099 91.1956C104.348 91.8386 104.238 91.9335 104.238 91.9334L104.245 91.927C104.255 91.9183 104.269 91.9066 104.238 91.9329L90.1731 79.8729L64.8481 101.58L51.0151 89.7239L39.5221 79.8729L25.4531 91.9319L11.3841 79.8729L-0.100914 89.7179L-0.461914 90.0279V85.2629L11.3851 75.1089L25.4541 87.1679L39.5231 75.1089L53.3711 86.9779L64.8481 96.8159L90.1731 75.1089L104.238 87.1679L118.313 75.1089L132.161 86.9779L143.638 96.8159L168.96 75.1139L183.029 87.1729L193.137 78.5089L197.098 75.1089ZM208.354 112.895L194.285 124.954C194.161 124.846 183.148 115.207 183.041 115.082L171.774 124.954L157.705 112.895L143.638 124.954L129.569 112.895L115.5 124.954C115.376 124.846 104.363 115.207 104.256 115.082L92.9891 124.954L78.9171 112.895L64.8481 124.954L50.7791 112.895L36.7091 124.954C36.5851 124.846 25.5721 115.207 25.4651 115.082L14.1981 124.954L0.129086 112.895L-0.461914 113.402V118.167L0.129086 117.66L14.1981 129.719L25.4541 119.894L36.7091 129.719L50.7781 117.66L64.8476 129.719H64.8481C64.874 129.696 64.8606 129.708 64.8524 129.715L64.8571 129.71L65.0297 129.563L65.0417 129.552L65.0479 129.547C65.697 128.991 68.364 126.706 78.9171 117.66L92.9861 129.719L104.242 119.894L115.497 129.719L129.566 117.66L143.638 129.719C143.66 129.7 143.654 129.705 143.647 129.711L143.638 129.719C143.637 129.718 144.444 129.029 157.707 117.66L171.776 129.719L183.032 119.894L194.287 129.719L208.356 117.66L222.425 129.719L235.903 118.166V113.401L222.425 124.954L208.356 112.895H208.354ZM227.422 58.432L229.776 55.6851L233.678 59.0291L235.901 57.1241V61.889L233.678 63.7941L227.422 58.432ZM222.438 63.227L222.434 63.2308L222.43 63.227H222.438ZM222.434 63.2308L211.171 73.099L197.102 61.04L193.141 64.44L183.033 73.104L168.964 61.045L154.895 73.104C154.771 72.996 143.758 63.357 143.651 63.232L132.384 73.104L118.315 61.045L104.238 73.099L90.1731 61.04L76.1031 73.099C75.9791 72.991 64.9661 63.352 64.8591 63.227L53.5921 73.099L39.5231 61.04L25.4541 73.099L11.3851 61.04L-0.461914 71.194V75.959L11.3851 65.805L25.4541 77.864L39.5231 65.805L53.5921 77.864L64.8481 68.039L76.1031 77.864L90.1721 65.805L104.238 77.864L104.245 77.8582C104.346 77.7719 105.727 76.589 118.307 65.805L132.376 77.864L143.632 68.039L154.887 77.864L168.956 65.805L183.025 77.864L197.094 65.805L211.163 77.864L222.419 68.039L233.674 77.864L235.897 75.959V71.194L233.674 73.099C233.551 72.9918 222.685 63.4815 222.434 63.2308ZM222.423 35.3129L232.531 26.6489L235.899 23.7609V28.5259L222.421 40.0779L208.352 28.0189L200.552 34.7079L196.87 37.8639L183.031 49.7259L169.2 37.8699L157.707 28.0189L157.188 28.464C153.571 31.5648 146.596 37.5433 143.638 40.0779L129.563 28.0189L104.238 49.7259L90.4101 37.8699L78.9171 28.0189L64.8481 40.0779L50.7781 28.0189L25.4541 49.7259L0.129086 28.0189L-0.461914 28.5259V23.7609L0.129086 23.2539L25.4541 44.9609L50.7781 23.2539L64.8481 35.3129L78.9171 23.2539L92.7611 35.1229L104.238 44.9609L129.569 23.2539L143.638 35.3129L153.744 26.6539L157.705 23.2539L171.553 35.1229L183.03 44.9609L194.53 35.1029L208.354 23.2539L222.423 35.3129ZM232.53 40.719L222.422 49.383L208.35 37.323L202.102 42.679L204.457 45.426L208.35 42.089L222.419 54.148L222.431 54.138L235.897 42.596V37.831L232.53 40.719ZM197.098 178.819L210.946 190.688L222.426 200.527L235.904 188.974V193.739L222.426 205.291L208.594 193.435L197.101 183.584L183.032 195.643L168.963 183.584L143.638 205.291L129.8 193.435L118.307 183.584L104.238 195.643L90.1731 183.584L64.8481 205.291L39.5221 183.583C30.7067 191.139 27.3913 193.981 26.161 195.036L25.4606 195.636L25.4591 195.637C25.4664 195.631 25.4771 195.622 25.4531 195.642L11.3841 183.583L-0.100914 193.428L-0.461914 193.738V188.973L11.3851 178.823L25.4541 190.883L35.5621 182.219L39.5231 178.819L64.8481 200.526L90.1691 178.819L104.238 190.879L118.313 178.819L132.161 190.688L143.638 200.526L168.96 178.819L183.029 190.879L197.098 178.819ZM235.901 205.841V203.041L232.637 205.841H235.901ZM227.422 162.143L229.776 159.396L233.678 162.74L235.901 160.835V165.6L233.678 167.505L227.422 162.143ZM222.438 166.938L222.434 166.942L222.43 166.938H222.438ZM222.434 166.942L211.171 176.81L197.102 164.75L193.141 168.15L183.033 176.814L168.964 164.754L154.895 176.814C154.771 176.706 143.758 167.067 143.651 166.942L132.384 176.814L118.315 164.754L104.238 176.81L90.1691 164.75L76.1001 176.81C75.9761 176.702 64.9631 167.063 64.8561 166.938L53.5891 176.81L39.5201 164.75L35.5591 168.15L25.4511 176.814L11.3821 164.754L-0.461914 174.904V179.669L11.3851 169.515L25.4541 181.574L25.4636 181.566C25.585 181.462 27.0453 180.211 39.5231 169.515L53.5921 181.574L64.8481 171.749L76.1031 181.574L90.1721 169.515L104.238 181.575L118.307 169.516L132.376 181.575L143.632 171.75L154.887 181.575L168.956 169.516L183.025 181.575C183.274 181.361 180.864 183.429 197.094 169.516L211.163 181.575L222.419 171.75L233.674 181.575L235.897 179.67V174.905L233.674 176.81C233.551 176.703 222.685 167.192 222.434 166.942ZM183.029 148.671L208.354 126.964L222.425 139.023L235.903 127.47V132.235L222.425 143.788L208.356 131.729L183.031 153.436L169.2 141.58L157.707 131.729C149.071 139.131 145.714 142.009 144.424 143.115L144.336 143.19L144.311 143.212C143.73 143.71 143.638 143.789 143.638 143.789C143.638 143.789 143.681 143.751 143.638 143.788L129.563 131.729L104.238 153.436L90.4101 141.58L78.9171 131.729C70.179 139.219 66.8451 142.077 65.5893 143.153L65.5629 143.176L65.4984 143.231L65.0356 143.628L64.8672 143.772H64.8666L64.866 143.773L64.8481 143.788L50.7791 131.729L25.4541 153.436L0.129086 131.729L-0.461914 132.236V127.471L0.129086 126.964L25.4541 148.671L50.7791 126.964L64.8481 139.024L78.9171 126.964L92.7611 138.834L104.238 148.671L129.569 126.964L143.638 139.024L157.704 126.965L171.552 138.834L183.029 148.671ZM208.35 141.033L202.102 146.388L204.456 149.135L208.35 145.798L222.419 157.857L235.897 146.305V141.54L222.419 153.092L208.35 141.033ZM178.511 -1.58008L183.029 2.29192L187.547 -1.58008H178.511ZM226.368 79.365L228.722 82.112L222.423 87.511L216.182 82.162L218.536 79.415L222.423 82.746L226.368 79.365ZM232.532 102.221L222.424 110.885L208.354 98.8259L194.285 110.885L190.385 107.541L188.031 110.288L194.287 115.65L208.356 103.591L222.425 115.65L234.886 104.967L235.901 104.097V99.3319L232.531 102.22L232.532 102.221ZM186.975 27.51L189.329 30.257L183.03 35.656L176.789 30.307L179.143 27.56L183.03 30.891L186.975 27.51ZM195.491 53.1119L197.097 51.7349L211.166 63.7939L217.484 58.3789L215.13 55.6319L211.167 59.0319L197.098 46.9729L193.137 50.3729L183.029 59.0369L168.959 46.9709L154.89 59.0299L150.99 55.6859L148.636 58.4329L154.892 63.7949L168.961 51.7359L183.03 63.7949L195.491 53.1119ZM162.708 94.533L168.956 89.178L183.025 101.242L193.133 92.578L197.094 89.178L203.365 94.553L201.011 97.3L197.094 93.943L183.025 106.002L168.956 93.943L165.063 97.28L162.708 94.533ZM228.722 185.823L226.368 183.076L222.423 186.457L218.536 183.126L216.182 185.873L222.423 191.223L228.723 185.823H228.722ZM212.209 205.84H204.498L208.354 202.54L212.209 205.84ZM153.849 205.84H161.559L157.704 202.54L153.849 205.84ZM186.975 131.221L189.329 133.968L183.03 139.367L176.789 134.018L179.143 131.271L183.03 134.603L186.975 131.221ZM195.491 156.822L197.097 155.445L211.166 167.504L217.484 162.089L215.13 159.342L211.167 162.742L197.098 150.682L193.137 154.082L183.029 162.746L168.96 150.686L154.891 162.746L150.991 159.402L148.637 162.149L154.893 167.511L168.962 155.452L183.031 167.511L195.491 156.822ZM168.956 192.889L183.028 204.947L197.095 192.889L203.366 198.265L201.012 201.012L197.095 197.655L187.543 205.842H178.508L168.956 197.655L165.063 200.992L162.708 198.245L168.956 192.889ZM129.566 -0.120076L143.635 11.9399L156.097 1.25792L157.704 -0.119076L171.773 11.9399L178.091 6.51992L175.737 3.77292L171.774 7.17292L161.559 -1.58008H153.849L153.743 -1.48908L143.643 7.16492L143.632 7.17492L133.425 -1.58008H125.715L115.496 7.17492L111.596 3.83092L109.242 6.57792L115.498 11.9399L129.566 -0.120076ZM99.7241 -1.58008H108.759L104.242 2.29192L99.7241 -1.58008ZM149.935 82.112V82.1114V82.111V82.112ZM149.935 82.1114L147.58 79.365L143.635 82.746L139.748 79.415L137.394 82.162L143.635 87.511L149.935 82.1114ZM143.636 110.885L153.744 102.221L157.705 98.8259L171.774 110.887L175.737 107.487L178.091 110.234L171.774 115.649L157.705 103.59L156.098 104.967L143.637 115.65L129.568 103.591L115.499 115.65L109.243 110.288L111.598 107.541L115.498 110.885L129.567 98.8259L143.636 110.885ZM110.541 30.257L108.187 27.51L104.242 30.891L100.355 27.56L98.001 30.307L104.242 35.656L110.541 30.257ZM76.1031 59.0299L90.1721 46.9709L104.242 59.0289L114.35 50.3649L114.351 50.3655L118.312 46.9739L132.381 59.0329L136.344 55.6329L138.698 58.3799L132.38 63.7949L118.311 51.7359L116.704 53.1129V53.1124L104.243 63.7949L90.1741 51.7359L76.1051 63.7949L69.8491 58.4329L72.2031 55.6859L76.1031 59.0299ZM90.1679 89.178L104.239 101.235L118.306 89.178L124.577 94.553L122.223 97.3L118.306 93.943C109.832 101.206 106.44 104.114 105.097 105.265L104.375 105.884L104.244 105.996C104.254 105.987 104.268 105.976 104.237 106.002L90.1679 93.943L86.2749 97.28L83.9199 94.533L90.1679 89.178ZM129.562 37.323L143.634 49.3812L157.701 37.324L163.972 42.699L161.617 45.446L157.7 42.089C148.911 49.6221 145.59 52.4697 144.351 53.5318C143.727 54.0661 143.631 54.1486 143.631 54.1485C143.631 54.1485 143.674 54.1114 143.631 54.148L129.562 42.089L125.669 45.426L123.314 42.679L129.562 37.323ZM147.58 183.076L149.935 185.823L143.635 191.223L137.394 185.873L139.748 183.126L143.635 186.457L147.58 183.076ZM125.71 205.84H133.421L129.566 202.54L125.71 205.84ZM82.772 205.84H75.061L78.917 202.54L82.772 205.84ZM110.541 133.968L108.187 131.221L104.242 134.603L100.355 131.271L98.001 134.018L104.242 139.367L110.541 133.968ZM76.1031 162.741L90.1721 150.681L104.242 162.739L114.35 154.075L114.351 154.076L118.312 150.684L132.381 162.743L136.344 159.343L138.698 162.09L132.38 167.505L118.311 155.445L116.704 156.823V156.822L104.243 167.506L90.1741 155.447L76.1051 167.506L69.8491 162.144L72.2031 159.397L76.1031 162.741ZM104.242 204.948L114.35 196.284L118.309 192.889L124.58 198.265L122.226 201.012L118.309 197.654L116.702 199.031L108.757 205.841H99.7219L90.1699 197.653L86.2759 200.991L83.9209 198.244L90.1689 192.888L104.242 204.948ZM143.633 153.091L129.562 141.033L123.314 146.388L125.669 149.135L129.562 145.798L143.631 157.857C143.674 157.82 143.631 157.857 143.631 157.858L143.829 157.688L144.356 157.236L144.476 157.134L144.481 157.129C145.817 155.984 149.204 153.08 157.7 145.798L161.617 149.155L163.972 146.408L157.701 141.032L143.633 153.091ZM64.8471 11.9399L50.7781 -0.120076L36.7111 11.9399L30.4551 6.57792L32.8091 3.83092L36.7091 7.17492L46.9271 -1.58008H54.6371L64.8471 7.17492L74.9561 -1.48908L75.0621 -1.58008H82.7721L92.9871 7.17292L96.9501 3.77292L99.3041 6.51992L92.9861 11.9399L78.9171 -0.120076L77.3101 1.25792L64.8471 11.9399ZM14.1981 11.9399L20.5161 6.51992L18.1621 3.77792L14.1991 7.17792L3.98409 -1.58008H-0.461914V0.386924L0.129086 -0.120076L14.1981 11.9399ZM20.936 -1.58008H29.971L25.454 2.29192L20.936 -1.58008ZM71.1459 82.112L68.7919 79.365L64.847 82.746L60.9599 79.415L58.606 82.162L64.847 87.511L71.1459 82.112ZM64.8481 110.885L74.9561 102.221L78.9171 98.8259L92.9871 110.887L96.9501 107.487L99.3041 110.234L92.9861 115.649L78.9171 103.59L77.3101 104.967L64.8501 115.65L50.7811 103.591L36.7121 115.65L30.4561 110.288L32.8101 107.541L36.7101 110.885L50.7791 98.8259L64.8481 110.885ZM14.1981 115.65L20.5161 110.235L18.1621 107.488L14.1991 110.888L0.129086 98.8259L-0.461914 99.3329V104.098L0.129086 103.591L14.1981 115.65ZM29.3989 27.51L31.7529 30.257L25.4539 35.656L19.2129 30.307L21.5669 27.56L25.4539 30.891L29.3989 27.51ZM25.4541 63.7949L37.9171 53.1119L39.5241 51.7349L53.5931 63.7939L59.9111 58.3789L57.5571 55.6319L53.5941 59.0319L39.5231 46.9709L35.5621 50.3709L25.4541 59.0349L11.3851 46.9709L-0.461914 57.1249V61.8899L11.3851 51.7359L25.4541 63.7949ZM11.3798 89.178L25.4528 101.237L39.5178 89.178L45.7888 94.553L43.4348 97.3L39.5178 93.943L26.3221 105.254L26.2046 105.354L26.0704 105.469L25.6075 105.866L25.5012 105.957C25.4601 105.993 25.4484 106.003 25.4484 106.003L25.4556 105.996L25.4488 106.002L11.3798 93.943L7.48684 97.28L5.13184 94.533L11.3798 89.178ZM50.7739 37.323L64.8455 49.3808L78.9119 37.324L85.1829 42.699L82.8289 45.446L78.9119 42.089C70.2155 49.543 66.8718 52.4093 65.6022 53.4978C64.9433 54.0626 64.8429 54.1486 64.8428 54.1485C64.8428 54.1485 64.8598 54.1338 64.8618 54.132C64.8629 54.131 64.8588 54.1344 64.8429 54.148L50.7739 42.089L46.8809 45.426L44.5259 42.679L50.7739 37.323ZM6.12251 42.9054C6.10109 43.278 5.75546 43.6319 5.19063 44.2103C4.87243 44.5361 4.48465 44.9332 4.04609 45.445L0.129086 42.088L-0.461914 42.595V37.83L0.129086 37.323C1.46305 38.4663 2.54054 39.3506 3.39403 40.051H3.39406C5.38402 41.6842 6.15629 42.318 6.12251 42.9054ZM71.1459 185.823L68.7919 183.076L64.847 186.457L60.9599 183.126L58.606 185.873L64.847 191.223L71.1469 185.823H71.1459ZM54.6339 205.84H46.9229L50.7789 202.54L54.6339 205.84ZM-0.461914 203.043V205.843H3.98409L0.129086 202.543L-0.461914 203.043ZM29.3989 131.221L31.7529 133.968L25.4539 139.367L19.2129 134.018L21.5669 131.271L25.4539 134.603L29.3989 131.221ZM25.4541 167.505L37.9171 156.822L39.5241 155.445L53.5931 167.504L59.9111 162.089L57.5571 159.342L53.5941 162.742L39.5251 150.682L35.5641 154.082L25.4561 162.746L11.3871 150.686L-0.461914 160.835V165.6L11.3851 155.446L25.4541 167.505ZM25.4528 204.948L35.5608 196.284L39.5218 192.889L45.7928 198.265L43.4388 201.011L39.5218 197.654L29.9708 205.841H20.9328L11.3808 197.654L7.48781 200.991L5.13281 198.245L11.3808 192.889L25.4528 204.948ZM50.7739 141.033L64.8449 153.09L78.9119 141.032L85.1829 146.408L82.8289 149.155L78.9119 145.798C70.1119 153.341 66.7929 156.186 65.5577 157.245C64.9387 157.775 64.8429 157.858 64.8428 157.858C64.8428 157.858 64.8461 157.855 64.8499 157.851C64.86 157.843 64.874 157.83 64.8429 157.857L50.7739 145.798L46.8809 149.135L44.5259 146.388L50.7739 141.033ZM6.40009 146.408L4.04609 149.155L0.129086 145.798L-0.461914 146.305V141.54L0.129086 141.033L6.40009 146.408Z" fill="black"/>
</svg>
