<svg width="239" height="207" viewBox="0 0 239 207" fill="none" xmlns="http://www.w3.org/2000/svg">
<path fill-rule="evenodd" clip-rule="evenodd" d="M6.966 180.789L15.829 185.906L6.966 191.023V180.789ZM43.692 185.903L52.555 180.786V191.023L43.692 185.903ZM66.486 180.786L75.349 185.903L66.486 191.02V180.786ZM103.212 185.903L112.075 180.786V191.023L103.212 185.903ZM126.007 180.786L134.87 185.903L126.007 191.02V180.786ZM162.733 185.903L171.597 180.786V191.023L162.733 185.903ZM185.528 180.786L194.391 185.903L185.528 191.02V180.786ZM222.254 185.903L231.117 180.786V191.023L222.254 185.903ZM36.726 171.821V163.603L45.589 168.72L40.225 171.82L36.725 173.84L36.726 171.821ZM96.246 171.821V163.603L105.109 168.72L99.745 171.82L96.245 173.84L96.246 171.821ZM155.766 171.821V163.603L164.629 168.72L159.265 171.82L155.765 173.84L155.766 171.821ZM215.286 171.821V163.603L224.149 168.72L218.785 171.82L215.285 173.84L215.286 171.821ZM19.295 171.821L13.931 168.721L22.794 163.604V173.839L19.295 171.821ZM78.815 171.821L73.451 168.721L82.314 163.604V173.839L78.815 171.821ZM138.336 171.821L132.972 168.721L141.835 163.604V173.839L138.336 171.821ZM197.856 171.821L192.492 168.721L201.355 163.604V173.839L197.856 171.821ZM77.326 152.683L82.315 155.563V161.323L64.509 171.603V192.164L59.52 195.044L54.532 192.164V171.603L36.726 161.323V155.563L41.714 152.683L59.52 162.963L77.326 152.683ZM136.846 152.683L141.834 155.563V161.323L124.029 171.603V192.164L119.041 195.044L114.052 192.164V171.603L96.246 161.323V155.563L101.234 152.683L119.04 162.963L136.846 152.683ZM196.366 152.683L201.354 155.563V161.323L183.55 171.603V192.164L178.562 195.044L173.573 192.164V171.603L155.767 161.323V155.563L160.756 152.683L178.562 162.963L196.366 152.683ZM6.966 146.424L15.829 151.541L6.966 156.658V146.424ZM43.692 151.541L52.555 146.424V156.658L43.692 151.541ZM66.486 146.424L75.349 151.541L66.486 156.658V146.424ZM103.212 151.541L112.075 146.424V156.658L103.212 151.541ZM126.007 146.424L134.87 151.541L126.007 156.658V146.424ZM162.733 151.541L171.597 146.424V156.658L162.733 151.541ZM185.528 146.424L194.391 151.541L185.528 156.658V146.424ZM222.254 151.541L231.117 146.424V156.658L222.254 151.541ZM44.179 137.457L47.566 135.502L50.953 137.457L52.553 138.382V144.142L34.749 154.422V174.982L29.761 177.862L24.772 174.982V154.422L6.966 144.141V138.381L8.566 137.456L11.953 135.501L15.34 137.456L29.759 145.781L44.179 137.457ZM103.699 137.457L107.086 135.502L110.473 137.457L112.073 138.382V144.142L94.269 154.422V174.982L89.281 177.862L84.292 174.982V154.422L66.486 144.141V138.381L68.086 137.456L71.473 135.501L74.86 137.456L89.279 145.781L103.699 137.457ZM163.219 137.457L166.606 135.502L169.993 137.457L171.593 138.382V144.142L153.79 154.422V174.982L148.801 177.862L143.813 174.982V154.422L126.007 144.141V138.381L127.607 137.456L130.994 135.501L134.381 137.456L148.8 145.781L163.219 137.457ZM222.739 137.457L226.126 135.502L229.513 137.457L231.113 138.382V144.142L213.31 154.422V174.982L208.322 177.862L203.333 174.982V154.422L185.527 144.141V138.381L187.127 137.456L190.514 135.501L193.901 137.456L208.32 145.781L222.739 137.457ZM36.725 137.457V129.243L45.588 134.36L40.224 137.46L36.724 139.48L36.725 137.457ZM96.245 137.457V129.243L105.108 134.36L99.744 137.46L96.244 139.48L96.245 137.457ZM155.765 137.457V129.243L164.628 134.36L159.264 137.46L155.764 139.48L155.765 137.457ZM215.285 137.457V129.243L224.148 134.36L218.784 137.46L215.284 139.48L215.285 137.457ZM19.294 137.457L13.93 134.357L22.793 129.24V139.475L19.294 137.457ZM78.814 137.457L73.45 134.357L82.313 129.24V139.475L78.814 137.457ZM138.335 137.457L132.971 134.357L141.834 129.24V139.475L138.335 137.457ZM197.855 137.457L192.491 134.357L201.354 129.24V139.475L197.855 137.457ZM77.326 118.319L82.315 121.199V126.959L64.509 137.239V157.803L59.52 160.683L54.532 157.803V137.239L36.726 126.959V121.203L41.714 118.323L59.52 128.603L77.326 118.319ZM136.846 118.319L141.834 121.199V126.959L124.028 137.239V157.803L119.04 160.683L114.051 157.803V137.239L96.245 126.959V121.203L101.233 118.323L119.039 128.603L136.846 118.319ZM196.366 118.319L201.354 121.199V126.959L183.548 137.239V157.803L178.56 160.683L173.571 157.803V137.239L155.765 126.959V121.203L160.754 118.323L178.56 128.603L196.366 118.319ZM6.966 112.061L15.829 117.178L6.966 122.295V112.061ZM43.692 117.178L52.555 112.061V122.295L43.692 117.178ZM66.486 112.061L75.349 117.178L66.486 122.295V112.061ZM103.212 117.178L112.075 112.061V122.295L103.212 117.178ZM126.007 112.061L134.87 117.178L126.007 122.295V112.061ZM162.733 117.178L171.597 112.061V122.295L162.733 117.178ZM185.528 112.061L194.391 117.178L185.528 122.295V112.061ZM222.254 117.178L231.117 112.061V122.295L222.254 117.178ZM44.179 103.092L47.566 101.137L50.953 103.092L52.553 104.017V109.777L34.749 120.058V140.619L29.76 143.503L24.771 140.623V120.058L6.966 109.777V104.017L8.566 103.092L11.953 101.137L15.34 103.092L29.759 111.417L44.179 103.092ZM103.699 103.092L107.086 101.137L110.473 103.092L112.073 104.017V109.777L94.269 120.058V140.619L89.281 143.499L84.292 140.619V120.058L66.486 109.778V104.018L68.086 103.093L71.473 101.138L74.86 103.093L89.279 111.418L103.699 103.092ZM163.219 103.092L166.606 101.137L169.993 103.092L171.593 104.017V109.777L153.79 120.058V140.619L148.8 143.503L143.812 140.623V120.058L126.006 109.778V104.018L127.606 103.093L130.993 101.138L134.38 103.093L148.799 111.418L163.219 103.092ZM222.739 103.092L226.126 101.137L229.513 103.092L231.113 104.017V109.777L213.31 120.058V140.619L208.322 143.499L203.333 140.619V120.058L185.527 109.778V104.018L187.127 103.093L190.514 101.138L193.901 103.093L208.32 111.418L222.739 103.092ZM36.725 103.092V94.878L45.588 99.995L40.224 103.095L36.724 105.115L36.725 103.092ZM96.245 103.092V94.878L105.108 99.995L99.744 103.095L96.244 105.115L96.245 103.092ZM155.765 103.092V94.878L164.628 99.995L159.264 103.095L155.764 105.115L155.765 103.092ZM215.285 103.092V94.878L224.148 99.995L218.784 103.095L215.284 105.115L215.285 103.092ZM19.294 103.092L13.93 99.992L22.793 94.875V105.113L19.294 103.092ZM78.814 103.092L73.45 99.992L82.313 94.875V105.113L78.814 103.092ZM138.335 103.092L132.971 99.992L141.834 94.875V105.113L138.335 103.092ZM197.855 103.092L192.491 99.992L201.354 94.875V105.113L197.855 103.092ZM54.532 123.436V102.875L36.726 92.595V86.835L41.714 83.955L59.52 94.235L77.326 83.955L82.315 86.835V92.595L64.509 102.875V123.436L59.52 126.316L54.532 123.436ZM114.052 123.436V102.875L96.246 92.595V86.835L101.234 83.955L119.04 94.235L136.846 83.955L141.834 86.835V92.595L124.028 102.875V123.436L119.04 126.316L114.052 123.436ZM173.572 123.436V102.875L155.766 92.595V86.835L160.755 83.955L178.561 94.235L196.367 83.955L201.355 86.835V92.595L183.549 102.875V123.436L178.561 126.316L173.572 123.436ZM6.966 77.696L15.829 82.813L6.966 87.93V77.696ZM43.692 82.813L52.555 77.696V87.931L43.692 82.813ZM66.486 77.696L75.349 82.813L66.486 87.93V77.696ZM103.212 82.813L112.075 77.696V87.931L103.212 82.813ZM126.007 77.696L134.87 82.813L126.007 87.93V77.696ZM162.733 82.813L171.597 77.696V87.931L162.733 82.813ZM185.528 77.696L194.391 82.813L185.528 87.93V77.696ZM222.254 82.813L231.117 77.696V87.931L222.254 82.813ZM44.179 68.728L47.566 66.773L50.953 68.728L52.553 69.652V75.412L34.749 85.693V106.254L29.761 109.134L24.772 106.254V85.693L6.966 75.413V69.653L8.566 68.728L11.953 66.773L15.34 68.728L29.76 77.053L44.179 68.728ZM103.699 68.728L107.086 66.773L110.473 68.728L112.073 69.652V75.412L94.269 85.693V106.254L89.281 109.134L84.292 106.254V85.693L66.486 75.413V69.653L68.086 68.728L71.473 66.773L74.86 68.728L89.281 77.053L103.699 68.728ZM163.219 68.728L166.606 66.773L169.993 68.728L171.593 69.652V75.412L153.79 85.693V106.254L148.801 109.134L143.813 106.254V85.693L126.006 75.413V69.653L127.606 68.728L130.993 66.773L134.38 68.728L148.8 77.053L163.219 68.728ZM222.739 68.728L226.126 66.773L229.513 68.728L231.113 69.652V75.412L213.31 85.693V106.254L208.322 109.134L203.333 106.254V85.693L185.527 75.413V69.653L187.127 68.728L190.514 66.773L193.901 68.728L208.32 77.053L222.739 68.728ZM36.725 68.728V60.514L45.588 65.631L40.224 68.731L36.724 70.751L36.725 68.728ZM96.245 68.728V60.514L105.108 65.631L99.744 68.731L96.244 70.751L96.245 68.728ZM155.765 68.728V60.514L164.628 65.631L159.264 68.731L155.764 70.751L155.765 68.728ZM215.285 68.728V60.514L224.148 65.631L218.784 68.731L215.284 70.751L215.285 68.728ZM19.294 68.728L13.93 65.628L22.793 60.511V70.748L19.294 68.728ZM78.814 68.728L73.45 65.628L82.313 60.511V70.748L78.814 68.728ZM138.335 68.728L132.971 65.628L141.834 60.511V70.748L138.335 68.728ZM197.855 68.728L192.491 65.628L201.354 60.511V70.748L197.855 68.728ZM77.326 49.591L82.315 52.471V58.231L64.509 68.511V89.072L59.52 91.952L54.532 89.072V68.511L36.726 58.231V52.471L41.714 49.591L59.52 59.871L77.326 49.591ZM136.846 49.591L141.834 52.471V58.231L124.028 68.511V89.072L119.04 91.952L114.051 89.072V68.511L96.246 58.231V52.471L101.234 49.591L119.04 59.871L136.846 49.591ZM196.366 49.591L201.354 52.471V58.231L183.55 68.511V89.072L178.562 91.952L173.573 89.072V68.511L155.767 58.231V52.471L160.756 49.591L178.562 59.871L196.366 49.591ZM6.966 43.332L15.829 48.449L6.966 53.566V43.332ZM43.692 48.449L52.555 43.332V53.566L43.692 48.449ZM66.486 43.332L75.349 48.449L66.486 53.566V43.332ZM103.212 48.449L112.075 43.332V53.566L103.212 48.449ZM126.007 43.332L134.87 48.449L126.007 53.566V43.332ZM162.733 48.449L171.597 43.332V53.566L162.733 48.449ZM185.528 43.332L194.391 48.449L185.528 53.566V43.332ZM222.254 48.449L231.117 43.332V53.566L222.254 48.449ZM44.179 34.364L47.566 32.409L50.953 34.364L52.553 35.289V41.049L34.749 51.329V71.89L29.761 74.77L24.772 71.89V51.329L6.966 41.049V35.289L8.566 34.364L11.953 32.409L15.34 34.364L29.76 42.689L44.179 34.364ZM103.699 34.364L107.086 32.409L110.473 34.364L112.073 35.289V41.049L94.269 51.329V71.89L89.281 74.77L84.292 71.89V51.329L66.486 41.049V35.289L68.086 34.364L71.473 32.409L74.86 34.364L89.279 42.689L103.699 34.364ZM163.219 34.364L166.606 32.409L169.993 34.364L171.593 35.289V41.049L153.79 51.329V71.89L148.801 74.77L143.813 71.89V51.329L126.007 41.049V35.289L127.607 34.364L130.994 32.409L134.381 34.364L148.8 42.689L163.219 34.364ZM222.739 34.364L226.126 32.409L229.513 34.364L231.113 35.289V41.049L213.31 51.329V71.89L208.322 74.77L203.333 71.89V51.329L185.527 41.049V35.289L187.127 34.364L190.514 32.409L193.901 34.364L208.32 42.689L222.739 34.364ZM36.725 34.364V26.15L45.588 31.267L40.224 34.367L36.724 36.387L36.725 34.364ZM96.245 34.364V26.15L105.108 31.267L99.744 34.367L96.244 36.387L96.245 34.364ZM155.765 34.364V26.15L164.628 31.267L159.264 34.367L155.764 36.387L155.765 34.364ZM215.285 34.364V26.15L224.148 31.267L218.784 34.367L215.284 36.387L215.285 34.364ZM19.294 34.364L13.93 31.264L22.793 26.147V36.384L19.294 34.364ZM78.814 34.364L73.45 31.264L82.313 26.147V36.384L78.814 34.364ZM138.335 34.364L132.971 31.264L141.834 26.147V36.384L138.335 34.364ZM197.855 34.364L192.491 31.264L201.354 26.147V36.384L197.855 34.364ZM77.326 15.227L82.315 18.107V23.867L64.509 34.147V54.703L59.52 57.583L54.532 54.703V34.147L36.726 23.867V18.103L41.714 15.223L59.52 25.503L77.326 15.227ZM136.846 15.227L141.834 18.107V23.867L124.028 34.147V54.703L119.04 57.583L114.051 54.703V34.147L96.246 23.867V18.103L101.234 15.223L119.041 25.503L136.846 15.227ZM196.366 15.227L201.354 18.107V23.867L183.55 34.147V54.703L178.562 57.583L173.573 54.703V34.147L155.767 23.867V18.103L160.756 15.223L178.561 25.503L196.366 15.227ZM6.966 8.968L15.829 14.085L6.966 19.203V8.968ZM43.692 14.085L52.555 8.968V19.203L43.692 14.085ZM66.486 8.968L75.349 14.085L66.486 19.203V8.968ZM103.212 14.085L112.075 8.968V19.203L103.212 14.085ZM126.007 8.968L134.87 14.085L126.006 19.203L126.007 8.968ZM162.733 14.085L171.6 8.968V19.203L162.733 14.085ZM185.528 8.968L194.391 14.085L185.527 19.203L185.528 8.968ZM222.254 14.085L231.117 8.968V19.203L222.254 14.085ZM229.515 0.003L231.115 0.928V6.688L213.31 16.965V37.525L208.322 40.405L203.333 37.525V16.965L185.527 6.685V0.925L187.127 0H183.55V20.343L178.562 23.223L173.573 20.343V0.003H169.994L171.594 0.928V6.688L153.79 16.965V37.525L148.8 40.403L143.812 37.523V16.965L126.006 6.685V0.925L127.606 0H124.027V20.343L119.039 23.223L114.05 20.343V0.003H110.472L112.072 0.928V6.688L94.269 16.965V37.525L89.281 40.403L84.292 37.523V16.965L66.486 6.685V0.925L68.088 0.003H64.509V20.343L59.52 23.223L54.532 20.343V0.003H50.953L52.553 0.928V6.688L34.749 16.965V37.525L29.76 40.403L24.771 37.523V16.965L6.966 6.685V0.925L8.567 0.003H4.988V20.343L0 23.224V25.503L17.806 15.223L22.794 18.103V23.863L4.988 34.147V54.703L0 57.588V59.871L17.806 49.591L22.794 52.471V58.231L4.988 68.511V89.072L0 91.952V94.235L17.806 83.955L22.794 86.835V92.595L4.988 102.875V123.436L0 126.316V128.603L17.806 118.323L22.794 121.203V126.963L4.988 137.239V157.803L0 160.68V162.963L17.806 152.683L22.794 155.563V161.323L4.988 171.603V192.164L0 195.044V197.327L17.806 187.047L22.794 189.927V195.687L4.988 205.968V206.185H8.567L11.954 204.229L15.341 206.185H19.3L13.936 203.085L22.799 197.968V206.183H24.776V188.783L6.966 178.503V172.743L8.566 171.818L11.953 169.863L15.34 171.818L29.759 180.143L44.178 171.818L47.565 169.863L50.952 171.818L52.552 172.743V178.503L34.749 188.786V206.186H36.726V197.972L45.589 203.089L40.225 206.189H44.18L47.567 204.233L50.954 206.189H54.533V205.972L36.727 195.692V189.932L41.715 187.052L59.521 197.332L77.327 187.052L82.316 189.932V195.692L64.51 205.972V206.189H68.089L71.476 204.233L74.863 206.189H78.817L73.453 203.089L82.316 197.972V206.187H84.293V188.787L66.486 178.503V172.743L68.086 171.818L71.473 169.863L74.86 171.818L89.279 180.143L103.698 171.818L107.085 169.863L110.472 171.818L112.072 172.743V178.503L94.269 188.786V206.186H96.246V197.972L105.109 203.089L99.745 206.189H103.7L107.087 204.233L110.474 206.189H114.053V205.972L96.247 195.692V189.932L101.235 187.052L119.041 197.332L136.847 187.052L141.835 189.932V195.692L124.029 205.972V206.189H127.608L130.995 204.233L134.382 206.189H138.337L132.973 203.089L141.836 197.972V206.187H143.813V188.787L126.006 178.503V172.743L127.606 171.818L130.993 169.863L134.38 171.818L148.799 180.143L163.218 171.818L166.605 169.863L169.992 171.818L171.592 172.743V178.503L153.79 188.786V206.186H155.767V197.972L164.63 203.089L159.266 206.189H163.22L166.607 204.233L169.994 206.189H173.573V205.972L155.767 195.692V189.932L160.756 187.052L178.562 197.332L196.368 187.052L201.356 189.932V195.692L183.55 205.972V206.189H187.129L190.516 204.233L193.903 206.189H197.857L192.493 203.089L201.356 197.972V206.187H203.333V188.787L185.527 178.503V172.743L187.127 171.818L190.514 169.863L193.901 171.818L208.32 180.143L222.739 171.818L226.126 169.863L229.513 171.818L231.113 172.743V178.503L213.31 188.786V206.186H215.287V197.972L224.15 203.089L218.786 206.189H222.741L226.128 204.233L229.515 206.189H233.094V205.972L215.288 195.692V189.932L220.276 187.052L238.082 197.332V195.049L233.094 192.169V171.603L215.288 161.323V155.563L220.276 152.683L238.082 162.963V160.68L233.094 157.8V137.239L215.288 126.959V121.203L220.276 118.323L238.082 128.603V126.32L233.094 123.44V102.875L215.288 92.595V86.835L220.276 83.955L238.082 94.235V91.952L233.094 89.072V68.511L215.288 58.231V52.471L220.276 49.591L238.082 59.871V57.588L233.094 54.708V34.147L215.288 23.867V18.103L220.276 15.223L238.081 25.503V23.224L233.093 20.344V0.003H229.515ZM218.786 0.00292969L215.286 2.02293V0.00292969H213.309V3.16193L208.32 6.04193L203.331 3.16193V0.00292969H201.354V2.02293L197.856 0.00292969H193.902L208.321 8.32793L222.74 0.00292969H218.786ZM155.765 2.02293L159.265 0.00292969H163.219L148.8 8.32793L134.381 0.00292969H138.336L141.833 2.02293V0.00292969H143.81V3.16193L148.799 6.04193L153.788 3.16193V0.00292969H155.765V2.02293ZM99.7448 0.00292969L96.2448 2.02293V0.00292969H94.2678V3.16193L89.2788 6.04193L84.2908 3.16193V0.00292969H82.3138V2.02293L78.8158 0.00292969H74.8618L89.2808 8.32793L103.699 0.00292969H99.7448ZM36.7238 2.02293L40.2238 0.00292969H44.1788L29.7598 8.32493L15.3408 0.00292969H19.2948L22.7938 2.02293V0.00292969H24.7698V3.16193L29.7588 6.04193L34.7478 3.16193V0.00292969H36.7238V2.02293Z" fill="black"/>
</svg>
