<svg xmlns="http://www.w3.org/2000/svg" xmlns:xlink="http://www.w3.org/1999/xlink" width="235.64" height="206.185" viewBox="0 0 235.64 206.185">
  <defs>
    <clipPath id="clip-path">
      <rect id="Rectangle_709" data-name="Rectangle 709" width="235.64" height="206.185" transform="translate(0)" fill="none"/>
    </clipPath>
  </defs>
  <g id="Group_2877" data-name="Group 2877" transform="translate(0)">
    <g id="Group_2877-2" data-name="Group 2877" transform="translate(0 0)" clip-path="url(#clip-path)">
      <path id="Path_12733" data-name="Path 12733" d="M208.816,53.559,194.747,65.618c-.123-.108-11.137-9.747-11.244-9.872l-11.267,9.872L158.167,53.559l-3.961,3.4-10.1,8.654-.012.01L130.028,53.559,115.959,65.618c-.121-.106-11.139-9.75-11.244-9.872L93.448,65.618,79.379,53.559,65.31,65.618,51.241,53.559,37.171,65.618c-.123-.108-11.137-9.747-11.244-9.872L14.661,65.618.591,53.559,0,54.066v4.765l.591-.507L14.661,70.383l11.256-9.825,11.255,9.825L51.241,58.324,65.31,70.383c3.512-3.009,10.585-9.072,14.069-12.059L93.448,70.383,104.7,60.558l11.255,9.825,12.959-11.108,1.11-.952L144.1,70.383l14.069-12.059,14.069,12.059,11.256-9.825,11.255,9.825,14.069-12.059,14.069,12.059,13.478-11.552V54.066L222.885,65.618,208.816,53.559" transform="translate(-0.462 -44.374)" fill="#231f20"/>
      <path id="Path_12734" data-name="Path 12734" d="M211.408,393.428h0l-13.848-11.869-3.961,3.4h0l-10.108,8.664-14.069-12.059L144.1,403.266l-11.477-9.838-13.848-11.869L104.7,393.618,90.635,381.559,65.31,403.266l-11.477-9.838L39.985,381.559,25.916,393.618,11.847,381.559,0,391.713v4.765l.361-.31,11.485-9.845,14.069,12.059,14.069-12.059,11.493,9.851L65.31,408.03l25.325-21.707L104.7,398.383c.234-.2-2.1,1.8,14.069-12.059l11.493,9.851L144.1,408.03l25.325-21.707,14.069,12.059,14.069-12.059,11.493,9.851,13.832,11.855,13.478-11.552v-4.765l-13.478,11.552Z" transform="translate(-0.462 -306.45)" fill="#231f20"/>
      <path id="Path_12735" data-name="Path 12735" d="M208.816,569.559l-14.069,12.059c-.124-.108-11.137-9.747-11.244-9.872l-11.267,9.872-14.069-12.059L144.1,581.618l-14.069-12.059-14.069,12.059c-.124-.108-11.137-9.747-11.244-9.872l-11.267,9.872L79.379,569.559,65.31,581.618,51.241,569.559,37.171,581.618c-.124-.108-11.137-9.747-11.244-9.872l-11.267,9.872L.591,569.559,0,570.066v4.765l.591-.507,14.069,12.059,11.256-9.825,11.255,9.825,14.069-12.059L65.31,586.383c.2-.174-1.943,1.667,14.069-12.059l14.069,12.059,11.256-9.825,11.255,9.825,14.069-12.059L144.1,586.383c.2-.174-1.943,1.667,14.069-12.059l14.069,12.059,11.256-9.825,11.255,9.825,14.069-12.059,14.069,12.059,13.478-11.553v-4.765l-13.478,11.553-14.069-12.059" transform="translate(-0.462 -456.664)" fill="#231f20"/>
      <path id="Path_12736" data-name="Path 12736" d="M1136.169,284.919l-2.354,2.747,6.256,5.362,2.223-1.905v-4.765l-2.223,1.905Z" transform="translate(-906.393 -229.234)" fill="#231f20"/>
      <path id="Path_12737" data-name="Path 12737" d="M222.9,313.745l-11.267,9.872-14.069-12.059-3.961,3.4-10.108,8.664-14.069-12.059-14.069,12.059c-.124-.108-11.137-9.747-11.244-9.872l-11.267,9.872-14.069-12.059L104.7,323.617,90.635,311.558,76.565,323.617c-.124-.108-11.137-9.747-11.244-9.872l-11.267,9.872L39.985,311.558,25.916,323.617,11.847,311.558,0,321.712v4.765l11.847-10.154,14.069,12.059,14.069-12.059,14.069,12.059,11.256-9.825,11.255,9.825,14.069-12.059L104.7,328.382c.249-.214-2.161,1.854,14.069-12.059l14.069,12.059,11.256-9.825,11.255,9.825,14.069-12.059,14.069,12.059,14.069-12.059,14.069,12.059,11.256-9.825,11.255,9.825,2.223-1.905v-4.765l-2.223,1.905c-.124-.108-11.137-9.747-11.244-9.872" transform="translate(-0.462 -250.518)" fill="#231f20"/>
      <path id="Path_12738" data-name="Path 12738" d="M232.993,126.954l-10.108,8.664-14.069-12.059-13.824,11.849h0l-11.5,9.858-11.477-9.838h0l-13.848-11.869-3.961,3.4L144.1,135.618l-14.069-12.059L104.7,145.266l-11.477-9.838h0L79.379,123.559,65.31,135.618,51.24,123.559,25.916,145.266.591,123.559,0,124.066v4.765l.591-.507,25.325,21.707L51.24,128.324,65.31,140.383l14.069-12.059,11.493,9.851h0L104.7,150.031l25.325-21.707L144.1,140.383c3.107-2.662,10.644-9.123,14.069-12.059l11.493,9.851h0l13.831,11.856,13.839-11.862h0l3.682-3.156h0l7.8-6.689,14.069,12.059,13.478-11.552v-4.765Z" transform="translate(-0.462 -100.305)" fill="#231f20"/>
      <path id="Path_12739" data-name="Path 12739" d="M1038.28,196.955l-10.108,8.664L1014.1,193.559l-6.248,5.356,2.355,2.747,3.893-3.337,14.069,12.059.012-.01,13.466-11.542v-4.765Z" transform="translate(-805.75 -156.236)" fill="#231f20"/>
      <path id="Path_12740" data-name="Path 12740" d="M211.408,909.428h0l-13.848-11.869-14.069,12.06-14.069-12.06L144.1,919.266l-11.477-9.838-13.848-11.869L104.7,909.619l-14.069-12.06L65.31,919.266,39.985,897.559l-3.961,3.4h0l-10.108,8.664-14.069-12.06L0,907.713v4.765l.361-.31,11.485-9.845,14.069,12.059c.234-.2-2.1,1.8,14.069-12.059L65.31,924.031l25.325-21.707L104.7,914.383l14.069-12.059,11.493,9.851L144.1,924.031l25.325-21.707,14.069,12.059,14.069-12.059,11.493,9.851,13.832,11.856,13.478-11.552v-4.765l-13.478,11.553Z" transform="translate(-0.462 -718.74)" fill="#231f20"/>
      <path id="Path_12741" data-name="Path 12741" d="M1163.024,1020.878v-2.8l-3.264,2.8Z" transform="translate(-927.123 -815.037)" fill="#231f20"/>
      <path id="Path_12742" data-name="Path 12742" d="M1136.169,800.919l-2.354,2.747,6.256,5.362,2.223-1.905v-4.765l-2.223,1.905Z" transform="translate(-906.393 -641.523)" fill="#231f20"/>
      <path id="Path_12743" data-name="Path 12743" d="M222.9,829.746l-11.267,9.872-14.069-12.06-3.961,3.4-10.108,8.664-14.069-12.06-14.069,12.06c-.124-.108-11.137-9.747-11.244-9.872l-11.267,9.872-14.069-12.06L104.7,839.618l-14.069-12.06-14.069,12.06c-.124-.108-11.137-9.747-11.244-9.872l-11.267,9.872-14.069-12.06-3.961,3.4-10.108,8.664-14.069-12.06L0,837.712v4.765l11.847-10.154,14.069,12.059c.249-.214-2.161,1.854,14.069-12.059l14.069,12.059,11.256-9.825,11.255,9.825,14.069-12.059L104.7,844.383l14.069-12.059,14.069,12.059,11.256-9.825,11.255,9.825,14.069-12.059,14.069,12.059c.249-.214-2.161,1.854,14.069-12.059l14.069,12.059,11.256-9.825,11.255,9.825,2.223-1.905v-4.765l-2.223,1.905c-.124-.108-11.137-9.747-11.244-9.872" transform="translate(-0.462 -662.808)" fill="#231f20"/>
      <path id="Path_12744" data-name="Path 12744" d="M208.816,639.559l-25.325,21.707-11.477-9.837h0l-13.848-11.869L144.1,651.619l-14.069-12.06L104.7,661.266l-11.477-9.837h0L79.379,639.559,65.31,651.619l-14.069-12.06L25.916,661.266.591,639.559,0,640.066v4.765l.591-.507,25.325,21.707,25.325-21.707L65.31,656.383c.235-.2-2.1,1.8,14.069-12.059l11.493,9.851L104.7,666.031l25.325-21.707L144.1,656.383c.235-.2-2.1,1.8,14.069-12.059l11.493,9.851,13.831,11.856,25.325-21.707,14.069,12.059,13.478-11.553v-4.765l-13.478,11.553Z" transform="translate(-0.462 -512.595)" fill="#231f20"/>
      <path id="Path_12745" data-name="Path 12745" d="M1014.1,709.559l-6.248,5.355,2.354,2.747,3.894-3.337,14.069,12.059,13.478-11.552v-4.765l-13.478,11.552Z" transform="translate(-805.75 -568.526)" fill="#231f20"/>
      <path id="Path_12746" data-name="Path 12746" d="M982.424,0l-.106.091.438.51-.438-.51-10.1,8.654-.012.01L962,0h-7.71l-6.3,5.4-3.911,3.352-3.9-3.344-2.354,2.747,6.256,5.362,6.265-5.37,7.8-6.689L972.209,13.52,984.672,2.838l-.494-.577.494.577,1.015-.87V0Z" transform="translate(-749.786 -1.58)" fill="#231f20"/>
      <path id="Path_12747" data-name="Path 12747" d="M899.5,0h-9.036l4.518,3.872Z" transform="translate(-711.953 -1.58)" fill="#231f20"/>
      <path id="Path_12748" data-name="Path 12748" d="M1090.429,405.482l-2.354-2.747-3.945,3.381-3.887-3.331-2.354,2.747,6.241,5.349,6.3-5.4" transform="translate(-861.707 -323.37)" fill="#231f20"/>
      <path id="Path_12749" data-name="Path 12749" d="M983.148,503.922h0l-.83-.968-10.108,8.664L958.14,499.559l-14.069,12.059-3.9-3.344-2.354,2.747,6.256,5.362,14.069-12.059,14.069,12.059L984.672,505.7l-.234-.274.234.274,1.015-.87v-4.765l-3.37,2.888Z" transform="translate(-749.786 -400.733)" fill="#231f20"/>
      <path id="Path_12750" data-name="Path 12750" d="M894.431,147.482l-2.354-2.747-3.945,3.381-3.887-3.331-2.354,2.747,6.241,5.349Z" transform="translate(-705.102 -117.225)" fill="#231f20"/>
      <path id="Path_12751" data-name="Path 12751" d="M788.672,247.7l1.606-1.377,14.069,12.059,6.318-5.415-2.354-2.747-3.963,3.4-14.069-12.059-3.961,3.4.744.868-.744-.868-10.108,8.664L762.14,241.559l-14.069,12.059-3.9-3.344-2.354,2.747,6.256,5.362,14.069-12.059,14.069,12.059L788.672,247.7l-.282-.329h0Z" transform="translate(-593.181 -194.588)" fill="#231f20"/>
      <path id="Path_12752" data-name="Path 12752" d="M818.1,451.559l-6.248,5.355,2.355,2.747,3.893-3.337,14.069,12.059,14.069-12.059,3.917,3.357,2.354-2.747-6.271-5.375-3.961,3.4-10.108,8.664Z" transform="translate(-649.144 -362.381)" fill="#231f20"/>
      <path id="Path_12753" data-name="Path 12753" d="M1090.429,921.482l-2.354-2.747-3.945,3.381-3.887-3.331-2.354,2.747,6.241,5.35,6.3-5.4" transform="translate(-861.707 -735.659)" fill="#231f20"/>
      <path id="Path_12754" data-name="Path 12754" d="M1019.76,1018.863h7.711l-3.855-3.3Z" transform="translate(-815.262 -813.023)" fill="#231f20"/>
      <path id="Path_12755" data-name="Path 12755" d="M767.76,1018.863h7.71l-3.855-3.3Z" transform="translate(-613.911 -813.023)" fill="#231f20"/>
      <path id="Path_12756" data-name="Path 12756" d="M894.431,663.482l-2.354-2.747-3.945,3.382-3.887-3.332-2.354,2.747,6.241,5.349Z" transform="translate(-705.102 -529.514)" fill="#231f20"/>
      <path id="Path_12757" data-name="Path 12757" d="M788.672,763.7l1.606-1.377,14.069,12.059,6.318-5.415-2.354-2.747-3.963,3.4-14.069-12.06-3.961,3.4.355.414-.355-.414-10.108,8.664-14.069-12.06-14.069,12.06-3.9-3.344-2.354,2.747,6.256,5.362,14.069-12.059,14.069,12.059L788.672,763.7l-.691-.806h0Z" transform="translate(-593.181 -606.878)" fill="#231f20"/>
      <path id="Path_12758" data-name="Path 12758" d="M832.173,979.618,818.1,967.559l-6.248,5.356,2.355,2.747,3.893-3.337,9.552,8.187h9.035l9.552-8.187,3.917,3.357,2.354-2.747-6.271-5.376-14.069,12.06" transform="translate(-649.144 -774.67)" fill="#231f20"/>
      <path id="Path_12759" data-name="Path 12759" d="M566.141,1.46,580.21,13.52,592.672,2.838l-.414-.483.414.483,1.607-1.377L608.348,13.52,614.666,8.1l-2.354-2.747-3.963,3.4L598.134,0h-7.71l-.106.091.637.743-.637-.743-10.1,8.654-.011.01L570,0h-7.71L552.071,8.755l-3.9-3.344-2.354,2.747,6.256,5.362L566.141,1.46" transform="translate(-436.575 -1.58)" fill="#231f20"/>
      <path id="Path_12760" data-name="Path 12760" d="M507.5,0h-9.035l4.518,3.872Z" transform="translate(-398.741 -1.58)" fill="#231f20"/>
      <path id="Path_12761" data-name="Path 12761" d="M698.431,405.482l-2.355-2.747-3.945,3.381-3.887-3.331-2.354,2.747,6.241,5.349,6.3-5.4" transform="translate(-548.496 -323.37)" fill="#231f20"/>
      <path id="Path_12762" data-name="Path 12762" d="M590.319,502.954l.856,1-.856-1-10.108,8.664-14.069-12.059-14.069,12.059-3.9-3.344-2.355,2.747,6.256,5.362,14.069-12.059,14.069,12.059L592.673,505.7l-.159-.185.159.185,1.607-1.377,14.069,12.059,6.317-5.415-2.354-2.747-3.963,3.4L594.28,499.559Z" transform="translate(-436.575 -400.733)" fill="#231f20"/>
      <path id="Path_12763" data-name="Path 12763" d="M502.431,147.482l-2.354-2.747-3.945,3.381-3.887-3.331-2.354,2.747,6.241,5.349Z" transform="translate(-391.89 -117.225)" fill="#231f20"/>
      <path id="Path_12764" data-name="Path 12764" d="M370.141,241.559l-14.069,12.059-3.9-3.344-2.354,2.747,6.256,5.362,14.069-12.059,14.069,12.059L396.673,247.7l-2.354-2.747-10.108,8.664Z" transform="translate(-279.969 -194.588)" fill="#231f20"/>
      <path id="Path_12765" data-name="Path 12765" d="M571.234,244.954l2.354,2.747,1.607-1.377,14.069,12.059,6.318-5.415-2.354-2.747-3.963,3.4-14.069-12.059Z" transform="translate(-456.884 -194.588)" fill="#231f20"/>
      <path id="Path_12766" data-name="Path 12766" d="M440.173,463.618,426.1,451.559l-6.248,5.355,2.355,2.747,3.893-3.337,14.069,12.059c.234-.2-2.1,1.8,14.069-12.059l3.917,3.357,2.354-2.747-6.271-5.375-14.069,12.059" transform="translate(-335.932 -362.381)" fill="#231f20"/>
      <path id="Path_12767" data-name="Path 12767" d="M636.173,205.618,622.1,193.559l-6.248,5.356,2.355,2.747,3.893-3.337,14.069,12.059c.235-.2-2.1,1.8,14.069-12.059l3.917,3.357,2.355-2.747-6.271-5.375-14.069,12.059" transform="translate(-492.538 -156.236)" fill="#231f20"/>
      <path id="Path_12768" data-name="Path 12768" d="M698.431,921.482l-2.355-2.747-3.945,3.381-3.887-3.331-2.354,2.747,6.241,5.35,6.3-5.4" transform="translate(-548.496 -735.659)" fill="#231f20"/>
      <path id="Path_12769" data-name="Path 12769" d="M627.76,1018.863h7.711l-3.855-3.3Z" transform="translate(-502.05 -813.023)" fill="#231f20"/>
      <path id="Path_12770" data-name="Path 12770" d="M375.76,1018.863h7.711l-3.855-3.3Z" transform="translate(-300.699 -813.023)" fill="#231f20"/>
      <path id="Path_12771" data-name="Path 12771" d="M502.431,663.482l-2.354-2.747-3.945,3.382-3.887-3.332-2.354,2.747,6.241,5.349Z" transform="translate(-391.89 -529.514)" fill="#231f20"/>
      <path id="Path_12772" data-name="Path 12772" d="M370.141,757.559l-14.069,12.06-3.9-3.344-2.354,2.747,6.256,5.362,14.069-12.059,14.069,12.059L396.673,763.7l-2.354-2.747-10.108,8.664Z" transform="translate(-279.969 -606.878)" fill="#231f20"/>
      <path id="Path_12773" data-name="Path 12773" d="M571.234,760.954l2.354,2.747,1.607-1.378,14.069,12.06,6.318-5.415-2.354-2.747-3.963,3.4-14.069-12.059Z" transform="translate(-456.884 -606.878)" fill="#231f20"/>
      <path id="Path_12774" data-name="Path 12774" d="M450.281,970.954h0l-10.108,8.664L426.1,967.558l-6.248,5.356,2.355,2.747,3.894-3.338,9.552,8.188h9.035l7.945-6.81-.238-.278.238.278,1.607-1.377,3.917,3.358,2.354-2.747-6.271-5.376Z" transform="translate(-335.931 -774.67)" fill="#231f20"/>
      <path id="Path_12775" data-name="Path 12775" d="M636.173,721.618,622.1,709.559l-6.248,5.355,2.355,2.747,3.893-3.337,14.069,12.059c.235-.2-2.1,1.8,14.069-12.059l3.917,3.357,2.355-2.747-6.271-5.376-14.069,12.06" transform="translate(-492.538 -568.526)" fill="#231f20"/>
      <path id="Path_12776" data-name="Path 12776" d="M174.141,1.46,188.21,13.52,200.673,2.838l-.561-.655.561.655L202.28,1.46,216.349,13.52,222.667,8.1l-2.354-2.747-3.963,3.4L206.135,0h-7.71l-.106.091.438.511-.438-.511L188.21,8.755,178,0h-7.71L160.072,8.755l-3.9-3.344-2.354,2.747,6.256,5.362L174.141,1.46" transform="translate(-123.363 -1.58)" fill="#231f20"/>
      <path id="Path_12777" data-name="Path 12777" d="M14.66,13.52,20.978,8.1,18.624,5.358l-3.963,3.4L4.446,0H0V1.967L.591,1.46Z" transform="translate(-0.462 -1.58)" fill="#231f20"/>
      <path id="Path_12778" data-name="Path 12778" d="M115.5,0h-9.035l4.518,3.872Z" transform="translate(-85.529 -1.58)" fill="#231f20"/>
      <path id="Path_12779" data-name="Path 12779" d="M306.43,405.482l-2.354-2.747-3.945,3.381-3.887-3.331-2.354,2.747,6.241,5.349,6.3-5.4" transform="translate(-235.284 -323.37)" fill="#231f20"/>
      <path id="Path_12780" data-name="Path 12780" d="M198.319,502.954l.638.744-.638-.744-10.108,8.664-14.069-12.059-14.069,12.059-3.9-3.344-2.354,2.747,6.256,5.362,14.069-12.059,14.069,12.059L200.673,505.7l-.345-.4h0l.345.4,1.607-1.377,14.069,12.059,6.318-5.415-2.354-2.747-3.963,3.4L202.28,499.559Z" transform="translate(-123.363 -400.733)" fill="#231f20"/>
      <path id="Path_12781" data-name="Path 12781" d="M14.66,516.383l6.318-5.415-2.354-2.747-3.963,3.4L.591,499.559,0,500.066v4.765l.591-.507Z" transform="translate(-0.462 -400.733)" fill="#231f20"/>
      <path id="Path_12782" data-name="Path 12782" d="M110.431,147.482l-2.354-2.747-3.945,3.381-3.887-3.331-2.354,2.747,6.241,5.349Z" transform="translate(-78.678 -117.225)" fill="#231f20"/>
      <path id="Path_12783" data-name="Path 12783" d="M25.916,258.383,38.379,247.7l-.747-.872.747.872,1.607-1.377,14.069,12.059,6.318-5.415-2.354-2.747-3.963,3.4L39.985,241.559l-3.961,3.4.241.282-.241-.282-10.108,8.664L11.847,241.559,0,251.713v4.765l11.847-10.154Z" transform="translate(-0.462 -194.588)" fill="#231f20"/>
      <path id="Path_12784" data-name="Path 12784" d="M48.173,463.618,34.1,451.559l-6.248,5.355,2.355,2.747,3.893-3.337,14.069,12.059c.234-.2-2.1,1.8,14.069-12.059l3.917,3.357,2.354-2.747-6.271-5.375L48.173,463.618" transform="translate(-22.72 -362.381)" fill="#231f20"/>
      <path id="Path_12785" data-name="Path 12785" d="M244.173,205.618,230.1,193.559l-6.248,5.356,2.355,2.747,3.893-3.337,14.069,12.059c.235-.2-2.1,1.8,14.069-12.059l3.917,3.357,2.354-2.747-6.271-5.375-14.069,12.059" transform="translate(-179.326 -156.236)" fill="#231f20"/>
      <path id="Path_12786" data-name="Path 12786" d="M4.508,201.681c2.971-3.467,3.611-1.67-3.917-8.122L0,194.066v4.765l.591-.507Z" transform="translate(-0.462 -156.236)" fill="#231f20"/>
      <path id="Path_12787" data-name="Path 12787" d="M306.43,921.482l-2.354-2.747-3.945,3.381-3.887-3.331-2.354,2.747,6.241,5.35,6.3-5.4" transform="translate(-235.284 -735.659)" fill="#231f20"/>
      <path id="Path_12788" data-name="Path 12788" d="M235.76,1018.863h7.711l-3.855-3.3Z" transform="translate(-188.837 -813.023)" fill="#231f20"/>
      <path id="Path_12789" data-name="Path 12789" d="M0,1016.066v2.8H4.446l-3.855-3.3Z" transform="translate(-0.462 -813.023)" fill="#231f20"/>
      <path id="Path_12790" data-name="Path 12790" d="M110.431,663.482l-2.354-2.747-3.945,3.382-3.887-3.332-2.354,2.747,6.241,5.349Z" transform="translate(-78.678 -529.514)" fill="#231f20"/>
      <path id="Path_12791" data-name="Path 12791" d="M25.916,774.383,38.379,763.7l-.707-.825.707.825,1.607-1.377,14.069,12.059,6.318-5.415-2.354-2.747-3.963,3.4-14.069-12.06-3.961,3.4.309.36-.309-.36-10.108,8.664-14.069-12.06L0,767.713v4.765l11.847-10.154Z" transform="translate(-0.462 -606.878)" fill="#231f20"/>
      <path id="Path_12792" data-name="Path 12792" d="M58.28,970.954h0l-10.108,8.664L34.1,967.559l-6.248,5.356,2.355,2.746,3.893-3.337,9.552,8.187H52.69l9.551-8.187,3.917,3.357,2.354-2.746-6.271-5.376Z" transform="translate(-22.719 -774.67)" fill="#231f20"/>
      <path id="Path_12793" data-name="Path 12793" d="M244.173,721.618,230.1,709.559l-6.248,5.355,2.355,2.747,3.893-3.337,14.069,12.059c.235-.2-2.1,1.8,14.069-12.059l3.917,3.357,2.354-2.747-6.271-5.376-14.069,12.06" transform="translate(-179.326 -568.526)" fill="#231f20"/>
      <path id="Path_12794" data-name="Path 12794" d="M4.508,717.681l2.354-2.747L.591,709.559,0,710.066v4.765l.591-.507Z" transform="translate(-0.462 -568.526)" fill="#231f20"/>
    </g>
  </g>
</svg>
