<svg width="224" height="210" viewBox="0 0 224 210" fill="none" xmlns="http://www.w3.org/2000/svg">
<path d="M216.626 0.00209375H214.926C208.355 5.95414 204.301 14.1877 203.589 23.0251H203.561C203.503 23.7761 203.461 24.5321 203.445 25.2951C200.534 22.6887 198.119 19.5764 196.318 16.1091C198.348 12.0482 199.593 7.64073 199.988 3.11809H200.016C200.089 2.16609 200.14 1.20709 200.14 0.234094C200.14 0.157094 200.14 0.0800937 200.14 0.00309375H199.232C199.227 0.780427 199.197 1.55109 199.143 2.31509C199.129 2.51509 199.114 2.71509 199.097 2.91509C198.74 7.13372 197.622 11.2528 195.797 15.0731C193.973 11.2544 192.855 7.13705 192.497 2.92009C192.48 2.71276 192.464 2.50509 192.449 2.29709C192.396 1.54043 192.367 0.777094 192.362 0.00709375H191.454C191.454 0.0840937 191.454 0.161094 191.454 0.238094C191.454 1.21109 191.505 2.17009 191.578 3.12209H191.606C192.001 7.64472 193.246 12.0522 195.276 16.1131C193.475 19.5804 191.06 22.6927 188.149 25.2991C188.133 24.5361 188.09 23.7801 188.033 23.0291H188.005C187.295 14.1905 183.241 5.95539 176.67 0.00209375H174.97C172.081 2.57372 169.663 5.62952 167.825 9.03209C165.987 5.62979 163.571 2.57401 160.683 0.00209375H158.983C152.412 5.95408 148.357 14.1877 147.646 23.0251H147.618C147.56 23.7761 147.518 24.5321 147.502 25.2951C144.591 22.6887 142.176 19.5764 140.375 16.1091C142.405 12.0482 143.65 7.64072 144.045 3.11809H144.073C144.146 2.16609 144.197 1.20709 144.197 0.234094C144.197 0.157094 144.197 0.0800937 144.197 0.00309375H143.289C143.284 0.780427 143.254 1.55109 143.2 2.31509C143.186 2.51509 143.171 2.71509 143.154 2.91509C142.797 7.13372 141.679 11.2528 139.854 15.0731C138.03 11.2544 136.912 7.13702 136.554 2.92009C136.537 2.71276 136.521 2.50509 136.506 2.29709C136.453 1.54043 136.424 0.777094 136.419 0.00709375H135.511C135.511 0.0840937 135.511 0.161094 135.511 0.238094C135.511 1.21109 135.562 2.17009 135.635 3.12209H135.663C136.058 7.64473 137.303 12.0522 139.333 16.1131C137.532 19.5804 135.117 22.6927 132.206 25.2991C132.19 24.5361 132.147 23.7801 132.09 23.0291H132.062C131.352 14.1905 127.298 5.95539 120.727 0.00209375H119.027C116.138 2.57368 113.72 5.62948 111.882 9.03209C110.044 5.6298 107.627 2.57403 104.74 0.00209375H103.04C96.4704 5.95408 92.4172 14.1868 91.706 23.0231H91.678C91.62 23.7741 91.578 24.5301 91.562 25.2931C88.651 22.685 86.2366 19.5711 84.436 16.1021C86.4657 12.0412 87.7108 7.63374 88.106 3.11109H88.134C88.207 2.15909 88.258 1.20009 88.258 0.227094C88.258 0.150094 88.258 0.0730937 88.258 -0.00390625H87.35C87.3453 0.773427 87.316 1.54409 87.262 2.30809C87.248 2.50809 87.233 2.70809 87.216 2.90809C86.8588 7.12672 85.7408 11.2458 83.916 15.0661C82.0918 11.2474 80.9737 7.13002 80.616 2.91309C80.6 2.70576 80.584 2.49809 80.568 2.29009C80.516 1.53343 80.4873 0.77076 80.482 0.00209375H79.574C79.574 0.0790937 79.574 0.156094 79.574 0.233094C79.574 1.20609 79.625 2.16509 79.698 3.11709H79.726C80.1209 7.63751 81.365 12.0429 83.393 16.1021C81.5916 19.5694 79.177 22.6817 76.266 25.2881C76.25 24.5251 76.208 23.7691 76.15 23.0181H76.122C75.4087 14.1832 71.3545 5.95242 64.785 0.00209375H63.085C60.1963 2.57368 57.7784 5.62948 55.94 9.03209C54.103 5.62996 51.6868 2.57419 48.8 0.00209375H47.1C40.5297 5.95375 36.4757 14.1865 35.764 23.0231H35.736C35.678 23.7741 35.636 24.5301 35.62 25.2931C32.7086 22.6851 30.2939 19.5712 28.493 16.1021C30.5227 12.0412 31.7678 7.63374 32.163 3.11109H32.191C32.264 2.15909 32.315 1.20009 32.315 0.227094C32.315 0.150094 32.315 0.0730937 32.315 -0.00390625H31.4C31.4 0.776094 31.3717 1.54809 31.315 2.31209C31.301 2.51209 31.286 2.71209 31.269 2.91209C30.9118 7.13072 29.7938 11.2498 27.969 15.0701C26.1446 11.2514 25.0266 7.13404 24.669 2.91709C24.653 2.70976 24.637 2.50209 24.621 2.29409C24.5717 1.53476 24.5443 0.77076 24.539 0.00209375H23.631C23.631 0.0790937 23.631 0.156094 23.631 0.233094C23.631 1.20609 23.682 2.16509 23.755 3.11709H23.783C24.1779 7.63751 25.422 12.0429 27.45 16.1021C25.6486 19.5694 23.2339 22.6816 20.323 25.2881C20.307 24.5251 20.265 23.7691 20.207 23.0181H20.179C19.4656 14.1832 15.4114 5.95248 8.842 0.00209375H7.142C4.25464 2.57339 1.83777 5.62848 0 9.03009L0 11.0731C1.82498 14.8933 2.94302 19.0124 3.3 23.2311C3.317 23.4311 3.332 23.6311 3.346 23.8251C3.39933 24.5898 3.42867 25.3611 3.434 26.1391C3.42933 26.9164 3.4 27.6871 3.346 28.4511C3.332 28.6511 3.317 28.8511 3.3 29.0511C2.94195 33.2673 1.82394 37.384 0 41.2021L0 43.2451C1.83834 46.6477 4.25626 49.7036 7.145 52.2751C4.25611 54.8476 1.83819 57.9045 0 61.3081L0 63.3511C1.825 67.1713 2.94304 71.2904 3.3 75.5091C3.317 75.7091 3.332 75.9091 3.346 76.1031C3.39933 76.8678 3.42867 77.6391 3.434 78.4171C3.42933 79.1944 3.4 79.9651 3.346 80.7291C3.332 80.9291 3.317 81.1291 3.3 81.3291C2.94218 85.546 1.82417 89.6634 0 93.4821L0 95.5251C1.83834 98.9277 4.25626 101.984 7.145 104.555C4.25637 107.127 1.83846 110.183 0 113.585H0V115.627C1.82496 119.447 2.943 123.566 3.3 127.785C3.317 127.985 3.332 128.185 3.346 128.379C3.39933 129.143 3.42867 129.914 3.434 130.693C3.42933 131.47 3.4 132.241 3.346 133.005C3.332 133.205 3.317 133.405 3.3 133.605C2.94249 137.823 1.82446 141.941 0 145.76L0 147.802C1.83838 151.205 4.25629 154.261 7.145 156.832C4.25631 159.404 1.8384 162.46 0 165.863L0 167.902C1.82493 171.722 2.94297 175.841 3.3 180.06C3.317 180.26 3.332 180.46 3.346 180.654C3.39933 181.419 3.42867 182.19 3.434 182.968C3.42933 183.746 3.4 184.517 3.346 185.281C3.332 185.481 3.317 185.681 3.3 185.881C2.94266 190.099 1.82463 194.218 0 198.038L0 200.08C1.83841 203.483 4.25632 206.539 7.145 209.11H8.845C15.4163 203.158 19.4707 194.924 20.182 186.086H20.21C20.268 185.335 20.31 184.579 20.326 183.816C23.2358 186.423 25.6494 189.535 27.45 193.002C25.4202 197.063 24.1751 201.47 23.78 205.993H23.752C23.679 206.945 23.628 207.905 23.628 208.878C23.628 208.955 23.628 209.032 23.628 209.109H24.536C24.5407 208.338 24.5697 207.574 24.623 206.817C24.637 206.609 24.653 206.402 24.671 206.196C25.0286 201.979 26.1467 197.861 27.971 194.042C29.7958 197.862 30.9138 201.981 31.271 206.2C31.287 206.4 31.3023 206.598 31.317 206.794C31.3703 207.559 31.3997 208.33 31.405 209.108H32.313C32.313 209.031 32.313 208.954 32.313 208.877C32.313 207.904 32.262 206.944 32.189 205.992H32.161C31.7663 201.47 30.5219 197.063 28.493 193.002C30.2944 189.535 32.7091 186.422 35.62 183.815C35.636 184.578 35.679 185.334 35.736 186.085H35.764C36.4746 194.923 40.5286 203.158 47.1 209.111H48.8C51.6886 206.539 54.1065 203.484 55.945 200.081C57.7835 203.484 60.2014 206.539 63.09 209.111H64.79C71.3612 203.159 75.4156 194.925 76.127 186.087H76.155C76.213 185.336 76.255 184.58 76.271 183.817C79.18 186.424 81.5929 189.536 83.393 193.002C81.3633 197.063 80.1182 201.47 79.723 205.993H79.695C79.622 206.945 79.571 207.905 79.571 208.878C79.571 208.955 79.571 209.032 79.571 209.109H80.479C80.4837 208.338 80.5127 207.574 80.566 206.817C80.58 206.609 80.596 206.402 80.614 206.196C80.9717 201.979 82.0897 197.861 83.914 194.042C85.7388 197.862 86.8568 201.981 87.214 206.2C87.2293 206.4 87.2447 206.598 87.26 206.794C87.3133 207.559 87.3427 208.33 87.348 209.108H88.256C88.256 209.031 88.256 208.954 88.256 208.877C88.256 207.904 88.205 206.944 88.132 205.992H88.104C87.7093 201.47 86.4649 197.063 84.436 193.002C86.2374 189.535 88.6521 186.422 91.563 183.815C91.579 184.578 91.622 185.334 91.679 186.085H91.707C92.4186 194.923 96.4733 203.157 103.045 209.109H104.745C107.634 206.537 110.052 203.482 111.89 200.079C113.728 203.482 116.146 206.537 119.035 209.109H120.735C127.306 203.157 131.361 194.923 132.072 186.085H132.1C132.158 185.334 132.2 184.578 132.216 183.815C135.124 186.423 137.536 189.535 139.335 193.002C137.305 197.063 136.06 201.47 135.665 205.993H135.637C135.564 206.945 135.513 207.905 135.513 208.878C135.513 208.955 135.513 209.032 135.513 209.109H136.421C136.426 208.338 136.455 207.574 136.508 206.817C136.523 206.609 136.538 206.402 136.556 206.196C136.914 201.979 138.032 197.861 139.856 194.042C141.681 197.862 142.799 201.981 143.156 206.2C143.172 206.4 143.187 206.598 143.202 206.794C143.255 207.559 143.285 208.33 143.291 209.108H144.199C144.199 209.031 144.199 208.954 144.199 208.877C144.199 207.904 144.148 206.944 144.075 205.992H144.047C143.652 201.47 142.408 197.063 140.379 193.002C142.18 189.534 144.595 186.422 147.506 183.815C147.522 184.578 147.565 185.334 147.622 186.085H147.65C148.361 194.923 152.416 203.157 158.987 209.109H160.687C163.576 206.537 165.994 203.482 167.832 200.079C169.67 203.482 172.088 206.537 174.977 209.109H176.677C183.248 203.157 187.303 194.923 188.014 186.085H188.042C188.1 185.334 188.142 184.578 188.158 183.815C191.066 186.422 193.479 189.535 195.278 193.002C193.248 197.063 192.003 201.47 191.608 205.993H191.58C191.507 206.945 191.456 207.905 191.456 208.878C191.456 208.955 191.456 209.032 191.456 209.109H192.364C192.369 208.338 192.398 207.574 192.451 206.817C192.466 206.609 192.481 206.402 192.499 206.196C192.857 201.979 193.975 197.861 195.799 194.042C197.624 197.862 198.742 201.981 199.099 206.2C199.115 206.4 199.13 206.598 199.145 206.794C199.198 207.559 199.228 208.33 199.234 209.108H200.142C200.142 209.031 200.142 208.954 200.142 208.877C200.142 207.904 200.091 206.944 200.018 205.992H199.99C199.595 201.47 198.35 197.063 196.321 193.002C198.122 189.534 200.537 186.422 203.448 183.815C203.464 184.578 203.507 185.334 203.564 186.085H203.592C204.303 194.923 208.358 203.157 214.929 209.109H216.629C219.518 206.537 221.936 203.482 223.774 200.079V198.037C221.95 194.218 220.832 190.101 220.474 185.884C220.456 185.676 220.441 185.468 220.426 185.26C220.374 184.504 220.345 183.741 220.339 182.971C220.344 182.2 220.373 181.436 220.426 180.678C220.441 180.471 220.456 180.265 220.474 180.059C220.831 175.842 221.949 171.724 223.774 167.905V165.862C221.935 162.46 219.518 159.404 216.629 156.832C219.518 154.26 221.936 151.205 223.774 147.802V145.759C221.95 141.94 220.832 137.823 220.474 133.606C220.456 133.398 220.441 133.19 220.426 132.981C220.374 132.225 220.345 131.462 220.339 130.693C220.344 129.922 220.373 129.158 220.426 128.4C220.441 128.193 220.456 127.987 220.474 127.781C220.831 123.564 221.949 119.446 223.774 115.627V113.585C221.935 110.183 219.518 107.127 216.629 104.555C219.518 101.983 221.935 98.9276 223.774 95.5251V93.4821C221.95 89.6635 220.832 85.5461 220.474 81.3291C220.456 81.1211 220.441 80.9131 220.426 80.7041C220.374 79.9481 220.345 79.1854 220.339 78.4161C220.344 77.6448 220.373 76.8804 220.426 76.1231C220.441 75.9161 220.456 75.7101 220.474 75.5041C220.831 71.2868 221.949 67.1691 223.774 63.3501V61.3081C221.935 57.9056 219.518 54.8498 216.629 52.2781C219.518 49.7065 221.936 46.6507 223.774 43.2481V41.2021C221.95 37.3834 220.832 33.266 220.474 29.0491C220.456 28.8411 220.441 28.6331 220.426 28.4241C220.374 27.6681 220.345 26.9054 220.339 26.1361C220.344 25.3654 220.373 24.6011 220.426 23.8431C220.441 23.6361 220.456 23.4301 220.474 23.2241C220.831 19.0068 221.949 14.8891 223.774 11.0701V9.03009C221.934 5.62804 219.515 2.57293 216.626 0.00209375ZM204.438 23.8471C204.452 23.6401 204.468 23.4321 204.486 23.2261C205.147 14.7525 208.972 6.83781 215.2 1.05409C215.185 1.46809 215.164 1.88009 215.135 2.29009C215.121 2.49809 215.105 2.70609 215.087 2.91309C214.426 11.3862 210.603 19.3009 204.376 25.0851C204.391 24.6704 204.412 24.2578 204.441 23.8471H204.438ZM215.087 49.3651C215.104 49.5718 215.12 49.7788 215.135 49.9861C215.164 50.3968 215.185 50.8094 215.2 51.2241C208.972 45.4404 205.147 37.5257 204.486 29.0521C204.469 28.8448 204.453 28.6371 204.438 28.4291C204.409 28.0191 204.388 27.6071 204.373 27.1931C210.6 32.9772 214.423 40.8919 215.084 49.3651H215.087ZM215.196 105.609C215.181 106.023 215.16 106.435 215.131 106.845C215.117 107.053 215.101 107.261 215.083 107.468C214.422 115.941 210.599 123.856 204.372 129.64C204.387 129.225 204.408 128.813 204.437 128.402C204.451 128.194 204.467 127.987 204.485 127.781C205.147 119.307 208.972 111.393 215.2 105.609H215.196ZM203.6 127.578H203.572C203.514 128.329 203.472 129.085 203.456 129.848C200.545 127.242 198.13 124.129 196.329 120.662C198.359 116.601 199.604 112.193 199.999 107.67H200.027C200.1 106.718 200.151 105.759 200.151 104.786C200.151 104.709 200.151 104.632 200.151 104.555C200.151 104.478 200.151 104.401 200.151 104.324C200.151 103.351 200.1 102.391 200.027 101.439H199.999C199.604 96.9164 198.359 92.509 196.329 88.4481C198.13 84.9804 200.545 81.8678 203.456 79.2611C203.472 80.0241 203.515 80.7801 203.572 81.5311H203.6C204.311 90.3685 208.366 98.6021 214.937 104.554C208.366 110.506 204.311 118.74 203.6 127.577V127.578ZM215.093 153.919C215.11 154.126 215.126 154.333 215.141 154.54C215.17 154.951 215.191 155.363 215.206 155.777C208.979 149.993 205.155 142.078 204.495 133.605C204.478 133.398 204.462 133.19 204.447 132.982C204.418 132.571 204.397 132.159 204.382 131.746C210.609 137.53 214.433 145.445 215.093 153.918V153.919ZM188.663 130.692C191.552 128.12 193.969 125.065 195.808 121.662C197.646 125.065 200.064 128.121 202.953 130.692C200.064 133.264 197.647 136.32 195.808 139.722C193.97 136.32 191.552 133.264 188.663 130.692ZM199.1 153.925C199.116 154.125 199.131 154.323 199.146 154.519C199.199 155.284 199.229 156.055 199.235 156.833C199.23 157.61 199.2 158.381 199.146 159.146C199.132 159.346 199.117 159.546 199.1 159.746C198.743 163.964 197.625 168.083 195.8 171.903C193.976 168.084 192.858 163.967 192.5 159.75C192.483 159.542 192.467 159.334 192.452 159.127C192.399 158.37 192.37 157.607 192.365 156.837C192.37 156.066 192.399 155.302 192.452 154.545C192.467 154.338 192.482 154.13 192.5 153.924C192.858 149.707 193.976 145.59 195.8 141.771C197.625 145.591 198.743 149.71 199.1 153.929V153.925ZM132.713 130.698C135.602 128.126 138.019 125.071 139.858 121.668C141.696 125.071 144.114 128.127 147.003 130.698C144.114 133.27 141.697 136.326 139.858 139.728C138.02 136.326 135.602 133.27 132.713 130.698ZM143.157 153.929C143.173 154.129 143.188 154.327 143.203 154.523C143.256 155.288 143.286 156.059 143.292 156.837C143.287 157.614 143.257 158.385 143.203 159.15C143.189 159.35 143.174 159.55 143.157 159.75C142.8 163.968 141.682 168.087 139.857 171.907C138.033 168.088 136.915 163.971 136.557 159.754C136.54 159.546 136.524 159.338 136.509 159.131C136.456 158.374 136.427 157.611 136.422 156.841C136.427 156.07 136.456 155.306 136.509 154.549C136.524 154.342 136.539 154.134 136.557 153.928C136.915 149.711 138.033 145.594 139.857 141.775C141.682 145.595 142.8 149.714 143.157 153.933V153.929ZM76.769 130.694C79.6576 128.122 82.0755 125.067 83.914 121.664C85.7524 125.067 88.1703 128.123 91.059 130.694C88.1704 133.266 85.7525 136.322 83.914 139.724C82.0756 136.321 79.6577 133.266 76.769 130.694ZM87.213 153.925C87.2283 154.125 87.2437 154.323 87.259 154.519C87.3123 155.284 87.3417 156.055 87.347 156.833C87.3423 157.61 87.313 158.381 87.259 159.146C87.245 159.346 87.23 159.546 87.213 159.746C86.8557 163.964 85.7376 168.083 83.913 171.903C82.0888 168.084 80.9707 163.967 80.613 159.75C80.597 159.542 80.581 159.334 80.565 159.127C80.5123 158.37 80.4833 157.607 80.478 156.837C80.4827 156.066 80.5117 155.302 80.565 154.545C80.579 154.338 80.595 154.13 80.613 153.924C80.9707 149.707 82.0888 145.59 83.913 141.771C85.7379 145.591 86.8559 149.71 87.213 153.929V153.925ZM20.826 130.694C23.7146 128.122 26.1325 125.067 27.971 121.664C29.8094 125.067 32.2273 128.123 35.116 130.694C32.2274 133.266 29.8095 136.322 27.971 139.724C26.1326 136.321 23.7147 133.266 20.826 130.694ZM31.27 153.925C31.286 154.125 31.3013 154.323 31.316 154.519C31.3693 155.284 31.3987 156.055 31.404 156.833C31.3993 157.61 31.37 158.381 31.316 159.146C31.302 159.346 31.287 159.546 31.27 159.746C30.9127 163.964 29.7946 168.083 27.97 171.903C26.1456 168.084 25.0276 163.967 24.67 159.75C24.654 159.542 24.638 159.334 24.622 159.127C24.5693 158.37 24.5403 157.607 24.535 156.837C24.5397 156.066 24.5687 155.302 24.622 154.545C24.636 154.338 24.652 154.13 24.67 153.924C25.0276 149.707 26.1457 145.59 27.97 141.771C29.7949 145.591 30.913 149.71 31.27 153.929V153.925ZM8.842 104.555C15.4131 98.603 19.4674 90.3695 20.179 81.5321H20.207C20.265 80.7811 20.307 80.0251 20.323 79.2621C23.234 81.8689 25.6486 84.9815 27.45 88.4491C25.4203 92.51 24.1751 96.9174 23.78 101.44H23.752C23.679 102.392 23.628 103.352 23.628 104.325C23.628 104.402 23.628 104.479 23.628 104.556C23.628 104.633 23.628 104.71 23.628 104.787C23.628 105.76 23.679 106.719 23.752 107.671H23.78C24.1749 112.194 25.4201 116.602 27.45 120.663C25.6486 124.13 23.2339 127.243 20.323 129.849C20.307 129.086 20.265 128.33 20.207 127.579H20.179C19.4676 118.741 15.4132 110.507 8.842 104.555ZM19.4 129.64C13.1721 123.856 9.34748 115.942 8.686 107.468C8.66933 107.261 8.65333 107.053 8.638 106.845C8.60933 106.435 8.58767 106.023 8.573 105.609C14.8004 111.393 18.6242 119.308 19.285 127.782C19.301 127.988 19.317 128.194 19.332 128.401C19.3607 128.812 19.3823 129.225 19.397 129.64H19.4ZM8.574 103.502C8.58867 103.087 8.61033 102.675 8.639 102.264C8.653 102.057 8.669 101.849 8.687 101.643C9.34831 93.1697 13.1725 85.255 19.4 79.4711C19.3853 79.8844 19.364 80.2961 19.336 80.7061C19.322 80.9151 19.306 81.1231 19.288 81.3311C18.6264 89.8043 14.8018 97.7187 8.574 103.502ZM8.686 55.1911C8.66933 54.9838 8.65333 54.7761 8.638 54.5681C8.60933 54.1581 8.58767 53.7461 8.573 53.3321C14.7997 59.1157 18.6235 67.0296 19.285 75.5021C19.3017 75.7081 19.3173 75.9144 19.332 76.1211C19.3607 76.5324 19.3823 76.9454 19.397 77.3601C13.1708 71.5767 9.34733 63.6632 8.686 55.1911ZM35.116 78.4171C32.2273 80.9887 29.8094 84.0445 27.971 87.4471C26.1326 84.0445 23.7147 80.9887 20.826 78.4171C23.7146 75.8455 26.1325 72.7897 27.971 69.3871C29.8094 72.7897 32.2273 75.8456 35.116 78.4171ZM24.673 55.1911C24.657 54.9831 24.641 54.7754 24.625 54.5681C24.5723 53.8114 24.5433 53.0481 24.538 52.2781C24.5427 51.5074 24.5717 50.7434 24.625 49.9861C24.639 49.7791 24.655 49.5711 24.673 49.3651C25.0306 45.1482 26.1487 41.0308 27.973 37.2121C29.7979 41.0323 30.9159 45.1515 31.273 49.3701C31.289 49.5701 31.3043 49.7681 31.319 49.9641C31.3723 50.7288 31.4017 51.5001 31.407 52.2781C31.4023 53.0554 31.373 53.8261 31.319 54.5901C31.305 54.7901 31.29 54.9901 31.273 55.1901C30.9157 59.4084 29.7977 63.5271 27.973 67.3471C26.1486 63.5284 25.0306 59.411 24.673 55.1941V55.1911ZM31.273 101.65C31.289 101.85 31.3043 102.048 31.319 102.244C31.3723 103.008 31.4017 103.779 31.407 104.558C31.4023 105.335 31.373 106.106 31.319 106.87C31.305 107.07 31.29 107.27 31.273 107.47C30.9157 111.688 29.7977 115.807 27.973 119.627C26.1487 115.809 25.0306 111.692 24.673 107.475C24.657 107.268 24.641 107.06 24.625 106.852C24.5723 106.096 24.5433 105.333 24.538 104.562C24.5427 103.791 24.5717 103.027 24.625 102.27C24.639 102.063 24.655 101.855 24.673 101.649C25.0306 97.4322 26.1487 93.3148 27.973 89.4961C29.7979 93.3163 30.916 97.4354 31.273 101.654V101.65ZM28.493 120.662C30.5228 116.601 31.768 112.193 32.163 107.67H32.191C32.264 106.718 32.315 105.759 32.315 104.786C32.315 104.709 32.315 104.632 32.315 104.555C32.315 104.478 32.315 104.401 32.315 104.324C32.315 103.351 32.264 102.391 32.191 101.439H32.163C31.7678 96.9164 30.5226 92.509 28.493 88.4481C30.2944 84.9808 32.7091 81.8686 35.62 79.2621C35.636 80.0251 35.679 80.7811 35.736 81.5321H35.764C36.4753 90.3693 40.5293 98.6029 47.1 104.555C40.5285 110.507 36.4737 118.741 35.762 127.578H35.734C35.676 128.329 35.634 129.085 35.618 129.848C32.7071 127.242 30.2924 124.129 28.491 120.662H28.493ZM63.088 52.2781C60.1993 54.8497 57.7814 57.9055 55.943 61.3081C54.1045 57.9056 51.6866 54.8498 48.798 52.2781C51.6866 49.7065 54.1045 46.6507 55.943 43.2481C57.7814 46.6507 60.1993 49.7065 63.088 52.2781ZM59.241 75.5091C59.258 75.7091 59.273 75.9091 59.287 76.1031C59.3403 76.8678 59.3697 77.6391 59.375 78.4171C59.3703 79.1944 59.341 79.9651 59.287 80.7291C59.273 80.9291 59.258 81.1291 59.241 81.3291C58.8837 85.5474 57.7656 89.6661 55.941 93.4861C54.1167 89.6674 52.9987 85.55 52.641 81.3331C52.623 81.1251 52.608 80.9171 52.593 80.7081C52.541 79.9521 52.512 79.1894 52.506 78.4201C52.5107 77.6488 52.5397 76.8844 52.593 76.1271C52.607 75.9201 52.622 75.7141 52.64 75.5081C52.9977 71.2908 54.1157 67.1731 55.94 63.3541C57.7649 67.1743 58.883 71.2934 59.24 75.5121L59.241 75.5091ZM48.8 104.555C51.6886 101.983 54.1065 98.9276 55.945 95.5251C57.7834 98.9277 60.2013 101.984 63.09 104.555C60.2013 107.127 57.7834 110.182 55.945 113.585C54.1065 110.183 51.6886 107.127 48.8 104.555ZM63.71 101.439C63.652 102.19 63.61 102.946 63.594 103.709C60.683 101.102 58.2683 97.9897 56.467 94.5221C58.4967 90.4612 59.7418 86.0537 60.137 81.5311H60.165C60.238 80.5791 60.289 79.6191 60.289 78.6461C60.289 78.5691 60.289 78.4921 60.289 78.4151C60.289 78.3381 60.289 78.2611 60.289 78.1841C60.289 77.2111 60.238 76.2521 60.165 75.2991H60.137C59.7418 70.7764 58.4966 66.369 56.467 62.3081C58.2684 58.8408 60.6831 55.7286 63.594 53.1221C63.61 53.8851 63.653 54.6411 63.71 55.3921H63.738C64.4484 64.2297 68.5017 72.464 75.072 78.4171C68.5009 84.3691 64.4466 92.6027 63.735 101.44L63.71 101.439ZM51.751 75.3021H51.723C51.65 76.2541 51.599 77.2131 51.599 78.1871C51.599 78.2641 51.599 78.3411 51.599 78.4181C51.599 78.4951 51.599 78.5721 51.599 78.6491C51.599 79.6221 51.65 80.5811 51.723 81.5331H51.751C52.1462 86.0557 53.3914 90.4632 55.421 94.5241C53.6197 97.9917 51.205 101.104 48.294 103.711C48.278 102.948 48.236 102.192 48.178 101.441H48.15C47.4387 92.6033 43.3843 84.3694 36.813 78.4171C43.3844 72.4649 47.4388 64.2309 48.15 55.3931H48.178C48.236 54.6421 48.278 53.8861 48.294 53.1231C51.205 55.7295 53.6197 58.8417 55.421 62.3091C53.3911 66.3706 52.146 70.7788 51.751 75.3021ZM48.151 107.672H48.179C48.237 106.921 48.279 106.165 48.295 105.402C51.2061 108.009 53.6208 111.121 55.422 114.589C53.3922 118.65 52.1471 123.057 51.752 127.58H51.724C51.651 128.532 51.6 129.492 51.6 130.465C51.6 130.542 51.6 130.619 51.6 130.696C51.6 130.773 51.6 130.85 51.6 130.927C51.6 131.9 51.651 132.859 51.724 133.811H51.752C52.1472 138.334 53.3924 142.741 55.422 146.802C53.6208 150.27 51.2061 153.382 48.295 155.989C48.279 155.226 48.237 154.47 48.179 153.719H48.15C47.4384 144.882 43.3841 136.648 36.813 130.696C43.3846 124.744 47.439 116.509 48.15 107.671L48.151 107.672ZM36.545 129.641C36.5597 129.226 36.5813 128.814 36.61 128.403C36.624 128.195 36.639 127.988 36.658 127.782C37.3185 119.309 41.142 111.394 47.369 105.609C47.3543 106.023 47.3327 106.435 47.304 106.845C47.29 107.053 47.275 107.261 47.256 107.468C46.5953 115.941 42.7718 123.856 36.545 129.64V129.641ZM52.645 133.607C52.627 133.399 52.612 133.191 52.597 132.982C52.545 132.226 52.516 131.463 52.51 130.694C52.5147 129.923 52.5437 129.159 52.597 128.401C52.611 128.194 52.626 127.988 52.644 127.782C53.0017 123.565 54.1197 119.447 55.944 115.628C57.7689 119.448 58.8869 123.567 59.244 127.786C59.261 127.986 59.276 128.186 59.29 128.38C59.3433 129.144 59.3727 129.915 59.378 130.694C59.3733 131.471 59.344 132.242 59.29 133.006C59.276 133.206 59.261 133.406 59.244 133.606C58.8867 137.824 57.7687 141.943 55.944 145.763C54.1198 141.944 53.0017 137.827 52.644 133.61L52.645 133.607ZM60.134 133.81H60.162C60.235 132.858 60.286 131.898 60.286 130.925C60.286 130.848 60.286 130.771 60.286 130.694C60.286 130.617 60.286 130.54 60.286 130.463C60.286 129.49 60.235 128.531 60.162 127.578H60.134C59.7389 123.055 58.4938 118.648 56.464 114.587C58.2653 111.119 60.68 108.007 63.591 105.4C63.607 106.163 63.65 106.919 63.707 107.67H63.735C64.4466 116.507 68.5009 124.741 75.072 130.693C68.5009 136.645 64.4465 144.879 63.735 153.716H63.707C63.649 154.467 63.607 155.223 63.591 155.986C60.68 153.379 58.2653 150.267 56.464 146.799C58.4937 142.738 59.7389 138.331 60.134 133.808V133.81ZM64.581 102.262C64.595 102.055 64.61 101.847 64.629 101.641C65.2902 93.1687 69.1136 85.2548 75.34 79.4711C75.3253 79.8844 75.3037 80.2961 75.275 80.7061C75.261 80.9151 75.245 81.1231 75.227 81.3311C74.5664 89.8038 70.7433 97.718 64.517 103.502C64.5317 103.087 64.5533 102.675 64.582 102.264L64.581 102.262ZM64.63 55.1911C64.6133 54.9838 64.5973 54.7761 64.582 54.5681C64.5533 54.1581 64.5317 53.7461 64.517 53.3321C70.7433 59.1159 74.5667 67.0297 75.228 75.5021C75.2447 75.7081 75.2603 75.9144 75.275 76.1211C75.3037 76.5324 75.3253 76.9454 75.34 77.3601C69.1138 71.5766 65.2904 63.6632 64.629 55.1911H64.63ZM47.3 54.5681C47.286 54.7761 47.271 54.9841 47.252 55.1911C46.5922 63.6633 42.7702 71.5776 36.545 77.3621C36.5597 76.9474 36.5813 76.5348 36.61 76.1241C36.624 75.9171 36.639 75.7091 36.658 75.5031C37.3189 67.0303 41.1424 59.116 47.369 53.3321C47.3543 53.7461 47.3327 54.1581 47.304 54.5681H47.3ZM47.256 101.643C47.2727 101.85 47.2887 102.057 47.304 102.264C47.3327 102.675 47.3543 103.087 47.369 103.501C41.1421 97.717 37.3186 89.8023 36.658 81.3291C36.6413 81.1218 36.6253 80.9141 36.61 80.7061C36.5813 80.2961 36.5597 79.8841 36.545 79.4701C42.7719 85.2542 46.5954 93.1689 47.256 101.642V101.643ZM47.256 153.92C47.2727 154.127 47.2887 154.334 47.304 154.541C47.3327 154.952 47.3543 155.364 47.369 155.778C41.1421 149.994 37.3186 142.079 36.658 133.606C36.6413 133.399 36.6253 133.191 36.61 132.983C36.5813 132.572 36.5597 132.16 36.545 131.747C42.772 137.531 46.5955 145.446 47.256 153.919V153.92ZM55.942 147.802C57.7804 151.205 60.1983 154.26 63.087 156.832C60.1983 159.404 57.7804 162.459 55.942 165.862C54.1034 162.46 51.6855 159.404 48.797 156.832C51.6856 154.26 54.1035 151.205 55.942 147.802ZM64.581 154.54C64.595 154.333 64.61 154.125 64.629 153.919C65.2899 145.446 69.1134 137.532 75.34 131.748C75.3253 132.161 75.3037 132.573 75.275 132.982C75.261 133.191 75.245 133.399 75.227 133.607C74.5663 142.08 70.7428 149.995 64.516 155.779C64.5307 155.364 64.5523 154.952 64.581 154.541V154.54ZM64.629 107.468C64.6123 107.261 64.5963 107.053 64.581 106.845C64.5523 106.435 64.5307 106.023 64.516 105.609C70.7434 111.393 74.5673 119.308 75.228 127.782C75.245 127.988 75.26 128.194 75.275 128.401C75.3037 128.812 75.3253 129.225 75.34 129.64C69.1132 123.856 65.2898 115.941 64.629 107.468ZM64.785 104.555C71.3561 98.603 75.4104 90.3695 76.122 81.5321H76.15C76.208 80.7811 76.25 80.0251 76.266 79.2621C79.177 81.8688 81.5917 84.9814 83.393 88.4491C81.3633 92.51 80.1182 96.9174 79.723 101.44H79.695C79.622 102.392 79.571 103.352 79.571 104.325C79.571 104.402 79.571 104.479 79.571 104.556C79.571 104.633 79.571 104.71 79.571 104.787C79.571 105.76 79.622 106.719 79.695 107.671H79.723C80.1179 112.194 81.3631 116.602 83.393 120.663C81.5916 124.13 79.177 127.243 76.266 129.849C76.25 129.086 76.208 128.33 76.15 127.579H76.122C75.4105 118.742 71.3561 110.508 64.785 104.556V104.555ZM91.06 78.4171C88.1713 80.9887 85.7534 84.0445 83.915 87.4471C82.0766 84.0445 79.6587 80.9887 76.77 78.4171C79.6586 75.8454 82.0765 72.7896 83.915 69.3871C85.7534 72.7897 88.1713 75.8456 91.06 78.4171ZM80.616 55.1911C80.6 54.9831 80.584 54.7754 80.568 54.5681C80.5153 53.8114 80.4863 53.0481 80.481 52.2781C80.4857 51.5074 80.5147 50.7434 80.568 49.9861C80.582 49.7791 80.598 49.5711 80.616 49.3651C80.9737 45.1482 82.0918 41.0308 83.916 37.2121C85.7409 41.0323 86.859 45.1514 87.216 49.3701C87.2313 49.5701 87.2467 49.7681 87.262 49.9641C87.3153 50.7288 87.3447 51.5001 87.35 52.2781C87.3453 53.0554 87.316 53.8261 87.262 54.5901C87.248 54.7901 87.233 54.9901 87.216 55.1901C86.8587 59.4084 85.7407 63.5271 83.916 67.3471C82.0918 63.5284 80.9737 59.411 80.616 55.1941V55.1911ZM87.216 101.65C87.2313 101.85 87.2467 102.048 87.262 102.244C87.3153 103.008 87.3447 103.779 87.35 104.558C87.3453 105.335 87.316 106.106 87.262 106.87C87.248 107.07 87.233 107.27 87.216 107.47C86.8587 111.688 85.7407 115.807 83.916 119.627C82.0918 115.809 80.9737 111.692 80.616 107.475C80.6 107.268 80.584 107.06 80.568 106.852C80.5153 106.096 80.4863 105.333 80.481 104.562C80.4857 103.791 80.5147 103.027 80.568 102.27C80.582 102.063 80.598 101.855 80.616 101.649C80.9737 97.4322 82.0918 93.3148 83.916 89.4961C85.7409 93.3163 86.859 97.4354 87.216 101.654V101.65ZM84.436 120.662C86.4658 116.601 87.711 112.193 88.106 107.67H88.134C88.207 106.718 88.258 105.759 88.258 104.786C88.258 104.709 88.258 104.632 88.258 104.555C88.258 104.478 88.258 104.401 88.258 104.324C88.258 103.351 88.207 102.391 88.134 101.439H88.106C87.7108 96.9164 86.4656 92.509 84.436 88.4481C86.2374 84.9805 88.652 81.8679 91.563 79.2611C91.579 80.0241 91.622 80.7801 91.679 81.5311H91.707C92.4188 90.3686 96.4736 98.6022 103.045 104.554C96.4735 110.506 92.4187 118.74 91.707 127.577H91.679C91.621 128.328 91.579 129.084 91.563 129.847C88.6521 127.241 86.2374 124.128 84.436 120.661V120.662ZM119.036 52.2761C116.147 54.8477 113.729 57.9035 111.891 61.3061C110.052 57.9036 107.635 54.8478 104.746 52.2761C107.635 49.7045 110.053 46.6487 111.891 43.2461C113.729 46.6487 116.147 49.7046 119.036 52.2761ZM115.189 75.5071C115.206 75.7071 115.221 75.9071 115.235 76.1011C115.288 76.8658 115.318 77.6371 115.324 78.4151C115.319 79.1924 115.289 79.9631 115.235 80.7271C115.221 80.9271 115.206 81.1271 115.189 81.3271C114.832 85.5454 113.714 89.6641 111.889 93.4841C110.065 89.6653 108.947 85.548 108.589 81.3311C108.571 81.1231 108.556 80.9151 108.541 80.7061C108.489 79.9501 108.46 79.1874 108.454 78.4181C108.459 77.6468 108.488 76.8824 108.541 76.1251C108.556 75.9181 108.571 75.7121 108.589 75.5061C108.947 71.2888 110.065 67.1711 111.889 63.3521C113.714 67.1724 114.832 71.2915 115.189 75.5101V75.5071ZM104.74 104.555C107.629 101.983 110.046 98.9276 111.885 95.5251C113.723 98.9277 116.141 101.984 119.03 104.555C116.141 107.127 113.723 110.182 111.885 113.585C110.046 110.183 107.629 107.127 104.74 104.555ZM119.65 101.439C119.592 102.19 119.55 102.946 119.534 103.709C116.623 101.102 114.208 97.9897 112.407 94.5221C114.437 90.4612 115.682 86.0537 116.077 81.5311H116.105C116.178 80.5791 116.229 79.6191 116.229 78.6461C116.229 78.5691 116.229 78.4921 116.229 78.4151C116.229 78.3381 116.229 78.2611 116.229 78.1841C116.229 77.2111 116.178 76.2521 116.105 75.2991H116.077C115.682 70.7764 114.437 66.369 112.407 62.3081C114.208 58.8408 116.623 55.7286 119.534 53.1221C119.55 53.8851 119.593 54.6411 119.65 55.3921H119.678C120.389 64.2296 124.444 72.4632 131.015 78.4151C124.444 84.367 120.389 92.6006 119.678 101.438L119.65 101.439ZM107.694 75.3021H107.666C107.593 76.2541 107.542 77.2131 107.542 78.1871C107.542 78.2641 107.542 78.3411 107.542 78.4181C107.542 78.4951 107.542 78.5721 107.542 78.6491C107.542 79.6221 107.593 80.5811 107.666 81.5331H107.694C108.089 86.0557 109.334 90.4632 111.364 94.5241C109.563 97.9917 107.148 101.104 104.237 103.711C104.221 102.948 104.179 102.192 104.121 101.441H104.093C103.382 92.6033 99.3273 84.3694 92.756 78.4171C99.3271 72.4651 103.382 64.2315 104.093 55.3941H104.121C104.179 54.6431 104.221 53.8871 104.237 53.1241C107.148 55.7305 109.563 58.8427 111.364 62.3101C109.334 66.371 108.089 70.7785 107.694 75.3011V75.3021ZM104.094 107.671H104.122C104.18 106.92 104.222 106.164 104.238 105.401C107.149 108.008 109.564 111.12 111.365 114.588C109.335 118.649 108.09 123.056 107.695 127.579H107.667C107.594 128.531 107.543 129.491 107.543 130.464C107.543 130.541 107.543 130.618 107.543 130.695C107.543 130.772 107.543 130.849 107.543 130.926C107.543 131.899 107.594 132.858 107.667 133.81H107.695C108.09 138.333 109.335 142.74 111.365 146.801C109.564 150.269 107.149 153.381 104.238 155.988C104.222 155.225 104.18 154.469 104.122 153.718H104.094C103.383 144.881 99.3281 136.647 92.757 130.695C99.3281 124.743 103.383 116.51 104.094 107.672V107.671ZM92.489 129.642C92.5037 129.227 92.5253 128.815 92.554 128.404C92.568 128.196 92.583 127.989 92.602 127.783C93.2625 119.31 97.086 111.395 103.313 105.61C103.298 106.024 103.277 106.436 103.248 106.846C103.234 107.054 103.219 107.262 103.2 107.469C102.539 115.942 98.7158 123.857 92.489 129.641V129.642ZM108.589 133.608C108.571 133.4 108.556 133.192 108.541 132.983C108.489 132.227 108.46 131.464 108.454 130.695C108.459 129.924 108.488 129.16 108.541 128.402C108.556 128.195 108.571 127.989 108.589 127.783C108.947 123.566 110.065 119.448 111.889 115.629C113.714 119.449 114.832 123.568 115.189 127.787C115.206 127.987 115.221 128.187 115.235 128.381C115.288 129.145 115.318 129.916 115.324 130.695C115.319 131.472 115.289 132.243 115.235 133.007C115.221 133.207 115.206 133.407 115.189 133.607C114.832 137.825 113.714 141.944 111.889 145.764C110.065 141.945 108.947 137.828 108.589 133.611V133.608ZM116.079 133.811H116.107C116.18 132.859 116.231 131.899 116.231 130.926C116.231 130.849 116.231 130.772 116.231 130.695C116.231 130.618 116.231 130.541 116.231 130.464C116.231 129.491 116.18 128.532 116.107 127.579H116.079C115.684 123.056 114.439 118.649 112.409 114.588C114.21 111.12 116.625 108.008 119.536 105.401C119.552 106.164 119.595 106.92 119.652 107.671H119.68C120.391 116.509 124.446 124.742 131.017 130.694C124.446 136.646 120.391 144.88 119.68 153.717H119.652C119.594 154.468 119.552 155.224 119.536 155.987C116.625 153.38 114.21 150.268 112.409 146.8C114.439 142.739 115.684 138.332 116.079 133.809V133.811ZM120.526 102.263C120.54 102.056 120.556 101.849 120.574 101.642C121.235 93.1689 125.058 85.2542 131.285 79.4701C131.27 79.8834 131.249 80.2951 131.22 80.7051C131.205 80.9141 131.19 81.1221 131.172 81.3301C130.511 89.8035 126.687 97.7183 120.459 103.502C120.474 103.087 120.495 102.675 120.524 102.264L120.526 102.263ZM120.572 55.1911C120.555 54.9838 120.539 54.7761 120.524 54.5681C120.495 54.1581 120.474 53.7461 120.459 53.3321C126.686 59.1157 130.509 67.0296 131.171 75.5021C131.187 75.7081 131.203 75.9144 131.218 76.1211C131.247 76.5324 131.268 76.9454 131.283 77.3601C125.056 71.576 121.233 63.6613 120.572 55.1881V55.1911ZM103.247 54.5651C103.233 54.7731 103.218 54.9811 103.199 55.1881C102.539 63.662 98.7154 71.5775 92.488 77.3621C92.5027 76.9474 92.5243 76.5348 92.553 76.1241C92.567 75.9171 92.582 75.7091 92.601 75.5031C93.2619 67.0303 97.0854 59.116 103.312 53.3321C103.297 53.7461 103.276 54.1581 103.247 54.5681V54.5651ZM103.199 101.643C103.216 101.85 103.232 102.057 103.247 102.264C103.275 102.675 103.297 103.087 103.312 103.501C97.0847 97.7171 93.2609 89.8024 92.6 81.3291C92.5833 81.1218 92.5673 80.9141 92.552 80.7061C92.5233 80.2961 92.5017 79.8841 92.487 79.4701C98.7149 85.2542 102.539 93.1693 103.2 101.643H103.199ZM103.2 153.921C103.217 154.128 103.233 154.335 103.248 154.542C103.276 154.953 103.298 155.365 103.313 155.779C97.0853 149.995 93.2611 142.081 92.6 133.607C92.5833 133.4 92.5673 133.192 92.552 132.984C92.5233 132.573 92.5017 132.161 92.487 131.748C98.7147 137.532 102.539 145.447 103.2 153.92V153.921ZM111.886 147.803C113.724 151.206 116.142 154.262 119.031 156.833C116.142 159.405 113.724 162.46 111.886 165.863C110.047 162.461 107.63 159.405 104.741 156.833C107.63 154.261 110.048 151.206 111.886 147.803ZM120.525 154.541C120.539 154.334 120.555 154.126 120.573 153.92C121.233 145.447 125.057 137.531 131.284 131.747C131.269 132.16 131.248 132.572 131.219 132.981C131.204 133.19 131.189 133.398 131.171 133.606C130.51 142.079 126.687 149.994 120.46 155.778C120.475 155.363 120.496 154.951 120.525 154.54V154.541ZM120.573 107.467C120.556 107.26 120.54 107.052 120.525 106.844C120.496 106.434 120.475 106.022 120.46 105.608C126.687 111.393 130.511 119.308 131.171 127.781C131.187 127.987 131.203 128.193 131.218 128.4C131.247 128.811 131.268 129.224 131.283 129.639C125.056 123.855 121.233 115.94 120.572 107.467H120.573ZM120.727 104.554C127.298 98.6024 131.352 90.3691 132.064 81.5321H132.092C132.15 80.7811 132.192 80.0251 132.208 79.2621C135.119 81.8688 137.534 84.9814 139.335 88.4491C137.305 92.51 136.06 96.9174 135.665 101.44H135.637C135.564 102.392 135.513 103.352 135.513 104.325C135.513 104.402 135.513 104.479 135.513 104.556C135.513 104.633 135.513 104.71 135.513 104.787C135.513 105.76 135.564 106.719 135.637 107.671H135.665C136.06 112.194 137.305 116.602 139.335 120.663C137.534 124.13 135.119 127.243 132.208 129.849C132.192 129.086 132.149 128.33 132.092 127.579H132.064C131.353 118.742 127.298 110.508 120.727 104.556V104.554ZM147 78.4171C144.111 80.9887 141.693 84.0445 139.855 87.4471C138.016 84.0445 135.599 80.9887 132.71 78.4171C135.599 75.8454 138.016 72.7896 139.855 69.3871C141.693 72.7897 144.111 75.8455 147 78.4171ZM136.559 55.1911C136.542 54.9831 136.526 54.7754 136.511 54.5681C136.458 53.8114 136.429 53.0481 136.424 52.2781C136.429 51.5074 136.458 50.7434 136.511 49.9861C136.526 49.7791 136.541 49.5711 136.559 49.3651C136.917 45.1482 138.035 41.0308 139.859 37.2121C141.684 41.0324 142.802 45.1515 143.159 49.3701C143.175 49.5701 143.19 49.7681 143.205 49.9641C143.258 50.7288 143.288 51.5001 143.294 52.2781C143.289 53.0554 143.259 53.8261 143.205 54.5901C143.191 54.7901 143.176 54.9901 143.159 55.1901C142.802 59.4084 141.684 63.5271 139.859 67.3471C138.035 63.5284 136.917 59.411 136.559 55.1941V55.1911ZM143.159 101.65C143.175 101.85 143.19 102.048 143.205 102.244C143.258 103.008 143.288 103.779 143.294 104.558C143.289 105.335 143.259 106.106 143.205 106.87C143.191 107.07 143.176 107.27 143.159 107.47C142.802 111.688 141.684 115.807 139.859 119.627C138.035 115.809 136.917 111.692 136.559 107.475C136.542 107.268 136.526 107.06 136.511 106.852C136.458 106.096 136.429 105.333 136.424 104.562C136.429 103.791 136.458 103.027 136.511 102.27C136.526 102.063 136.541 101.855 136.559 101.649C136.917 97.4322 138.035 93.3148 139.859 89.4961C141.684 93.3164 142.802 97.4355 143.159 101.654V101.65ZM140.382 120.669C142.412 116.608 143.657 112.2 144.052 107.677H144.08C144.153 106.725 144.204 105.766 144.204 104.793C144.204 104.716 144.204 104.639 144.204 104.562C144.204 104.485 144.204 104.408 144.204 104.331C144.204 103.358 144.153 102.398 144.08 101.446H144.052C143.657 96.9234 142.412 92.516 140.382 88.4551C142.183 84.9874 144.598 81.8748 147.509 79.2681C147.525 80.0311 147.568 80.7871 147.625 81.5381H147.653C148.364 90.3755 152.419 98.6092 158.99 104.561C152.419 110.513 148.364 118.747 147.653 127.584H147.625C147.567 128.335 147.525 129.091 147.509 129.854C144.598 127.248 142.183 124.135 140.382 120.668V120.669ZM174.982 52.2831C172.093 54.8547 169.675 57.9105 167.837 61.3131C165.998 57.9106 163.581 54.8548 160.692 52.2831C163.581 49.7115 165.999 46.6557 167.837 43.2531C169.675 46.6557 172.093 49.7115 174.982 52.2831ZM171.135 75.5141C171.152 75.7141 171.167 75.9141 171.181 76.1081C171.234 76.8728 171.264 77.6441 171.27 78.4221C171.265 79.1994 171.235 79.9701 171.181 80.7341C171.167 80.9341 171.152 81.1341 171.135 81.3341C170.778 85.5524 169.66 89.6711 167.835 93.4911C166.011 89.6724 164.893 85.555 164.535 81.3381C164.517 81.1301 164.502 80.9221 164.487 80.7131C164.435 79.9571 164.406 79.1944 164.4 78.4251C164.405 77.6538 164.434 76.8894 164.487 76.1321C164.502 75.9251 164.517 75.7191 164.535 75.5131C164.893 71.2958 166.011 67.1781 167.835 63.3591C169.66 67.1794 170.778 71.2985 171.135 75.5171V75.5141ZM160.691 104.564C163.58 101.992 165.997 98.9366 167.836 95.5341C169.674 98.9367 172.092 101.993 174.981 104.564C172.092 107.136 169.674 110.192 167.836 113.594C165.997 110.192 163.58 107.136 160.691 104.564ZM175.601 101.448C175.543 102.199 175.501 102.955 175.485 103.718C172.574 101.111 170.159 97.9988 168.358 94.5311C170.388 90.4702 171.633 86.0627 172.028 81.5401H172.056C172.129 80.5881 172.18 79.6281 172.18 78.6551C172.18 78.5781 172.18 78.5011 172.18 78.4241C172.18 78.3471 172.18 78.2701 172.18 78.1931C172.18 77.2201 172.129 76.2611 172.056 75.3081H172.028C171.633 70.7854 170.388 66.378 168.358 62.3171C170.159 58.8498 172.574 55.7375 175.485 53.1311C175.501 53.8941 175.544 54.6501 175.601 55.4011H175.629C176.34 64.2385 180.395 72.4722 186.966 78.4241C180.395 84.376 176.34 92.6096 175.629 101.447L175.601 101.448ZM163.637 75.3021H163.609C163.536 76.2541 163.485 77.2131 163.485 78.1871C163.485 78.2641 163.485 78.3411 163.485 78.4181C163.485 78.4951 163.485 78.5721 163.485 78.6491C163.485 79.6221 163.536 80.5811 163.609 81.5331H163.637C164.032 86.0557 165.277 90.4632 167.307 94.5241C165.506 97.9918 163.091 101.104 160.18 103.711C160.164 102.948 160.121 102.192 160.064 101.441H160.036C159.325 92.6035 155.271 84.3695 148.7 78.4171C155.271 72.4652 159.326 64.2315 160.037 55.3941H160.065C160.123 54.6431 160.165 53.8871 160.181 53.1241C163.092 55.7305 165.507 58.8428 167.308 62.3101C165.278 66.3709 164.033 70.7784 163.638 75.3011L163.637 75.3021ZM160.038 107.671H160.066C160.124 106.92 160.166 106.164 160.182 105.401C163.093 108.008 165.508 111.12 167.309 114.588C165.279 118.649 164.034 123.056 163.639 127.579H163.611C163.538 128.531 163.487 129.491 163.487 130.464C163.487 130.541 163.487 130.618 163.487 130.695C163.487 130.772 163.487 130.849 163.487 130.926C163.487 131.899 163.538 132.858 163.611 133.81H163.639C164.034 138.333 165.279 142.74 167.309 146.801C165.508 150.269 163.093 153.381 160.182 155.988C160.166 155.225 160.123 154.469 160.066 153.718H160.038C159.327 144.88 155.272 136.646 148.7 130.694C155.271 124.742 159.326 116.509 160.037 107.671H160.038ZM148.437 129.641C148.452 129.226 148.473 128.814 148.502 128.403C148.516 128.195 148.532 127.988 148.55 127.782C149.211 119.309 153.034 111.394 159.261 105.609C159.246 106.023 159.225 106.435 159.196 106.845C159.182 107.053 159.166 107.261 159.148 107.468C158.487 115.941 154.664 123.856 148.437 129.64V129.641ZM164.537 133.607C164.519 133.399 164.504 133.191 164.489 132.982C164.437 132.226 164.408 131.463 164.402 130.694C164.407 129.923 164.436 129.159 164.489 128.401C164.504 128.194 164.519 127.988 164.537 127.782C164.895 123.565 166.013 119.447 167.837 115.628C169.662 119.448 170.78 123.567 171.137 127.786C171.154 127.986 171.169 128.186 171.183 128.38C171.236 129.144 171.266 129.915 171.272 130.694C171.267 131.471 171.237 132.242 171.183 133.006C171.169 133.206 171.154 133.406 171.137 133.606C170.78 137.824 169.662 141.943 167.837 145.763C166.013 141.944 164.895 137.827 164.537 133.61V133.607ZM172.027 133.81H172.055C172.128 132.858 172.179 131.898 172.179 130.925C172.179 130.848 172.179 130.771 172.179 130.694C172.179 130.617 172.179 130.54 172.179 130.463C172.179 129.49 172.128 128.531 172.055 127.578H172.027C171.632 123.055 170.387 118.648 168.357 114.587C170.158 111.119 172.573 108.007 175.484 105.4C175.5 106.163 175.543 106.919 175.6 107.67H175.628C176.339 116.508 180.394 124.741 186.965 130.693C180.394 136.645 176.339 144.879 175.628 153.716H175.6C175.542 154.467 175.5 155.223 175.484 155.986C172.573 153.379 170.158 150.267 168.357 146.799C170.387 142.738 171.632 138.331 172.027 133.808V133.81ZM176.474 102.262C176.488 102.055 176.504 101.847 176.522 101.641C177.183 93.168 181.006 85.2533 187.233 79.4691C187.218 79.8824 187.197 80.2941 187.168 80.7041C187.153 80.9131 187.138 81.1211 187.12 81.3291C186.457 89.8039 182.63 97.7192 176.4 103.502C176.415 103.087 176.436 102.675 176.465 102.264L176.474 102.262ZM176.513 55.1911C176.496 54.9838 176.48 54.7761 176.465 54.5681C176.436 54.1581 176.415 53.7461 176.4 53.3321C182.627 59.1154 186.452 67.0293 187.114 75.5021C187.13 75.7081 187.146 75.9144 187.161 76.1211C187.19 76.5324 187.211 76.9454 187.226 77.3601C180.999 71.576 177.176 63.6613 176.515 55.1881L176.513 55.1911ZM159.19 54.5651C159.176 54.7731 159.16 54.9811 159.142 55.1881C158.482 63.662 154.658 71.5775 148.431 77.3621C148.446 76.9474 148.467 76.5348 148.496 76.1241C148.51 75.9171 148.526 75.7091 148.544 75.5031C149.205 67.0305 153.028 59.1162 159.254 53.3321C159.239 53.7461 159.218 54.1581 159.189 54.5681L159.19 54.5651ZM159.141 101.643C159.158 101.85 159.174 102.057 159.189 102.264C159.218 102.675 159.239 103.087 159.254 103.501C153.027 97.717 149.204 89.8023 148.543 81.3291C148.526 81.1218 148.51 80.9141 148.495 80.7061C148.466 80.2961 148.445 79.8841 148.43 79.4701C154.657 85.2542 158.48 93.1689 159.141 101.642V101.643ZM159.141 153.92C159.158 154.127 159.174 154.334 159.189 154.541C159.218 154.952 159.239 155.364 159.254 155.778C153.027 149.994 149.203 142.079 148.543 133.606C148.526 133.399 148.51 133.191 148.495 132.983C148.466 132.572 148.445 132.16 148.43 131.747C154.657 137.531 158.481 145.446 159.141 153.919V153.92ZM167.827 147.802C169.665 151.205 172.083 154.26 174.972 156.832C172.083 159.404 169.665 162.46 167.827 165.862C165.988 162.46 163.571 159.404 160.682 156.832C163.571 154.26 165.989 151.205 167.827 147.802ZM176.466 154.54C176.48 154.333 176.496 154.125 176.514 153.919C177.174 145.446 180.998 137.531 187.225 131.746C187.21 132.159 187.189 132.571 187.16 132.98C187.145 133.189 187.13 133.397 187.112 133.605C186.452 142.079 182.628 149.995 176.4 155.779C176.415 155.364 176.436 154.952 176.465 154.541L176.466 154.54ZM176.513 107.468C176.496 107.261 176.48 107.053 176.465 106.845C176.436 106.435 176.415 106.023 176.4 105.609C182.627 111.394 186.451 119.309 187.111 127.782C187.127 127.988 187.143 128.194 187.158 128.401C187.187 128.812 187.208 129.225 187.223 129.64C180.996 123.856 177.173 115.941 176.512 107.468H176.513ZM176.667 104.555C183.239 98.6036 187.295 90.3699 188.007 81.5321H188.035C188.093 80.7811 188.135 80.0251 188.151 79.2621C191.062 81.8688 193.477 84.9814 195.278 88.4491C193.248 92.51 192.003 96.9175 191.608 101.44H191.58C191.507 102.392 191.456 103.352 191.456 104.325C191.456 104.402 191.456 104.479 191.456 104.556C191.456 104.633 191.456 104.71 191.456 104.787C191.456 105.76 191.507 106.719 191.58 107.671H191.608C192.003 112.194 193.248 116.602 195.278 120.663C193.477 124.13 191.062 127.243 188.151 129.849C188.135 129.086 188.092 128.33 188.035 127.579H188.007C187.296 118.742 183.241 110.508 176.67 104.556L176.667 104.555ZM202.945 78.4171C200.056 80.9887 197.638 84.0445 195.8 87.4471C193.962 84.0445 191.544 80.9887 188.655 78.4171C191.544 75.8454 193.961 72.7896 195.8 69.3871C197.638 72.7897 200.056 75.8455 202.945 78.4171ZM192.5 55.1911C192.483 54.9831 192.467 54.7754 192.452 54.5681C192.399 53.8114 192.37 53.0481 192.365 52.2781C192.37 51.5074 192.399 50.7434 192.452 49.9861C192.467 49.7791 192.482 49.5711 192.5 49.3651C192.858 45.1481 193.976 41.0308 195.8 37.2121C197.625 41.0324 198.743 45.1515 199.1 49.3701C199.116 49.5701 199.131 49.7681 199.146 49.9641C199.199 50.7288 199.229 51.5001 199.235 52.2781C199.23 53.0554 199.2 53.8261 199.146 54.5901C199.132 54.7901 199.117 54.9901 199.1 55.1901C198.743 59.4084 197.625 63.5271 195.8 67.3471C193.976 63.5284 192.858 59.4111 192.5 55.1941V55.1911ZM199.1 101.65C199.116 101.85 199.131 102.048 199.146 102.244C199.199 103.008 199.229 103.779 199.235 104.558C199.23 105.335 199.2 106.106 199.146 106.87C199.132 107.07 199.117 107.27 199.1 107.47C198.743 111.688 197.625 115.807 195.8 119.627C193.976 115.809 192.858 111.692 192.5 107.475C192.483 107.268 192.467 107.06 192.452 106.852C192.399 106.096 192.37 105.333 192.365 104.562C192.37 103.791 192.399 103.027 192.452 102.27C192.467 102.063 192.482 101.855 192.5 101.649C192.858 97.4321 193.976 93.3148 195.8 89.4961C197.625 93.3163 198.743 97.4355 199.1 101.654V101.65ZM204.488 81.3361C204.471 81.1288 204.455 80.9211 204.44 80.7131C204.411 80.3031 204.39 79.8911 204.375 79.4771C210.602 85.2612 214.425 93.1759 215.086 101.649C215.103 101.856 215.119 102.063 215.134 102.27C215.163 102.681 215.184 103.093 215.199 103.507C208.972 97.723 205.148 89.8083 204.488 81.3351V81.3361ZM203.566 29.2601H203.594C204.305 38.0975 208.36 46.3312 214.931 52.2831C208.36 58.2338 204.305 66.4658 203.592 75.3021H203.564C203.506 76.0531 203.464 76.8091 203.448 77.5721C200.537 74.9654 198.122 71.8528 196.321 68.3851C198.351 64.3242 199.596 59.9167 199.991 55.3941H200.019C200.092 54.4421 200.143 53.4831 200.143 52.5101C200.143 52.4331 200.143 52.3561 200.143 52.2791C200.143 52.2021 200.143 52.1251 200.143 52.0481C200.143 51.0751 200.092 50.1151 200.019 49.1631H199.991C199.596 44.6405 198.351 40.233 196.321 36.1721C198.122 32.7048 200.537 29.5925 203.448 26.9861C203.464 27.7491 203.507 28.5051 203.564 29.2561L203.566 29.2601ZM215.2 53.3321C215.185 53.7461 215.164 54.1581 215.135 54.5681C215.121 54.7761 215.105 54.9841 215.087 55.1911C214.426 63.6642 210.601 71.5785 204.374 77.3621C204.389 76.9474 204.41 76.5348 204.439 76.1241C204.453 75.9171 204.469 75.7091 204.487 75.5031C205.148 67.03 208.973 59.1157 215.2 53.3321ZM195.8 17.1081C197.638 20.5107 200.056 23.5665 202.945 26.1381C200.056 28.7097 197.638 31.7655 195.8 35.1681C193.962 31.7655 191.544 28.7097 188.655 26.1381C191.544 23.5665 193.962 20.5107 195.8 17.1081ZM188.036 29.2541C188.094 28.5031 188.136 27.7471 188.152 26.9841C191.063 29.5905 193.478 32.7028 195.279 36.1701C193.249 40.231 192.004 44.6385 191.609 49.1611H191.581C191.508 50.1131 191.457 51.0721 191.457 52.0461C191.457 52.1231 191.457 52.2001 191.457 52.2771C191.457 52.3541 191.457 52.4311 191.457 52.5081C191.457 53.4811 191.508 54.4401 191.581 55.3921H191.609C192.004 59.9147 193.249 64.3222 195.279 68.3831C193.478 71.8508 191.063 74.9634 188.152 77.5701C188.136 76.8071 188.093 76.0511 188.036 75.3001H188.008C187.296 66.4629 183.241 58.2297 176.67 52.2781C183.241 46.3262 187.296 38.0925 188.007 29.2551L188.036 29.2541ZM176.4 51.2241C176.415 50.8101 176.436 50.3974 176.465 49.9861C176.479 49.7791 176.495 49.5711 176.513 49.3651C177.174 40.892 180.997 32.9773 187.224 27.1931C187.209 27.6064 187.188 28.0178 187.159 28.4271C187.144 28.6361 187.129 28.8441 187.111 29.0521C186.45 37.5252 182.627 45.44 176.4 51.2241ZM187.111 23.2241C187.127 23.4301 187.143 23.6364 187.158 23.8431C187.187 24.2538 187.208 24.6668 187.223 25.0821C180.998 19.2982 177.176 11.3847 176.515 2.91309C176.498 2.70576 176.482 2.49809 176.467 2.29009C176.438 1.88009 176.417 1.46809 176.402 1.05409C182.629 6.83854 186.453 14.7536 187.113 23.2271L187.111 23.2241ZM175.477 0.845094C175.493 1.60809 175.536 2.36409 175.593 3.11509H175.621C176.332 11.9526 180.387 20.1862 186.958 26.1381C180.387 32.0903 176.332 40.3243 175.621 49.1621H175.593C175.535 49.9131 175.493 50.6691 175.477 51.4321C172.566 48.8253 170.151 45.7127 168.35 42.2451C170.38 38.1839 171.625 33.7761 172.02 29.2531H172.048C172.121 28.3011 172.172 27.3421 172.172 26.3691C172.172 26.2921 172.172 26.2151 172.172 26.1381C172.172 26.0611 172.172 25.9841 172.172 25.9071C172.172 24.9341 172.121 23.9751 172.048 23.0221H172.02C171.625 18.4995 170.38 14.092 168.35 10.0311C170.151 6.56379 172.566 3.45153 175.477 0.845094ZM167.829 11.0731C169.654 14.8934 170.772 19.0125 171.129 23.2311C171.146 23.4311 171.161 23.6311 171.175 23.8251C171.228 24.5898 171.258 25.3611 171.264 26.1391C171.259 26.9164 171.229 27.6871 171.175 28.4511C171.161 28.6511 171.146 28.8511 171.129 29.0511C170.772 33.2694 169.654 37.3881 167.829 41.2081C166.005 37.3894 164.887 33.272 164.529 29.0551C164.511 28.8471 164.496 28.6391 164.481 28.4301C164.429 27.6741 164.4 26.9114 164.394 26.1421C164.399 25.3714 164.428 24.6071 164.481 23.8491C164.496 23.6421 164.511 23.4361 164.529 23.2301C164.886 19.0119 166.004 14.8931 167.828 11.0731H167.829ZM160.036 3.11609H160.064C160.122 2.36509 160.164 1.60909 160.18 0.846094C163.091 3.45282 165.506 6.56543 167.307 10.0331C165.277 14.0939 164.032 18.5014 163.637 23.0241H163.609C163.536 23.9761 163.485 24.9361 163.485 25.9091C163.485 25.9861 163.485 26.0631 163.485 26.1401C163.485 26.2171 163.485 26.2941 163.485 26.3711C163.485 27.3441 163.536 28.3031 163.609 29.2561H163.637C164.032 33.7788 165.277 38.1862 167.307 42.2471C165.506 45.7148 163.091 48.8274 160.18 51.4341C160.164 50.6711 160.121 49.9151 160.064 49.1641H160.036C159.325 40.3261 155.271 32.0917 148.7 26.1391C155.271 20.1868 159.325 11.9527 160.036 3.11509V3.11609ZM148.5 23.8471C148.514 23.6401 148.53 23.4321 148.548 23.2261C149.207 14.7537 153.029 6.8391 159.254 1.05409C159.239 1.46809 159.218 1.88009 159.189 2.29009C159.175 2.49809 159.159 2.70609 159.141 2.91309C158.48 11.3863 154.657 19.301 148.43 25.0851C148.445 24.6704 148.466 24.2578 148.495 23.8471H148.5ZM159.141 49.3651C159.158 49.5718 159.174 49.7788 159.189 49.9861C159.218 50.3968 159.239 50.8094 159.254 51.2241C153.027 45.44 149.204 37.5252 148.543 29.0521C148.526 28.8448 148.51 28.6371 148.495 28.4291C148.466 28.0191 148.445 27.6071 148.43 27.1931C154.657 32.9772 158.48 40.8919 159.141 49.3651ZM147.621 29.2541H147.649C148.36 38.0915 152.415 46.3252 158.986 52.2771C152.414 58.2296 148.36 66.464 147.649 75.3021H147.621C147.563 76.0531 147.521 76.8091 147.505 77.5721C144.594 74.9654 142.179 71.8528 140.378 68.3851C142.408 64.3242 143.653 59.9167 144.048 55.3941H144.076C144.149 54.4421 144.2 53.4831 144.2 52.5101C144.2 52.4331 144.2 52.3561 144.2 52.2791C144.2 52.2021 144.2 52.1251 144.2 52.0481C144.2 51.0751 144.149 50.1151 144.076 49.1631H144.048C143.653 44.6405 142.408 40.233 140.378 36.1721C142.179 32.7048 144.594 29.5925 147.505 26.9861C147.521 27.7491 147.564 28.5051 147.621 29.2561V29.2541ZM139.857 17.1101C141.695 20.5122 144.112 23.5676 147 26.1391C144.111 28.7107 141.693 31.7665 139.855 35.1691C138.016 31.7665 135.599 28.7107 132.71 26.1391C135.599 23.5675 138.017 20.5117 139.855 17.1091L139.857 17.1101ZM132.091 29.2551C132.149 28.5041 132.191 27.7481 132.207 26.9851C135.118 29.5915 137.533 32.7038 139.334 36.1711C137.304 40.232 136.059 44.6395 135.664 49.1621H135.636C135.563 50.1141 135.512 51.0731 135.512 52.0471C135.512 52.1241 135.512 52.2011 135.512 52.2781C135.512 52.3551 135.512 52.4321 135.512 52.5091C135.512 53.4821 135.563 54.4411 135.636 55.3931H135.664C136.059 59.9157 137.304 64.3232 139.334 68.3841C137.533 71.8518 135.118 74.9644 132.207 77.5711C132.191 76.8081 132.148 76.0521 132.091 75.3011H132.063C131.352 66.4637 127.297 58.2301 120.726 52.2781C127.297 46.3261 131.352 38.0925 132.063 29.2551H132.091ZM120.459 51.2241C120.474 50.8101 120.495 50.3974 120.524 49.9861C120.538 49.7788 120.554 49.5718 120.572 49.3651C121.233 40.8919 125.056 32.9772 131.283 27.1931C131.268 27.6064 131.247 28.0178 131.218 28.4271C131.203 28.6361 131.188 28.8441 131.17 29.0521C130.509 37.5249 126.686 45.4392 120.459 51.2231V51.2241ZM131.17 23.2231C131.186 23.4291 131.202 23.6354 131.217 23.8421C131.246 24.2528 131.267 24.6658 131.282 25.0811C125.056 19.2977 121.233 11.3847 120.572 2.91309C120.555 2.70576 120.539 2.49809 120.524 2.29009C120.495 1.88009 120.474 1.46809 120.459 1.05409C126.686 6.83854 130.51 14.7536 131.17 23.2271V23.2231ZM119.534 0.845094C119.55 1.60809 119.593 2.36409 119.65 3.11509H119.678C120.389 11.9526 124.444 20.1863 131.015 26.1381C124.444 32.0903 120.389 40.3243 119.678 49.1621H119.65C119.592 49.9131 119.55 50.6691 119.534 51.4321C116.623 48.8253 114.208 45.7127 112.407 42.2451C114.437 38.1839 115.682 33.7761 116.077 29.2531H116.105C116.178 28.3011 116.229 27.3421 116.229 26.3691C116.229 26.2921 116.229 26.2151 116.229 26.1381C116.229 26.0611 116.229 25.9841 116.229 25.9071C116.229 24.9341 116.178 23.9751 116.105 23.0221H116.077C115.682 18.4995 114.437 14.092 112.407 10.0311C114.208 6.56382 116.623 3.45157 119.534 0.845094ZM111.886 11.0731C113.711 14.8934 114.829 19.0125 115.186 23.2311C115.203 23.4311 115.218 23.6311 115.232 23.8251C115.285 24.5898 115.315 25.3611 115.321 26.1391C115.316 26.9164 115.286 27.6871 115.232 28.4511C115.218 28.6511 115.203 28.8511 115.186 29.0511C114.829 33.2694 113.711 37.3881 111.886 41.2081C110.062 37.3893 108.944 33.272 108.586 29.0551C108.568 28.8471 108.553 28.6391 108.538 28.4301C108.486 27.6741 108.457 26.9114 108.451 26.1421C108.456 25.3714 108.485 24.6071 108.538 23.8491C108.553 23.6421 108.568 23.4361 108.586 23.2301C108.943 19.0118 110.061 14.8931 111.886 11.0731ZM104.094 3.11609H104.122C104.18 2.36509 104.222 1.60909 104.238 0.846094C107.149 3.45278 109.564 6.56539 111.365 10.0331C109.335 14.094 108.09 18.5015 107.695 23.0241H107.667C107.594 23.9761 107.543 24.9361 107.543 25.9091C107.543 25.9861 107.543 26.0631 107.543 26.1401C107.543 26.2171 107.543 26.2941 107.543 26.3711C107.543 27.3441 107.594 28.3031 107.667 29.2561H107.695C108.09 33.7787 109.335 38.1862 111.365 42.2471C109.564 45.7148 107.149 48.8274 104.238 51.4341C104.222 50.6711 104.18 49.9151 104.122 49.1641H104.094C103.383 40.3258 99.328 32.0914 92.756 26.1391C99.3273 20.1868 103.382 11.9528 104.093 3.11509L104.094 3.11609ZM92.553 23.8471C92.567 23.6401 92.582 23.4321 92.601 23.2261C93.2617 14.753 97.0852 6.83829 103.312 1.05409C103.297 1.46809 103.276 1.88009 103.247 2.29009C103.233 2.49809 103.218 2.70609 103.199 2.91309C102.538 11.3862 98.7148 19.3009 92.488 25.0851C92.5027 24.6704 92.5243 24.2578 92.553 23.8471ZM103.2 49.3651C103.217 49.5718 103.233 49.7788 103.248 49.9861C103.276 50.3968 103.298 50.8094 103.313 51.2241C97.0854 45.4402 93.2612 37.5255 92.6 29.0521C92.5833 28.8448 92.5673 28.6371 92.552 28.4291C92.5233 28.0191 92.5017 27.6071 92.487 27.1931C98.7147 32.9769 102.539 40.8917 103.2 49.3651ZM91.679 29.2541H91.707C92.4187 38.0917 96.4735 46.3253 103.045 52.2771C96.4727 58.2292 92.4175 66.4637 91.706 75.3021H91.678C91.62 76.0531 91.578 76.8091 91.562 77.5721C88.651 74.9653 86.2363 71.8527 84.435 68.3851C86.4647 64.3242 87.7099 59.9168 88.105 55.3941H88.133C88.206 54.4421 88.257 53.4831 88.257 52.5101C88.257 52.4331 88.257 52.3561 88.257 52.2791C88.257 52.2021 88.257 52.1251 88.257 52.0481C88.257 51.0751 88.206 50.1151 88.133 49.1631H88.105C87.7097 44.6405 86.4646 40.233 84.435 36.1721C86.2364 32.7048 88.6511 29.5926 91.562 26.9861C91.578 27.7491 91.621 28.5051 91.678 29.2561L91.679 29.2541ZM83.914 17.1081C85.7524 20.5107 88.1703 23.5665 91.059 26.1381C88.1703 28.7097 85.7524 31.7655 83.914 35.1681C82.0756 31.7655 79.6577 28.7097 76.769 26.1381C79.6576 23.5665 82.0755 20.5107 83.914 17.1081ZM76.15 29.2541C76.208 28.5031 76.25 27.7471 76.266 26.9841C79.177 29.5905 81.5916 32.7028 83.393 36.1701C81.3634 40.231 80.1183 44.6385 79.723 49.1611H79.695C79.622 50.1131 79.571 51.0721 79.571 52.0461C79.571 52.1231 79.571 52.2001 79.571 52.2771C79.571 52.3541 79.571 52.4311 79.571 52.5081C79.571 53.4811 79.622 54.4401 79.695 55.3921H79.723C80.118 59.9148 81.3632 64.3222 83.393 68.3831C81.5917 71.8508 79.1771 74.9634 76.266 77.5701C76.25 76.8071 76.208 76.0511 76.15 75.3001H76.122C75.4102 66.4631 71.3558 58.2299 64.785 52.2781C71.3563 46.3258 75.4107 38.0918 76.122 29.2541H76.15ZM64.517 51.2241C64.5317 50.8101 64.5533 50.3974 64.582 49.9861C64.596 49.7791 64.611 49.5711 64.63 49.3651C65.2904 40.8921 69.1135 32.9775 75.34 27.1931C75.3253 27.6064 75.3037 28.0178 75.275 28.4271C75.261 28.6361 75.245 28.8441 75.227 29.0521C74.5667 37.5251 70.7435 45.4398 64.517 51.2241ZM75.228 23.2241C75.2447 23.4301 75.2603 23.6364 75.275 23.8431C75.3037 24.2538 75.3253 24.6668 75.34 25.0821C69.1139 19.2986 65.2905 11.3851 64.629 2.91309C64.6123 2.70576 64.5963 2.49809 64.581 2.29009C64.5523 1.88009 64.5307 1.46809 64.516 1.05409C70.7434 6.83838 74.5673 14.7535 75.228 23.2271V23.2241ZM63.591 0.845094C63.607 1.60809 63.65 2.36409 63.707 3.11509H63.735C64.4463 11.9528 68.5007 20.1868 75.072 26.1391C68.501 32.0912 64.4467 40.3247 63.735 49.1621H63.707C63.649 49.9131 63.607 50.6691 63.591 51.4321C60.68 48.8253 58.2654 45.7127 56.464 42.2451C58.4938 38.1839 59.7389 33.7761 60.134 29.2531H60.162C60.235 28.3011 60.286 27.3421 60.286 26.3691C60.286 26.2921 60.286 26.2151 60.286 26.1381C60.286 26.0611 60.286 25.9841 60.286 25.9071C60.286 24.9341 60.235 23.9751 60.162 23.0221H60.134C59.7388 18.4995 58.4936 14.092 56.464 10.0311C58.2654 6.56382 60.6801 3.45157 63.591 0.845094ZM55.943 11.0731C57.7679 14.8933 58.8859 19.0125 59.243 23.2311C59.26 23.4311 59.275 23.6311 59.289 23.8251C59.3423 24.5898 59.3717 25.3611 59.377 26.1391C59.3723 26.9164 59.343 27.6871 59.289 28.4511C59.275 28.6511 59.26 28.8511 59.243 29.0511C58.8857 33.2694 57.7676 37.3881 55.943 41.2081C54.1188 37.3894 53.0008 33.272 52.643 29.0551C52.625 28.8471 52.61 28.6391 52.595 28.4301C52.543 27.6741 52.514 26.9114 52.508 26.1421C52.5127 25.3714 52.5417 24.6071 52.595 23.8491C52.609 23.6421 52.624 23.4361 52.642 23.2301C52.9997 19.0118 54.118 14.893 55.943 11.0731ZM48.15 3.11509H48.178C48.236 2.36409 48.278 1.60809 48.294 0.845094C51.2051 3.45178 53.6198 6.56439 55.421 10.0321C53.3914 14.093 52.1462 18.5005 51.751 23.0231H51.723C51.65 23.9751 51.599 24.9351 51.599 25.9081C51.599 25.9851 51.599 26.0621 51.599 26.1391C51.599 26.2161 51.599 26.2931 51.599 26.3701C51.599 27.3431 51.65 28.3021 51.723 29.2551H51.751C52.1462 33.7777 53.3914 38.1852 55.421 42.2461C53.6198 45.7138 51.2051 48.8264 48.294 51.4331C48.278 50.6701 48.236 49.9141 48.178 49.1631H48.15C47.4388 40.3253 43.3844 32.0913 36.813 26.1391C43.3843 20.1868 47.4387 11.9528 48.15 3.11509ZM36.61 23.8471C36.624 23.6401 36.639 23.4321 36.658 23.2261C37.3187 14.753 41.1422 6.83829 47.369 1.05409C47.3543 1.46809 47.3327 1.88009 47.304 2.29009C47.29 2.49809 47.275 2.70609 47.256 2.91309C46.5953 11.3862 42.7718 19.3009 36.545 25.0851C36.5597 24.6704 36.5813 24.2578 36.61 23.8471ZM47.256 49.3651C47.2727 49.5718 47.2887 49.7788 47.304 49.9861C47.3327 50.3968 47.3543 50.8094 47.369 51.2241C41.1422 45.4399 37.3187 37.5252 36.658 29.0521C36.6413 28.8448 36.6253 28.6371 36.61 28.4291C36.5813 28.0191 36.5597 27.6071 36.545 27.1931C42.7719 32.9772 46.5954 40.8919 47.256 49.3651ZM35.736 29.2541H35.764C36.475 38.0917 40.529 46.3257 47.1 52.2781C40.529 58.2305 36.475 66.4645 35.764 75.3021H35.736C35.678 76.0531 35.636 76.8091 35.62 77.5721C32.709 74.9653 30.2943 71.8527 28.493 68.3851C30.5227 64.3242 31.7679 59.9168 32.163 55.3941H32.191C32.264 54.4421 32.315 53.4831 32.315 52.5101C32.315 52.4331 32.315 52.3561 32.315 52.2791C32.315 52.2021 32.315 52.1251 32.315 52.0481C32.315 51.0751 32.264 50.1151 32.191 49.1631H32.163C31.7677 44.6405 30.5226 40.233 28.493 36.1721C30.2944 32.7048 32.7091 29.5926 35.62 26.9861C35.636 27.7491 35.679 28.5051 35.736 29.2561V29.2541ZM27.971 17.1081C29.8094 20.5107 32.2273 23.5666 35.116 26.1381C32.2273 28.7097 29.8094 31.7655 27.971 35.1681C26.1326 31.7655 23.7147 28.7097 20.826 26.1381C23.7147 23.5665 26.1326 20.5107 27.971 17.1081ZM20.207 29.2541C20.265 28.5031 20.307 27.7471 20.323 26.9841C23.2339 29.5906 25.6486 32.7028 27.45 36.1701C25.4202 40.2313 24.1751 44.6391 23.78 49.1621H23.752C23.679 50.1141 23.628 51.0731 23.628 52.0471C23.628 52.1241 23.628 52.2011 23.628 52.2781C23.628 52.3551 23.628 52.4321 23.628 52.5091C23.628 53.4821 23.679 54.4411 23.752 55.3931H23.78C24.175 59.9158 25.4202 64.3232 27.45 68.3841C25.6486 71.8517 23.234 74.9643 20.323 77.5711C20.307 76.8081 20.265 76.0521 20.207 75.3011H20.179C19.4673 66.4637 15.413 58.2302 8.842 52.2781C15.4134 46.3259 19.4678 38.0919 20.179 29.2541H20.207ZM8.574 51.2241C8.58867 50.8101 8.61033 50.3974 8.639 49.9861C8.653 49.7791 8.669 49.5711 8.687 49.3651C9.34831 40.8917 13.1725 32.977 19.4 27.1931C19.3853 27.6064 19.364 28.0178 19.336 28.4271C19.322 28.6361 19.306 28.8441 19.288 29.0521C18.6267 37.5257 14.8021 45.4405 8.574 51.2241ZM19.285 23.2241C19.3017 23.4301 19.3173 23.6364 19.332 23.8431C19.3607 24.2538 19.3823 24.6668 19.397 25.0821C13.1708 19.2986 9.34742 11.3852 8.686 2.91309C8.66933 2.70576 8.65333 2.49809 8.638 2.29009C8.61267 1.88009 8.59133 1.46809 8.574 1.05409C14.8011 6.83854 18.6246 14.7536 19.285 23.2271V23.2241ZM0.522 42.2461C2.5519 38.1849 3.79703 33.7771 4.192 29.2541H4.22C4.293 28.3021 4.344 27.3431 4.344 26.3701C4.344 26.2931 4.344 26.2161 4.344 26.1391C4.344 26.0621 4.344 25.9851 4.344 25.9081C4.344 24.9351 4.293 23.9761 4.22 23.0231H4.192C3.79676 18.5005 2.55164 14.093 0.522 10.0321C2.32298 6.56451 4.7373 3.45191 7.648 0.845094C7.664 1.60809 7.706 2.36409 7.764 3.11509H7.792C8.50331 11.9528 12.5577 20.1868 19.129 26.1391C12.558 32.0912 8.50366 40.3247 7.792 49.1621H7.764C7.706 49.9131 7.664 50.6691 7.648 51.4321C4.73745 48.8255 2.32314 45.7133 0.522 42.2461ZM0.522 94.5241C2.55188 90.4629 3.797 86.0551 4.192 81.5321H4.22C4.293 80.5801 4.344 79.6201 4.344 78.6471C4.344 78.5701 4.344 78.4931 4.344 78.4161C4.344 78.3391 4.344 78.2621 4.344 78.1851C4.344 77.2121 4.293 76.2531 4.22 75.3001H4.192C3.79664 70.7778 2.55152 66.3707 0.522 62.3101C2.32338 58.8428 4.73804 55.7305 7.649 53.1241C7.665 53.8871 7.707 54.6431 7.765 55.3941H7.793C8.5044 64.2313 12.5584 72.4648 19.129 78.4171C12.5579 84.3691 8.50356 92.6027 7.792 101.44H7.764C7.706 102.191 7.664 102.947 7.648 103.71C4.7373 101.103 2.32298 97.9907 0.522 94.5231V94.5241ZM0.522 146.801C2.55182 142.74 3.79695 138.333 4.192 133.81H4.22C4.293 132.858 4.344 131.898 4.344 130.925C4.344 130.848 4.344 130.771 4.344 130.694C4.344 130.617 4.344 130.54 4.344 130.463C4.344 129.49 4.293 128.531 4.22 127.578H4.192C3.79688 123.055 2.55176 118.648 0.522 114.587C2.32315 111.12 4.73746 108.008 7.648 105.402C7.664 106.165 7.706 106.921 7.764 107.672H7.792C8.50356 116.509 12.5579 124.743 19.129 130.695C12.5581 136.647 8.50371 144.88 7.792 153.717H7.764C7.706 154.468 7.664 155.224 7.648 155.987C4.73746 153.381 2.32315 150.269 0.522 146.802V146.801ZM19.4 131.748C19.3853 132.161 19.364 132.573 19.336 132.982C19.322 133.191 19.306 133.399 19.288 133.607C18.6265 142.081 14.8019 149.995 8.574 155.779C8.58867 155.364 8.61033 154.952 8.639 154.541C8.653 154.334 8.669 154.126 8.687 153.92C9.34831 145.447 13.1725 137.532 19.4 131.748ZM7.792 205.995H7.764C7.706 206.746 7.664 207.502 7.648 208.265C4.73701 205.658 2.32235 202.546 0.521 199.078C2.55094 195.017 3.79607 190.609 4.191 186.086H4.22C4.293 185.134 4.344 184.175 4.344 183.202C4.344 183.125 4.344 183.048 4.344 182.971C4.344 182.894 4.344 182.818 4.344 182.74C4.344 181.767 4.293 180.808 4.22 179.855H4.192C3.79676 175.332 2.55164 170.925 0.522 166.864C2.32324 163.396 4.73791 160.284 7.649 157.677C7.665 158.44 7.707 159.196 7.765 159.947H7.793C8.5037 168.785 12.5578 177.019 19.129 182.972C12.558 188.924 8.50366 197.158 7.792 205.995ZM19.333 185.26C19.319 185.469 19.303 185.677 19.285 185.885C18.6242 194.358 14.8008 202.273 8.574 208.057C8.58867 207.642 8.61033 207.23 8.639 206.819C8.653 206.611 8.669 206.404 8.687 206.198C9.34831 197.725 13.1725 189.81 19.4 184.026C19.3853 184.439 19.364 184.851 19.336 185.261L19.333 185.26ZM8.686 159.746C8.66933 159.539 8.65333 159.331 8.638 159.123C8.60933 158.713 8.58767 158.301 8.573 157.887C14.8 163.672 18.6235 171.587 19.284 180.06C19.3 180.267 19.316 180.473 19.331 180.68C19.3597 181.091 19.3813 181.504 19.396 181.919C13.1692 176.135 9.34608 168.219 8.686 159.746ZM20.206 179.856H20.178C19.4665 171.019 15.4125 162.785 8.842 156.833C15.4131 150.881 19.4675 142.648 20.179 133.81H20.207C20.265 133.059 20.307 132.303 20.323 131.54C23.2341 134.147 25.6488 137.259 27.45 140.727C25.4203 144.788 24.1751 149.195 23.78 153.718H23.752C23.679 154.67 23.628 155.63 23.628 156.603C23.628 156.68 23.628 156.757 23.628 156.834C23.628 156.911 23.628 156.988 23.628 157.065C23.628 158.038 23.679 158.997 23.752 159.949H23.78C24.1749 164.472 25.4201 168.88 27.45 172.941C25.6486 176.409 23.234 179.521 20.323 182.128C20.307 181.365 20.265 180.609 20.207 179.858L20.206 179.856ZM27.971 192.002C26.1325 188.6 23.7146 185.544 20.826 182.972C23.7148 180.401 26.1327 177.345 27.971 173.942C29.8093 177.345 32.2272 180.401 35.116 182.972C32.2273 185.544 29.8094 188.599 27.971 192.002ZM35.735 179.856C35.677 180.607 35.635 181.363 35.619 182.126C32.708 179.519 30.2934 176.407 28.492 172.939C30.5219 168.878 31.767 164.47 32.162 159.947H32.19C32.263 158.995 32.314 158.036 32.314 157.063C32.314 156.986 32.314 156.909 32.314 156.832C32.314 156.755 32.314 156.678 32.314 156.601C32.314 155.628 32.263 154.668 32.19 153.716H32.162C31.7668 149.193 30.5216 144.786 28.492 140.725C30.2932 137.257 32.7079 134.145 35.619 131.538C35.635 132.301 35.678 133.057 35.735 133.808H35.763C36.474 142.646 40.5284 150.881 47.1 156.833C40.5286 162.785 36.4738 171.019 35.762 179.856H35.735ZM47.368 157.887C47.3533 158.301 47.3317 158.713 47.303 159.123C47.289 159.331 47.274 159.539 47.255 159.746C46.5942 168.219 42.7707 176.133 36.544 181.917C36.5587 181.502 36.5803 181.09 36.609 180.68C36.623 180.472 36.638 180.266 36.657 180.059C37.3177 171.586 41.1412 163.671 47.368 157.887ZM36.657 185.887C36.6403 185.679 36.6243 185.471 36.609 185.264C36.5803 184.854 36.5587 184.442 36.544 184.028C42.7718 189.812 46.5957 197.728 47.256 206.202C47.2727 206.409 47.2887 206.616 47.304 206.823C47.3327 207.234 47.3543 207.646 47.369 208.06C41.1421 202.276 37.3186 194.361 36.658 185.888L36.657 185.887ZM48.295 208.268C48.279 207.505 48.237 206.749 48.179 205.998H48.15C47.4392 197.16 43.3847 188.925 36.813 182.972C43.3843 177.02 47.4387 168.786 48.15 159.948H48.178C48.236 159.197 48.278 158.441 48.294 157.678C51.2052 160.285 53.6198 163.397 55.421 166.865C53.3914 170.926 52.1462 175.333 51.751 179.856H51.723C51.65 180.808 51.599 181.768 51.599 182.741C51.599 182.818 51.599 182.895 51.599 182.972C51.599 183.049 51.599 183.126 51.599 183.203C51.599 184.176 51.65 185.135 51.723 186.087H51.751C52.1461 190.61 53.3912 195.017 55.421 199.078C53.6198 202.546 51.2051 205.658 48.294 208.265L48.295 208.268ZM52.644 185.885C52.626 185.677 52.611 185.469 52.596 185.261C52.544 184.505 52.515 183.742 52.509 182.972C52.5137 182.201 52.5427 181.437 52.596 180.679C52.61 180.472 52.625 180.266 52.643 180.06C53.0007 175.843 54.1187 171.725 55.943 167.906C57.7679 171.726 58.8859 175.845 59.243 180.064C59.26 180.264 59.275 180.464 59.289 180.658C59.3423 181.423 59.3717 182.194 59.377 182.972C59.3723 183.75 59.343 184.521 59.289 185.285C59.275 185.485 59.26 185.685 59.243 185.885C58.8857 190.103 57.7676 194.222 55.943 198.042C54.1187 194.223 53.0007 190.106 52.643 185.889L52.644 185.885ZM63.733 205.999H63.705C63.647 206.75 63.605 207.506 63.589 208.269C60.678 205.662 58.2634 202.55 56.462 199.082C58.4919 195.021 59.737 190.613 60.132 186.09H60.16C60.233 185.138 60.284 184.179 60.284 183.206C60.284 183.129 60.284 183.052 60.284 182.975C60.284 182.898 60.284 182.822 60.284 182.744C60.284 181.771 60.233 180.812 60.16 179.859H60.132C59.7368 175.336 58.4916 170.929 56.462 166.868C58.2633 163.4 60.6779 160.288 63.589 157.681C63.605 158.444 63.648 159.2 63.705 159.951H63.733C64.4455 168.788 68.5006 177.021 75.072 182.972C68.5008 188.924 64.4464 197.158 63.735 205.996L63.733 205.999ZM75.276 185.261C75.262 185.47 75.246 185.678 75.228 185.886C74.5672 194.359 70.7438 202.274 64.517 208.058C64.5317 207.643 64.5533 207.231 64.582 206.82C64.596 206.612 64.611 206.405 64.63 206.199C65.2902 197.726 69.1133 189.811 75.34 184.026C75.3253 184.439 75.3037 184.851 75.275 185.261H75.276ZM64.629 159.746C64.6123 159.539 64.5963 159.331 64.581 159.123C64.5523 158.713 64.5307 158.301 64.516 157.887C70.7431 163.672 74.5666 171.587 75.227 180.06C75.244 180.267 75.259 180.473 75.274 180.68C75.3027 181.091 75.3243 181.504 75.339 181.919C69.1122 176.135 65.2887 168.22 64.628 159.747L64.629 159.746ZM76.149 179.857H76.121C75.4093 171.02 71.355 162.786 64.784 156.834C71.3551 150.882 75.4094 142.648 76.121 133.811H76.149C76.207 133.06 76.249 132.304 76.265 131.541C79.1761 134.148 81.5908 137.26 83.392 140.728C81.3624 144.789 80.1172 149.196 79.722 153.719H79.694C79.621 154.671 79.57 155.631 79.57 156.604C79.57 156.681 79.57 156.758 79.57 156.835C79.57 156.912 79.57 156.989 79.57 157.066C79.57 158.039 79.621 158.998 79.694 159.95H79.722C80.1169 164.473 81.3621 168.881 83.392 172.942C81.5907 176.41 79.176 179.522 76.265 182.129C76.249 181.366 76.207 180.61 76.149 179.859V179.857ZM83.914 192.002C82.0755 188.6 79.6576 185.544 76.769 182.972C79.6577 180.401 82.0756 177.345 83.914 173.942C85.7523 177.345 88.1702 180.401 91.059 182.972C88.1703 185.544 85.7524 188.599 83.914 192.002ZM91.678 179.856C91.62 180.607 91.578 181.363 91.562 182.126C88.651 179.519 86.2364 176.407 84.435 172.939C86.4649 168.878 87.71 164.47 88.105 159.947H88.133C88.206 158.995 88.257 158.036 88.257 157.063C88.257 156.986 88.257 156.909 88.257 156.832C88.257 156.755 88.257 156.678 88.257 156.601C88.257 155.628 88.206 154.668 88.133 153.716H88.105C87.7098 149.193 86.4646 144.786 84.435 140.725C86.2362 137.257 88.6509 134.145 91.562 131.538C91.578 132.301 91.621 133.057 91.678 133.808H91.706C92.4177 142.646 96.4725 150.879 103.044 156.831C96.4726 162.783 92.4178 171.017 91.706 179.854L91.678 179.856ZM103.311 157.887C103.296 158.301 103.275 158.713 103.246 159.123C103.232 159.331 103.217 159.539 103.198 159.746C102.537 168.219 98.7137 176.133 92.487 181.917C92.5017 181.502 92.5233 181.09 92.552 180.68C92.566 180.472 92.581 180.266 92.6 180.059C93.2607 171.586 97.0842 163.671 103.311 157.887ZM92.6 185.887C92.5833 185.679 92.5673 185.471 92.552 185.264C92.5233 184.854 92.5017 184.442 92.487 184.028C98.7152 189.812 102.539 197.728 103.2 206.202C103.217 206.409 103.233 206.616 103.248 206.823C103.276 207.234 103.298 207.646 103.313 208.06C97.0847 202.276 93.2604 194.36 92.6 185.885V185.887ZM104.237 208.265C104.221 207.502 104.179 206.746 104.121 205.995H104.093C103.382 197.158 99.3271 188.924 92.756 182.972C99.3273 177.02 103.382 168.786 104.093 159.948H104.121C104.179 159.197 104.221 158.441 104.237 157.678C107.148 160.285 109.563 163.397 111.364 166.865C109.334 170.926 108.089 175.333 107.694 179.856H107.666C107.593 180.808 107.542 181.768 107.542 182.741C107.542 182.818 107.542 182.895 107.542 182.972C107.542 183.049 107.542 183.126 107.542 183.203C107.542 184.176 107.593 185.135 107.666 186.087H107.694C108.089 190.61 109.334 195.017 111.364 199.078C109.563 202.546 107.148 205.658 104.237 208.265ZM108.587 185.885C108.569 185.677 108.554 185.469 108.539 185.261C108.487 184.505 108.458 183.742 108.452 182.972C108.457 182.201 108.486 181.437 108.539 180.679C108.554 180.472 108.569 180.266 108.587 180.06C108.945 175.843 110.063 171.725 111.887 167.906C113.712 171.726 114.83 175.845 115.187 180.064C115.204 180.264 115.219 180.464 115.233 180.658C115.286 181.423 115.316 182.194 115.322 182.972C115.317 183.75 115.287 184.521 115.233 185.285C115.219 185.485 115.204 185.685 115.187 185.885C114.83 190.103 113.712 194.222 111.887 198.042C110.063 194.223 108.945 190.106 108.587 185.889V185.885ZM119.678 205.999H119.65C119.592 206.75 119.55 207.506 119.534 208.269C116.623 205.662 114.208 202.55 112.407 199.082C114.437 195.021 115.682 190.613 116.077 186.09H116.105C116.178 185.138 116.229 184.179 116.229 183.206C116.229 183.129 116.229 183.052 116.229 182.975C116.229 182.898 116.229 182.822 116.229 182.744C116.229 181.771 116.178 180.812 116.105 179.859H116.077C115.682 175.336 114.437 170.929 112.407 166.868C114.208 163.4 116.623 160.288 119.534 157.681C119.55 158.444 119.593 159.2 119.65 159.951H119.678C120.389 168.789 124.444 177.022 131.015 182.974C124.444 188.926 120.389 197.16 119.678 205.998V205.999ZM131.218 185.263C131.203 185.472 131.188 185.68 131.17 185.888C130.509 194.361 126.686 202.276 120.459 208.06C120.474 207.645 120.495 207.233 120.524 206.822C120.538 206.615 120.554 206.408 120.572 206.201C121.232 197.728 125.056 189.812 131.283 184.028C131.268 184.441 131.247 184.853 131.218 185.263ZM120.571 159.749C120.554 159.542 120.538 159.334 120.523 159.126C120.494 158.716 120.473 158.304 120.458 157.89C126.685 163.675 130.509 171.59 131.169 180.063C131.185 180.27 131.201 180.476 131.216 180.683C131.245 181.094 131.266 181.507 131.281 181.922C125.054 176.138 121.231 168.223 120.57 159.75L120.571 159.749ZM132.091 179.86H132.063C131.351 171.023 127.297 162.789 120.726 156.837C127.297 150.885 131.352 142.652 132.063 133.814H132.091C132.149 133.063 132.191 132.307 132.207 131.544C135.118 134.151 137.533 137.263 139.334 140.731C137.304 144.792 136.059 149.199 135.664 153.722H135.636C135.563 154.674 135.512 155.634 135.512 156.607C135.512 156.684 135.512 156.761 135.512 156.838C135.512 156.915 135.512 156.992 135.512 157.069C135.512 158.042 135.563 159.001 135.636 159.953H135.664C136.059 164.476 137.304 168.884 139.334 172.945C137.533 176.413 135.118 179.525 132.207 182.132C132.191 181.369 132.148 180.613 132.091 179.862V179.86ZM139.857 192.002C138.018 188.6 135.601 185.544 132.712 182.972C135.601 180.401 138.019 177.345 139.857 173.942C141.695 177.345 144.112 180.4 147 182.972C144.111 185.544 141.693 188.6 139.855 192.002H139.857ZM147.619 179.856C147.561 180.607 147.519 181.363 147.503 182.126C144.592 179.519 142.177 176.407 140.376 172.939C142.406 168.878 143.651 164.47 144.046 159.947H144.074C144.147 158.995 144.198 158.036 144.198 157.063C144.198 156.986 144.198 156.909 144.198 156.832C144.198 156.755 144.198 156.678 144.198 156.601C144.198 155.628 144.147 154.668 144.074 153.716H144.046C143.651 149.193 142.406 144.786 140.376 140.725C142.177 137.257 144.592 134.145 147.503 131.538C147.519 132.301 147.562 133.057 147.619 133.808H147.647C148.358 142.646 152.413 150.879 158.984 156.831C152.413 162.783 148.359 171.017 147.647 179.854L147.619 179.856ZM159.252 157.887C159.237 158.301 159.216 158.713 159.187 159.123C159.173 159.331 159.157 159.539 159.139 159.746C158.478 168.219 154.655 176.133 148.428 181.917C148.443 181.502 148.464 181.09 148.493 180.68C148.507 180.472 148.523 180.266 148.541 180.059C149.202 171.586 153.025 163.671 159.252 157.887ZM148.541 185.887C148.524 185.679 148.508 185.471 148.493 185.264C148.464 184.854 148.443 184.442 148.428 184.028C154.657 189.812 158.481 197.728 159.142 206.202C159.159 206.409 159.175 206.616 159.19 206.823C159.219 207.234 159.24 207.646 159.255 208.06C153.028 202.276 149.204 194.361 148.544 185.888L148.541 185.887ZM160.181 208.268C160.165 207.505 160.122 206.749 160.065 205.998H160.037C159.326 197.16 155.272 188.925 148.7 182.972C155.271 177.02 159.326 168.786 160.037 159.948H160.065C160.123 159.197 160.165 158.441 160.181 157.678C163.092 160.285 165.507 163.397 167.308 166.865C165.278 170.926 164.033 175.333 163.638 179.856H163.61C163.537 180.808 163.486 181.768 163.486 182.741C163.486 182.818 163.486 182.895 163.486 182.972C163.486 183.049 163.486 183.126 163.486 183.203C163.486 184.176 163.537 185.135 163.61 186.087H163.638C164.033 190.61 165.278 195.017 167.308 199.078C165.507 202.546 163.092 205.658 160.181 208.265V208.268ZM164.531 185.885C164.513 185.677 164.498 185.469 164.483 185.261C164.431 184.505 164.402 183.742 164.396 182.972C164.401 182.201 164.43 181.437 164.483 180.679C164.498 180.472 164.513 180.266 164.531 180.06C164.889 175.843 166.007 171.725 167.831 167.906C169.656 171.726 170.774 175.845 171.131 180.064C171.148 180.264 171.163 180.464 171.177 180.658C171.23 181.423 171.26 182.194 171.266 182.972C171.261 183.75 171.231 184.521 171.177 185.285C171.163 185.485 171.148 185.685 171.131 185.885C170.774 190.103 169.656 194.222 167.831 198.042C166.007 194.223 164.889 190.106 164.531 185.889V185.885ZM175.622 205.999H175.594C175.536 206.75 175.494 207.506 175.478 208.269C172.567 205.662 170.152 202.55 168.351 199.082C170.381 195.021 171.626 190.613 172.021 186.09H172.049C172.122 185.138 172.173 184.179 172.173 183.206C172.173 183.129 172.173 183.052 172.173 182.975C172.173 182.898 172.173 182.822 172.173 182.744C172.173 181.771 172.122 180.812 172.049 179.859H172.021C171.626 175.336 170.381 170.929 168.351 166.868C170.152 163.4 172.567 160.288 175.478 157.681C175.494 158.444 175.537 159.2 175.594 159.951H175.622C176.333 168.789 180.388 177.022 186.959 182.974C180.388 188.926 176.333 197.16 175.622 205.998V205.999ZM187.162 185.263C187.147 185.472 187.132 185.68 187.114 185.888C186.452 194.361 182.627 202.274 176.4 208.057C176.415 207.642 176.436 207.23 176.465 206.819C176.479 206.611 176.495 206.404 176.513 206.198C177.173 197.725 180.997 189.81 187.224 184.025C187.209 184.438 187.188 184.85 187.159 185.26L187.162 185.263ZM176.512 159.746C176.495 159.539 176.479 159.331 176.464 159.123C176.435 158.713 176.414 158.301 176.399 157.887C182.626 163.672 186.45 171.587 187.11 180.06C187.126 180.267 187.142 180.473 187.157 180.68C187.186 181.091 187.207 181.504 187.222 181.919C180.995 176.135 177.172 168.22 176.511 159.747L176.512 159.746ZM188.032 179.857H188.004C187.292 171.02 183.238 162.786 176.667 156.834C183.238 150.882 187.293 142.649 188.004 133.811H188.032C188.09 133.06 188.132 132.304 188.148 131.541C191.059 134.148 193.474 137.26 195.275 140.728C193.245 144.789 192 149.196 191.605 153.719H191.577C191.504 154.671 191.453 155.631 191.453 156.604C191.453 156.681 191.453 156.758 191.453 156.835C191.453 156.912 191.453 156.989 191.453 157.066C191.453 158.039 191.504 158.998 191.577 159.95H191.605C192 164.473 193.245 168.881 195.275 172.942C193.474 176.41 191.059 179.522 188.148 182.129C188.132 181.366 188.089 180.61 188.032 179.859V179.857ZM195.8 192.002C193.961 188.6 191.544 185.544 188.655 182.972C191.544 180.401 193.962 177.345 195.8 173.942C197.638 177.345 200.056 180.401 202.945 182.972C200.056 185.544 197.638 188.599 195.8 192.002ZM203.564 179.856C203.506 180.607 203.464 181.363 203.448 182.126C200.537 179.519 198.122 176.407 196.321 172.939C198.351 168.878 199.596 164.47 199.991 159.947H200.019C200.092 158.995 200.143 158.036 200.143 157.063C200.143 156.986 200.143 156.909 200.143 156.832C200.143 156.755 200.143 156.678 200.143 156.601C200.143 155.628 200.092 154.668 200.019 153.716H199.991C199.596 149.193 198.351 144.786 196.321 140.725C198.122 137.257 200.537 134.145 203.448 131.538C203.464 132.301 203.507 133.057 203.564 133.808H203.592C204.303 142.646 208.358 150.879 214.929 156.831C208.358 162.783 204.304 171.017 203.592 179.854L203.564 179.856ZM215.2 157.887C215.185 158.301 215.164 158.713 215.135 159.123C215.121 159.331 215.105 159.539 215.087 159.746C214.426 168.219 210.603 176.133 204.376 181.917C204.391 181.502 204.412 181.09 204.441 180.68C204.455 180.472 204.471 180.266 204.489 180.059C205.15 171.586 208.973 163.671 215.2 157.887ZM204.489 185.887C204.472 185.679 204.456 185.471 204.441 185.264C204.412 184.854 204.391 184.442 204.376 184.028C210.603 189.813 214.426 197.728 215.085 206.202C215.102 206.409 215.118 206.616 215.133 206.823C215.162 207.234 215.183 207.646 215.198 208.06C208.971 202.276 205.147 194.361 204.487 185.888L204.489 185.887ZM223.251 166.868C221.221 170.929 219.976 175.336 219.581 179.859H219.553C219.48 180.811 219.429 181.771 219.429 182.744C219.429 182.821 219.429 182.898 219.429 182.975C219.429 183.052 219.429 183.129 219.429 183.206C219.429 184.179 219.48 185.138 219.553 186.09H219.581C219.976 190.613 221.221 195.02 223.251 199.081C221.45 202.549 219.035 205.661 216.124 208.268C216.108 207.505 216.065 206.749 216.008 205.998H215.98C215.268 197.161 211.214 188.927 204.643 182.975C211.214 177.023 215.269 168.789 215.98 159.951H216.008C216.066 159.2 216.108 158.444 216.124 157.681C219.035 160.288 221.45 163.4 223.251 166.868ZM223.251 114.59C221.221 118.651 219.976 123.058 219.581 127.581H219.553C219.48 128.533 219.429 129.493 219.429 130.466C219.429 130.543 219.429 130.62 219.429 130.697C219.429 130.774 219.429 130.851 219.429 130.928C219.429 131.901 219.48 132.86 219.553 133.812H219.581C219.976 138.335 221.221 142.742 223.251 146.803C221.45 150.271 219.035 153.383 216.124 155.99C216.108 155.227 216.065 154.471 216.008 153.72H215.98C215.268 144.883 211.214 136.649 204.643 130.697C211.214 124.745 215.269 116.512 215.98 107.674H216.008C216.066 106.923 216.108 106.167 216.124 105.404C219.035 108.011 221.45 111.123 223.251 114.591V114.59ZM223.251 62.3131C221.221 66.3739 219.976 70.7814 219.581 75.3041H219.553C219.48 76.2561 219.429 77.2151 219.429 78.1891C219.429 78.2661 219.429 78.3431 219.429 78.4201C219.429 78.4971 219.429 78.5741 219.429 78.6511C219.429 79.6241 219.48 80.5831 219.553 81.5351H219.581C219.976 86.0577 221.221 90.4652 223.251 94.5261C221.45 97.9937 219.035 101.106 216.124 103.713C216.108 102.95 216.065 102.194 216.008 101.443H215.98C215.268 92.6057 211.214 84.3721 204.643 78.4201C211.214 72.4682 215.269 64.2345 215.98 55.3971H216.008C216.066 54.6461 216.108 53.8901 216.124 53.1271C219.035 55.7335 221.45 58.8458 223.251 62.3131ZM219.581 23.0271H219.553C219.48 23.9791 219.429 24.9391 219.429 25.9121C219.429 25.9891 219.429 26.0661 219.429 26.1431C219.429 26.2201 219.429 26.2971 219.429 26.3741C219.429 27.3471 219.48 28.3061 219.553 29.2591H219.581C219.976 33.7818 221.221 38.1892 223.251 42.2501C221.45 45.7178 219.035 48.8304 216.124 51.4371C216.108 50.6741 216.065 49.9181 216.008 49.1671H215.98C215.269 40.3297 211.214 32.0961 204.643 26.1441C211.215 20.1905 215.269 11.9545 215.979 3.11509H216.007C216.065 2.36409 216.107 1.60809 216.123 0.845094C219.034 3.45184 221.449 6.56444 223.25 10.0321C221.22 14.0929 219.975 18.5004 219.58 23.0231" fill="black"/>
</svg>
