<svg xmlns="http://www.w3.org/2000/svg" width="238.081" height="206.185" viewBox="0 0 238.081 206.185">
  <g id="Group_2874" data-name="Group 2874" transform="translate(0)">
    <path id="Path_12727" data-name="Path 12727" d="M6.966,180.786l8.863,5.117L6.966,191.02ZM43.692,185.9l8.863-5.117V191.02Zm22.794-5.117,8.863,5.117-8.863,5.117Zm36.726,5.117,8.863-5.117V191.02Zm22.795-5.117,8.863,5.117-8.863,5.117Zm36.726,5.117,8.864-5.117V191.02Zm22.795-5.117,8.863,5.117-8.863,5.117Zm36.726,5.117,8.863-5.117V191.02ZM36.726,171.818V163.6l8.863,5.117-5.364,3.1-3.5,2.02Zm59.52,0V163.6l8.863,5.117-5.364,3.1-3.5,2.02Zm59.52,0V163.6l8.863,5.117-5.364,3.1-3.5,2.02Zm59.52,0V163.6l8.863,5.117-5.364,3.1-3.5,2.02Zm-195.991,0-5.364-3.1,8.863-5.117v10.235Zm59.52,0-5.364-3.1,8.863-5.117v10.235Zm59.521,0-5.364-3.1,8.863-5.117v10.235Zm59.52,0-5.364-3.1,8.863-5.117v10.235ZM77.326,152.68l4.989,2.88v5.76L64.509,171.6v20.561l-4.989,2.88-4.988-2.88V171.6l-17.806-10.28v-5.76l4.988-2.88L59.52,162.96Zm59.52,0,4.988,2.88v5.76L124.029,171.6v20.561l-4.988,2.88-4.989-2.88V171.6l-17.806-10.28v-5.76l4.988-2.88,17.806,10.28Zm59.52,0,4.988,2.88v5.76L183.55,171.6v20.561l-4.988,2.88-4.989-2.88V171.6l-17.806-10.28v-5.76l4.989-2.88,17.806,10.28Zm-189.4-6.259,8.863,5.117-8.863,5.117Zm36.726,5.117,8.863-5.117v10.234Zm22.794-5.117,8.863,5.117-8.863,5.117Zm36.726,5.117,8.863-5.117v10.234Zm22.795-5.117,8.863,5.117-8.863,5.117Zm36.726,5.117,8.864-5.117v10.234Zm22.795-5.117,8.863,5.117-8.863,5.117Zm36.726,5.117,8.863-5.117v10.234ZM44.179,137.454l3.387-1.955,3.387,1.955h0l1.6.925v5.76L34.749,154.419v20.56l-4.988,2.88-4.989-2.88v-20.56L6.966,144.138v-5.76l1.6-.925h0l3.387-1.955,3.387,1.955,14.419,8.325Zm59.52,0,3.387-1.955,3.387,1.955h0l1.6.925v5.76L94.269,154.419v20.56l-4.988,2.88-4.989-2.88v-20.56L66.486,144.138v-5.76l1.6-.925h0l3.387-1.955,3.387,1.955,14.419,8.325Zm59.52,0,3.387-1.955,3.387,1.955h0l1.6.925v5.76L153.79,154.419v20.56l-4.989,2.88-4.988-2.88v-20.56l-17.806-10.281v-5.76l1.6-.925h0l3.387-1.955,3.387,1.955,14.419,8.325Zm59.52,0,3.387-1.955,3.387,1.955h0l1.6.925v5.76L213.31,154.419v20.56l-4.988,2.88-4.989-2.88v-20.56l-17.806-10.281v-5.76l1.6-.925h0l3.387-1.955,3.387,1.955h0l14.419,8.325Zm-186.014,0V129.24l8.863,5.117-5.364,3.1-3.5,2.02Zm59.52,0V129.24l8.863,5.117-5.364,3.1-3.5,2.02Zm59.52,0V129.24l8.863,5.117-5.364,3.1-3.5,2.02Zm59.52,0V129.24l8.863,5.117-5.364,3.1-3.5,2.02Zm-195.991,0-5.364-3.1,8.863-5.117v10.235Zm59.52,0-5.364-3.1,8.863-5.117v10.235Zm59.521,0-5.364-3.1,8.863-5.117v10.235Zm59.52,0-5.364-3.1,8.863-5.117v10.235ZM77.326,118.316l4.989,2.88v5.76l-17.806,10.28V157.8l-4.989,2.88-4.988-2.88V137.236l-17.806-10.28V121.2l4.988-2.88L59.52,128.6Zm59.52,0,4.988,2.88v5.76l-17.806,10.28V157.8l-4.988,2.88-4.989-2.88V137.236l-17.806-10.28V121.2l4.988-2.88,17.806,10.28Zm59.52,0,4.988,2.88v5.76l-17.806,10.28V157.8l-4.988,2.88-4.989-2.88V137.236l-17.806-10.28V121.2l4.989-2.88,17.806,10.28Zm-189.4-6.258,8.863,5.117-8.863,5.117Zm36.726,5.117,8.863-5.117v10.234Zm22.794-5.117,8.863,5.117-8.863,5.117Zm36.726,5.117,8.863-5.117v10.234Zm22.795-5.117,8.863,5.117-8.863,5.117Zm36.726,5.117,8.864-5.117v10.234Zm22.795-5.117,8.863,5.117-8.863,5.117Zm36.726,5.117,8.863-5.117v10.234ZM44.179,103.089l3.387-1.955,3.387,1.955h0l1.6.925v5.76L34.749,120.055v20.561L29.76,143.5l-4.989-2.88V120.055L6.966,109.774v-5.76l1.6-.925h0l3.387-1.955,3.387,1.955,14.419,8.325Zm59.52,0,3.387-1.955,3.387,1.955h0l1.6.925v5.76L94.269,120.055v20.561l-4.988,2.88-4.989-2.88V120.055l-17.806-10.28v-5.76l1.6-.925h0l3.387-1.955,3.387,1.955,14.419,8.325Zm59.52,0,3.387-1.955,3.387,1.955h0l1.6.925v5.76L153.79,120.055v20.561L148.8,143.5l-4.988-2.88V120.055l-17.806-10.28v-5.76l1.6-.925h0l3.387-1.955,3.387,1.955,14.419,8.325Zm59.52,0,3.387-1.955,3.387,1.955h0l1.6.925v5.76L213.31,120.055v20.561l-4.988,2.88-4.989-2.88V120.055l-17.806-10.28v-5.76l1.6-.925h0l3.387-1.955,3.387,1.955h0l14.419,8.325Zm-186.014,0V94.875l8.863,5.117-5.364,3.1-3.5,2.02Zm59.52,0V94.875l8.863,5.117-5.364,3.1-3.5,2.02Zm59.52,0V94.875l8.863,5.117-5.364,3.1-3.5,2.02Zm59.52,0V94.875l8.863,5.117-5.364,3.1-3.5,2.02Zm-195.991,0-5.364-3.1,8.863-5.117V105.11Zm59.52,0-5.364-3.1,8.863-5.117V105.11Zm59.521,0-5.364-3.1,8.863-5.117V105.11Zm59.52,0-5.364-3.1,8.863-5.117V105.11ZM54.532,123.433V102.872L36.726,92.592v-5.76l4.988-2.88L59.52,94.232l17.806-10.28,4.989,2.88v5.76l-17.806,10.28v20.561l-4.989,2.88Zm59.52,0V102.872L96.246,92.592v-5.76l4.988-2.88,17.806,10.28,17.806-10.28,4.988,2.88v5.76l-17.806,10.28v20.561l-4.988,2.88Zm59.52,0V102.872l-17.806-10.28v-5.76l4.989-2.88,17.806,10.28,17.806-10.28,4.988,2.88v5.76l-17.806,10.28v20.561l-4.988,2.88ZM6.966,77.693l8.863,5.117L6.966,87.927ZM43.692,82.81l8.863-5.117V87.928Zm22.794-5.117,8.863,5.117-8.863,5.117Zm36.726,5.117,8.863-5.117V87.928Zm22.795-5.117,8.863,5.117-8.863,5.117Zm36.726,5.117,8.864-5.117V87.928Zm22.795-5.117,8.863,5.117-8.863,5.117Zm36.726,5.117,8.863-5.117V87.928ZM44.179,68.725l3.387-1.955,3.387,1.955h0l1.6.924v5.76L34.749,85.69v20.561l-4.988,2.88-4.989-2.88V85.69L6.966,75.41V69.65l1.6-.925h0l3.387-1.955,3.387,1.955L29.76,77.05Zm59.52,0,3.387-1.955,3.387,1.955h0l1.6.924v5.76L94.269,85.69v20.561l-4.988,2.88-4.989-2.88V85.69L66.486,75.41V69.65l1.6-.925h0l3.387-1.955,3.387,1.955L89.281,77.05Zm59.52,0,3.387-1.955,3.387,1.955h0l1.6.924v5.76L153.79,85.69v20.561l-4.989,2.88-4.988-2.88V85.69L126.006,75.41V69.65l1.6-.925h0l3.387-1.955,3.387,1.955L148.8,77.05Zm59.52,0,3.387-1.955,3.387,1.955h0l1.6.924v5.76L213.31,85.69v20.561l-4.988,2.88-4.989-2.88V85.69L185.527,75.41V69.65l1.6-.925h0l3.387-1.955,3.387,1.955h0l14.419,8.325Zm-186.014,0V60.511l8.863,5.117-5.364,3.1-3.5,2.02Zm59.52,0V60.511l8.863,5.117-5.364,3.1-3.5,2.02Zm59.52,0V60.511l8.863,5.117-5.364,3.1-3.5,2.02Zm59.52,0V60.511l8.863,5.117-5.364,3.1-3.5,2.02Zm-195.991,0-5.364-3.1,8.863-5.117V70.745Zm59.52,0-5.364-3.1,8.863-5.117V70.745Zm59.521,0-5.364-3.1,8.863-5.117V70.745Zm59.52,0-5.364-3.1,8.863-5.117V70.745ZM77.326,49.588l4.989,2.88v5.76L64.509,68.508V89.069l-4.989,2.88-4.988-2.88V68.508L36.726,58.228v-5.76l4.988-2.88L59.52,59.868Zm59.52,0,4.988,2.88v5.76l-17.806,10.28V89.069l-4.988,2.88-4.989-2.88V68.508L96.246,58.228v-5.76l4.988-2.88,17.806,10.28Zm59.52,0,4.988,2.88v5.76L183.55,68.508V89.069l-4.988,2.88-4.989-2.88V68.508l-17.806-10.28v-5.76l4.989-2.88,17.806,10.28ZM6.966,43.329l8.863,5.117L6.966,53.563Zm36.726,5.117,8.863-5.117V53.563Zm22.794-5.117,8.863,5.117-8.863,5.117Zm36.726,5.117,8.863-5.117V53.563Zm22.795-5.117,8.863,5.117-8.863,5.117Zm36.726,5.117,8.864-5.117V53.563Zm22.795-5.117,8.863,5.117-8.863,5.117Zm36.726,5.117,8.863-5.117V53.563ZM44.179,34.361l3.387-1.955,3.387,1.955h0l1.6.925v5.76L34.749,51.326V71.887l-4.988,2.88-4.989-2.88V51.326L6.966,41.046v-5.76l1.6-.925h0l3.387-1.955,3.387,1.955L29.76,42.686Zm59.52,0,3.387-1.955,3.387,1.955h0l1.6.925v5.76L94.269,51.326V71.887l-4.988,2.88-4.989-2.88V51.326L66.486,41.046v-5.76l1.6-.925h0l3.387-1.955,3.387,1.955,14.419,8.325Zm59.52,0,3.387-1.955,3.387,1.955h0l1.6.925v5.76L153.79,51.326V71.887l-4.989,2.88-4.988-2.88V51.326l-17.806-10.28v-5.76l1.6-.925h0l3.387-1.955,3.387,1.955L148.8,42.686Zm59.52,0,3.387-1.955,3.387,1.955h0l1.6.925v5.76L213.31,51.326V71.887l-4.988,2.88-4.989-2.88V51.326l-17.806-10.28v-5.76l1.6-.925h0l3.387-1.955,3.387,1.955h0l14.419,8.325Zm-186.014,0V26.147l8.863,5.117-5.364,3.1-3.5,2.02Zm59.52,0V26.147l8.863,5.117-5.364,3.1-3.5,2.02Zm59.52,0V26.147l8.863,5.117-5.364,3.1-3.5,2.02Zm59.52,0V26.147l8.863,5.117-5.364,3.1-3.5,2.02Zm-195.991,0-5.364-3.1,8.863-5.117V36.381Zm59.52,0-5.364-3.1,8.863-5.117V36.381Zm59.521,0-5.364-3.1,8.863-5.117V36.381Zm59.52,0-5.364-3.1,8.863-5.117V36.381ZM77.326,15.224l4.989,2.88v5.76L64.509,34.144V54.7l-4.989,2.88L54.532,54.7V34.144L36.726,23.864V18.1l4.988-2.88L59.52,25.5Zm59.52,0,4.988,2.88v5.76l-17.806,10.28V54.7l-4.988,2.88-4.989-2.88V34.144L96.246,23.864V18.1l4.988-2.88L119.041,25.5Zm59.52,0,4.988,2.88v5.76L183.55,34.144V54.7l-4.988,2.88-4.989-2.88V34.144l-17.806-10.28V18.1l4.989-2.88L178.561,25.5ZM6.966,8.965l8.863,5.117L6.966,19.2Zm36.726,5.117,8.863-5.117V19.2ZM66.486,8.965l8.863,5.117L66.486,19.2Zm36.726,5.117,8.863-5.117V19.2Zm22.795-5.117,8.863,5.117L126.006,19.2Zm36.726,5.117L171.6,8.965V19.2Zm22.795-5.117,8.863,5.117L185.527,19.2Zm36.726,5.117,8.863-5.117V19.2ZM229.515,0l1.6.925v5.76L213.31,16.962v20.56l-4.988,2.88-4.989-2.88V16.962L185.527,6.682V.922l1.6-.925H183.55V20.34l-4.988,2.88-4.989-2.88V0h-3.579l1.6.925v5.76L153.79,16.962v20.56L148.8,40.4l-4.988-2.88V16.962L126.006,6.682V.922l1.6-.925h-3.579V20.34l-4.988,2.88-4.989-2.88V0h-3.578l1.6.925v5.76L94.269,16.962v20.56L89.281,40.4l-4.989-2.88V16.962L66.486,6.682V.922L68.088,0H64.509V20.34l-4.989,2.88-4.988-2.88V0H50.953l1.6.925v5.76L34.749,16.962v20.56L29.76,40.4l-4.989-2.88V16.962L6.966,6.682V.922L8.567,0H4.988V20.34L0,23.221V25.5l17.806-10.28,4.988,2.88v5.76L4.988,34.144V54.7L0,57.585v2.283l17.806-10.28,4.988,2.88v5.76L4.988,68.508V89.069L0,91.949v2.283l17.806-10.28,4.988,2.88v5.76L4.988,102.872v20.561L0,126.313V128.6l17.806-10.28,4.988,2.88v5.76L4.988,137.236V157.8L0,160.677v2.283l17.806-10.28,4.988,2.88v5.76L4.988,171.6v20.561L0,195.041v2.283l17.806-10.28,4.988,2.88v5.76L4.988,205.965v.217H8.567l3.387-1.956,3.387,1.956H19.3l-5.364-3.1,8.863-5.117v8.215h1.977v-17.4L6.966,178.5v-5.76l1.6-.925h0l3.387-1.955,3.387,1.955,14.419,8.325,14.419-8.325,3.387-1.955,3.387,1.955h0l1.6.925v5.76L34.749,188.783v17.4h1.977v-8.214l8.863,5.117-5.364,3.1h3.955l3.387-1.956,3.387,1.956h3.579v-.217l-17.806-10.28v-5.76l4.988-2.88,17.806,10.28,17.806-10.28,4.989,2.88v5.76l-17.806,10.28v.217h3.579l3.387-1.956,3.387,1.956h3.954l-5.364-3.1,8.863-5.117v8.215h1.977v-17.4L66.486,178.5v-5.76l1.6-.925h0l3.387-1.955,3.387,1.955,14.419,8.325,14.419-8.325,3.387-1.955,3.387,1.955h0l1.6.925v5.76L94.269,188.783v17.4h1.977v-8.214l8.863,5.117-5.364,3.1H103.7l3.387-1.956,3.387,1.956h3.579v-.217l-17.806-10.28v-5.76l4.988-2.88,17.806,10.28,17.806-10.28,4.988,2.88v5.76l-17.806,10.28v.217h3.579l3.387-1.956,3.387,1.956h3.955l-5.364-3.1,8.863-5.117v8.215h1.977v-17.4L126.006,178.5v-5.76l1.6-.925h0l3.387-1.955,3.387,1.955,14.419,8.325,14.419-8.325,3.387-1.955,3.387,1.955h0l1.6.925v5.76L153.79,188.783v17.4h1.977v-8.214l8.863,5.117-5.364,3.1h3.954l3.387-1.956,3.387,1.956h3.579v-.217l-17.806-10.28v-5.76l4.989-2.88,17.806,10.28,17.806-10.28,4.988,2.88v5.76l-17.806,10.28v.217h3.579l3.387-1.956,3.387,1.956h3.954l-5.364-3.1,8.863-5.117v8.215h1.977v-17.4L185.527,178.5v-5.76l1.6-.925h0l3.387-1.955,3.387,1.955h0l14.419,8.325,14.419-8.325,3.387-1.955,3.387,1.955h0l1.6.925v5.76L213.31,188.783v17.4h1.977v-8.214l8.863,5.117-5.364,3.1h3.955l3.387-1.956,3.387,1.956h3.579v-.217l-17.806-10.28v-5.76l4.988-2.88,17.806,10.28v-2.283l-4.988-2.88V171.6l-17.806-10.28v-5.76l4.988-2.88,17.806,10.28v-2.283l-4.988-2.88V137.236l-17.806-10.28V121.2l4.988-2.88,17.806,10.28v-2.283l-4.988-2.88V102.872l-17.806-10.28v-5.76l4.988-2.88,17.806,10.28V91.949l-4.988-2.88V68.508l-17.806-10.28v-5.76l4.988-2.88,17.806,10.28V57.585l-4.988-2.88V34.144l-17.806-10.28V18.1l4.988-2.88L238.081,25.5V23.221l-4.988-2.88V0Z" transform="translate(0 0.003)" fill="#3e3b46"/>
    <path id="Path_12728" data-name="Path 12728" d="M1002.208,0l-3.5,2.02V0h-1.977V3.159l-4.989,2.88-4.989-2.88V0h-1.977v2.02L981.278,0h-3.954l14.419,8.325L1006.162,0Z" transform="translate(-783.422 0.003)" fill="#3e3b46"/>
    <path id="Path_12729" data-name="Path 12729" d="M702.207,0l-3.5,2.02V0h-1.977V3.159l-4.989,2.88-4.989-2.88V0h-1.977v2.02L681.278,0h-3.955l14.419,8.325L706.161,0Z" transform="translate(-542.942 0.003)" fill="#3e3b46"/>
    <path id="Path_12730" data-name="Path 12730" d="M402.208,0l-3.5,2.02V0h-1.977V3.159l-4.989,2.88-4.988-2.88V0h-1.977v2.02L381.279,0h-3.954l14.419,8.325L406.162,0Z" transform="translate(-302.463 0.003)" fill="#3e3b46"/>
    <path id="Path_12731" data-name="Path 12731" d="M102.207,0l-3.5,2.02V0H96.731V3.159l-4.989,2.88-4.989-2.88V0H84.777v2.02L81.278,0H77.324L91.743,8.322,106.162,0Z" transform="translate(-61.983 0.003)" fill="#3e3b46"/>
  </g>
</svg>
