<svg xmlns="http://www.w3.org/2000/svg" xmlns:xlink="http://www.w3.org/1999/xlink" width="1269.75" height="299" viewBox="0 0 1269.75 299">
  <defs>
    <clipPath id="clip-path">
      <rect id="Rectangle_336" data-name="Rectangle 336" width="1269.75" height="299" transform="translate(190 126)" fill="#242f5d"/>
    </clipPath>
    <clipPath id="clip-path-2">
      <rect id="Rectangle_686" data-name="Rectangle 686" width="1269.75" height="652.054" fill="#3f64ee" stroke="#3f64ee" stroke-width="1"/>
    </clipPath>
  </defs>
  <g id="Group_2820" data-name="Group 2820" transform="translate(-509 -2274)">
    <g id="Mask_Group_15" data-name="Mask Group 15" transform="translate(319 2148)" clip-path="url(#clip-path)">
      <g id="Group_2816" data-name="Group 2816" transform="translate(190 -158.824)">
        <g id="Group_2815" data-name="Group 2815" clip-path="url(#clip-path-2)">
          <path id="Path_4956" data-name="Path 4956" d="M0,23.694v2.032q15.068,8.537,30.143,17.05c.719.4,1.375.927,2.465,1.675-1.267.724-2.16,1.249-3.052,1.759Q14.776,54.522,0,62.841v2.083q14.922-8.779,29.825-17.593c.989-.587,1.98-1.148,3.343-1.931.1,1.419.216,2.346.2,3.273-.179,16.681-.433,33.362-.521,50.037a4.906,4.906,0,0,1-2.787,4.831Q14.993,112.313,0,121.213v1.276q15.406-8.656,30.792-17.363a4.9,4.9,0,0,1,5.592-.084c14.583,8.351,29.231,16.575,43.854,24.844.73.413,1.412.92,2.642,1.715-2.536,1.461-4.557,2.65-6.6,3.8-13.243,7.441-26.508,14.843-39.711,22.357-1.982,1.123-3.491,1.32-5.581.11Q15.539,149.011,0,140.293v1.494c12.524,7.172,28.34,16.6,32.57,19.61q.252,27.693.514,55.74C31.434,216.81,13.808,206.758,0,198.529v1.8q14.631,8.289,29.273,16.555c.9.512,1.763,1.1,2.995,1.867-1.114.748-1.847,1.32-2.644,1.77Q14.814,228.846,0,237.174v1.671q14.674-8.633,29.326-17.3c.993-.589,1.995-1.15,3.372-1.946.095,1.386.225,2.311.212,3.229-.174,16.789-.4,33.574-.541,50.364-.015,1.876-.375,3.165-2.163,4.215Q15.079,286.217,0,295.136V296.8q15.436-8.653,30.84-17.357a4.412,4.412,0,0,1,5.012-.1c14.664,8.392,29.392,16.67,44.1,24.99.724.406,1.4.894,2.379,1.538-.956.642-1.589,1.161-2.3,1.556Q57.8,319.936,35.563,332.449a3.933,3.933,0,0,1-4.442.093Q15.589,323.673,0,314.9v1.589q15.085,8.938,30.176,17.849a3.4,3.4,0,0,1,1.991,3.288c.11,17.456.3,34.907.444,52.365.007.422-.075.845-.185,2.008L0,372.776v1.982q14.869,8.421,29.735,16.84c.616.349,1.15.852,1.973,1.45-1.073.689-1.827,1.242-2.633,1.693Q14.533,402.92,0,411.1v1.938q10.649-6.25,21.3-12.495c3.52-2.063,7.079-4.085,11.166-6.439.049,1.483.135,2.518.124,3.557-.188,16.578-.428,33.166-.525,49.752a4.932,4.932,0,0,1-2.783,4.844Q14.6,460.8,0,469.483v1.247q15.452-8.673,30.891-17.363a3.489,3.489,0,0,1,3.877-.172q22.87,13.009,45.778,25.948a14.453,14.453,0,0,1,1.415,1.114c-1.331.764-2.249,1.3-3.182,1.825-14.351,8.073-28.737,16.1-43.033,24.268a5.135,5.135,0,0,1-5.883-.035Q14.973,497.764,0,489.35v1.6q14.687,8.706,29.381,17.4c1.452.858,2.467,1.644,2.474,3.665.064,17.328.271,34.669.422,52.008.011.53-.064,1.061-.124,1.911a12.82,12.82,0,0,1-2.07-.719Q15.035,556.313,0,547.4v2q14.4,8.16,28.8,16.293c.8.461,1.545,1.033,2.695,1.8-1.289.75-2.189,1.278-3.1,1.785Q14.2,577.249,0,585.234v1.684q15.068-8.865,30.125-17.749a18.6,18.6,0,0,1,1.887-.8c.053,1.3.128,2.149.128,2.99q-.291,25.369-.561,50.732c-.015,1.752-.366,2.959-2.05,3.941Q14.739,634.661,0,643.388v1.518q15.148-8.52,30.282-17.056c1.419-.8,2.6-1.125,4.173-.227Q56,639.893,77.609,652.054h2.9c-8.743-4.491-42.165-24.1-46.839-27.554q-.238-27.706-.5-55.759c2.558.64,43.677,24.688,48.808,28.483q.252,27.243.505,54.83h1.114c-.049-.79-.088-1.452-.079-2.094.181-16.584.439-33.171.5-49.755a5.117,5.117,0,0,1,3.006-5.058c14.344-8.337,28.618-16.812,42.916-25.228.8-.468,1.66-.847,2.869-1.463.066,1.386.168,2.417.157,3.445-.183,16.589-.415,33.173-.523,49.757a4.926,4.926,0,0,1-2.719,4.881c-14.34,8.353-28.607,16.838-42.891,25.275-.135.079-.271.161-.408.241h1.465q21.483-12.046,42.938-24.138c1.644-.925,2.944-1.2,4.731-.174,14.263,8.161,28.585,16.213,42.88,24.312h2.147c-15.668-9.284-30.825-18.27-46.083-27.311-.174-18.645-.34-37.233-.51-55.9,2.54.675,44.646,25.347,48.691,28.47.161,17.961.324,36.035.494,54.738h1.17a8.666,8.666,0,0,1-.132-1.393q.271-25.664.558-51.328a3.459,3.459,0,0,1,1.743-3.462q14.2-8.319,28.355-16.7v.011l12.539-7.4,4.127-2.43c.362-.207.779-.406,1.245-.625.126-.046.236-.086.406-.15a18.06,18.06,0,0,1,.256,2.428c-.179,17-.4,34-.549,51a3.931,3.931,0,0,1-2.083,3.935c-5.433,3.158-10.846,6.358-16.264,9.547v.174q-13.923,8.193-27.837,16.394h2.269q13.638-7.67,27.281-15.337,7.832-4.386,15.659-8.783a7.986,7.986,0,0,1,.883-.426,4.706,4.706,0,0,1,.523-.177c.042-.013.086-.02.13-.031a3.413,3.413,0,0,1,1.487-.015,4.737,4.737,0,0,1,1.092.457c14.274,8.154,28.6,16.218,42.914,24.312h2.472q-22.152-13.092-44.28-26.208a3.192,3.192,0,0,1-1.889-3.026q-.162-26.485-.421-52.97a10.349,10.349,0,0,1,.2-1.322c.986.494,1.788.863,2.5,1.3q21.682,12.82,43.359,25.667c1.463.865,2.456,1.666,2.463,3.677.066,17.334.269,34.676.421,52.01,0,.274-.015.556-.042.876h1.534a7.949,7.949,0,0,1-.119-1.324q.275-25.661.554-51.33a3.488,3.488,0,0,1,1.757-3.458q22.8-13.347,45.537-26.81c.2-.1.448-.207.744-.327.113-.04.243-.086.391-.141.071,1.1.152,1.915.143,2.708-.188,16.9-.406,33.784-.565,50.684-.015,1.739-.313,2.975-2.017,3.966-14.777,8.622-29.49,17.348-44.233,26.034h1.942c14.216-8,28.448-15.966,42.635-24.019a5.258,5.258,0,0,1,4.1-.613,6.241,6.241,0,0,1,.892.395c14.223,8.136,28.512,16.167,42.781,24.237h3.286c-7.971-3.926-39.169-22.161-46.965-27.528q-.245-27.733-.5-55.477c1.5.53,6.631,3.29,13.142,6.974,10.361,6.142,20.537,12.173,30.747,18.222,1.763,1.112,3.288,2.1,4.464,2.9.172,18.153.342,36.509.51,54.914h1.487a10.179,10.179,0,0,1-.137-1.476c.185-17.021.406-34.033.563-51.048a4.377,4.377,0,0,1,.956-3.087c.066-.064.126-.135.2-.2a5.15,5.15,0,0,1,.563-.432c.207-.141.4-.285.638-.419q18.56-10.838,37.081-21.755c2.134-1.253,4.228-2.575,6.371-3.829.711-.417,1.505-.772,2.48-1.245.053-.02.113-.046.17-.068.053,1.225.121,2.048.121,2.86q-.288,25.369-.558,50.732c-.015,1.752-.368,2.959-2.052,3.941-14.768,8.62-29.485,17.343-44.22,26.023h2.328q21.483-12.109,42.971-24.2a8.2,8.2,0,0,1,.936-.452c.077-.031.152-.055.227-.079a4.356,4.356,0,0,1,.486-.124,3.034,3.034,0,0,1,1.1-.02,4.156,4.156,0,0,1,1.095.448q21.546,12.271,43.154,24.432h3.222c-3.641-1.869-11.559-6.36-19.9-11.215v0q-6.647-3.939-13.311-7.843c-5.608-3.354-10.315-6.243-12.627-7.794a4.258,4.258,0,0,1-1.017-2.008q-.228-26.644-.483-53.606c.013-.236.026-.45.04-.706,2.114.9,10.721,5.744,20.144,11.219l7.256,4.3v-.057c9.732,5.731,18.8,11.23,21.035,12.883q.251,27.243.505,54.83h1.441c-.051-.79-.088-1.452-.082-2.094.181-16.584.441-33.171.5-49.755a5.116,5.116,0,0,1,3.006-5.058c14.344-8.337,28.616-16.812,42.916-25.228.722-.426,1.512-.783,2.551-1.306.068,1.3.159,2.3.148,3.288-.181,16.589-.413,33.173-.521,49.757a4.927,4.927,0,0,1-2.721,4.881c-14.34,8.353-28.6,16.838-42.892,25.275-.135.079-.271.161-.408.241h1.79q21.487-12.046,42.938-24.138a5.7,5.7,0,0,1,2.218-.794,4.205,4.205,0,0,1,2.189.62c14.265,8.161,28.585,16.213,42.88,24.312h2.472c-15.666-9.284-30.822-18.27-46.083-27.311-.174-18.6-.34-37.152-.508-55.773,4.628,1.966,44.436,25.314,48.367,28.346.159,17.961.322,36.035.492,54.738H587.5a8.672,8.672,0,0,1-.132-1.393q.271-25.664.561-51.328a3.457,3.457,0,0,1,1.741-3.462q22.847-13.39,45.632-26.883a8.189,8.189,0,0,1,1.039-.413l.007.04c.068,1.068.159,1.876.148,2.657-.188,16.9-.417,33.791-.547,50.686a4.187,4.187,0,0,1-2.284,4.142c-14.735,8.6-29.421,17.3-44.125,25.954h2.593q21.42-12.043,42.841-24.085a5.143,5.143,0,0,1,2.171-.739,3.974,3.974,0,0,1,1.949.567c14.238,8.132,28.536,16.18,42.819,24.257h2.467q-22-13.009-43.975-26.025a3.442,3.442,0,0,1-2.11-3.233c-.1-17.551-.276-35.1-.421-52.65a15.369,15.369,0,0,1,.188-1.633c1.161.616,2.037,1.059,2.86,1.549,14.274,8.452,28.51,16.939,42.817,25.323a4.641,4.641,0,0,1,2.675,4.548c.064,16.695.256,33.376.4,50.068.009.642-.024,1.293-.06,2.052H688.3a9.359,9.359,0,0,1-.1-1.359c.179-17,.4-34,.561-51,.009-1.609.225-2.814,1.81-3.743q22.721-13.294,45.363-26.711a11.3,11.3,0,0,1,1.26-.554c.064,1.081.143,1.794.137,2.487-.194,17.012-.422,34.009-.563,51.01a3.924,3.924,0,0,1-2.09,3.919c-14.726,8.6-29.4,17.3-44.094,25.954h1.931c14.106-7.927,28.229-15.814,42.285-23.827a5,5,0,0,1,5.85-.071c13.993,8.055,28.079,15.949,42.135,23.9H786c-8.32-4.186-40.146-22.821-46.828-27.5-.17-18.1-.335-36.421-.51-55.545a77.637,77.637,0,0,1,7.728,3.935c13.548,8.031,26.724,15.843,40.007,23.712l.625.417q.248,27.445.505,54.983h1.49a3.71,3.71,0,0,1-.143-.931c.174-17.339.413-34.678.538-52.021.018-1.962,1-2.847,2.485-3.707q18.56-10.838,37.081-21.755c2.134-1.253,4.228-2.575,6.371-3.829.717-.419,1.514-.775,2.494-1.251.077,1.211.174,2.107.166,2.988q-.285,25.207-.558,50.406a5.389,5.389,0,0,1-.53,2.747l-.037.053a3.263,3.263,0,0,1-.558.66,4.72,4.72,0,0,1-.647.492c-.044.026-.077.057-.124.084-14.8,8.635-29.554,17.363-44.31,26.065h2.344q21.526-12.129,43.057-24.246a4.678,4.678,0,0,1,1.929-.664,3.377,3.377,0,0,1,1.631.457q13.178,7.511,26.387,14.966v-.139q8.5,4.806,17,9.626h2.9c-3.593-1.845-11.352-6.245-19.572-11.025v-.194q-11.622-6.892-23.282-13.72c-.6-.377-1.143-.722-1.637-1.039a4.793,4.793,0,0,1-2.209-4.453c-.051-16.6-.254-33.186-.395-49.775-.013-.914.062-1.832.124-2.97,1.3.549,5.027,2.582,9.886,5.329Q858,579.3,866.6,584.4v-.192l.324.192v-.057c9.734,5.731,18.8,11.23,21.035,12.883q.255,27.243.508,54.83h1.114c-.049-.79-.088-1.452-.079-2.094.181-16.584.439-33.171.5-49.755A5.117,5.117,0,0,1,893,595.147c14.344-8.337,28.618-16.812,42.916-25.228.8-.468,1.657-.847,2.867-1.463.068,1.386.168,2.417.157,3.445-.181,16.589-.413,33.173-.521,49.757a4.929,4.929,0,0,1-2.719,4.881c-14.342,8.353-28.607,16.838-42.891,25.275-.135.079-.271.161-.41.241h1.468q21.483-12.046,42.938-24.138c1.644-.925,2.944-1.2,4.731-.174,14.263,8.161,28.583,16.213,42.88,24.312h2.147c-15.668-9.284-30.825-18.27-46.083-27.311-.174-18.645-.342-37.233-.51-55.9,2.54.675,44.646,25.347,48.691,28.47.161,17.961.324,36.035.494,54.738h1.17a8.672,8.672,0,0,1-.133-1.393q.271-25.664.558-51.328a3.456,3.456,0,0,1,1.743-3.462q22.847-13.39,45.632-26.883a14.332,14.332,0,0,1,1.357-.532c.068,1.161.17,1.993.159,2.816-.188,16.9-.417,33.791-.545,50.686a4.194,4.194,0,0,1-2.284,4.142c-14.737,8.6-29.421,17.3-44.125,25.954h2.269q21.417-12.043,42.841-24.085a3.954,3.954,0,0,1,4.444-.172c14.238,8.132,28.534,16.18,42.817,24.257h2.143q-21.993-13.009-43.975-26.025a3.446,3.446,0,0,1-2.11-3.233c-.1-17.551-.276-35.1-.422-52.65,0-.415.1-.83.21-1.794,1.322.706,2.266,1.176,3.162,1.71,14.273,8.452,28.512,16.939,42.818,25.323a4.639,4.639,0,0,1,2.672,4.548c.064,16.695.258,33.376.406,50.068.009.642-.024,1.293-.059,2.052h1.223a9.377,9.377,0,0,1-.1-1.359c.179-17,.4-34,.561-51,.009-1.609.223-2.814,1.81-3.743q22.721-13.294,45.363-26.711a16.424,16.424,0,0,1,1.576-.684c.064,1.161.15,1.9.143,2.617-.194,17.012-.419,34.009-.561,51.01a3.926,3.926,0,0,1-2.092,3.919c-14.726,8.6-29.4,17.3-44.092,25.954h1.606c14.1-7.927,28.23-15.814,42.285-23.827a5.414,5.414,0,0,1,6.172-.071c13.993,8.055,28.079,15.949,42.135,23.9h2.9c-8.318-4.186-40.146-22.821-46.826-27.5-.174-18.367-.342-36.955-.519-56.386,16.655,9.871,32.57,19.305,48.691,28.858q.248,27.465.505,55.029h1.165a3.713,3.713,0,0,1-.143-.931c.177-17.339.415-34.678.541-52.021.018-1.962,1-2.847,2.485-3.707q18.56-10.838,37.081-21.755c2.134-1.253,4.228-2.575,6.371-3.829.8-.466,1.66-.836,2.807-1.4.079,1.293.185,2.22.174,3.138q-.282,25.207-.558,50.406c-.018,1.682-.15,3.014-1.894,4.036-14.805,8.635-29.556,17.363-44.31,26.065h2.017q21.53-12.129,43.057-24.246a3.522,3.522,0,0,1,3.884-.207q13.178,7.511,26.389,14.966v-1.732q-12.172-7.216-24.385-14.368a4.885,4.885,0,0,1-2.745-4.844c-.048-16.6-.254-33.186-.393-49.775-.016-1.042.084-2.07.15-3.447,1.174.591,2.028.971,2.831,1.45q12.271,7.266,24.542,14.547v-1.871q-12.592-7.13-25.184-14.249c-.375-.2-.7-.49-1.37-.962a17.484,17.484,0,0,1,1.971-1.54q12.288-6.922,24.584-13.828v-1.573q-12.959,7.637-25.919,15.26a11.041,11.041,0,0,1-1.342.5c-.053-1.181-.141-2.01-.128-2.847.183-16.889.406-33.786.554-50.679.013-1.763.377-2.964,2.052-3.941q12.41-7.246,24.782-14.567v-1.823q-12.506,7.028-24.963,14.117a5.124,5.124,0,0,1-5.881-.026c-14.371-8.256-28.832-16.357-43.249-24.529-.823-.459-1.6-1.006-2.721-1.73.81-.576,1.344-1.033,1.938-1.366q22.519-12.662,45.036-25.328a3.689,3.689,0,0,1,4.16-.013q12.824,7.292,25.681,14.538v-1.715c-8.893-5.265-17.721-10.491-26.588-15.75-.168-18.6-.338-37.194-.519-56.609,9.2,5.455,18.193,10.787,27.106,16.072v-1.863q-12.023-6.8-24.052-13.6c-.631-.362-1.2-.823-2.322-1.587,1.335-.77,2.156-1.253,2.981-1.715q11.7-6.581,23.392-13.153v-1.788q-11.639,6.862-23.273,13.735c-1.013.6-2.043,1.174-3.615,2.081-.086-1.534-.185-2.467-.168-3.4.177-16.688.419-33.374.519-50.068a4.938,4.938,0,0,1,2.794-4.853q11.89-6.928,23.743-13.938v-1.43q-12.552,7.047-25.1,14.106a3.948,3.948,0,0,1-4.44.161c-14.955-8.536-29.964-16.973-44.953-25.456-.538-.3-1.024-.7-1.84-1.267.978-.662,1.695-1.231,2.483-1.686q22.1-12.42,44.2-24.838a3.959,3.959,0,0,1,4.44-.188q12.582,7.193,25.2,14.309v-1.732q-12.046-7.137-24.1-14.256a3.915,3.915,0,0,1-2.2-3.829c-.093-17-.278-34.014-.421-51.026-.007-.821.1-1.637.192-2.845,1.227.636,2.169,1.057,3.057,1.584q11.735,6.955,23.483,13.894v-1.84q-11.553-6.534-23.114-13.058c-.821-.472-1.6-1.02-2.714-1.737.794-.569,1.319-1.039,1.918-1.377q11.95-6.72,23.911-13.439v-1.525q-11.606,6.852-23.2,13.713c-.909.536-1.819,1.044-3.088,1.779a25.579,25.579,0,0,1-.326-2.829c.181-17.019.4-34.033.558-51.054.013-1.737.346-2.977,2.035-3.963q12.033-7.018,24.017-14.095v-1.657q-12.37,6.948-24.727,13.914a3.961,3.961,0,0,1-4.447.11c-14.967-8.543-29.977-16.992-44.981-25.484-.549-.3-1.037-.7-1.966-1.342,1.143-.737,1.829-1.238,2.56-1.648,14.364-8.086,28.761-16.105,43.07-24.29,2.425-1.39,4.233-1.54,6.751-.082q11.828,6.836,23.741,13.526v-1.768c-8.62-5.109-17.173-10.18-25.8-15.289q-.261-27.826-.519-55.788c1.565.3,14.029,7.276,26.316,14.49V59.023Q1257.974,52.36,1246.2,45.69c-.541-.3-1.022-.7-1.807-1.251a19.724,19.724,0,0,1,1.682-1.22q11.837-6.67,23.679-13.3V28.062q-11.553,6.776-23.105,13.552c-.83.485-1.666.964-2.787,1.609a13.974,13.974,0,0,1-.391-2.33q.212-20.447.435-40.892h-1.845c.13,14.282.258,28.706.388,43.542-16.589-9.836-32.564-19.305-48.682-28.852Q1193.7,7.339,1193.628,0H1191.8c-.042,4.016-.091,8.033-.121,12.049a4.185,4.185,0,0,1-2.253,4.16c-14.7,8.593-29.335,17.286-44,25.943-.633.377-1.322.669-2.218,1.121a8.442,8.442,0,0,1-.448-1.863Q1142.976,20.7,1143.2,0h-1.841c.13,14.309.263,28.752.4,43.646-16.666-9.884-32.6-19.323-48.814-28.929q-.07-7.349-.137-14.717h-1.823q-.073,6.154-.137,12.307c-.018,1.5-.278,2.615-1.735,3.471q-22.874,13.383-45.69,26.874a10.562,10.562,0,0,1-1.348.461c-.051-1.309-.139-2.249-.126-3.193q.225-19.957.441-39.921h-1.854c.128,14.324.261,28.662.386,43.309-1.441-.757-2.381-1.2-3.268-1.724-14.28-8.456-28.53-16.953-42.85-25.336a4.668,4.668,0,0,1-2.657-4.559c-.011-3.9-.051-7.794-.075-11.689h-1.787c-.042,4.016-.1,8.037-.132,12.054-.02,1.772-.4,2.962-2.072,3.93Q965.63,29.1,943.271,42.368c-.457.271-.96.461-1.8.858-.086-1.114-.225-2.019-.216-2.926q.228-20.149.45-40.3H939.85q.142,20.328.351,40.645c0,.722-.1,1.445-.185,2.688-1.326-.7-2.185-1.128-3.006-1.615q-21.536-12.761-43.09-25.5a4.381,4.381,0,0,1-2.591-4.275c-.009-3.983-.051-7.964-.075-11.948h-1.8c-.042,3.983-.093,7.964-.128,11.948a3.94,3.94,0,0,1-2.074,3.937c-14.534,8.481-29.015,17.048-43.507,25.581-.086.049-.168.1-.252.148-.388.227-.781.455-1.2.7-.353.194-.746.364-1.322.625a10.377,10.377,0,0,1-.333-2.041q.212-20.447.437-40.892H838.9c.13,14.221.258,28.58.388,43.348-16.472-9.765-32.345-19.175-48.356-28.658Q790.869,7.339,790.8,0h-2.152c-.042,4.016-.09,8.033-.121,12.049a4.185,4.185,0,0,1-2.253,4.16c-14.675,8.582-29.293,17.259-43.933,25.906-.565.318-1.181.594-2.008.986a6.631,6.631,0,0,1-.4-1.69Q740.145,20.7,740.368,0H738.2c.128,14.247.263,28.627.4,43.454-16.547-9.814-32.385-19.195-48.488-28.737Q690.043,7.369,689.976,0h-2.149q-.069,6.154-.135,12.307a4.446,4.446,0,0,1-.525,2.277,3.409,3.409,0,0,1-.455.6c-.075.073-.179.137-.263.207a5.373,5.373,0,0,1-.649.477q-22.526,13.185-45,26.468c-.309.154-.664.333-1.05.514-.137.04-.313.095-.514.159-.055-1.251-.135-2.171-.121-3.09q.225-19.957.439-39.921h-2.176c.126,14.117.254,28.249.38,42.671,0,.154-.009.3-.013.459-1.24-.644-2.114-1.066-2.926-1.545-14.278-8.456-28.527-16.953-42.85-25.336a4.67,4.67,0,0,1-2.655-4.559c-.011-3.9-.051-7.794-.075-11.689h-2.114c-.042,4.016-.1,8.037-.132,12.054-.02,1.772-.4,2.962-2.07,3.93Q562.472,29.1,540.116,42.368c-.391.23-.856.426-1.494.717-.086-1.046-.21-1.922-.2-2.785q.225-20.149.448-40.3H536.7q.142,20.328.349,40.645c0,.686-.088,1.388-.172,2.525-1.141-.6-1.944-1.006-2.694-1.452q-21.533-12.761-43.09-25.5a4.379,4.379,0,0,1-2.589-4.275c-.011-3.983-.051-7.964-.075-11.948H486.3c-.042,3.983-.093,7.964-.128,11.948a3.941,3.941,0,0,1-2.072,3.937c-14.971,8.735-29.887,17.564-44.818,26.351-.386.227-.814.4-1.465.7-.046-.236-.09-.435-.135-.647-.048-.856-.09-1.5-.084-2.141q.225-20.073.437-40.146h-2.176c.13,14.249.26,28.554.393,43.306-16.5-9.785-32.321-19.151-48.362-28.664Q387.82,7.333,387.751,0H385.6c-.038,3.952-.086,7.9-.11,11.855a4.452,4.452,0,0,1-2.419,4.407c-14.607,8.523-29.15,17.165-43.717,25.762-.609.36-1.273.644-2.183,1.077-.068-.247-.139-.468-.205-.689-.044-.9-.084-1.556-.077-2.209q.238-20.106.439-40.2h-2.178c.13,14.3.263,28.633.391,43.408-16.611-9.847-32.519-19.285-48.484-28.748-.044-4.895-.09-9.772-.135-14.66H284.78c-.042,4.025-.09,8.053-.121,12.078a3.936,3.936,0,0,1-2.149,3.893Q260.337,28.93,238.245,42.024c-.541.324-1.163.6-1.964.978-.095-1.145-.221-2.028-.207-2.909.146-13.364.313-26.729.435-40.093h-2.123q.152,19.669.3,39.336c0,1.095-.051,2.2-.1,3.794-.124-.066-.23-.119-.346-.179L214.866,31.52v.1q-13.009-7.716-26.049-15.375a4.672,4.672,0,0,1-2.657-4.559c-.011-3.9-.051-7.794-.075-11.689H184.3c-.042,4.016-.1,8.037-.132,12.054-.02,1.772-.4,2.962-2.072,3.93Q159.643,29.1,137.283,42.368c-.457.271-.958.461-1.8.858-.086-1.114-.225-2.019-.216-2.926q.228-20.149.45-40.3h-1.849q.142,20.328.349,40.645c0,.722-.1,1.445-.185,2.688-1.326-.7-2.185-1.128-3.006-1.615q-21.533-12.761-43.09-25.5a4.381,4.381,0,0,1-2.591-4.275C85.333,7.964,85.293,3.983,85.267,0h-1.8c-.042,3.983-.093,7.964-.128,11.948a3.94,3.94,0,0,1-2.074,3.937C66.292,24.619,51.377,33.449,36.448,42.236c-.466.274-.969.461-1.882.889-.06-1.311-.137-2.145-.126-2.979Q34.665,20.073,34.874,0H33.023c.132,14.311.263,28.68.4,43.5C22.048,36.757,11.01,30.22,0,23.694m34.642,139.64c.011-2,1.079-2.82,2.538-3.67q17.581-10.285,35.132-20.609c3.515-2.066,7.066-4.08,11.067-6.38.082,1.26.19,2.1.181,2.924-.185,16.911-.41,33.819-.549,50.732a4.184,4.184,0,0,1-2.251,4.158c-14.7,8.6-29.337,17.281-43.995,25.932-.636.382-1.324.677-2.218,1.125a8.142,8.142,0,0,1-.446-1.865c.172-17.454.41-34.9.541-52.348m196.982-3.544a3.912,3.912,0,0,1,2.319,3.758c.077,17.12.271,34.241.415,51.352.009.7-.077,1.4-.159,2.527-1.037-.536-1.752-.883-2.412-1.267q-8.461-5.008-16.922-10.028v.095q-13.145-7.8-26.325-15.529a4.873,4.873,0,0,1-2.842-4.789c-.038-16.582-.241-33.162-.38-49.746-.009-1.039.068-2.083.119-3.5,1.068.5,1.836.79,2.531,1.2q13.29,7.862,26.572,15.732v.079q8.537,5.058,17.083,10.109M1142,394.052c1.267.66,2.2,1.1,3.1,1.635,14.276,8.452,28.519,16.959,42.85,25.325a4.85,4.85,0,0,1,2.783,4.815c.051,16.593.254,33.193.4,49.788.007,1.037-.077,2.072-.143,3.5-1.267-.66-2.211-1.1-3.1-1.631-14.278-8.459-28.527-16.959-42.852-25.334a4.85,4.85,0,0,1-2.778-4.815c-.044-16.6-.249-33.193-.391-49.779-.016-1.039.075-2.07.137-3.5m-.007-4.736q.275-25.661.563-51.328a3.464,3.464,0,0,1,1.755-3.454q22.847-13.386,45.639-26.879a11.569,11.569,0,0,1,1.349-.523c.066,1.167.161,2,.148,2.827-.19,16.9-.406,33.793-.558,50.684-.018,1.743-.327,2.968-2.017,3.961-14.971,8.734-29.88,17.573-44.809,26.376-.457.267-.958.472-1.765.876a20.975,20.975,0,0,1-.3-2.54m47.654,30.408c-14.958-8.56-29.982-17-44.979-25.489-.552-.313-1.053-.711-1.874-1.258a20.264,20.264,0,0,1,2.105-1.582c14.737-8.3,29.5-16.553,44.216-24.9a4.452,4.452,0,0,1,5.029-.128c14.772,8.448,29.613,16.781,44.419,25.164.638.358,1.227.812,2.419,1.607-1.406.808-2.3,1.346-3.22,1.849q-21.7,12.2-43.384,24.4c-1.594.909-2.9,1.381-4.732.335m-.154-174.558c-14.481-8.3-29.046-16.467-43.576-24.685-.821-.466-1.6-1.015-2.692-1.721.887-.64,1.5-1.185,2.2-1.582,14.741-8.3,29.5-16.56,44.213-24.915a4.419,4.419,0,0,1,5.023-.06c14.671,8.4,29.419,16.679,44.138,25.01.73.406,1.406.914,2.668,1.75-1.445.834-2.359,1.364-3.277,1.889-14.375,8.061-28.772,16.09-43.105,24.231a4.918,4.918,0,0,1-5.588.084m1.728-58.862c-.013,1.726-.294,2.975-2.006,3.968-14.98,8.741-29.9,17.584-44.847,26.391-.448.267-.947.452-1.734.825a19.881,19.881,0,0,1-.313-2.586c.179-17.014.428-34.036.53-51.052a4.436,4.436,0,0,1,2.582-4.317c14.7-8.584,29.344-17.268,44.008-25.9.543-.322,1.139-.543,2.185-1.026.071,1.3.161,2.134.152,2.968-.185,16.911-.4,33.822-.556,50.73m-.238,62.384c.163,18.447.331,37.019.505,56.307-16.567-9.809-32.535-19.272-48.689-28.839q-.255-27.9-.512-55.848c2.5.534,43.437,24.445,48.7,28.38m-47.57,30.218q22.87,13.016,45.78,25.943a17.774,17.774,0,0,1,1.452,1.119c-1.32.764-2.233,1.3-3.165,1.825-14.353,8.073-28.739,16.1-43.041,24.268a5.117,5.117,0,0,1-5.879-.009c-14.366-8.264-28.825-16.361-43.247-24.524-.823-.463-1.6-1.011-2.725-1.724.8-.583,1.315-1.044,1.909-1.384q22.523-12.652,45.045-25.314a3.482,3.482,0,0,1,3.871-.2M1041.257,393.968c16.509,9.664,32.436,19.208,48.559,28.733.172,18.659.34,37.253.51,56.492-1.633-.916-2.582-1.417-3.5-1.966-14.088-8.351-28.15-16.75-42.291-25-2.083-1.218-2.993-2.476-3-5.016-.009-16.374-.227-32.753-.369-49.132-.011-1.15.049-2.3.09-4.107m-.086-5.38c.181-16.8.4-33.583.554-50.366.018-1.721.278-2.975,1.993-3.977,15.055-8.785,30.054-17.685,45.083-26.546.364-.214.764-.364,1.421-.669a11.012,11.012,0,0,1,.4,2.119c-.174,17.319-.4,34.642-.552,51.964a3.51,3.51,0,0,1-2,3.341q-22.423,13.135-44.809,26.365a20.972,20.972,0,0,1-1.949.872c-.064-1.24-.161-2.169-.148-3.1m47.148,30.858c-14.47-8.3-29.022-16.454-43.54-24.668-.819-.466-1.6-1.009-2.717-1.721.993-.677,1.715-1.247,2.494-1.7q22.1-12.423,44.2-24.842c1.525-.856,2.747-1.15,4.438-.192,14.953,8.545,29.962,16.981,44.948,25.467.545.3,1.033.691,2.065,1.408-1.311.748-2.134,1.238-2.975,1.7-14.547,8.174-29.119,16.311-43.622,24.555a4.658,4.658,0,0,1-5.3-.009m3.557,5.868a4.453,4.453,0,0,1,2.578-4.325c14.7-8.582,29.344-17.259,44.008-25.9.541-.32,1.141-.541,2.189-1.024.066,1.293.154,2.13.15,2.964-.19,16.909-.411,33.817-.539,50.728a4.173,4.173,0,0,1-2.3,4.122q-22.043,12.89-44,25.917c-.636.369-1.318.673-2.368,1.2-.1-1.165-.247-2.063-.241-2.962.185-16.911.424-33.822.525-50.726M1140.714,392c-1.423-.79-2.37-1.291-3.293-1.843-14.17-8.384-28.318-16.831-42.541-25.144a4.866,4.866,0,0,1-2.823-4.793c-.042-16.591-.247-33.162-.386-49.752-.009-1.031.075-2.068.132-3.485,1.07.5,1.836.8,2.533,1.216q21.957,13,43.913,26c1.381.814,2.258,1.609,2.264,3.456.082,17.345.278,34.676.428,52.008,0,.609-.117,1.22-.229,2.339M1091.8,301.538c.19-16.7.419-33.385.538-50.083.018-2.141.55-3.5,2.549-4.659,14.622-8.5,29.169-17.131,43.741-25.72.633-.373,1.322-.671,2.255-1.156a13.619,13.619,0,0,1,.384,2.244c-.181,17.226-.4,34.462-.56,51.7a3.7,3.7,0,0,1-2,3.648q-22.45,13.168-44.829,26.433c-.452.267-.951.448-1.937.9-.062-1.428-.143-2.366-.139-3.306m49.311-84.011c-8.423-4.537-16.275-9.509-24.284-14.194-8.077-4.736-16.112-9.544-24.22-14.366-.172-18.656-.338-37.18-.514-56.146a23.18,23.18,0,0,1,2.525,1.077q22.109,13.075,44.227,26.171a3.391,3.391,0,0,1,1.988,3.288c.106,17.449.291,34.907.446,52.361,0,.417-.077.845-.168,1.81m-47.287-25.449c14.675,8.4,29.421,16.683,44.136,25.005.731.41,1.4.918,2.611,1.719-2.723,1.571-4.939,2.867-7.179,4.12-12.958,7.294-25.957,14.519-38.871,21.883-2.2,1.253-3.851,1.428-6.164.1-14.274-8.231-28.649-16.28-42.991-24.4-.914-.516-1.794-1.088-2.97-1.81a17.7,17.7,0,0,1,1.907-1.494c14.828-8.353,29.69-16.661,44.492-25.063a4.437,4.437,0,0,1,5.029-.057m-3.312-5.4a3.49,3.49,0,0,1-1.772,3.445q-22.86,13.373-45.648,26.861a9.613,9.613,0,0,1-1.328.5c-.064-1.187-.152-2.024-.141-2.851.185-16.9.408-33.784.554-50.682.015-1.765.391-2.959,2.059-3.937q22.447-13.122,44.8-26.387c.457-.271.958-.468,1.682-.814a13.2,13.2,0,0,1,.358,2.207c-.179,17.222-.4,34.442-.565,51.657m-48.8,32.9c16.377,9.7,32.367,19.179,48.556,28.772.17,18.641.342,37.255.519,56.24a14.364,14.364,0,0,1-2.2-.794q-22.393-13.251-44.783-26.526a3.171,3.171,0,0,1-1.894-3.012c-.1-17.67-.276-35.344-.424-53.014,0-.311.079-.629.221-1.666m1.6,59.756c14.677,8.4,29.421,16.683,44.136,25.014.726.413,1.4.909,2.677,1.752-1.448.832-2.357,1.366-3.275,1.882-14.377,8.066-28.775,16.092-43.105,24.235a4.91,4.91,0,0,1-5.588.088c-14.481-8.3-29.046-16.474-43.578-24.69-.821-.466-1.6-1.006-2.7-1.706a25.317,25.317,0,0,1,2.2-1.593c14.746-8.3,29.5-16.56,44.207-24.915a4.433,4.433,0,0,1,5.031-.068M942.264,394.9q22.523,13.32,45.03,26.658a3.191,3.191,0,0,1,1.867,3.041q.166,26.478.419,52.97a12.2,12.2,0,0,1-.23,1.448c-1.154-.587-2.008-.975-2.814-1.452-14.452-8.551-28.887-17.151-43.372-25.667a4.107,4.107,0,0,1-2.419-4.021c-.071-17.017-.265-34.022-.413-51.03-.009-.753.057-1.5.1-2.509a8.446,8.446,0,0,1,1.829.563m-1.8-6.406c.183-16.591.415-33.168.525-49.755a4.931,4.931,0,0,1,2.714-4.9c14.439-8.388,28.8-16.911,43.189-25.38.8-.472,1.657-.847,2.865-1.461.068,1.4.168,2.428.157,3.451-.185,16.591-.417,33.173-.523,49.763a4.915,4.915,0,0,1-2.73,4.87c-14.335,8.355-28.6,16.831-42.883,25.279-.887.521-1.785,1.022-3.145,1.807-.075-1.611-.172-2.644-.17-3.677m46.886,30.761c-14.474-8.291-29.024-16.458-43.538-24.679-.806-.459-1.556-1.031-2.732-1.827,1.271-.733,2.165-1.251,3.063-1.759,14.552-8.167,29.121-16.293,43.626-24.544a4.409,4.409,0,0,1,5.012,0c14.574,8.344,29.209,16.56,43.827,24.822.8.463,1.545,1.028,2.582,1.726-1.079.693-1.84,1.242-2.65,1.7-14.536,8.181-29.106,16.322-43.6,24.577a4.926,4.926,0,0,1-5.588-.018m3.846,5.888a3.717,3.717,0,0,1,2.03-3.632c14.962-8.752,29.867-17.588,44.8-26.387.459-.269.953-.483,1.77-.887a19.82,19.82,0,0,1,.3,2.527c-.177,17.109-.4,34.214-.558,51.33-.016,1.5-.283,2.615-1.732,3.46q-22.993,13.466-45.93,27.014a6.555,6.555,0,0,1-1.088.331c-.062-.984-.152-1.708-.144-2.425.188-17.1.4-34.217.547-51.33m.263-61.855q-.261-27.869-.519-55.821c2.443.474,42.984,24.12,48.7,28.346.161,18.438.333,37.017.505,56.34-16.653-9.873-32.568-19.318-48.684-28.865m-.492-60.917c.179-17.233.417-34.464.541-51.694.015-2.072.964-3.048,2.578-3.99q19.679-11.476,39.312-23.052c2.119-1.245,4.257-2.456,6.938-4,.044,1.613.1,2.668.088,3.714-.185,16.692-.408,33.382-.525,50.081a4.213,4.213,0,0,1-2.3,4.138c-14.7,8.58-29.344,17.259-44.006,25.9-.636.38-1.315.675-2.242,1.139a13.854,13.854,0,0,1-.388-2.236m49.39-84.682c-1.423-.794-2.368-1.293-3.284-1.843-14.179-8.392-28.322-16.834-42.547-25.147a4.874,4.874,0,0,1-2.84-4.789c-.038-16.582-.241-33.162-.38-49.746-.009-1.039.068-2.083.119-3.5,1.068.5,1.836.79,2.531,1.2q21.963,13,43.918,26c1.368.81,2.264,1.6,2.277,3.454.077,17.334.271,34.667.419,52.008.009.609-.1,1.229-.214,2.355m-47.6-25.72q22.582,12.86,45.231,25.612c.453.256.856.6,1.708,1.2-1.057.686-1.739,1.189-2.472,1.6q-22.1,12.42-44.182,24.857a4.19,4.19,0,0,1-4.727.09c-14.856-8.481-29.776-16.869-44.67-25.292-.545-.307-1.05-.693-1.88-1.24a21.322,21.322,0,0,1,2.074-1.545q22.38-12.585,44.752-25.166a3.724,3.724,0,0,1,4.167-.11m-3.048-5.735a4.2,4.2,0,0,1-2.333,4.111Q965.2,203.3,943.112,216.377c-.552.324-1.141.578-1.964.978a13.806,13.806,0,0,1-.364-2.2q.275-25.833.567-51.653a3.509,3.509,0,0,1,1.783-3.443q22.857-13.37,45.646-26.863a12.139,12.139,0,0,1,1.318-.5c.068,1.194.161,2.028.152,2.862-.188,16.893-.417,33.791-.543,50.682m-45.877,35.117c14.459,8.554,28.9,17.156,43.388,25.683a3.876,3.876,0,0,1,2.291,3.763c.084,17.14.271,34.27.426,51.4.009.638-.049,1.284-.071,1.843a3.464,3.464,0,0,1-.371.241c-.088.035-.219.1-.287.066a18.271,18.271,0,0,1-1.739-.841q-23.066-13.658-46.2-27.384c-.165-18.659-.342-37.167-.51-56.34,1.41.715,2.271,1.09,3.072,1.571m-1.1,58.01q21.874,12.5,43.856,24.833c.735.417,1.419.927,2.7,1.754-1.43.819-2.337,1.364-3.251,1.874q-21.7,12.191-43.384,24.4c-1.6.9-2.9,1.353-4.736.309-14.958-8.554-29.975-17-44.97-25.486-.552-.309-1.053-.706-1.856-1.251a21.715,21.715,0,0,1,2.121-1.591c14.73-8.291,29.505-16.538,44.2-24.906a4.7,4.7,0,0,1,5.321.068M842.08,451.506c-.706-.461-1.293-.858-1.75-1.183-.166-18.484-.335-36.975-.512-56.267,9.088,5.387,17.972,10.654,26.777,15.878v-.113c7.241,4.294,14.444,8.565,21.689,12.859q.262,27.869.519,55.793c-1.174-.205-11.171-5.782-21.883-12v-.252c-8.309-4.919-16.56-9.807-24.84-14.715m1.245-61.539c-.49.289-.989.576-1.545.894-.477.256-1.006.5-1.768.869-.079-1.337-.163-2.22-.146-3.085.177-16.688.417-33.374.516-50.068a4.94,4.94,0,0,1,2.8-4.853q11.89-6.928,23.741-13.938v-.174q9.825-5.8,19.643-11.588c.62-.373,1.322-.622,2.3-1.075.1,1.068.247,1.874.241,2.668-.19,17.021-.406,34.036-.552,51.05a3.957,3.957,0,0,1-2.094,3.924q-9.944,5.8-19.857,11.659v-.018q-11.639,6.862-23.271,13.735m43.492,29.479q-9.927-5.7-19.9-11.312v-.062q-12.023-6.8-24.052-13.6c-.607-.351-1.172-.8-2.218-1.516.267-.2.5-.373.724-.549.874-.505,1.516-.881,2.156-1.236q11.7-6.581,23.39-13.153v-.174q10.02-5.634,20.022-11.3a4.419,4.419,0,0,1,5.023-.073c14.673,8.4,29.419,16.683,44.138,25.012.73.408,1.4.911,2.684,1.75-1.456.839-2.361,1.366-3.275,1.891-14.375,8.061-28.772,16.088-43.11,24.229a4.917,4.917,0,0,1-5.585.095m3.562,5.83c.018-1.763.4-2.957,2.074-3.933,14.87-8.693,29.684-17.478,44.518-26.221.549-.331,1.148-.583,2.081-1.044.088,1.123.234,2.028.225,2.937-.183,16.893-.408,33.788-.556,50.686-.015,1.763-.369,2.973-2.041,3.946-14.973,8.739-29.9,17.566-44.825,26.358-.459.267-.958.463-1.9.914-.06-1.291-.139-2.13-.128-2.961.183-16.891.4-33.786.552-50.682m48.87-33.42c-1.02-.5-1.788-.8-2.489-1.214q-21.973-13.016-43.957-26.016a3.9,3.9,0,0,1-2.229-3.8c-.086-17.129-.28-34.263-.426-51.4-.011-.717.095-1.439.17-2.485.918.433,1.593.693,2.2,1.046q22.106,13.1,44.227,26.186a3.894,3.894,0,0,1,2.24,3.8c.09,17.134.28,34.258.433,51.39.009.724-.093,1.441-.168,2.494m-48.956-90.232c.179-16.792.406-33.577.536-50.368.015-1.9.435-3.142,2.207-4.182,14.686-8.569,29.309-17.255,43.962-25.9.708-.417,1.483-.739,2.586-1.3.057,1.344.152,2.377.139,3.412-.179,16.569-.422,33.14-.516,49.717a4.889,4.889,0,0,1-2.772,4.833c-14.322,8.353-28.578,16.82-42.858,25.235-.891.532-1.8,1.044-3.087,1.792-.091-1.4-.205-2.324-.2-3.246m.79-112.662c-.172-18.762-.34-37.269-.51-55.653a3.193,3.193,0,0,1,.483-.265.422.422,0,0,1,.291-.049c.583.278,1.178.536,1.732.852q23.046,13.661,46.182,27.382c.17,18.692.336,37.264.512,56.585-16.544-9.8-32.513-19.261-48.691-28.852m.867,2.884c15.042,8.6,30.149,17.09,45.224,25.621.45.258.854.6,1.569,1.1a24.7,24.7,0,0,1-2.1,1.532q-22.235,12.519-44.461,25.036c-1.512.852-2.75,1.189-4.453.218q-10.387-5.942-20.808-11.82v-.088q-11.549-6.534-23.114-13.058c-.821-.472-1.6-1.02-2.712-1.737.794-.569,1.32-1.039,1.918-1.377q11.947-6.72,23.908-13.439v-.174q10.295-5.776,20.587-11.561c1.5-.85,2.734-1.225,4.442-.256M889,186.332a4.188,4.188,0,0,1-2.251,4.158q-10.093,5.9-20.153,11.851v-.026q-11.605,6.852-23.2,13.713c-.338.2-.684.4-1.042.6-.516.28-1.073.543-1.759.885a20.044,20.044,0,0,1-.289-2.54c.181-17.019.4-34.033.561-51.054.011-1.737.346-2.977,2.032-3.963q12.033-7.018,24.017-14.095v-.132q5.69-3.34,11.381-6.676c3.515-2.066,7.064-4.08,11.067-6.38.082,1.26.19,2.1.181,2.924-.185,16.911-.41,33.819-.549,50.732m-48.64,33.746c.21.066.4.124.591.183.8.4,1.516.75,2.165,1.134q11.734,6.955,23.48,13.894V235.2q10.149,6.015,20.3,12.02a3.2,3.2,0,0,1,1.9,3.019c.1,17.663.276,35.318.419,52.977a13.58,13.58,0,0,1-.218,1.47c-1.141-.585-2-.956-2.8-1.428q-9.643-5.71-19.281-11.431v-.064q-12.046-7.137-24.1-14.256a3.916,3.916,0,0,1-2.2-3.829c-.095-17-.28-34.014-.424-51.026-.007-.755.088-1.52.17-2.578m-.018,58.675a4.677,4.677,0,0,1,1.05.437q12.585,7.193,25.2,14.309v-.09q9.669,5.465,19.341,10.928c.724.406,1.4.894,2.379,1.538-.956.642-1.589,1.161-2.3,1.556q-9.712,5.462-19.424,10.928v0Q854.046,325.4,841.5,332.462a7.423,7.423,0,0,1-.907.43,4.294,4.294,0,0,1-.558.177l-.106.024a3.425,3.425,0,0,1-1.481-.022,4.828,4.828,0,0,1-1.064-.448c-14.956-8.536-29.966-16.973-44.953-25.456-.541-.3-1.024-.7-1.843-1.267.978-.662,1.7-1.231,2.485-1.686q22.1-12.42,44.2-24.838a5.445,5.445,0,0,1,2.072-.755l.038,0a4.013,4.013,0,0,1,.953.126M748.432,399.538c11.91,7.066,23.811,14.143,35.772,21.13l.938.6a4.781,4.781,0,0,1,2.427,4.561c.051,16.593.252,33.193.4,49.788.007,1-.068,2-.135,3.339-1.095-.563-1.977-.986-2.781-1.47-14.28-8.459-28.527-16.959-42.854-25.334a4.85,4.85,0,0,1-2.778-4.815c-.044-16.6-.247-33.193-.391-49.779-.011-.911.055-1.834.115-3.01,1.234.521,4.716,2.412,9.291,4.992m-9.273-10.222q.271-25.661.563-51.328a3.46,3.46,0,0,1,1.754-3.454q22.844-13.386,45.637-26.879a7.164,7.164,0,0,1,1.033-.408c.066,1.1.152,1.916.141,2.712-.19,16.9-.406,33.793-.561,50.684a4.062,4.062,0,0,1-1.333,3.478,4.47,4.47,0,0,1-.371.274c-.1.071-.2.141-.313.21-14.969,8.734-29.878,17.573-44.807,26.376-.282.163-.609.322-.984.5-.152.066-.294.128-.483.214a17.926,17.926,0,0,1-.276-2.377m48.38,30.75c-.044-.015-.093-.04-.137-.055a5.747,5.747,0,0,1-.589-.287c-14.96-8.56-29.984-17-44.981-25.489-.549-.313-1.053-.711-1.871-1.258a20.046,20.046,0,0,1,2.105-1.582c14.735-8.3,29.5-16.553,44.216-24.9a5.606,5.606,0,0,1,2.432-.81,4.7,4.7,0,0,1,2.273.682c14.772,8.448,29.613,16.781,44.416,25.164.613.344,1.194.783,2.288,1.518-.993.64-1.715,1.152-2.458,1.585-.214.121-.422.238-.631.353q-21.7,12.2-43.384,24.4a10.448,10.448,0,0,1-1.046.534,3.7,3.7,0,0,1-2.176.285,3.851,3.851,0,0,1-.457-.141m4.03-112q22.274,13.161,44.5,26.354c1.187.7,1.979,1.381,1.988,2.955.09,17.782.258,35.552.4,53.332a4.38,4.38,0,0,1-.236.92c-8.17-4.44-15.953-9.33-23.871-13.978-8.07-4.736-16.107-9.553-24.2-14.353-.17-18.647-.34-37.114-.508-55.96a10.5,10.5,0,0,1,1.931.73m-1.893-6.4c.188-16.893.4-33.788.549-50.688a3.933,3.933,0,0,1,2.094-3.913c14.865-8.688,29.684-17.476,44.513-26.228.479-.278,1.02-.514,1.706-.847a18.438,18.438,0,0,1,.258,2.461c-.177,17.006-.406,34.009-.547,51a3.942,3.942,0,0,1-2.077,3.941q-22.41,13.089-44.752,26.318c-.43.232-.92.439-1.633.761-.053-1.2-.126-2.013-.113-2.807m.19,124.179a4.93,4.93,0,0,1,2.785-4.844c14.227-8.284,28.388-16.677,42.567-25.032q1.39-.8,2.862-1.646a10.4,10.4,0,0,1,.4,2.119q-.261,26-.569,52.008c0,.23-.029.43-.049.64a4.689,4.689,0,0,1-2.229,2.913q-22.552,13.241-45.052,26.555a6.363,6.363,0,0,1-1.048.4c-.031-.126-.06-.245-.093-.369-.046-1.152-.1-2.074-.091-2.979.179-16.586.419-33.168.516-49.761m39.61-213.7q-18.461-10.927-36.922-21.854c-.185-.119-.371-.241-.541-.351a3.093,3.093,0,0,1-1.587-2.84c-.1-17.67-.278-35.338-.422-53.007a6.288,6.288,0,0,1,.115-.94c1.181.47,4.422,2.2,8.688,4.577,12.921,7.658,25.681,15.22,38.522,22.836.424.282.8.538,1.114.761.174,18.513.342,37,.521,55.781a98.155,98.155,0,0,1-9.489-4.963M790.31,191.674a6,6,0,0,1,1.185.527c14.673,8.4,29.421,16.679,44.138,25.01.693.386,1.353.872,2.494,1.631-.929.627-1.6,1.125-2.275,1.534l-.825.474c-14.15,7.936-28.318,15.838-42.426,23.849l-.693.388a8.248,8.248,0,0,1-1.381.638c-.024.009-.048.013-.07.02a4.614,4.614,0,0,1-1.009.192,5.079,5.079,0,0,1-2.792-.772c-14.479-8.3-29.046-16.467-43.576-24.685-.819-.466-1.6-1.015-2.692-1.721.889-.64,1.5-1.185,2.2-1.582,14.742-8.3,29.5-16.56,44.211-24.915a5.559,5.559,0,0,1,2.211-.761,4.531,4.531,0,0,1,1.3.174m-2.251-5.371a5.17,5.17,0,0,1-.5,2.511,4.511,4.511,0,0,1-1.613,1.52C771.1,199,756.308,207.762,741.5,216.49c-.41.218-.869.45-1.4.715-.1.044-.205.093-.32.146a17.615,17.615,0,0,1-.294-2.45c.179-17.014.43-34.036.532-51.052a4.433,4.433,0,0,1,2.582-4.317c14.7-8.584,29.342-17.268,44.008-25.9.481-.285,1.026-.5,1.869-.885.068,1.212.15,2.026.143,2.827q-.278,25.366-.558,50.73M759.422,231.47q9.947,5.9,19.857,11.767c4.151,2.531,7.32,4.535,8.543,5.451.161,18.166.327,36.461.5,55.433a98.255,98.255,0,0,1-9.7-5.067c-12.415-7.351-24.593-14.565-36.843-21.823-.737-.481-1.351-.894-1.818-1.227q-.255-27.769-.51-55.585c2,.8,10.555,5.594,19.969,11.052m-19.956,47.113a3.65,3.65,0,0,1,.786.322q22.87,13.016,45.782,25.943a13.079,13.079,0,0,1,1.236.947,14.974,14.974,0,0,1-1.657,1.258c-.073.044-.146.084-.218.126q-2.618,1.476-5.232,2.951-14.833,8.328-29.646,16.7c-3.151,1.779-6.314,3.546-9.463,5.332a5.909,5.909,0,0,1-2.416.775,5.7,5.7,0,0,1-2.911-.887c-14.366-8.264-28.828-16.361-43.247-24.524-.825-.463-1.607-1.011-2.725-1.724a23.355,23.355,0,0,1,1.907-1.384q22.523-12.652,45.045-25.314a5.484,5.484,0,0,1,1.459-.583,3.771,3.771,0,0,1,1.3.06M638.418,394.244c.316.157.6.294.867.422,15.717,9.209,30.931,18.312,46.3,27.4a3.347,3.347,0,0,1,1.088,1.679c.163,17.866.324,35.7.488,54.089-.033.329-.068.684-.106,1.117-1.353-.755-2.231-1.227-3.056-1.721-14.091-8.351-28.152-16.75-42.291-25-2.085-1.218-2.995-2.476-3-5.016-.007-16.374-.227-32.753-.366-49.132-.013-1.086.04-2.189.082-3.831m-.079-5.656c.181-16.8.395-33.583.556-50.366.018-1.721.276-2.975,1.991-3.977,15.055-8.785,30.055-17.685,45.083-26.546.3-.174.66-.327,1.13-.538a9.437,9.437,0,0,1,.371,1.988c-.174,17.319-.4,34.642-.554,51.964a3.738,3.738,0,0,1-.47,1.918c-.053.09-.13.172-.192.258a4.324,4.324,0,0,1-1.331,1.165q-22.423,13.135-44.809,26.365a14.309,14.309,0,0,1-1.633.737c-.064-1.165-.154-2.072-.141-2.968m47.151,30.858c-14.472-8.3-29.022-16.454-43.542-24.668-.817-.466-1.593-1.009-2.714-1.721.993-.677,1.712-1.247,2.494-1.7q22.1-12.423,44.2-24.842a5.5,5.5,0,0,1,2.07-.755,3.851,3.851,0,0,1,.987.124,4.682,4.682,0,0,1,1.059.439c14.953,8.545,29.962,16.981,44.948,25.467.508.28.984.651,1.88,1.278-.867.607-1.487,1.1-2.158,1.476-.214.124-.422.238-.631.353q-19.805,11.129-39.6,22.282c-1.364.77-2.732,1.534-4.094,2.3a7.236,7.236,0,0,1-1.218.549c-.057.018-.113.033-.168.049a4.192,4.192,0,0,1-.808.132,5.049,5.049,0,0,1-2.71-.77m3.557,5.868a4.453,4.453,0,0,1,2.578-4.325c14.7-8.582,29.342-17.259,44.008-25.9a19.759,19.759,0,0,1,1.8-.85c.035.2.073.362.108.541.057.9.113,1.582.108,2.249-.188,16.909-.408,33.817-.536,50.728a4.173,4.173,0,0,1-2.3,4.122q-22.043,12.89-44,25.917c-.543.313-1.132.589-1.938.991-.049.02-.073.033-.124.055-.1-1.081-.229-1.949-.225-2.8.188-16.911.426-33.822.527-50.726m48.53-33.482c-1.247-.686-2.136-1.165-2.986-1.673-14.17-8.384-28.318-16.831-42.543-25.144a4.872,4.872,0,0,1-2.823-4.793c-.04-16.591-.245-33.162-.386-49.752-.007-.993.071-2,.128-3.341a24.05,24.05,0,0,1,2.216,1.073q21.957,13,43.913,26c1.381.814,2.258,1.609,2.264,3.456.082,17.345.276,34.676.426,52.008a21.76,21.76,0,0,1-.21,2.169m-48.6-90.294c.188-16.7.417-33.385.536-50.083.018-2.141.552-3.5,2.549-4.659,14.624-8.5,29.172-17.131,43.741-25.72.558-.329,1.189-.618,1.964-1.009a11.683,11.683,0,0,1,.351,2.1c-.181,17.226-.4,34.462-.558,51.7a4.669,4.669,0,0,1-.391,1.995,3.581,3.581,0,0,1-.19.32,3.113,3.113,0,0,1-.3.408c-.086.1-.172.2-.271.3a4.717,4.717,0,0,1-.847.627q-9.305,5.459-18.581,10.957-5.28,3.115-10.56,6.228-7.551,4.459-15.108,8.907c-.549.3-1.165.6-1.911.971l-.287.128c-.062-1.342-.137-2.255-.132-3.162m49-84.183c-8.306-4.493-16.07-9.394-23.979-14.022-8.077-4.736-16.11-9.544-24.217-14.366-.174-18.614-.338-37.1-.514-56.015a16.675,16.675,0,0,1,2.2.947q22.112,13.075,44.227,26.171a3.393,3.393,0,0,1,1.99,3.288c.1,17.449.289,34.907.444,52.361,0,.388-.066.805-.148,1.637m-48.51-25.811a6.164,6.164,0,0,1,1.2.534c14.673,8.4,29.419,16.683,44.136,25.005.666.377,1.3.845,2.335,1.534-.543.461-.971.861-1.419,1.165-1.083.627-2.1,1.212-3.078,1.774l-9.507,5.352q-11.49,6.445-22.96,12.921-4.624,2.605-9.251,5.208a6.341,6.341,0,0,1-2.368.759,5.74,5.74,0,0,1-3.03-.894c-14.276-8.231-28.651-16.28-42.991-24.4-.869-.492-1.726-1.039-2.816-1.712-.04-.033-.093-.077-.137-.113a17.459,17.459,0,0,1,1.887-1.479c14.83-8.353,29.69-16.661,44.491-25.063a6.083,6.083,0,0,1,1.787-.682,4.7,4.7,0,0,1,1.715.09m-2.108-4.864a3.488,3.488,0,0,1-1.774,3.445q-22.857,13.373-45.646,26.861c-.027.015-.055.026-.082.042-.219.095-.481.177-.931.335-.064-1.117-.143-1.931-.132-2.728.185-16.9.406-33.784.552-50.682.018-1.765.391-2.959,2.061-3.937q22.443-13.122,44.8-26.387c.386-.229.83-.419,1.386-.677a11.229,11.229,0,0,1,.329,2.07c-.177,17.222-.395,34.442-.563,51.657m-48.506,33.073c16.273,9.639,32.169,19.06,48.258,28.6.168,18.608.342,37.187.516,56.137a10.244,10.244,0,0,1-1.869-.691q-22.4-13.251-44.785-26.526a3.169,3.169,0,0,1-1.891-3.012c-.1-17.67-.278-35.344-.426-53.014a14.305,14.305,0,0,1,.2-1.49m.068,59.034a6.238,6.238,0,0,1,1.234.545c14.677,8.4,29.419,16.683,44.136,25.014.675.384,1.326.854,2.445,1.6-.812.594-1.4,1.084-2.026,1.456-.351.2-.689.4-1.02.58q-18.431,10.341-36.845,20.7-3.2,1.8-6.4,3.6a6.074,6.074,0,0,1-2.388.805,5.123,5.123,0,0,1-2.736-.783c-14.481-8.3-29.046-16.474-43.576-24.69-.823-.466-1.6-1.006-2.7-1.706a25.34,25.34,0,0,1,2.194-1.593c14.746-8.3,29.5-16.56,44.207-24.915a5.446,5.446,0,0,1,2.337-.788,4.485,4.485,0,0,1,1.139.174M539.11,394.9q22.523,13.32,45.03,26.658A3.189,3.189,0,0,1,586,424.6q.165,26.478.421,52.97a9.445,9.445,0,0,1-.205,1.3c-.991-.5-1.787-.872-2.516-1.3-14.45-8.551-28.887-17.151-43.37-25.667a4.1,4.1,0,0,1-2.419-4.021c-.071-17.017-.267-34.022-.415-51.03-.009-.73.055-1.463.1-2.43a5.891,5.891,0,0,1,1.51.483m-1.479-6.406c.185-16.591.417-33.168.527-49.755a4.929,4.929,0,0,1,2.712-4.9c14.441-8.388,28.8-16.911,43.189-25.38.726-.428,1.514-.786,2.551-1.3.066,1.315.159,2.311.148,3.295-.185,16.591-.417,33.173-.523,49.763a4.917,4.917,0,0,1-2.732,4.87c-14.333,8.355-28.6,16.831-42.883,25.279-.812.477-1.651.949-2.829,1.626-.073-1.5-.163-2.507-.161-3.5m46.888,30.761c-14.477-8.291-29.024-16.458-43.54-24.679-.8-.459-1.554-1.031-2.73-1.827,1.271-.733,2.165-1.251,3.063-1.759,14.549-8.167,29.121-16.293,43.626-24.544a5.15,5.15,0,0,1,2.339-.755,5.069,5.069,0,0,1,2.346.755c14.576,8.344,29.211,16.56,43.827,24.822.805.463,1.547,1.028,2.584,1.726-1.081.693-1.84,1.242-2.653,1.7-14.534,8.181-29.1,16.322-43.6,24.577a5.614,5.614,0,0,1-2.628.834,5.739,5.739,0,0,1-2.635-.852m3.846,5.888a3.713,3.713,0,0,1,2.03-3.632c14.962-8.752,29.867-17.588,44.8-26.387.393-.23.85-.439,1.47-.741a17.324,17.324,0,0,1,.28,2.381c-.177,17.109-.4,34.214-.556,51.33a5.981,5.981,0,0,1-.192,1.479,3.943,3.943,0,0,1-1.724,2.088q-22.9,13.413-45.747,26.908a3.375,3.375,0,0,1-.77.241c-.062-.934-.146-1.642-.137-2.335.188-17.1.4-34.217.547-51.33m38.454-39.21c-12.908-7.655-25.5-15.121-38.193-22.644q-.261-27.816-.516-55.713c2.67,1.044,17.074,9.244,29.589,16.644v.088q5.521,3.27,11.056,6.55c3.69,2.26,6.508,4.054,7.728,4.956.159,18.144.327,36.434.494,55.426a102.23,102.23,0,0,1-10.158-5.307M588.136,302.37c.179-17.233.415-34.464.538-51.694.015-2.072.964-3.048,2.58-3.99q19.679-11.476,39.31-23.052c2.021-1.187,4.074-2.355,6.587-3.8.015.177.031.32.049.485.04,1.229.079,2.141.068,3.026-.188,16.692-.41,33.382-.527,50.081a4.211,4.211,0,0,1-2.293,4.138c-14.7,8.58-29.344,17.259-44.008,25.9-.558.333-1.181.62-1.949,1a11.638,11.638,0,0,1-.355-2.094M637.22,217.52c-1.247-.693-2.134-1.17-2.977-1.675-14.181-8.392-28.324-16.834-42.547-25.147a4.872,4.872,0,0,1-2.842-4.789c-.035-16.582-.24-33.162-.38-49.746-.009-1,.064-2.017.115-3.354a23.685,23.685,0,0,1,2.213,1.059q21.96,13,43.915,26c1.368.81,2.264,1.6,2.277,3.454.079,17.334.274,34.667.422,52.008.007.576-.093,1.174-.2,2.187M589.6,191.968q22.579,12.86,45.228,25.612c.455.256.856.6,1.708,1.2-1.055.686-1.739,1.189-2.469,1.6q-22.1,12.42-44.182,24.857a5.245,5.245,0,0,1-2.2.75,4.475,4.475,0,0,1-2.2-.66c-14.856-8.481-29.779-16.869-44.672-25.292-.543-.307-1.05-.693-1.88-1.24A21.592,21.592,0,0,1,541,217.245q22.38-12.585,44.754-25.166a4.75,4.75,0,0,1,1.942-.669,3.873,3.873,0,0,1,1.9.558m-3.048-5.735a4.2,4.2,0,0,1-2.335,4.111q-22.172,12.956-44.26,26.034c-.479.28-1.011.523-1.668.836a11.483,11.483,0,0,1-.335-2.063q.275-25.833.565-51.653a3.506,3.506,0,0,1,1.785-3.443q22.857-13.37,45.646-26.863a6.62,6.62,0,0,1,1-.388c.066,1.13.152,1.942.143,2.747-.188,16.893-.415,33.791-.541,50.682m-45.879,35.117c14.461,8.554,28.9,17.156,43.39,25.683a3.876,3.876,0,0,1,2.291,3.763c.084,17.14.271,34.27.426,51.4.009.638-.049,1.284-.071,1.843a3.456,3.456,0,0,1-.371.241l-.055.022a16.878,16.878,0,0,1-1.646-.8q-23.066-13.658-46.2-27.384c-.168-18.606-.342-37.063-.51-56.176,1.209.6,2.013.969,2.745,1.408m-1.1,58.01q21.874,12.5,43.856,24.833c.737.417,1.419.927,2.7,1.754-1.432.819-2.339,1.364-3.251,1.874q-21.705,12.191-43.386,24.4a5.687,5.687,0,0,1-2.6.9,4.189,4.189,0,0,1-1.807-.589c-14.958-8.554-29.975-17-44.97-25.486-.55-.309-1.05-.706-1.854-1.251a21.972,21.972,0,0,1,2.119-1.591c14.73-8.291,29.505-16.538,44.2-24.906a5.18,5.18,0,0,1,2.5-.766,5.668,5.668,0,0,1,2.5.834M444.148,454.6c-3.176-1.96-5.636-3.535-6.87-4.434-.163-18.372-.333-36.882-.505-56.163,16.509,9.794,32.323,19.173,48.353,28.675q.265,27.819.519,55.691c-2.13-.814-11.72-6.183-21.881-12.087v-.064q-9.841-5.826-19.616-11.619m-7.34-66.167c.181-16.591.433-33.175.51-49.761a5.14,5.14,0,0,1,2.906-5.069c1.293-.755,2.582-1.521,3.875-2.275,13.241-7.719,26.427-15.531,39.632-23.306a20.1,20.1,0,0,1,1.986-.94,24.778,24.778,0,0,1,.223,2.533c-.188,17.021-.4,34.036-.549,51.05a3.96,3.96,0,0,1-2.094,3.924c-14.8,8.635-29.536,17.37-44.291,26.069-.556.331-1.178.6-2.114,1.053-.046-1.428-.1-2.359-.084-3.277m47.175,31.01c-14.479-8.311-29.046-16.469-43.573-24.685-.823-.47-1.607-1.015-2.706-1.717.892-.642,1.5-1.194,2.191-1.591,14.737-8.3,29.5-16.555,44.213-24.91a5.484,5.484,0,0,1,2.35-.794,4.824,4.824,0,0,1,2.35.722c14.671,8.4,29.419,16.683,44.138,25.012.728.408,1.4.911,2.683,1.75-1.456.839-2.361,1.366-3.277,1.891-14.373,8.061-28.772,16.088-43.108,24.229a6.158,6.158,0,0,1-2.628.894,5.331,5.331,0,0,1-2.635-.8m3.562,5.83c.018-1.763.4-2.957,2.074-3.933,14.872-8.693,29.686-17.478,44.518-26.221.479-.287,1.033-.536,1.772-.894.088,1.048.218,1.922.21,2.787-.183,16.893-.406,33.788-.554,50.686-.016,1.763-.369,2.973-2.044,3.946-14.973,8.739-29.9,17.566-44.825,26.358-.4.234-.85.424-1.582.766-.057-1.2-.13-2.017-.119-2.814.183-16.891.4-33.786.549-50.682M536.1,391.708c-.854-.4-1.556-.7-2.178-1.066q-21.97-13.016-43.957-26.016a3.908,3.908,0,0,1-2.229-3.8c-.086-17.129-.28-34.263-.424-51.4-.011-.68.082-1.382.157-2.341.748.342,1.359.6,1.889.9q22.105,13.1,44.224,26.186a3.891,3.891,0,0,1,2.24,3.8c.091,17.134.28,34.258.433,51.39.009.686-.082,1.384-.154,2.346m-48.645-90.084c.179-16.792.406-33.577.538-50.368.015-1.9.433-3.142,2.2-4.182,14.686-8.569,29.311-17.255,43.962-25.9.633-.371,1.351-.689,2.271-1.141.06,1.262.143,2.264.132,3.257-.179,16.569-.424,33.14-.519,49.717a4.888,4.888,0,0,1-2.77,4.833c-14.322,8.353-28.578,16.82-42.858,25.235-.817.485-1.66.964-2.778,1.611-.088-1.3-.192-2.187-.183-3.065m.792-112.662c-.172-18.762-.34-37.269-.512-55.653a3.439,3.439,0,0,1,.483-.265c.015-.009.033,0,.051-.009.556.263,1.121.512,1.651.812q23.046,13.661,46.182,27.382c.168,18.63.333,37.141.51,56.391-16.427-9.73-32.294-19.131-48.364-28.658m.543,2.884c15.039,8.6,30.149,17.09,45.222,25.621.452.258.854.6,1.571,1.1a24.69,24.69,0,0,1-2.1,1.532q-22.235,12.519-44.458,25.036a5.663,5.663,0,0,1-2.083.775,3.8,3.8,0,0,1-2.046-.556c-15.046-8.6-30.145-17.089-45.224-25.621-.415-.243-.812-.569-1.633-1.159.7-.514,1.212-.944,1.757-1.26.177-.1.353-.2.521-.3q3.86-2.168,7.722-4.341Q466.364,202.4,484.676,192.1a5.779,5.779,0,0,1,2.081-.794,3.751,3.751,0,0,1,2.037.538m-2.951-5.515a4.186,4.186,0,0,1-2.253,4.158c-14.7,8.6-29.335,17.281-43.995,25.932-.558.335-1.185.62-1.933.989a6.668,6.668,0,0,1-.406-1.728c.172-17.454.41-34.9.541-52.348a4.191,4.191,0,0,1,.2-1.3v0a4.527,4.527,0,0,1,2.344-2.37q17.577-10.285,35.132-20.609c3.421-2.01,6.883-3.977,10.754-6.2.079,1.154.177,1.962.168,2.745-.185,16.911-.41,33.819-.547,50.732m-46.85,34.4q22.387,13.234,44.75,26.493a3.2,3.2,0,0,1,1.9,3.019c.1,17.663.274,35.318.417,52.977a10.4,10.4,0,0,1-.192,1.32c-.982-.49-1.783-.852-2.5-1.278-14.455-8.558-28.885-17.156-43.377-25.654a4.142,4.142,0,0,1-2.447-4.016c-.073-17.012-.267-34.025-.415-51.035-.007-.722.044-1.454.088-2.472a8.651,8.651,0,0,1,1.774.647m-.309,58.615c14.662,8.392,29.392,16.67,44.094,24.99.726.406,1.4.894,2.379,1.538-.953.642-1.587,1.161-2.293,1.556q-22.235,12.506-44.472,25.019a4.71,4.71,0,0,1-2.154.7,4.215,4.215,0,0,1-1.964-.6c-14.856-8.485-29.776-16.873-44.661-25.294-.6-.333-1.159-.761-2.1-1.4.861-.587,1.529-1.092,2.227-1.514.307-.177.607-.349.9-.512q20.391-11.45,40.769-22.918c.876-.494,1.754-.984,2.63-1.479a5.54,5.54,0,0,1,2.293-.781,4.724,4.724,0,0,1,2.35.706M354.64,404.9q9.441,5.6,18.915,11.164c4.458,2.69,8.075,4.932,9.966,6.206a4.15,4.15,0,0,1,.92,1.6c.168,18.049.335,36.262.5,55.225-.408-.212-.741-.38-1.092-.556-15.757-9.339-30.928-18.336-46.14-27.353a4.184,4.184,0,0,1-1.264-2.18c-.161-18.008-.329-35.907-.492-53.875.009-.2.02-.366.029-.58,1.988.841,9.82,5.237,18.656,10.354m-18.528-15.615q.271-25.654.558-51.33a3.47,3.47,0,0,1,1.741-3.463q22.854-13.38,45.635-26.872a.731.731,0,0,1,.073-.035c.221-.106.49-.2.975-.375.071,1.09.15,1.9.146,2.692-.188,17-.41,34-.552,51a3.716,3.716,0,0,1-2.021,3.637q-22.576,13.218-45.083,26.537a11.524,11.524,0,0,1-1.194.565,17.176,17.176,0,0,1-.278-2.359m47.722,30.425c-15.061-8.6-30.169-17.1-45.264-25.641-.463-.269-.887-.589-1.655-1.11a19.463,19.463,0,0,1,2.03-1.569q22.248-12.536,44.5-25.043c.252-.143.49-.245.73-.355a4.025,4.025,0,0,1,2.593-.205,4.412,4.412,0,0,1,.814.338q22.443,12.8,44.979,25.473c.618.349,1.15.852,1.973,1.45-1.07.689-1.827,1.242-2.633,1.693q-21.976,12.364-43.942,24.723a5.474,5.474,0,0,1-2.2.781,3.8,3.8,0,0,1-1.924-.534m2.988,5.133a4.1,4.1,0,0,1,.113-.761,4.539,4.539,0,0,1,1.852-2.582c.179-.117.344-.238.543-.353q17.574-10.278,35.126-20.607c3.412-2,6.868-3.963,10.791-6.225.024.1.046.2.073.3.049,1.2.113,2.13.1,3.039-.188,16.578-.428,33.166-.525,49.752a4.927,4.927,0,0,1-2.781,4.844c-14.342,8.351-28.594,16.831-42.889,25.277-.7.415-1.454.839-2.35,1.353-.051.015-.119.042-.177.062a10.165,10.165,0,0,1-.417-2.081c.177-17.341.413-34.684.541-52.021m48.459-33.1c-.792-.43-1.567-.881-2.352-1.32-15.509-9.191-30.65-18.169-45.835-27.172-.166-18.619-.338-37.077-.508-55.993.172.06.324.108.488.161a11.01,11.01,0,0,1,1.7.755c14.748,8.715,29.474,17.48,44.233,26.162A3.4,3.4,0,0,1,435,337.624c.113,17.456.3,34.907.446,52.365,0,.386-.064.8-.161,1.754M386.63,301.181c.179-16.569.426-33.142.521-49.715a4.9,4.9,0,0,1,2.759-4.844c14.238-8.291,28.386-16.706,42.574-25.08.477-.282.958-.561,1.479-.858.45-.241.942-.463,1.591-.786.093,1.212.2,2.081.19,2.926-.174,16.789-.4,33.574-.543,50.364-.015,1.876-.375,3.165-2.16,4.215-14.878,8.671-29.7,17.447-44.549,26.186a18.451,18.451,0,0,1-1.788.843c-.038-1.4-.084-2.326-.073-3.251m31.919-93.641q-11.735-6.948-23.472-13.892c-3.151-1.935-5.671-3.533-7.141-4.55a2.731,2.731,0,0,1-.512-.947c-.166-18.122-.338-36.4-.505-54.72.015-.095.024-.163.044-.285,1.781.708,8.2,4.25,15.858,8.635q13.635,8.08,27.186,16.116c2.408,1.5,4.294,2.719,5.4,3.5q.252,27.64.512,55.634c-1.825-.706-9.013-4.687-17.365-9.491m-29.741-15.172c14.395,8.236,28.861,16.352,43.3,24.52.9.512,1.761,1.1,2.992,1.867-1.112.748-1.845,1.32-2.644,1.77q-21.98,12.347-43.96,24.707a6.214,6.214,0,0,1-1.8.691,4.391,4.391,0,0,1-1.532-.077,5.192,5.192,0,0,1-1.084-.459c-14.867-8.487-29.792-16.882-44.7-25.321-.578-.327-1.11-.768-2.006-1.417.772-.569,1.355-1.059,1.982-1.426.183-.1.36-.205.536-.3,14.552-8.192,29.134-16.335,43.644-24.6a7.111,7.111,0,0,1,1.381-.613c.093-.031.183-.04.276-.062a4.3,4.3,0,0,1,.821-.124,5.574,5.574,0,0,1,2.787.845m-3.787-6.122a4.183,4.183,0,0,1-2.3,4.136c-14.7,8.582-29.344,17.266-44.006,25.91-.561.327-1.189.616-1.988,1.017a17.682,17.682,0,0,1-.3-2.456c.181-17.019.4-34.033.552-51.05a4.373,4.373,0,0,1,1.128-3.259c.035-.033.055-.073.09-.108a5.693,5.693,0,0,1,.852-.633c.1-.066.179-.139.287-.2,14.772-8.624,29.487-17.348,44.224-26.034.4-.223.856-.419,1.485-.7l.371-.154c.068,1.192.148,2.006.139,2.814-.183,16.909-.413,33.817-.543,50.721M346.93,225.935c12.031,7.13,23.856,14.139,35.77,21.2q1.334.864,2.063,1.393.248,27.749.514,55.53c-1.81-.691-9-4.67-17.352-9.469l-24.008-14.218c-3.251-2.006-5.766-3.617-7.011-4.522-.163-18.16-.331-36.474-.5-55.5.933.28,5.036,2.491,10.526,5.588m-9.213,53.215c14.764,8.441,29.587,16.77,44.386,25.14.638.369,1.238.8,2.16,1.386a18.313,18.313,0,0,1-1.825,1.392q-22.513,12.681-45.021,25.365a5.714,5.714,0,0,1-.814.373,4.574,4.574,0,0,1-2.544-.1c-.163-.075-.316-.117-.483-.212Q311,319.631,288.344,306.876c-.419-.232-.814-.558-1.64-1.154.7-.516,1.2-.936,1.73-1.251.285-.165.558-.322.825-.474q22.056-12.39,44.11-24.791a5.314,5.314,0,0,1,2.055-.7,4.31,4.31,0,0,1,2.293.644M237.956,395.6q21.7,12.834,43.39,25.685a3.89,3.89,0,0,1,2.333,3.749c.073,17.129.271,34.256.413,51.381.009.68-.095,1.373-.192,2.509-15.792-9.355-31.224-18.5-46.742-27.7a4.387,4.387,0,0,1-1.419-2.313c-.159-18-.324-35.916-.488-54.265,0-.139.009-.263.011-.41,1.172.576,1.971.929,2.695,1.359m-2.661-7.567c.183-16.461.419-32.921.514-49.391a4.929,4.929,0,0,1,2.725-4.866q15.191-8.842,30.306-17.831,6.591-3.893,13.183-7.783c.3-.174.62-.358.949-.545.313-.168.666-.318,1.189-.556a20.389,20.389,0,0,1,.245,2.536c-.179,17-.4,34-.545,51.008a3.927,3.927,0,0,1-2.132,3.9C266.86,373.2,252.037,381.97,237.194,390.7c-.481.287-1.022.508-1.84.885-.029-1.5-.077-2.52-.06-3.551m48.658,32.08a5.2,5.2,0,0,1-1-.433q-22.284-12.711-44.672-25.292c-.587-.338-1.15-.759-2.11-1.4.9-.62,1.593-1.15,2.315-1.573.271-.154.534-.307.8-.452q21.679-12.168,43.357-24.37a5.728,5.728,0,0,1,2.335-.814,4.658,4.658,0,0,1,2.35.7c14.658,8.4,29.392,16.666,44.094,24.983.722.413,1.4.9,2.386,1.551-.929.642-1.56,1.154-2.264,1.549q-22.238,12.516-44.463,25.016a5.63,5.63,0,0,1-1.631.629,4.249,4.249,0,0,1-1.5-.086m2.057,5.482a4.69,4.69,0,0,1,1.7-4.074c.188-.141.371-.282.589-.417.086-.055.163-.113.258-.168,14.713-8.556,29.348-17.253,44.015-25.895a9.626,9.626,0,0,1,.867-.435c.252-.11.508-.223.834-.371a12.3,12.3,0,0,1,.331,2.081c-.183,17.237-.4,34.468-.554,51.7a3.711,3.711,0,0,1-2.006,3.641Q309.592,464.81,287.2,478.071c-.4.227-.847.419-1.6.768-.06-1.342-.139-2.26-.13-3.158.183-16.694.413-33.391.543-50.083m48.539-33.8c-1.238-.686-2.121-1.159-2.966-1.664C317.4,381.738,303.259,373.3,289.03,365a4.883,4.883,0,0,1-2.845-4.784c-.055-16.591-.252-33.157-.391-49.748-.009-1.009.06-2.021.106-3.368a22.834,22.834,0,0,1,2.2,1.037q21.96,13,43.926,25.994a3.909,3.909,0,0,1,2.286,3.776c.077,17.118.271,34.243.415,51.363.011.682-.086,1.381-.181,2.531m-48.631-89.742c.181-17.021.4-34.038.563-51.05a5.727,5.727,0,0,1,.355-2.132,3.966,3.966,0,0,1,.256-.452,3.262,3.262,0,0,1,.19-.278,4.678,4.678,0,0,1,.439-.483,4.452,4.452,0,0,1,.8-.611c14.88-8.682,29.7-17.467,44.549-26.2.34-.181.726-.382,1.143-.589l.7-.3c.018.1.04.185.06.285.042,1.2.095,2.07.086,2.922-.188,16.69-.415,33.38-.55,50.077-.015,2.021-.459,3.335-2.344,4.442-14.611,8.514-29.159,17.167-43.726,25.758-.633.375-1.344.7-2.233,1.139a20.473,20.473,0,0,1-.287-2.531m46.544-86.019c-15.556-9.209-30.606-18.133-45.736-27.1-.163-18.506-.331-36.926-.5-56.068.739.309,1.326.53,1.849.768,15.567,9.222,30.6,18.131,45.69,27.073a2.969,2.969,0,0,1,.83,1.229c.163,18.374.329,36.626.505,55.572-.892-.481-1.754-.982-2.635-1.472M288.1,192.283c14.384,8.262,28.854,16.377,43.289,24.542.839.472,1.629,1,2.723,1.682a14.116,14.116,0,0,1-1.783,1.452q-22.526,12.695-45.067,25.363c-.225.128-.441.218-.658.316a4.709,4.709,0,0,1-2.913-.132q-23.009-13.105-46.069-26.137a8.956,8.956,0,0,1-1.031-.828c.452-.364.832-.68,1.187-.953a9.786,9.786,0,0,1,.834-.547c13.9-7.819,27.819-15.6,41.687-23.489.753-.426,1.509-.85,2.262-1.278a8.071,8.071,0,0,1,1.421-.642c.064-.02.126-.035.188-.053a4.472,4.472,0,0,1,.865-.141,5.542,5.542,0,0,1,3.065.847m-3.791-5.616a3.478,3.478,0,0,1-1.8,3.423q-22.85,13.38-45.65,26.87a7.16,7.16,0,0,1-1,.373c-.06-1.143-.135-1.962-.121-2.767.185-16.9.408-33.791.545-50.686a3.948,3.948,0,0,1,2.1-3.921c14.867-8.688,29.686-17.476,44.522-26.221.472-.276,1.006-.516,1.653-.828a12.511,12.511,0,0,1,.316,2.1c-.183,17.213-.406,34.439-.565,51.661M235.8,219.714c16.269,9.642,32.171,19.06,48.256,28.6.172,18.6.346,37.185.521,56.128a9.966,9.966,0,0,1-1.869-.691q-22.4-13.254-44.783-26.519a3.181,3.181,0,0,1-1.9-3.017c-.095-17.672-.269-35.342-.413-53.012a12.775,12.775,0,0,1,.183-1.485m1.615,59.756c14.492,8.3,29.055,16.465,43.58,24.688.814.461,1.587,1.006,2.679,1.717a27.291,27.291,0,0,1-2.227,1.6q-22.261,12.513-44.525,25.016a8.082,8.082,0,0,1-.94.455,4.385,4.385,0,0,1-2.5-.071,4.2,4.2,0,0,1-.4-.163q-9.093-5.184-18.217-10.317v.075q-13.135-7.438-26.274-14.854c-.823-.466-1.607-1.006-2.7-1.706a25.665,25.665,0,0,1,2.2-1.593q13.393-7.537,26.782-15.07v0c5.766-3.246,11.537-6.481,17.288-9.756a5.786,5.786,0,0,1,2.628-.858,5.561,5.561,0,0,1,2.633.834M136.279,394.9q22.519,13.32,45.028,26.658a3.191,3.191,0,0,1,1.867,3.041q.166,26.478.419,52.97a12.226,12.226,0,0,1-.23,1.448c-1.154-.587-2.008-.975-2.814-1.452-14.452-8.551-28.887-17.151-43.373-25.667a4.108,4.108,0,0,1-2.419-4.021c-.071-17.017-.265-34.022-.413-51.03-.009-.753.057-1.5.1-2.509a8.506,8.506,0,0,1,1.832.563m-1.8-6.406c.183-16.591.415-33.168.525-49.755a4.935,4.935,0,0,1,2.714-4.9c14.439-8.388,28.8-16.911,43.189-25.38.8-.472,1.657-.847,2.864-1.461.068,1.4.17,2.428.159,3.451-.188,16.591-.419,33.173-.525,49.763a4.912,4.912,0,0,1-2.73,4.87c-14.335,8.355-28.6,16.831-42.883,25.279-.887.521-1.785,1.022-3.145,1.807-.075-1.611-.172-2.644-.17-3.677m46.886,30.761c-14.474-8.291-29.024-16.458-43.538-24.679-.805-.459-1.556-1.031-2.732-1.827,1.273-.733,2.165-1.251,3.063-1.759,14.552-8.167,29.121-16.293,43.626-24.544a4.409,4.409,0,0,1,5.012,0q13.85,7.928,27.748,15.746v.053q8.292,4.687,16.586,9.375c.536.307,1.024.7,2.039,1.4-.075.049-.126.084-.2.13-1.2.689-2,1.152-2.792,1.6l-15.637,8.8v.152q-13.81,7.762-27.592,15.58a4.926,4.926,0,0,1-5.588-.018m3.849,5.888a3.711,3.711,0,0,1,2.028-3.632q13.84-8.1,27.627-16.273v.022l15.858-9.361c.472-.282.951-.561,1.474-.858.406-.225.858-.435,1.547-.772.073,1.311.159,2.194.146,3.067-.177,16.787-.415,33.579-.547,50.364a4.167,4.167,0,0,1-2.269,4.14q-8.279,4.836-16.533,9.723v.157q-14.323,8.424-28.649,16.849a6.555,6.555,0,0,1-1.088.331c-.062-.984-.152-1.708-.143-2.425.188-17.1.4-34.217.55-51.33m31.112-43.565c-10.35-6.137-20.585-12.208-30.851-18.29q-.261-27.869-.519-55.821c1.459.285,16.491,8.823,29.589,16.56v.28q8.464,5.012,16.944,10.037c.81.527,1.463.969,1.938,1.309q.252,27.739.514,55.525c-1.821-.684-9.145-4.729-17.615-9.6M184.979,302.37c.179-17.233.417-34.464.541-51.694.015-2.072.964-3.048,2.578-3.99q19.682-11.476,39.312-23.052c1.909-1.121,3.857-2.231,6.183-3.568l.408-.19c.09,1.09.234,1.966.223,2.818-.179,16.909-.393,33.817-.549,50.721-.015,1.735-.34,2.968-2.028,3.961q-8.57,5-17.1,10.054v.159q-13.469,7.931-26.932,15.878c-.636.38-1.313.675-2.242,1.139a13.867,13.867,0,0,1-.388-2.236m1.788-110.4q13.866,7.9,27.775,15.728v.1q8.408,4.757,16.816,9.514c.629.349,1.2.792,2.284,1.509l-.02.013c-1.37.792-2.2,1.276-3.028,1.75q-8.031,4.509-16.052,9.028v.154q-13.751,7.723-27.49,15.465a4.19,4.19,0,0,1-4.727.09c-14.856-8.481-29.776-16.869-44.67-25.292-.545-.307-1.05-.693-1.88-1.24a21.321,21.321,0,0,1,2.074-1.545q22.38-12.585,44.754-25.166a3.721,3.721,0,0,1,4.164-.11m-3.048-5.735a4.2,4.2,0,0,1-2.335,4.111q-22.168,12.956-44.26,26.034c-.552.324-1.141.578-1.964.978a13.81,13.81,0,0,1-.364-2.2q.275-25.833.567-51.653a3.508,3.508,0,0,1,1.783-3.443q22.857-13.37,45.648-26.863a11.857,11.857,0,0,1,1.315-.5c.068,1.194.161,2.028.152,2.862-.188,16.893-.417,33.791-.543,50.682m-45.877,35.117c14.459,8.554,28.9,17.156,43.388,25.683a3.873,3.873,0,0,1,2.291,3.763c.084,17.14.271,34.27.428,51.4.009.638-.049,1.284-.073,1.843a3.453,3.453,0,0,1-.371.241c-.088.035-.218.1-.287.066a18.275,18.275,0,0,1-1.739-.841q-23.066-13.658-46.2-27.384c-.17-18.659-.344-37.167-.512-56.34,1.41.715,2.271,1.09,3.072,1.571m-1.1,58.01q21.871,12.5,43.854,24.833c.737.417,1.421.927,2.7,1.754-1.43.819-2.337,1.364-3.251,1.874q-21.7,12.191-43.384,24.4c-1.6.9-2.9,1.353-4.736.309-14.958-8.554-29.975-17-44.97-25.486-.549-.309-1.053-.706-1.856-1.251A21.977,21.977,0,0,1,87.22,304.2c14.73-8.291,29.505-16.538,44.2-24.906a4.7,4.7,0,0,1,5.321.068M84.39,425.276c.018-1.763.4-2.957,2.074-3.933,14.869-8.693,29.684-17.478,44.518-26.221.549-.331,1.148-.583,2.081-1.044.088,1.123.234,2.028.225,2.937-.183,16.893-.406,33.788-.556,50.686-.015,1.763-.369,2.973-2.041,3.946-14.975,8.739-29.9,17.566-44.825,26.358-.459.267-.958.463-1.9.914-.06-1.291-.139-2.13-.128-2.961.185-16.891.406-33.786.552-50.682m-3.562-5.83c-14.481-8.311-29.046-16.469-43.576-24.685-.823-.47-1.6-1.015-2.7-1.717.892-.642,1.5-1.194,2.191-1.591,14.737-8.3,29.5-16.555,44.213-24.91a4.419,4.419,0,0,1,5.023-.073c14.673,8.4,29.419,16.683,44.138,25.012.73.408,1.4.911,2.686,1.75-1.459.839-2.361,1.366-3.277,1.891-14.375,8.061-28.772,16.088-43.108,24.229a4.921,4.921,0,0,1-5.588.095m52.432-27.59c-1.02-.5-1.788-.8-2.489-1.214Q108.8,377.627,86.814,364.626a3.9,3.9,0,0,1-2.229-3.8c-.086-17.129-.28-34.263-.424-51.4-.011-.717.093-1.439.168-2.485.918.433,1.593.693,2.2,1.046q22.106,13.1,44.227,26.186a3.894,3.894,0,0,1,2.24,3.8c.09,17.134.28,34.258.433,51.39.009.724-.093,1.441-.168,2.494M84.3,301.624c.179-16.792.406-33.577.536-50.368.015-1.9.435-3.142,2.207-4.182,14.686-8.569,29.309-17.255,43.962-25.9.708-.417,1.483-.739,2.586-1.3.057,1.344.152,2.377.139,3.412-.179,16.569-.421,33.14-.516,49.717a4.889,4.889,0,0,1-2.772,4.833c-14.322,8.353-28.578,16.82-42.856,25.235-.894.532-1.8,1.044-3.09,1.792-.09-1.4-.207-2.324-.2-3.246m.79-112.662c-.172-18.762-.34-37.269-.51-55.653a3.346,3.346,0,0,1,.481-.265.437.437,0,0,1,.3-.049c.58.278,1.176.536,1.73.852q23.046,13.661,46.182,27.382c.17,18.692.335,37.264.512,56.585-16.544-9.8-32.511-19.261-48.691-28.852m.867,2.884c15.042,8.6,30.149,17.09,45.224,25.621.452.258.854.6,1.569,1.1a24.346,24.346,0,0,1-2.1,1.532q-22.231,12.519-44.458,25.036c-1.512.852-2.75,1.189-4.453.218-15.044-8.6-30.143-17.089-45.222-25.621-.45-.263-.854-.607-1.821-1.293,1.256-.726,2.077-1.207,2.9-1.671q21.97-12.327,43.926-24.67c1.5-.85,2.734-1.225,4.442-.256M80.213,303.262c-14.452-8.558-28.885-17.156-43.375-25.654a4.139,4.139,0,0,1-2.447-4.016c-.073-17.012-.267-34.025-.417-51.035-.007-.748.049-1.492.093-2.571a12.294,12.294,0,0,1,2.094.746q22.387,13.234,44.752,26.493a3.2,3.2,0,0,1,1.9,3.019c.1,17.663.274,35.318.417,52.977a13.042,13.042,0,0,1-.218,1.47c-1.141-.585-2-.956-2.8-1.428M34.164,338.674a5.153,5.153,0,0,1,2.944-5.1c14.536-8.441,28.986-17.026,43.47-25.553.618-.373,1.32-.622,2.293-1.075.1,1.068.245,1.874.241,2.668-.188,17.021-.406,34.036-.552,51.05a3.957,3.957,0,0,1-2.094,3.924c-14.8,8.635-29.534,17.37-44.291,26.069-.62.371-1.3.651-2.432,1.2-.046-1.523-.1-2.476-.09-3.429.183-16.591.433-33.175.512-49.761m-.04,111.494c-.166-18.433-.335-37.006-.508-56.355,16.626,9.864,32.542,19.3,48.68,28.867q.261,27.869.519,55.793c-2.419-.421-42.229-23.608-48.691-28.3m-.792,112.867c.179-16.781.41-33.57.541-50.357a4.174,4.174,0,0,1,2.238-4.158c14.684-8.584,29.309-17.266,43.966-25.9.7-.424,1.463-.739,2.511-1.245.073,1.229.192,2.154.183,3.081-.183,16.686-.435,33.365-.523,50.046a4.911,4.911,0,0,1-2.8,4.824c-14.232,8.293-28.393,16.695-42.569,25.069-.993.585-1.988,1.145-3.348,1.927-.09-1.43-.207-2.364-.2-3.29m96.5,5.8q-22.248,12.529-44.5,25.036c-1.426.806-2.6,1.114-4.16.219q-22.735-12.95-45.548-25.806c-.439-.247-.817-.6-1.589-1.172,1.039-.684,1.64-1.134,2.282-1.5,14.556-8.192,29.141-16.324,43.646-24.6A5.4,5.4,0,0,1,86.136,541c14.289,8.214,28.662,16.266,43.006,24.379.9.519,1.774,1.1,3,1.86-.975.682-1.607,1.2-2.308,1.6M84.313,537.591q-.258-27.9-.51-55.861c2.809.689,40.632,22.737,48.68,28.3.174,18.414.342,37.017.521,56.413-16.639-9.858-32.557-19.292-48.691-28.85m47.234-30.7q-22.43-12.8-44.955-25.449c-.541-.3-1.026-.706-1.838-1.271.975-.669,1.7-1.229,2.485-1.684q22.109-12.417,44.2-24.84c1.532-.861,2.763-1.139,4.442-.177,14.949,8.543,29.962,16.979,44.944,25.458.541.3,1.028.693,2.057,1.408-1.22.7-1.96,1.136-2.7,1.554q-22.1,12.4-44.193,24.844a3.94,3.94,0,0,1-4.44.157m2.472,56.558c.179-17.012.4-34.036.561-51.046.013-1.746.342-2.988,2.035-3.974,14.978-8.75,29.9-17.6,44.842-26.4a19.655,19.655,0,0,1,1.887-.8c.06,1.284.139,2.132.13,2.977q-.278,25.376-.547,50.728c-.018,1.746-.366,2.961-2.048,3.948q-22.337,13.039-44.573,26.234c-.532.311-1.117.547-1.986.971a22.355,22.355,0,0,1-.3-2.642m95.771,5.872q-7.62,4.28-15.249,8.556v.166q-13.979,7.832-27.932,15.721a4.649,4.649,0,0,1-5.307.053c-14.572-8.357-29.231-16.578-43.858-24.842-.744-.417-1.445-.9-2.439-1.538A13.2,13.2,0,0,1,136.729,566q22.516-12.691,45.063-25.374a3.492,3.492,0,0,1,3.882-.2q14.419,8.206,28.867,16.368v.068q7.805,4.412,15.613,8.829c.8.457,1.532,1.026,2.743,1.849-1.315.755-2.2,1.278-3.107,1.783m3.639-3.4c-.4-.128-.75-.238-1.077-.355L214.866,555.21v.117q-14.009-8.305-28.02-16.6a3.189,3.189,0,0,1-1.889-3.019q-.152-26.508-.426-53.019a8.2,8.2,0,0,1,.124-.944c1.421.205,16.58,8.774,29.887,16.659v.349q8.18,4.849,16.368,9.688a3.909,3.909,0,0,1,2.244,3.791c.082,17.136.278,34.263.428,51.4,0,.624-.073,1.278-.152,2.288m.805-58.705c-.075,0-.148,0-.221-.011a5.519,5.519,0,0,1-.984-.207,7.431,7.431,0,0,1-1.518-.682c-5.53-3.189-11.094-6.325-16.646-9.476v.088q-13.072-7.415-26.155-14.8c-1.013-.569-2.008-1.154-3.363-1.944a25.5,25.5,0,0,1,2.255-1.675q13.628-7.67,27.263-15.333v.007q8.484-4.78,16.964-9.567c.137-.073.271-.137.4-.2.148-.077.291-.135.435-.2a4.447,4.447,0,0,1,2.926-.194,6.221,6.221,0,0,1,1.055.468c14.768,8.45,29.613,16.783,44.427,25.16.625.36,1.2.814,2.288,1.578-2.7,1.545-4.91,2.851-7.152,4.116-12.956,7.28-25.952,14.505-38.868,21.869a6.439,6.439,0,0,1-3.109,1m.711,56.757c.181-17.343.415-34.678.538-52.023a3.97,3.97,0,0,1,.11-.728,4.748,4.748,0,0,1,1.995-2.681c.141-.088.267-.181.417-.269Q255.59,498,273.132,487.664c3.432-2.013,6.9-3.974,10.76-6.2.1,1.006.207,1.7.205,2.375-.19,17.125-.419,34.252-.549,51.374a3.958,3.958,0,0,1-2.244,3.846q-22.178,12.986-44.271,26.109c-.477.282-1.017.521-1.693.843a9.436,9.436,0,0,1-.4-2.039m96.188,4.747q-22.235,12.516-44.467,25.036a5.085,5.085,0,0,1-2.176.737,4,4,0,0,1-1.949-.569c-14.944-8.543-29.957-16.986-44.939-25.462-.545-.307-1.031-.711-2.068-1.417,1.474-.847,2.489-1.45,3.518-2.021q20.083-11.265,40.146-22.571c.991-.558,1.984-1.112,2.975-1.673a7.493,7.493,0,0,1,1.223-.552c.051-.018.1-.033.152-.049a4.306,4.306,0,0,1,.834-.141,4.97,4.97,0,0,1,2.708.755c14.463,8.3,29.015,16.458,43.538,24.665.814.468,1.593,1.006,2.714,1.715-.9.629-1.523,1.159-2.209,1.547m.909-3.844q-21.947-13.012-43.911-25.985a3.9,3.9,0,0,1-2.253-3.78c-.082-17.008-.269-34.018-.415-51.026-.007-.757.09-1.525.181-2.7.479.247.909.466,1.3.662,15.395,9.127,30.474,18.058,45.643,27.049a4.159,4.159,0,0,1,1.214,1.825c.165,18.235.333,36.4.508,55.159-1.064-.558-1.688-.861-2.264-1.207m3.224-57.428a4.78,4.78,0,0,1-2.348-.717c-14.68-8.4-29.419-16.679-44.138-25.008-.706-.406-1.381-.894-2.326-1.523.234-.2.444-.4.642-.58a12.322,12.322,0,0,1,1.474-1.035q18.362-10.341,36.73-20.7,3.8-2.142,7.6-4.281a7.423,7.423,0,0,1,1.033-.477c.044-.018.09-.042.135-.06a4.163,4.163,0,0,1,.96-.177,4.68,4.68,0,0,1,2.445.715c14.68,8.4,29.421,16.679,44.141,25.01.691.391,1.355.88,2.516,1.651l.13.115c-1.34.775-2.152,1.251-2.979,1.712-14.558,8.17-29.139,16.308-43.666,24.553a5.561,5.561,0,0,1-2.35.8m.386,55.245c.2-16.679.415-33.362.554-50.039a5.2,5.2,0,0,1,.64-2.864c.044-.064.09-.13.141-.192a3.68,3.68,0,0,1,.455-.5,5.514,5.514,0,0,1,.854-.638c.015-.009.027-.02.044-.029,14.781-8.622,29.5-17.363,44.246-26.049.11-.068.241-.126.358-.188.474-.241.984-.479,1.591-.77a21.57,21.57,0,0,1,.247,2.48c-.183,17-.41,34-.549,51.01a3.933,3.933,0,0,1-2.123,3.9q-22.314,13.032-44.54,26.2c-.477.285-1.017.505-1.814.876-.046-1.359-.11-2.284-.1-3.2m98.126,5.113c-1,.583-1.776,1.035-2.549,1.465-14.452,8.119-28.931,16.2-43.337,24.4a5.2,5.2,0,0,1-2.869.775,6.058,6.058,0,0,1-2.383-.823c-14.477-8.293-29.02-16.458-43.545-24.668-.8-.455-1.547-1.035-2.56-1.721,1.1-.693,1.867-1.238,2.683-1.7q18.236-10.248,36.47-20.508c2.487-1.4,4.976-2.792,7.461-4.2.143-.082.278-.128.417-.2a6.4,6.4,0,0,1,.726-.324,4.086,4.086,0,0,1,.408-.1,3.852,3.852,0,0,1,.677-.1,5.208,5.208,0,0,1,2.434.759c14.569,8.342,29.212,16.564,43.821,24.829.79.452,1.525,1.015,2.642,1.759-.183.13-.333.238-.5.358m1.214-1.973a8.545,8.545,0,0,1-1.754-.622q-22.384-13.244-44.75-26.495a3.2,3.2,0,0,1-1.9-3.021c-.106-17.65-.278-35.313-.417-52.974a11.058,11.058,0,0,1,.192-1.333c.98.492,1.776.856,2.489,1.28q21.692,12.84,43.366,25.678a6.563,6.563,0,0,1,1.642,1.267c.06.073.128.141.181.216a3.519,3.519,0,0,1,.651,2.183c.062,17.328.269,34.669.422,52.008.009.505-.06,1.031-.117,1.814m.7-58.622a6.154,6.154,0,0,1-2.679-.9c-14.371-8.253-28.827-16.366-43.247-24.531-.819-.464-1.6-1.013-2.71-1.728.814-.583,1.346-1.031,1.946-1.375q22.516-12.658,45.041-25.314a6.6,6.6,0,0,1,.764-.364,3.317,3.317,0,0,1,2.074-.1,3.883,3.883,0,0,1,.713.3q22.874,13.009,45.78,25.948a14.785,14.785,0,0,1,1.412,1.114c-1.331.764-2.249,1.3-3.182,1.825-14.351,8.073-28.735,16.1-43.033,24.268a5.678,5.678,0,0,1-2.88.865m.969,58.86c-.086-1.282-.188-2.171-.179-3.039.179-16.781.413-33.57.543-50.357a4.174,4.174,0,0,1,2.238-4.158c14.682-8.584,29.309-17.266,43.966-25.9a24.5,24.5,0,0,1,2.2-1.1c.073,1.147.181,2.048.172,2.933-.183,16.686-.437,33.365-.525,50.046a4.906,4.906,0,0,1-2.8,4.824c-14.232,8.293-28.4,16.695-42.572,25.069-.823.486-1.662.962-2.694,1.554-.1.033-.225.077-.346.121m96,2.763q-22.245,12.529-44.5,25.036a5.335,5.335,0,0,1-1.955.73,3.544,3.544,0,0,1-1.88-.512q-22.735-12.95-45.548-25.806a16.634,16.634,0,0,1-1.452-1.07,18.107,18.107,0,0,1,1.73-1.351c.139-.088.278-.174.417-.254,14.554-8.192,29.141-16.324,43.646-24.6a6.392,6.392,0,0,1,2.92-.949,6.149,6.149,0,0,1,2.928.936c14.287,8.214,28.66,16.266,43.006,24.379.9.519,1.772,1.1,3,1.86-.973.682-1.6,1.2-2.308,1.6m-45.2-31.246q-.261-27.845-.51-55.748c4.581,1.8,40.53,22.779,48.356,28.185.172,18.352.338,36.9.516,56.221-16.518-9.789-32.336-19.164-48.362-28.658m49.278-30.112a4,4,0,0,1-2.046-.585q-22.43-12.8-44.955-25.449c-.538-.3-1.026-.706-1.836-1.271.973-.669,1.7-1.229,2.485-1.684q22.106-12.417,44.2-24.84a5.394,5.394,0,0,1,2.074-.75,3.9,3.9,0,0,1,2.044.574c14.949,8.543,29.96,16.979,44.944,25.458.541.3,1.026.693,2.057,1.408-1.223.7-1.962,1.136-2.7,1.554q-22.106,12.4-44.193,24.844a5.35,5.35,0,0,1-2.072.741m.428,55.973c.179-17.012.4-34.036.561-51.046.013-1.746.342-2.988,2.032-3.974,14.978-8.75,29.9-17.6,44.845-26.4a13.379,13.379,0,0,1,1.567-.669c.06,1.207.132,2.032.126,2.849q-.281,25.376-.549,50.728c-.018,1.746-.364,2.961-2.048,3.948q-22.337,13.039-44.573,26.234c-.459.269-.993.5-1.682.828a19.178,19.178,0,0,1-.278-2.5m95.661,5.927c-14.477,8.119-28.96,16.2-43.4,24.387a5.7,5.7,0,0,1-2.483.832,5.139,5.139,0,0,1-2.5-.779c-14.574-8.357-29.231-16.578-43.858-24.842-.746-.417-1.445-.9-2.439-1.538A13.191,13.191,0,0,1,539.884,566q22.516-12.691,45.063-25.374a4.9,4.9,0,0,1,1.823-.669,3.307,3.307,0,0,1,1.737.472q23.022,13.1,46.094,26.137a11.99,11.99,0,0,1,1.278,1.061c-1.247.726-2.138,1.249-3.041,1.754m3.749-3.456a9.3,9.3,0,0,1-1.805-.673Q612.381,552,590,538.732a3.186,3.186,0,0,1-1.889-3.019q-.152-26.508-.426-53.019a6.349,6.349,0,0,1,.11-.852c2.633.971,17.173,9.211,29.9,16.759v.157q5.952,3.529,11.91,7.049c2.339,1.457,4.319,2.721,5.738,3.681a3.371,3.371,0,0,1,.805,1.454c.166,18.008.333,35.942.5,54.21-.018.236-.04.488-.062.772m.678-58.7a6.851,6.851,0,0,1-2.964-1.017c-14.09-8.123-28.282-16.07-42.435-24.083-1.013-.569-2.008-1.154-3.363-1.944a25.824,25.824,0,0,1,2.255-1.675c14.649-8.242,29.324-16.441,43.933-24.749a5.91,5.91,0,0,1,2.717-.869,5.446,5.446,0,0,1,2.558.79c14.481,8.306,29.046,16.478,43.573,24.69.825.466,1.6,1.006,2.951,1.869-2.758,1.587-4.968,2.882-7.2,4.142-11.206,6.292-22.43,12.552-33.6,18.906-1.726.98-3.46,1.946-5.186,2.928a6.3,6.3,0,0,1-3.235,1.013m.878,58.664c-.073-1.265-.146-2.18-.137-3.056.179-16.593.439-33.177.5-49.766a5.124,5.124,0,0,1,3-5.058c14.282-8.3,28.494-16.739,42.733-25.116l.353-.2c.682-.391,1.434-.739,2.452-1.247l.007.062c.038,1.421.093,2.348.084,3.255-.19,16.591-.424,33.166-.53,49.763a4.921,4.921,0,0,1-2.714,4.87l-.205.121c-14.269,8.313-28.463,16.756-42.684,25.164-.373.218-.755.437-1.163.671-.461.245-.958.47-1.633.8-.02-.095-.042-.172-.064-.263m96.04,2.871q-22.218,12.523-44.458,25.045a8.584,8.584,0,0,1-.836.4,4.772,4.772,0,0,1-.607.2c-.018.007-.033.007-.051.013a3.453,3.453,0,0,1-1.518.02,4.809,4.809,0,0,1-1.11-.466c-14.949-8.54-29.955-16.979-44.944-25.46-.545-.309-1.031-.706-2.074-1.421,1.284-.746,2.105-1.223,2.946-1.7q21.963-12.327,43.92-24.677a6.3,6.3,0,0,1,1.613-.649,4.233,4.233,0,0,1,1.618.084,4.764,4.764,0,0,1,.885.369c14.953,8.54,29.964,16.977,44.948,25.453.543.3,1.035.691,1.862,1.258-.876.616-1.5,1.141-2.194,1.531m3.065-2.622c-.331-.172-.62-.324-.878-.457-15.7-9.3-30.931-18.33-46.414-27.506a3.446,3.446,0,0,1-.967-1.467c-.168-18.206-.335-36.518-.508-55.318,1.227.633,2.108,1.048,2.915,1.536,14.265,8.441,28.5,16.946,42.81,25.3a4.849,4.849,0,0,1,2.723,4.84c.049,16.465.252,32.939.4,49.406.009,1.009-.044,2.039-.082,3.666m1.05-58.679a5.2,5.2,0,0,1-2.5-.772c-14.574-8.364-29.231-16.582-43.856-24.86-.737-.413-1.448-.9-2.439-1.529a13.361,13.361,0,0,1,1.721-1.439q22.526-12.7,45.065-25.378a6.1,6.1,0,0,1,1.178-.512,3.967,3.967,0,0,1,1.794.077,3.646,3.646,0,0,1,.587.238q23.023,13.108,46.1,26.135a12.713,12.713,0,0,1,1.273,1.075c-1.251.717-2.145,1.238-3.043,1.75-14.472,8.117-28.962,16.2-43.4,24.385a7.814,7.814,0,0,1-1.337.618c-.077.024-.152.024-.227.044a4.225,4.225,0,0,1-.914.168m.583,58.445c-.082-1.167-.185-2.066-.177-2.962.19-16.783.415-33.563.543-50.355a4.187,4.187,0,0,1,2.244-4.158c14.688-8.585,29.311-17.266,43.966-25.9.62-.369,1.324-.671,2.191-1.086.077,1.152.188,2.055.176,2.939-.181,16.688-.428,33.36-.516,50.048a4.921,4.921,0,0,1-2.774,4.815c-1.154.673-2.3,1.353-3.456,2.028q-19.9,11.616-39.723,23.359c-.713.415-1.5.783-2.452,1.26l-.024.011M835,568.9q-10.023,5.641-20.055,11.281-1.738.98-3.478,1.957-10.447,5.869-20.885,11.747a4.685,4.685,0,0,1-4.449.042c-14.858-8.487-29.772-16.873-44.668-25.3-.541-.307-1.028-.708-2.05-1.408,1.209-.7,1.949-1.136,2.695-1.547q22.1-12.42,44.2-24.842a5.4,5.4,0,0,1,2.066-.75,3.973,3.973,0,0,1,1.059.157,4.719,4.719,0,0,1,.989.417c14.958,8.54,29.964,16.979,44.953,25.46.534.3,1.026.7,1.84,1.258-.891.625-1.514,1.137-2.216,1.527m3.021-3.006c-.329-.108-.647-.2-.94-.285a13.964,13.964,0,0,1-1.286-.644q-21.957-12.993-43.909-26c-1.377-.81-2.255-1.6-2.258-3.467-.075-17.334-.271-34.664-.422-52,0-.578.1-1.174.2-2.165l.121.06c1.2.662,2.052,1.123,2.878,1.613,14.17,8.395,28.322,16.836,42.543,25.153a4.873,4.873,0,0,1,2.822,4.8c.037,16.584.245,33.164.377,49.741.011.96-.062,1.942-.124,3.2m1.419-58.71a4.488,4.488,0,0,1-1.876-.139,7.746,7.746,0,0,1-1.485-.684c-14.373-8.256-28.832-16.357-43.251-24.529-.821-.459-1.6-1.006-2.719-1.73.81-.576,1.342-1.033,1.935-1.366q22.523-12.662,45.036-25.328a4.188,4.188,0,0,1,1.977-.616,4.283,4.283,0,0,1,1.86.6q12.82,7.292,25.678,14.538v-.095q9.974,5.644,19.939,11.3a14.45,14.45,0,0,1,1.415,1.114c-1.333.764-2.249,1.3-3.182,1.825q-9.08,5.108-18.171,10.206v-.015q-12.5,7.028-24.961,14.117a7.868,7.868,0,0,1-1.245.563,5.178,5.178,0,0,1-.682.19c-.09.022-.179.029-.269.044m.095,56.1c.183-16.889.406-33.786.554-50.679.013-1.763.375-2.964,2.052-3.941q12.41-7.246,24.78-14.567v-.174q9.57-5.65,19.144-11.3c.7-.424,1.463-.739,2.511-1.245.073,1.229.192,2.154.183,3.081-.183,16.686-.435,33.365-.523,50.046a4.91,4.91,0,0,1-2.8,4.824q-9.437,5.5-18.837,11.056v-.013q-12.956,7.637-25.917,15.26a6.835,6.835,0,0,1-1.024.384c-.053-1.117-.135-1.927-.121-2.734m96.29,5.555q-22.248,12.529-44.5,25.036c-1.426.806-2.6,1.114-4.16.219q-10.1-5.756-20.241-11.469v-.1q-12.589-7.13-25.184-14.249c-.373-.2-.7-.49-1.37-.962a17.488,17.488,0,0,1,1.973-1.54q12.287-6.922,24.581-13.828v-.17q9.527-5.359,19.032-10.763a5.4,5.4,0,0,1,6.172-.013c14.289,8.214,28.662,16.266,43.006,24.379.9.519,1.774,1.1,3,1.86-.975.682-1.607,1.2-2.308,1.6M890.3,537.591q-.261-27.9-.51-55.861c2.807.689,40.632,22.737,48.68,28.3.174,18.414.34,37.017.519,56.413-16.637-9.858-32.555-19.292-48.689-28.85m47.234-30.7q-22.433-12.8-44.957-25.449c-.539-.3-1.024-.706-1.836-1.271.975-.669,1.7-1.229,2.485-1.684q22.109-12.417,44.2-24.84c1.532-.861,2.763-1.139,4.442-.177,14.949,8.543,29.962,16.979,44.944,25.458.541.3,1.028.693,2.057,1.408-1.22.7-1.96,1.136-2.7,1.554q-22.106,12.4-44.194,24.844a3.94,3.94,0,0,1-4.44.157m2.472,56.558c.181-17.012.4-34.036.561-51.046.013-1.746.342-2.988,2.035-3.974,14.978-8.75,29.9-17.6,44.842-26.4a19.641,19.641,0,0,1,1.887-.8c.06,1.284.139,2.132.13,2.977q-.278,25.376-.547,50.728c-.02,1.746-.366,2.961-2.048,3.948q-22.337,13.039-44.575,26.234c-.53.311-1.114.547-1.984.971a22.327,22.327,0,0,1-.3-2.642m95.985,5.927c-14.474,8.119-28.96,16.2-43.395,24.387a4.649,4.649,0,0,1-5.307.053c-14.572-8.357-29.231-16.578-43.858-24.842-.744-.417-1.445-.9-2.439-1.538A13.2,13.2,0,0,1,942.717,566q22.516-12.691,45.063-25.374a3.492,3.492,0,0,1,3.882-.2q23.022,13.1,46.1,26.137a12.219,12.219,0,0,1,1.278,1.061c-1.247.726-2.138,1.249-3.043,1.754m1.622-4.129q-22.4-13.254-44.781-26.519a3.186,3.186,0,0,1-1.889-3.019c-.1-17.672-.272-35.34-.426-53.019a8.208,8.208,0,0,1,.124-.944c2.291.331,40.241,22.373,48.658,28.287.17,18.608.342,37.13.512,56.015a14.247,14.247,0,0,1-2.2-.8m-.483-59.041c-14.088-8.123-28.28-16.07-42.432-24.083-1.013-.569-2.008-1.154-3.363-1.944a25.175,25.175,0,0,1,2.255-1.675c14.647-8.242,29.324-16.441,43.931-24.749a4.951,4.951,0,0,1,5.6-.079c14.483,8.306,29.046,16.478,43.576,24.69.825.466,1.6,1.006,2.948,1.869-2.759,1.587-4.968,2.882-7.2,4.142-12.963,7.28-25.965,14.49-38.862,21.885a5.634,5.634,0,0,1-6.448-.055m3.705,56.624c.179-16.593.441-33.177.505-49.766a5.122,5.122,0,0,1,3-5.058c14.346-8.337,28.618-16.811,42.916-25.224.8-.477,1.66-.852,2.948-1.5.037,1.558.1,2.52.088,3.476-.188,16.591-.422,33.166-.528,49.763a4.925,4.925,0,0,1-2.725,4.877c-14.335,8.351-28.6,16.831-42.88,25.279-.894.523-1.792,1.031-3.151,1.812-.077-1.611-.179-2.644-.17-3.659m96.5,5.927q-22.218,12.523-44.461,25.045a3.961,3.961,0,0,1-4.447.168c-14.949-8.54-29.955-16.979-44.944-25.46-.545-.309-1.028-.706-2.072-1.421,1.282-.746,2.105-1.223,2.946-1.7q21.96-12.327,43.918-24.677c1.521-.852,2.747-1.163,4.44-.2,14.955,8.54,29.966,16.977,44.951,25.453.541.3,1.035.691,1.86,1.258-.874.616-1.5,1.141-2.191,1.531m3.056-2.37c-16.452-9.75-32.356-19.177-48.567-28.783-.17-18.555-.342-37.216-.516-56.382,1.412.737,2.359,1.17,3.242,1.7,14.263,8.441,28.494,16.946,42.808,25.3a4.846,4.846,0,0,1,2.723,4.84c.051,16.465.252,32.939.4,49.406.009,1.064-.048,2.13-.088,3.917m-1.765-59.7c-14.576-8.364-29.234-16.582-43.856-24.86-.739-.413-1.45-.9-2.438-1.529a13.352,13.352,0,0,1,1.719-1.439q22.526-12.7,45.065-25.378a3.517,3.517,0,0,1,3.884-.2q23.026,13.108,46.1,26.135a12.462,12.462,0,0,1,1.273,1.075c-1.251.717-2.145,1.238-3.041,1.75-14.474,8.117-28.962,16.2-43.4,24.385a4.657,4.657,0,0,1-5.3.057m2.9,56.256c.19-16.783.415-33.563.545-50.355a4.185,4.185,0,0,1,2.242-4.158c14.688-8.585,29.313-17.266,43.966-25.9.7-.417,1.47-.724,2.5-1.234.079,1.234.2,2.163.19,3.087-.183,16.688-.43,33.36-.519,50.048a4.924,4.924,0,0,1-2.794,4.831c-14.424,8.395-28.77,16.9-43.156,25.372-.8.468-1.657.85-2.79,1.428-.084-1.256-.2-2.178-.19-3.118m96.618,5.956q-22.225,12.509-44.469,25.016a3.971,3.971,0,0,1-4.445.17c-14.949-8.54-29.957-16.981-44.946-25.458-.541-.307-1.026-.708-2.048-1.408,1.209-.7,1.946-1.136,2.692-1.547q22.106-12.42,44.2-24.842c1.521-.858,2.756-1.145,4.44-.177,14.958,8.54,29.964,16.979,44.953,25.46.532.3,1.024.7,1.838,1.258-.89.625-1.514,1.137-2.216,1.527m-42.6-85.893c14.17,8.395,28.32,16.836,42.541,25.153a4.869,4.869,0,0,1,2.823,4.8c.037,16.584.245,33.164.377,49.741.013,1.037-.073,2.083-.137,3.487-1.07-.512-1.834-.808-2.536-1.22q-21.96-12.993-43.911-26c-1.375-.81-2.253-1.6-2.258-3.467-.073-17.334-.269-34.664-.419-52-.007-.616.11-1.231.214-2.341,1.441.8,2.381,1.3,3.306,1.849m45.509-34.567a3.233,3.233,0,0,1-1.664,3.189q-22.86,13.423-45.668,26.919a11.7,11.7,0,0,1-1.443.536c-.046-1.41-.126-2.45-.11-3.487.179-16.586.417-33.168.514-49.761a4.932,4.932,0,0,1,2.787-4.844c14.435-8.406,28.8-16.924,43.192-25.4.735-.432,1.472-.852,2.518-1.454a12.343,12.343,0,0,1,.441,2.3q-.261,26-.567,52.008m-46.341-140.379q22.271,13.161,44.5,26.354c1.187.7,1.979,1.381,1.988,2.955.09,17.782.258,35.552.4,53.332a5.907,5.907,0,0,1-.28,1.077c-8.273-4.48-16.143-9.432-24.151-14.135-8.068-4.736-16.105-9.553-24.2-14.353-.17-18.683-.34-37.185-.508-56.068a14.966,14.966,0,0,1,2.258.839m46.678-34.618a3.939,3.939,0,0,1-2.076,3.941q-22.443,13.108-44.818,26.358c-.452.267-.96.455-1.882.892-.053-1.306-.135-2.143-.121-2.977.188-16.893.4-33.788.549-50.688a3.937,3.937,0,0,1,2.094-3.913c14.867-8.688,29.684-17.476,44.516-26.228.554-.322,1.148-.561,2.008-1a21.451,21.451,0,0,1,.28,2.608c-.179,17.006-.408,34.009-.55,51m.194-112.223c.174,18.652.346,37.269.525,56.2a9.677,9.677,0,0,1-1.935-.614q-22.532-13.32-45.061-26.669a3.2,3.2,0,0,1-1.869-3.041c-.1-17.67-.278-35.338-.424-53.007,0-.313.079-.629.221-1.642,16.379,9.706,32.378,19.188,48.543,28.777m.814-113.706c-.17,17.429-.386,34.861-.554,52.292a3.268,3.268,0,0,1-1.737,3.151q-22.986,13.469-45.932,27.011a7.8,7.8,0,0,1-1.086.331c-.062-1.09-.15-1.92-.139-2.745.185-17,.4-34,.547-51.013a3.7,3.7,0,0,1,2.026-3.628q22.43-13.145,44.792-26.4c.459-.271.955-.472,1.657-.819a8.14,8.14,0,0,1,.426,1.814m-95.95-5.129c14.552-8.17,29.121-16.3,43.631-24.546a4.41,4.41,0,0,1,5.012.018c14.569,8.337,29.209,16.56,43.82,24.822.808.455,1.547,1.033,2.586,1.717-1.1.7-1.858,1.247-2.672,1.706-14.541,8.189-29.106,16.326-43.6,24.584a4.922,4.922,0,0,1-5.588-.035c-14.472-8.293-29.019-16.465-43.534-24.672-.808-.457-1.545-1.035-2.723-1.829,1.276-.733,2.169-1.26,3.07-1.763m-3.723,3.361a8.8,8.8,0,0,1,1.832.556q22.532,13.324,45.03,26.658A3.189,3.189,0,0,1,1191.472,76c.108,17.661.28,35.311.424,52.972a12.14,12.14,0,0,1-.229,1.454c-1.154-.589-2.008-.975-2.811-1.445q-21.688-12.85-43.373-25.672a4.117,4.117,0,0,1-2.43-4.019c-.068-17.012-.26-34.029-.415-51.035,0-.746.062-1.492.1-2.5m1.43,59.12c14.951,8.547,29.955,16.984,44.946,25.451.538.311,1.033.7,1.854,1.265-.975.673-1.69,1.249-2.478,1.686Q1166.4,145.7,1144.3,158.129a3.94,3.94,0,0,1-4.434.185c-14.96-8.54-29.966-16.984-44.953-25.453-.543-.307-1.033-.7-2.07-1.421,1.2-.689,1.935-1.13,2.681-1.54q22.106-12.407,44.2-24.84a3.961,3.961,0,0,1,4.445-.192m-2.58-56.448c-.192,16.886-.408,33.782-.558,50.682-.011,1.759-.362,2.97-2.041,3.959-14.971,8.721-29.887,17.553-44.827,26.354-.45.267-.956.459-1.684.808a14.026,14.026,0,0,1-.351-2.211c.174-17.217.4-34.433.56-51.646a3.5,3.5,0,0,1,1.79-3.445q22.857-13.383,45.643-26.868a10.823,10.823,0,0,1,1.315-.505c.066,1.2.155,2.039.152,2.873m-96.04-5.85c14.463-8.139,28.955-16.224,43.357-24.46a5.142,5.142,0,0,1,5.89.046c14.386,8.251,28.854,16.366,43.289,24.533.83.468,1.622,1.006,2.7,1.684a13.194,13.194,0,0,1-1.794,1.468q-22.542,12.685-45.087,25.339a3.494,3.494,0,0,1-3.877.166q-22.89-13.026-45.831-25.967c-.36-.205-.673-.5-1.525-1.154,1.249-.724,2.059-1.192,2.876-1.653M1090.6,74.085c.17,18.716.344,37.28.519,56.6-16.556-9.811-32.517-19.272-48.689-28.845-.174-18.595-.346-37.2-.523-56.618,16.655,9.875,32.639,19.351,48.693,28.867m-47.625,30.474q23.013,13.085,46.06,26.1a12.424,12.424,0,0,1,1.176,1.022c-1.216.7-2.127,1.231-3.039,1.746-14.353,8.084-28.733,16.114-43.042,24.27a5.152,5.152,0,0,1-5.886.071c-14.448-8.322-29-16.467-43.52-24.683-.739-.413-1.432-.907-2.414-1.543a11.29,11.29,0,0,1,1.476-1.245q22.791-12.827,45.6-25.643a3.229,3.229,0,0,1,3.586-.1m-2.081-56.28c-.186,17.014-.4,34.031-.552,51.054a3.959,3.959,0,0,1-2.092,3.928c-14.8,8.644-29.521,17.39-44.275,26.093-.622.369-1.3.638-2.39,1.15-.075-1.269-.163-2.013-.157-2.756.188-17.017.424-34.031.545-51.054a4.216,4.216,0,0,1,2.372-4.1c14.7-8.578,29.353-17.248,44.019-25.892.622-.366,1.3-.642,2.266-1.119a26.225,26.225,0,0,1,.263,2.7m-96.963-5.4c14.832-8.351,29.69-16.655,44.5-25.058a4.414,4.414,0,0,1,5.027-.057c14.678,8.392,29.423,16.679,44.136,25,.726.413,1.4.922,2.613,1.717-2.728,1.567-4.939,2.871-7.177,4.131-12.963,7.282-25.954,14.505-38.866,21.874-2.2,1.256-3.857,1.43-6.159.1-14.183-8.187-28.466-16.178-42.715-24.244-1.011-.574-2.006-1.163-3.306-1.924a17.477,17.477,0,0,1,1.949-1.543m-2.681,2.536c1.258.658,2.2,1.088,3.087,1.618,14.28,8.45,28.523,16.962,42.852,25.339a4.851,4.851,0,0,1,2.8,4.8c.046,16.591.249,33.186.393,49.775.009,1.042-.084,2.088-.137,3.522-1.258-.658-2.2-1.095-3.087-1.615-14.276-8.452-28.527-16.962-42.856-25.336a4.867,4.867,0,0,1-2.789-4.811c-.049-16.589-.249-33.177-.393-49.783-.013-1.031.071-2.068.128-3.511m2.156,59.844c14.375,8.264,28.85,16.372,43.286,24.542.834.47,1.631,1,2.69,1.657a8.744,8.744,0,0,1-1.395,1.333q-22.811,12.844-45.639,25.665a3.281,3.281,0,0,1-3.6.051q-23.039-13.1-46.1-26.133a11.26,11.26,0,0,1-1.143-.925c1.073-.7,1.832-1.249,2.65-1.706,14.457-8.136,28.944-16.224,43.353-24.451a5.157,5.157,0,0,1,5.892-.033M940.055,48.42c-.174,16.906-.391,33.819-.547,50.726-.011,1.743-.335,2.962-2.032,3.955-14.887,8.686-29.715,17.48-44.564,26.235-.541.316-1.125.556-2.218,1.088-.037-1.6-.093-2.655-.084-3.7.188-16.483.428-32.956.512-49.441a5.167,5.167,0,0,1,2.889-5.137c14.538-8.423,28.982-17.014,43.463-25.548.636-.373,1.32-.644,2.348-1.132.1,1.165.245,2.063.234,2.959m-96.813-5.2q11.837-6.67,23.677-13.3V29.73q10.556-5.929,21.11-11.866a3.95,3.95,0,0,1,4.445-.17c14.949,8.536,29.964,16.975,44.946,25.453.545.311,1.028.7,1.843,1.262-.894.625-1.527,1.137-2.22,1.534q-22.231,12.5-44.469,25.014a3.954,3.954,0,0,1-4.447.157q-10.589-6.044-21.208-12.036v-.055Q855.142,52.36,843.369,45.69c-.543-.3-1.022-.7-1.81-1.251a19.725,19.725,0,0,1,1.684-1.22m11.3,10.376c11.577,6.865,23.039,13.66,34.53,20.466.168,18.678.335,37.264.51,56.6-4.378-2.6-7.98-4.736-11.586-6.872l-11.08-6.574v-.075c-8.236-4.881-16.414-9.73-24.65-14.609a4.017,4.017,0,0,1-1.156-1.807q-.255-27.213-.508-54.557c1.6.574,7.093,3.542,13.94,7.426m-14.66,50.785a6.731,6.731,0,0,1,2.97,1q11.824,6.836,23.739,13.526V118.8q9.815,5.541,19.63,11.085c.73.413,1.412.92,2.641,1.715-2.536,1.461-4.559,2.65-6.6,3.8q-12.877,7.236-25.753,14.474-7.183,4.035-14.357,8.079a4.74,4.74,0,0,1-3.844.514,5.231,5.231,0,0,1-.565-.243c-14.969-8.543-29.979-16.992-44.984-25.484-.547-.3-1.037-.7-1.966-1.342,1.145-.737,1.829-1.238,2.562-1.648,14.362-8.086,28.759-16.105,43.068-24.29a6.9,6.9,0,0,1,3.458-1.086m-.629-56.865c-.172,17.429-.388,34.861-.556,52.292a5.665,5.665,0,0,1-.055.569,4.7,4.7,0,0,1-2.255,2.92q-22.7,13.3-45.357,26.674a4.075,4.075,0,0,1-.77.241c-.057-1.042-.141-1.856-.13-2.655.183-17,.4-34,.545-51.013a3.7,3.7,0,0,1,2.026-3.628q22.43-13.145,44.794-26.4c.386-.23.828-.424,1.37-.682a6.757,6.757,0,0,1,.388,1.677m-98.342-3.571c1.084-.622,1.9-1.106,2.717-1.558,14.549-8.17,29.119-16.3,43.629-24.546a5.01,5.01,0,0,1,2.4-.737,5.233,5.233,0,0,1,2.291.755c14.567,8.337,29.209,16.56,43.821,24.822.805.455,1.547,1.033,2.586,1.717-1.1.7-1.86,1.247-2.675,1.706-14.538,8.189-29.106,16.326-43.6,24.584a7.3,7.3,0,0,1-1.13.505,4.912,4.912,0,0,1-.726.2c-.042.009-.082.011-.124.02a4.356,4.356,0,0,1-1.865-.117,7.652,7.652,0,0,1-1.421-.647c-14.47-8.293-29.019-16.465-43.531-24.672-.8-.452-1.536-1.026-2.695-1.81.121-.082.212-.146.324-.225M739.9,45.827a5.873,5.873,0,0,1,1.51.477q22.533,13.324,45.032,26.658a3.343,3.343,0,0,1,1.735,1.993l.013.038a3.957,3.957,0,0,1,.124,1q.162,26.492.421,52.972a9.33,9.33,0,0,1-.2,1.306c-.993-.5-1.79-.874-2.516-1.3q-21.685-12.85-43.373-25.672a4.118,4.118,0,0,1-2.427-4.019c-.068-17.012-.263-34.029-.415-51.035,0-.724.057-1.459.1-2.425m-.938,58.476a3.22,3.22,0,0,1,.538.044,3.3,3.3,0,0,1,.377.053,4.7,4.7,0,0,1,1.13.468c14.953,8.547,29.957,16.984,44.948,25.451.527.3,1.019.689,1.814,1.238-.185.146-.34.276-.5.41a21.155,21.155,0,0,1-1.94,1.3q-22.089,12.433-44.191,24.86a6.037,6.037,0,0,1-1.7.669,1.542,1.542,0,0,1-.841.046,2.936,2.936,0,0,1-.432-.055,4.649,4.649,0,0,1-1.137-.474c-14.96-8.54-29.966-16.984-44.953-25.453-.541-.307-1.033-.7-2.07-1.421,1.2-.689,1.935-1.13,2.683-1.54q22.105-12.407,44.2-24.84a5.473,5.473,0,0,1,2.074-.757m-.532-55.883c-.194,16.886-.411,33.782-.561,50.682a4.493,4.493,0,0,1-.8,2.856,3.389,3.389,0,0,1-.3.377,4.862,4.862,0,0,1-.5.384,6.1,6.1,0,0,1-.558.408c-14.892,8.677-29.73,17.462-44.593,26.217-.344.185-.73.375-1.165.585l-.342.157a11.932,11.932,0,0,1-.324-2.074c.174-17.217.4-34.433.563-51.646a3.5,3.5,0,0,1,1.79-3.445Q714.5,59.536,737.292,46.052a6.1,6.1,0,0,1,1-.391c.064,1.134.148,1.953.146,2.759m-95.716-5.85c14.461-8.139,28.956-16.224,43.355-24.46a5.682,5.682,0,0,1,2.889-.861,6.164,6.164,0,0,1,2.677.907c14.388,8.251,28.854,16.366,43.291,24.533.828.468,1.62,1.006,2.7,1.684a13.065,13.065,0,0,1-1.8,1.468Q713.3,58.525,690.752,71.178c-.2.113-.382.183-.569.269a3.57,3.57,0,0,1-2.33.168,4.1,4.1,0,0,1-.656-.271q-22.89-13.026-45.829-25.967a18.938,18.938,0,0,1-1.527-1.154c1.249-.724,2.059-1.192,2.878-1.653m-1.17,4.308c15.642,9.275,30.745,18.23,45.893,27.208.17,18.652.344,37.156.514,56.4-16.436-9.741-32.3-19.142-48.362-28.651-.172-18.508-.342-37.028-.519-56.351.841.459,1.646.929,2.474,1.392m-2.3,57.443a3.856,3.856,0,0,1,.563.238q23.013,13.085,46.058,26.1a8.288,8.288,0,0,1,.982.847,12.676,12.676,0,0,1-1.64,1.231q-4.095,2.314-8.192,4.617-12.516,7.034-25.01,14.095-5.776,3.257-11.557,6.514a5.859,5.859,0,0,1-2.218.673,5.668,5.668,0,0,1-2.829-.869c-14.45-8.322-29-16.467-43.523-24.683-.737-.413-1.43-.907-2.412-1.543a11.429,11.429,0,0,1,1.474-1.245q22.794-12.827,45.6-25.643a5.5,5.5,0,0,1,.794-.369,3.744,3.744,0,0,1,1.9.031m-1.518-56.042c-.185,17.014-.4,34.031-.554,51.054a5.815,5.815,0,0,1-.28,1.794,4.455,4.455,0,0,1-1.443,1.856c-.1.068-.168.143-.276.21-.075.053-.161.1-.241.157-14.746,8.615-29.421,17.33-44.125,26.005-.556.329-1.172.589-2.077,1.006-.073-1.174-.152-1.9-.148-2.613.188-17.017.426-34.031.547-51.054a4.212,4.212,0,0,1,2.372-4.1c14.7-8.578,29.351-17.248,44.017-25.892.547-.322,1.17-.594,1.962-.973a22.959,22.959,0,0,1,.245,2.553m-96.64-5.4c14.832-8.351,29.69-16.655,44.5-25.058a5.39,5.39,0,0,1,2.348-.788,4.851,4.851,0,0,1,2.355.73c14.677,8.392,29.421,16.679,44.136,25,.658.375,1.293.839,2.3,1.514a11.619,11.619,0,0,1-1.143,1.042c-1.031.594-2,1.156-2.933,1.695q-6.342,3.572-12.68,7.141c-9.675,5.42-19.349,10.835-28.978,16.33a6.734,6.734,0,0,1-2.948,1.008,5.926,5.926,0,0,1-2.889-.907C570.985,62.4,556.7,54.409,542.453,46.343c-1.008-.574-2-1.163-3.3-1.924a17.49,17.49,0,0,1,1.946-1.543m-2.686,2.7c1.088.561,1.964.978,2.77,1.456,14.28,8.45,28.521,16.962,42.852,25.339a4.857,4.857,0,0,1,2.8,4.8c.044,16.591.247,33.186.393,49.775.007,1-.077,2.013-.132,3.361-1.088-.561-1.966-.984-2.77-1.454-14.276-8.452-28.525-16.962-42.854-25.336a4.868,4.868,0,0,1-2.792-4.811c-.049-16.589-.247-33.177-.391-49.783-.013-.989.064-1.993.121-3.35m-.953,58.8a5.847,5.847,0,0,1,2.792.883c14.373,8.264,28.85,16.372,43.284,24.542.836.47,1.633,1,2.69,1.657a8.744,8.744,0,0,1-1.393,1.333q-22.814,12.844-45.641,25.665a4.013,4.013,0,0,1-1.657.538,3.46,3.46,0,0,1-1.613-.488q-23.039-13.1-46.1-26.133a11.8,11.8,0,0,1-1.143-.925c1.075-.7,1.834-1.249,2.653-1.706,14.457-8.136,28.942-16.224,43.353-24.451a6.181,6.181,0,0,1,2.776-.916M536.9,48.42c-.174,16.906-.391,33.819-.547,50.726-.013,1.743-.338,2.962-2.032,3.955-14.887,8.686-29.717,17.48-44.566,26.235-.479.28-1.017.514-1.9.936-.038-1.512-.088-2.538-.082-3.551.19-16.483.43-32.956.514-49.441a5.165,5.165,0,0,1,2.887-5.137c14.541-8.423,28.982-17.014,43.465-25.548.561-.329,1.2-.6,2.037-.989.1,1.09.229,1.96.221,2.816m-96.874-5.16c.344-.2.66-.38.971-.552q3.214-1.807,6.428-3.613,8.166-4.591,16.339-9.18v0q10.718-6.018,21.432-12.047a5.416,5.416,0,0,1,2.072-.748,3.948,3.948,0,0,1,2.05.578c14.949,8.536,29.964,16.975,44.946,25.453.543.311,1.028.7,1.84,1.262-.891.625-1.525,1.137-2.218,1.534q-22.231,12.5-44.472,25.014a5.388,5.388,0,0,1-2.07.741,3.99,3.99,0,0,1-2.052-.585c-14.953-8.536-29.96-16.973-44.942-25.447-.514-.294-.989-.669-1.874-1.284a18.651,18.651,0,0,1,1.547-1.123M437.7,46.144a84.212,84.212,0,0,1,8.2,4.2c13.466,7.989,26.7,15.834,40.012,23.717.168,18.617.335,37.141.51,56.408-4.228-2.5-7.748-4.6-11.261-6.678-11.491-6.815-22.968-13.662-34.5-20.393a4.612,4.612,0,0,1-2.686-4.544c-.057-16.593-.252-33.182-.4-49.772,0-.852.057-1.726.119-2.937m.43,58.414a6.7,6.7,0,0,1,1.084.483c14.58,8.351,29.229,16.575,43.854,24.844.728.413,1.412.92,2.642,1.715-2.536,1.461-4.559,2.65-6.6,3.8-13.241,7.441-26.508,14.843-39.709,22.357a5.78,5.78,0,0,1-3.006.907,5.592,5.592,0,0,1-2.253-.8c-14.477-8.3-29.044-16.469-43.571-24.681-.828-.472-1.611-1.015-2.719-1.708a22.018,22.018,0,0,1,2.169-1.611c14.609-8.231,29.256-16.412,43.847-24.7.079-.042.161-.084.241-.119.183-.1.355-.166.534-.249a5.224,5.224,0,0,1,3.489-.243m-2.1-58.747c.09,1.183.185,2.032.17,2.862-.179,16.681-.43,33.362-.519,50.037a4.907,4.907,0,0,1-2.789,4.831c-14.234,8.284-28.393,16.7-42.58,25.067-.808.474-1.633.945-2.679,1.547-.11.029-.256.071-.413.117-.057-1.384-.137-2.361-.135-3.326.185-16.571.435-33.142.516-49.717a4.917,4.917,0,0,1,2.809-4.815c14.227-8.3,28.388-16.714,42.569-25.083.534-.318,1.073-.629,1.666-.969.382-.2.8-.388,1.353-.662.009.04.022.073.031.11M340,42.68q8.888-5,17.774-10,4.287-2.407,8.569-4.82c6.044-3.4,12.093-6.782,18.127-10.2a6.621,6.621,0,0,1,.689-.311,3.909,3.909,0,0,1,2.553-.106,5.716,5.716,0,0,1,.874.391q22.162,12.642,44.388,25.138c.719.4,1.377.927,2.467,1.675-1.267.724-2.16,1.249-3.052,1.759-14.45,8.128-28.922,16.213-43.331,24.416a5.526,5.526,0,0,1-2.717.821,5.767,5.767,0,0,1-2.542-.825c-14.472-8.3-29.022-16.463-43.536-24.679-.812-.45-1.558-1.022-2.593-1.712.962-.647,1.615-1.156,2.33-1.551m-3.065,3.112c.256.068.508.128.737.185a15.522,15.522,0,0,1,1.474.744Q361.1,59.71,383.073,72.705a3.886,3.886,0,0,1,2.2,3.824c.095,17.008.282,34.022.43,51.035,0,.781-.108,1.573-.194,2.633-.867-.408-1.571-.7-2.191-1.073q-21.963-13.012-43.926-25.992a3.91,3.91,0,0,1-2.209-3.818c-.084-17.019-.267-34.027-.417-51.037,0-.733.093-1.5.172-2.487m-.962,58.5a4.4,4.4,0,0,1,2.2.662c14.761,8.432,29.584,16.765,44.383,25.144.64.351,1.238.79,2.149,1.379a18.069,18.069,0,0,1-1.8,1.4q-22.519,12.665-45.03,25.334a4.6,4.6,0,0,1-1.935.653,4.017,4.017,0,0,1-1.9-.572q-22.582-12.863-45.233-25.606c-.448-.258-.856-.6-1.838-1.3,1.249-.719,2.07-1.2,2.9-1.664q21.967-12.331,43.918-24.685a7.06,7.06,0,0,1,1.143-.53c.1-.035.2-.044.3-.071a3.957,3.957,0,0,1,.75-.148m-.6-55.927c-.183,16.9-.413,33.791-.534,50.679a4.226,4.226,0,0,1-2.335,4.122C317.725,111.79,303,120.511,288.246,129.2c-.477.28-1.013.521-1.673.843a11.339,11.339,0,0,1-.329-2.072q.275-25.83.558-51.661a3.5,3.5,0,0,1,1.8-3.427q22.84-13.39,45.635-26.872a10.113,10.113,0,0,1,1-.384c.064,1.125.154,1.935.141,2.743m-95.921-5.722c14.552-8.2,29.134-16.339,43.648-24.6a7.92,7.92,0,0,1,1.156-.534,5.458,5.458,0,0,1,.775-.216l.051-.009a4.5,4.5,0,0,1,1.986.128,7.208,7.208,0,0,1,1.3.578c14.474,8.309,29.044,16.476,43.573,24.7.823.459,1.591,1.011,2.692,1.712-.9.66-1.509,1.212-2.2,1.609q-22.261,12.5-44.522,25.012a4.752,4.752,0,0,1-2.132.693,4.287,4.287,0,0,1-1.995-.616Q261.331,58.3,238.805,45.628c-.541-.3-1.02-.719-2.041-1.443,1.231-.713,1.96-1.137,2.692-1.54m20.7,17.037c8.066,4.74,16.1,9.54,24.242,14.371.163,18.625.335,37.132.51,56.393-16.522-9.794-32.339-19.164-48.358-28.658-.174-18.517-.347-37.052-.527-56.245,8.459,4.634,16.235,9.5,24.134,14.139m-25.083,44.5a4.325,4.325,0,0,1,2.271.644c14.764,8.441,29.584,16.774,44.386,25.149.6.335,1.189.748,2.017,1.284.035.033.084.075.124.113a15.337,15.337,0,0,1-1.81,1.37c-15,8.47-30.024,16.886-45.012,25.369a5.856,5.856,0,0,1-.92.419,4.449,4.449,0,0,1-2.3-.093,5.256,5.256,0,0,1-.62-.271q-9.156-5.214-18.341-10.385v.084q-13.059-7.4-26.131-14.777c-.739-.413-1.43-.907-2.412-1.543A11.285,11.285,0,0,1,187.8,130.3q22.569-12.7,45.156-25.392a5.334,5.334,0,0,1,2.121-.728m-.538-58.536c.062,1.311.157,2.311.148,3.29-.185,16.6-.417,33.173-.525,49.761a4.93,4.93,0,0,1-2.721,4.879q-8.468,4.936-16.9,9.939v.163q-13.281,7.832-26.557,15.675c-.622.369-1.3.638-2.39,1.15-.075-1.269-.163-2.013-.157-2.756.188-17.017.424-34.031.545-51.054a4.216,4.216,0,0,1,2.372-4.1q13.277-7.746,26.51-15.567v.007q8.557-5.038,17.116-10.074c.726-.426,1.514-.79,2.553-1.311m-96.594-2.77c14.832-8.351,29.69-16.655,44.5-25.058a4.418,4.418,0,0,1,5.029-.057q13.509,7.726,27.073,15.364v.057q8.236,4.654,16.474,9.315c.828.468,1.629,1,2.692,1.657a9.5,9.5,0,0,1-1.45,1.311q-8.858,4.992-17.716,9.977v.177q-13.2,7.4-26.369,14.867c-2.2,1.256-3.857,1.43-6.159.1C167.83,62.4,153.547,54.409,139.3,46.343c-1.011-.574-2.006-1.163-3.306-1.924a17.482,17.482,0,0,1,1.949-1.543m-2.679,2.536c1.256.658,2.2,1.088,3.085,1.618,14.28,8.45,28.523,16.962,42.852,25.339a4.856,4.856,0,0,1,2.8,4.8c.042,16.591.247,33.186.391,49.775.009,1.042-.084,2.088-.137,3.522-1.26-.658-2.2-1.095-3.087-1.615-14.276-8.452-28.525-16.962-42.856-25.336a4.87,4.87,0,0,1-2.789-4.811c-.049-16.589-.247-33.177-.393-49.783-.013-1.031.073-2.068.13-3.511m2.154,59.844c14.375,8.264,28.85,16.372,43.287,24.542.834.47,1.631,1,2.69,1.657A8.749,8.749,0,0,1,182,132.788q-22.811,12.844-45.639,25.665a3.277,3.277,0,0,1-3.595.051q-23.042-13.1-46.1-26.133a11.59,11.59,0,0,1-1.141-.925c1.075-.7,1.832-1.249,2.65-1.706,14.459-8.136,28.944-16.224,43.355-24.451a5.153,5.153,0,0,1,5.89-.033M134.07,48.42c-.177,16.906-.393,33.819-.549,50.726-.011,1.743-.335,2.962-2.032,3.955-14.885,8.686-29.715,17.48-44.564,26.235-.541.316-1.125.556-2.218,1.088-.038-1.6-.093-2.655-.084-3.7.188-16.483.428-32.956.512-49.441a5.167,5.167,0,0,1,2.889-5.137C102.561,63.717,117,55.126,131.486,46.592c.636-.373,1.322-.644,2.348-1.132.1,1.165.245,2.063.236,2.959M37.842,42.708q22.1-12.417,44.2-24.844a3.954,3.954,0,0,1,4.447-.17c14.947,8.536,29.962,16.975,44.944,25.453.545.311,1.028.7,1.843,1.262-.894.625-1.525,1.137-2.22,1.534q-22.231,12.5-44.469,25.014a3.954,3.954,0,0,1-4.447.157C67.186,62.578,52.18,54.142,37.2,45.668c-.547-.313-1.035-.708-2.048-1.408,1.214-.7,1.949-1.139,2.695-1.551m-3.255,2.6c16.43,9.75,32.4,19.219,48.5,28.752.168,18.678.335,37.264.51,56.6-4.378-2.6-7.98-4.736-11.586-6.872-11.493-6.815-22.971-13.662-34.5-20.393a4.615,4.615,0,0,1-2.686-4.544c-.055-16.593-.249-33.182-.4-49.772,0-1.042.086-2.079.159-3.774" stroke="#000" stroke-width="1" fill-rule="evenodd"/>
        </g>
      </g>
    </g>
  </g>
</svg>
