<svg xmlns="http://www.w3.org/2000/svg" xmlns:xlink="http://www.w3.org/1999/xlink" width="1269.75" height="299" viewBox="0 0 1269.75 299">
  <defs>
    <clipPath id="clip-path">
      <rect id="Rectangle_336" data-name="Rectangle 336" width="1269.75" height="299" transform="translate(190 126)" fill="#242f5d"/>
    </clipPath>
    <clipPath id="clip-path-2">
      <rect id="Rectangle_627" data-name="Rectangle 627" width="588.994" height="1269.75" fill="#fff"/>
    </clipPath>
  </defs>
  <g id="Group_2825" data-name="Group 2825" transform="translate(-509 -4488.031)">
    <g id="Mask_Group_15" data-name="Mask Group 15" transform="translate(319 4362.031)" clip-path="url(#clip-path)">
      <g id="Group_2521" data-name="Group 2521" transform="translate(1459.75 -172.191) rotate(90)">
        <g id="Group_2515" data-name="Group 2515" transform="translate(0 0)">
          <g id="Group_2514" data-name="Group 2514" clip-path="url(#clip-path-2)">
            <path id="Path_867" data-name="Path 867" d="M365.293,931.083V947.6a16.326,16.326,0,0,1-1.348-3.441c-7.46-46.129-19.424-89.636-30.543-133.6q-31.909-126.182-7.85-256.5c3.086-16.712,5.828-33.585,8.73-50.384-3.363,7.393-5.41,15.525-7.63,23.531-13.283,47.892-25.676,96.259-28.78,149.134-1.7,28.95-1.585,57.292,6.878,84.654,12.579,40.668,26.075,80.659,36.854,122.732,12.909,50.392,21.962,102.19,21.113,157.188-.584,37.912-4.878,75.183-9.465,112.294-4.523,36.6-8.422,73.155-2.143,110.26h-2.579a251.561,251.561,0,0,1-3.4-58.125c1.887-29.469,5.869-58.359,9.051-87.466,5.1-46.653,7.752-93.245,2.147-140.4C349.788,922.433,336.9,871.034,320.138,822.5c-25.031-72.494-39.577-149.632-45.784-231.5-2.765-36.477-3.729-73.357-8.823-109.36a354.574,354.574,0,0,0-16.557-69.226c.779,9.961,2.333,19.588,3.256,29.369C257.489,497.51,262.5,553.3,267.783,609.032c6.486,68.467,15.786,135.858,30.557,201.12,14.195,62.713,28.815,125.186,37.468,190.73,7.429,56.268,9.478,112.135-.481,168.39-5.432,30.684-10.9,61.651-10.009,94.194H321.45c.72-29.047,4.409-57.287,9.29-85.15,6.191-35.348,9.88-71.169,8.218-107.981-2.669-59.117-12.494-115.739-24.1-171.627-9.62-46.327-21.279-91.537-29.885-138.428C269.965,678.5,262.353,594.4,255.591,510.209c-5.26-65.5-13.914-129.2-30.78-189.8.464,2.2.592,4.556.839,6.883,4.111,38.62,8.8,77.111,12.228,115.884,5.117,57.845,9.449,115.869,13.923,173.855,2.741,35.552,3.809,71.2,2.035,107.037-.914,18.5-1.46,37.1-1.336,55.65.307,46.226,8.753,88.478,24.565,127.3,11.743,28.833,22.55,58.6,28.164,92.328,9.248,55.537,8.949,111.48,2.994,167.735-3.494,33.016-9.7,64.8-16.432,96.38h-3.869c12.017-47.223,18.806-96.318,20.845-147.187,1.906-47.547-.718-94.068-11.467-138.907-6.668-27.815-16.795-52.618-26.537-77.728-16.319-42.06-22.378-88.121-21.183-137.045.471-19.235,1.3-38.445,1.841-57.675,1.4-49.783-3.625-98.728-7.7-147.782-4.561-54.837-7.495-110.01-13.943-164.457-6.8-57.434-12.86-114.913-12-173.887.909-62.259,7.56-122.308,22.232-180.021,1.738-6.836,3.386-13.729,5.076-20.6-1.625.555-2.283,1.829-2.859,3.194C214.617,86.651,202.107,159.2,202,237.536c-.086,63.332,6.023,125.632,16.257,186.431,13.285,78.925,15.873,158.408,11.042,239.247-2.166,36.263-2.86,72.647.33,109.069,4.477,51.106,15.591,98.424,30.168,144.041,10.08,31.545,19.677,63.444,26.057,97.565,9.348,49.985,13.277,100.648,9.137,152.778-2.685,33.808-9.1,65.682-17.386,96.8h-2.579c-.12-4.69,1.385-8.6,2.487-12.647,11.072-40.619,16.455-83.277,16.254-127.379a565.652,565.652,0,0,0-19.514-146.273c-9.094-33.383-19.782-65.649-29-98.953-19.366-70-24.279-143.339-18.859-219.009,1.215-16.96,2.373-34.12,1.666-53.734-2.967,17.992-6.2,33.4-7.973,49.225-3.72,33.129-6.667,66.483-9.945,99.74-6.415,65.069.551,125.868,22.516,181.949a703.307,703.307,0,0,1,31.98,104.422c6.912,31.143,12.864,62.632,13.465,96.153.782,43.653-5.8,85.189-13.4,126.505h-2.579c2.6-17.026,5.236-34.041,7.8-51.081,4.72-31.353,7.177-63.3,4.156-95.173-5.148-54.29-17.785-104.634-34.614-152.314-8.551-24.231-18.034-47.634-24.363-73.774-11.869-49.023-12.3-99.285-6.9-150.33,2.175-20.535,4.005-41.164,5.994-61.751-7.353,18.838-13.832,38.086-20.232,57.4a30.066,30.066,0,0,0-.949,5.962q-9.813,92.384,15.812,176.645c11.288,37.14,24.953,72.23,36.2,109.372,12.088,39.906,19.492,81.557,17.322,126.444-1.78,36.785-8.382,72.261-11.839,108.6h-2.579c1.545-23.991,5.028-47.427,8.1-70.964,6.575-50.373,3.567-98.817-9.323-146.221-8.784-32.3-20.4-62.036-30.561-93.079-12.5-38.216-23.758-77.043-27.3-120.51a498.714,498.714,0,0,1,.021-81.5C178.2,779.711,168.9,809.08,162.436,840.537c-1.725,8.4-3.135,16.857-2.83,26.186,1.443,44.141,12.464,82.35,27.42,118.423,12.582,30.342,26.069,59.693,36.829,92,11.745,35.27,15.435,72.3,13.344,111.688-1.331,25.051-4.5,49.653-6.014,74.627h-2.579c-.634-13.557,1.856-26.526,2.957-39.751,3.364-40.408,6.171-80.812-3.593-120.11-7.427-29.89-18-57.042-29.58-83.18-18.9-42.663-37.108-85.817-41.133-140.449-3.727,51.267,3.371,96.909,21.8,138.566,7.636,17.259,13.462,36.748,19.252,55.888a356.629,356.629,0,0,1,13.8,138.38c-1.616,16.939-1.808,34.266-5.421,50.656H204.1c1.435-13.547,2.98-27.069,4.285-40.648,4.79-49.834,1.657-97.784-12.121-143.837-8.007-26.766-17.255-52.3-27.166-77.226-15.665-39.384-18.1-82.815-14.642-127.2,3.746-48.038,18.481-89.842,33.178-131.1,16.969-47.638,33.487-95.307,38.645-150.734a401.394,401.394,0,0,0-.934-87.706,702.687,702.687,0,0,1-3.622,79.095c-5.6,56.3-20.192,106.852-37.794,155.772-11.011,30.606-24.17,59.253-31.689,93.119-11.278,50.793-18.1,101.721-8.414,155.371,6.258,34.665,12.717,69.245,17.5,104.574,7.523,55.58,6.686,109.909-8.2,162.5a20.215,20.215,0,0,0-.6,8.02h-2.579c-10.324-40.266-25.929-75-43.753-107.454-13.314-24.243-26.891-48.088-39.476-73.38-38.624-77.639-47.8-167.062-41.3-262.582,2.758-40.52,12.659-78.428,18.708-117.771,5.88-38.24,9.468-76.855,6.712-116.381C47.214,533.895,37,484.69,26.055,435.768,15.2,387.256,3.178,339.226.7,287.052c-3.033-63.9,3.568-124.833,23.065-181.221C37.264,66.807,55.715,33.523,73.865,0h3.869c-9.384,18.754-19.6,36.393-28.017,56.445C29.179,105.373,17.133,158.049,18.3,218.035c.829,42.58,5.055,84.12,11.362,125.248,8.353,54.469,20.213,107.285,30.266,160.956C75.344,586.531,73.4,666.947,53.242,746.5c-9.036,35.66-18.521,71.086-23.524,109.036-3.687,27.964-3.964,48.745-.076,70.484-.326-14.377.961-27.976,2.077-41.614,3.376-41.261,14.01-78.512,25.056-115.444C84.164,677.378,89.723,582.272,76.408,483.4c-6.7-49.723-18.27-96.719-29.448-143.915C26.507,253.139,32.079,168.792,52.809,85.158,60.293,54.967,71.544,27.988,81.6,0H85.47c-2.014,5.283-3.924,10.675-6.059,15.83-25.372,61.29-39.645,128.624-42.355,202-1.736,46.984,5.978,91.263,16.173,134.741C63.719,397.3,74.72,441.781,80.114,489.124c6.241,54.781,9.241,109.645,3.046,165.019C77.615,703.7,66.238,750.034,52.59,795.015Q29.522,871.033,32.961,955.091c.656,15.529,3.841,30.131,7.8,44.308a28.273,28.273,0,0,0,.6-7.36,566.453,566.453,0,0,1,19.763-163.67c7.71-28.374,15.71-56.654,22.142-85.788,11.657-52.8,15.087-107.649,14.018-163.524C96.055,514.751,89.2,452.106,79,389.967,70.342,337.192,61.16,284.532,58.55,229.558c-3.2-67.4,3.344-130.919,25.438-189.326C89.1,26.717,94.427,13.4,99.655,0h3.868C99.783,9.232,96.063,18.485,92.3,27.691c-16.989,41.55-28.5,86.682-30.706,136.32-2.317,52.04,1.26,103.486,9.2,154.38,11.48,73.62,25.14,146.548,28.511,222.936,2.344,53.1,1.708,105.71-5.167,157.978C88.28,743.8,76.4,784.715,65.038,825.877a568.439,568.439,0,0,0-19.5,189.088c.627,9.815,3.765,17.569,7.919,26.832.236-3.361.538-4.7.38-5.877-3.578-26.809-3.545-53.736-2.477-81.041,1.857-47.494,9.006-92.3,23.6-133.8q39.205-111.464,49.677-238.2c4.674-55.758,4.825-111.063-6.2-165.307-7.843-38.575-15.808-77.086-23.457-115.758C78.842,220.206,82.977,139.71,100.46,59.99,105.117,38.757,113,20.137,119,0h3.869a40.43,40.43,0,0,1-1.25,4.7Q97.266,65.01,91.3,136.174c-2.9,33.827-4.66,67.678-2.063,101.734,3.522,46.147,13.879,89.3,23.19,132.862,12.032,56.3,20.587,112.884,17.707,173.619A1033.984,1033.984,0,0,1,94.747,769.23c-6.705,24.526-15.108,47.857-22.681,71.778-11.885,37.547-16.089,77.941-17.88,119.476-1.455,33.713-.089,66.6,7.106,98.585,1.567,6.966,3.672,13.169,7.578,18.326a13.942,13.942,0,0,0,.165-1.982c-.522-2.979-1.1-5.931-1.6-8.919-6.673-40.125-8.635-80.536-2.7-121.367A1149.569,1149.569,0,0,1,88.324,825.2c14.351-55.956,30.174-110.941,45.248-166.426a468.447,468.447,0,0,0,16.54-135.342c-1.758-74.363-11.555-146.015-26.872-215.584-12.213-55.477-19.334-111.069-13.573-169.818C114.463,89.114,121.484,41.471,139.63,0h2.579a39.328,39.328,0,0,1-1.43,5.659C129.566,31.9,123.091,61.3,118.358,91.828c-10.426,67.261-10.629,133.479,4.718,199.673,15.134,65.269,25.524,132.784,29,202.441,1.554,31.118,2.685,62.539-1.211,93.558-5.979,47.626-18.707,91.389-31.238,135.1C102.591,782.015,86.14,841.683,74.5,904.551c-8.022,43.317-13.372,86.764-7.99,132.02.718,6.03,1.546,12.03,2.322,18.042A734.653,734.653,0,0,1,81.345,911.85c12.733-69.458,33.412-133.159,55.289-196.037,30-86.225,40.991-177.777,30.094-275.638-4.672-41.954-15.033-80.971-22.86-121.3-7.613-39.229-13.211-79.262-12.957-120.488C131.361,125.473,144.728,58.991,171.867,0h2.579c-.1,4.084-1.847,6.891-3.159,9.951a441.473,441.473,0,0,0-21.9,64.1,495.678,495.678,0,0,0-15.308,124.643c.062,56.183,9.7,109.31,21.874,161.4,14.435,61.79,20.97,125.55,16.994,191.285-3.954,65.374-18.588,125.178-38.769,182.11-24.018,67.756-44.98,137.767-55.438,214.6-6.086,44.708-8.36,89.665-3.35,135.11,1,9.1,3.631,16.25,8.5,22.8.1-2.63.239-3.98.19-5.314C80.846,1011.5,94,927.353,115.058,845.8c12.913-50,29.675-96.985,46.628-143.585,27.9-76.692,33.209-158.507,24.473-244.169-4.276-41.926-13.824-81.537-21.6-121.924a686.261,686.261,0,0,1-10.711-174.292C157.849,99.583,176.81,48.094,200.236,0h2.579c-1.337,3.491-2.554,7.12-4.03,10.455-14.433,32.613-28.454,65.572-35.67,104.5-10.587,57.116-9.069,114.806-2.949,172.6,4.4,41.552,14.756,80.42,21.846,120.764,18.874,107.393,15.083,210.3-21.657,308.2-18.894,50.347-36.57,102.062-49.126,157.646-16.275,72.042-26.909,145.625-24.194,223.006.524,14.91,3.241,27.119,11.821,36.073-1.688-37.958-2.753-75.063-.463-112.058,3.7-59.887,15.427-116.233,31.446-170.267,14.014-47.283,33.423-89.752,48.52-136.132,10.851-33.333,21.468-66.8,25.42-104.288,6.062-57.5,2.285-114.5-4.854-171.034-8.244-65.294-19.683-129.511-22.871-196.438-3.1-65.085,4.218-126.625,20.983-185.616,6-21.111,15.446-38.74,23.831-57.411h3.868c-1.3,3.115-2.438,6.458-3.936,9.311-28.624,54.587-40.176,119.168-42.06,188.76-1.28,47.271,3.131,93.841,9.22,140.131,7.951,60.458,18.636,120.075,21.122,182.255,2.177,54.4-.716,107.056-15.753,156.948-11.869,39.382-25.2,77.4-39.375,114.759-12.506,32.964-20.4,68.8-24.409,106.862-6.357,60.353-3.58,120.587.757,180.808,2.636,36.6,4.989,73.19.1,109.791-.376,2.828-.511,5.469.505,7.932a482.832,482.832,0,0,1,19.019,53.505c.925-1.14,1.388-1.441,1.571-1.984.607-1.808,1.184-3.662,1.652-5.574,9.29-38,11.586-77.507,8.593-117.628-2.887-38.676-9.767-76.026-16.756-113.245-5.21-27.742-10.238-55.869-8.968-84.985,2.32-53.243,11.871-103.181,29.718-148.73,27.332-69.761,51.874-141.372,55.378-226.053,1.492-36.04,2.16-72.047-3.091-107.7-11.3-76.7-21.446-153.546-18.322-233.3,2.2-56.127,10.063-109.37,27.37-158.573C233.392,35.336,240.119,17.753,246.658,0h6.448c-1.038,4.145-1.986,8.355-3.127,12.426-19.808,70.647-30.655,144.287-28.746,222.1,1.358,55.334,8.369,108.831,25.234,157.407,16.65,47.952,25.4,98.742,27.767,153.057.953,21.836,3.175,43.53,4.819,65.287.8-18.731.669-37.293.834-55.846.166-18.653,1.233-37.563,5.414-54.767,5.354-22.018,2.8-42.462-1.257-63.33-6.909-35.561-19.527-66.445-31.695-97.615-15.549-39.832-22.976-83.409-23.986-129.943C226.749,134.285,239.774,65.51,260.843,0h2.579c-.641,2.882-1.1,5.909-1.948,8.621-15.217,48.681-26.02,99.51-29.129,154.031-3.613,63.347,2.472,123.262,24.218,177.9,10.379,26.079,20.72,52.283,27.646,81.425,3.25,13.673,5.375,27.879,7.556,44.349,10.045-25.469,11.526-51,9.346-77.408-3.035-36.791-13.5-69.383-23.5-102.089-14.635-47.873-25.432-97.458-23.154-151.5C256.422,88.81,264.085,43.936,273.738,0h2.579c-1.2,6.59-2.387,13.192-3.615,19.77-7.078,37.916-13.818,76.072-15.215,115.762-1.852,52.646,8.057,101.1,22.432,147.644,8.763,28.372,17.165,56.961,22.174,87.8,2.567,15.8,3.094,31.917,3.616,48.133,6.646-48.389,5.941-97.035,1.324-145.362-3.453-36.155-13.776-69.344-20.46-104.157C275.223,110.483,278.816,54.228,296.949,0h2.579c-1.044,4.123-2.014,8.3-3.144,12.36-10.4,37.411-16.2,75.924-12.123,117.275,3.17,32.158,9.683,62.717,16.783,92.949a456.339,456.339,0,0,1,11.918,98.643c.3,21.452.4,42.871.13,64.379,4.694-22.643,6.667-46.063,8.611-69.474,3.634-43.769,5.1-87.67.83-131.5-3.769-38.68-8.922-77.067-6.632-116.621,1.351-23.329,3.091-46.474,9.416-68.017H327.9c-10.713,47.884-11.928,97.1-6.05,146.424a824,824,0,0,1,3.906,157.915c-3.617,49.81-8.8,99-24.427,143.238-21.165,59.907-21.563,138-14.846,203.166.889-41.789,9.862-78.57,20.181-114.635,32.455-113.452,38.992-232.6,30.39-354.966-2.316-32.947-3.288-65.587.513-98.449A448.677,448.677,0,0,1,354.977,0h3.869c-9.15,24.916-14.141,52.12-17.933,80.195-5.473,40.513-2.112,80.726.521,121.039,3.863,59.137,2.513,118.082-2.512,176.9-5.291,61.916-17.861,120.209-33.976,176.811-13.7,48.115-20.169,97.737-11.1,149.983.114-51.2,8.588-99.6,21.223-146.36,16.388-60.648,31.988-121.53,37.848-187.753,4.053-45.786,6.589-91.314,3.465-137.584-2.717-40.251-6.468-80.585-3.034-121.289,1.791-21.221,4.716-41.872,11.95-60.33V61.935c-6.854,21.623-9.273,44.987-9.884,68.805-1.487,57.882,4.858,115.083,6.669,172.727,2.117,67.4,1.749,133.839-6.56,200.063-4.9,39.066-10.067,78.04-11.94,117.969-3.457,73.75,9.988,142.883,21.714,212.553v18.581c-1.87-2.851-1.857-6.871-2.431-10.465-4.574-28.628-9-57.318-13.616-85.926A681.933,681.933,0,0,1,341.522,604c2.419-38.4,8.239-75.781,12.457-113.64,5.792-51.973,8.543-104.215,5.676-159.508-6.573,77.633-17.91,150.992-31.055,223.611-13.009,71.856-14.422,143.583-.771,215.322,10.454,54.93,26.972,106.334,37.464,161.294M26.918,850.374c6.8-48.2,21.831-91.663,30.628-138.661,6.565-35.072,10.615-70.744,9.84-107.677-1-47.677-9.174-92.9-17.831-137.92-12.632-65.69-27.192-130.556-32.123-199.4-3.176-44.335-4.067-88.556,4.615-131.811,2.338-11.644,5.319-22.959,8.005-34.423a186.159,186.159,0,0,0-11.282,32.468C-.272,206.748-1.8,281.844,12.578,358c9.444,50.043,22.365,98.2,31.26,148.565,9.087,51.455,14.185,103.226,8.484,156.806-3.765,35.4-10.463,69.466-16.6,103.835-4.845,27.123-8.312,54.7-8.8,83.168m100.336,338.349c2.436-22.177,3.694-41.688,2.761-61.255-1.487-31.166-3.127-62.343-5.477-93.364-3.284-43.344-2.072-86.422,1.372-129.5,1.3-16.252,3.716-32.167,6.059-48.144A802.4,802.4,0,0,0,105.41,978.9c-6.5,48.107-5.835,96.961-3.884,145.765.244,6.119-.043,13.6,1.991,17.992,7.1,15.321,15.105,29.559,23.737,46.063" transform="translate(226.589 1.776)"/>
            <path id="Path_868" data-name="Path 868" d="M0,74.322V66.064c4.91,8.991,6.99,20.321,9.805,30.984,25.506,96.6,40.944,196.6,39.5,302.255-.028,2.145-.779,4.841,1.287,6.7,6.569-16.109,12.344-31.626,12.6-52.529.707-56.856-2.649-113.218-5.762-169.655C55.492,148.55,49.672,115.138,39.46,83.465,29.968,54.026,18.223,27.037,6.448,0h3.869c4.276,9.862,8.725,19.544,12.8,29.615C38.337,67.255,52.9,105.739,57.335,150.833a1799.916,1799.916,0,0,1,8.772,201.217c-.046,3.355-.785,7.108.99,10.81,4.444-9.949,8.3-19.086,8.473-31.289.592-42.248,2.625-84.485,1.354-126.745-1.26-41.9-4.5-83.5-10.671-124.325C61.754,50.76,53.437,23.775,41.264,0h3.869C58.287,25.926,66.226,55.925,70.519,88.172a1152.391,1152.391,0,0,1,8.8,204.977c-.538,11.766-.076,23.647-.076,36.768,4.049-7.562,6.388-15.246,8.811-22.755a196.475,196.475,0,0,0,5.943-21.648C108.118,215.122,109.051,144.6,95.1,73.677,90.2,48.749,83.694,24.811,78.66,0h2.579c6.344,24.07,12.431,48.3,16.938,73.448,7.385,41.2,12,82.889,9.386,126.1-.965,15.961-2.525,31.789-3.683,47.7,9.495-42.838,13.4-109.112,9.542-152.64C110.543,62.1,104.463,30.982,98,0h2.579Q126.22,99.984,114.21,206.517a23.624,23.624,0,0,0,1.434-5.828c6.909-49.546,8.791-99.735,8.107-150.381-.226-16.8-2.222-33.461-1.248-50.307h2.579c3.29,69.914,2.948,139.524-6.983,208.367,9.842-46.761,17.976-94,18.163-143.779C136.344,42.9,134.227,21.493,132.819,0H135.4a528.967,528.967,0,0,1-.574,131.08c-7.813,59.09-21.4,115.264-33.455,172.236-8.462,40-18.833,79.1-23.1,121.171-3.727,36.76-6.4,73.552-2.279,110.733,5.576,50.328,15.66,98.538,26.642,146.345,12.027,52.353,35.339,95.8,45.959,151.7,1.943-9.09,3.11-16.34,5.023-23.044,2.513-8.809,1.861-15.942-1.866-23.74-19.061-39.873-33.7-83.589-44.739-130.668C87.328,571.844,82.474,486.374,94.459,398.454c5.143-37.733,12.718-74.224,19.986-110.925,10.254-51.781,19.638-103.992,30.725-155.363C154.395,89.423,161.606,45.943,159.9,0h2.579c1.586,14.761.676,29.508-.447,44.155-3.112,40.573-11.914,78.715-19.727,117.312-10.922,53.953-21.178,108.253-32.116,162.2-10.8,53.262-18.61,107.467-19.366,163.582-.919,68.194,9.55,132.707,26.154,195.154,9.675,36.391,22.788,69.284,37.1,101.2,2.685,5.985,3.879,5.425,5.818-1.146,2.919-9.9,4.233-18.477-2.455-25.947-1.861-2.077-3.09-5.675-4.5-8.7-15.664-33.6-23.219-72.536-28.866-112.725A970.886,970.886,0,0,1,116.017,446.5a1147.071,1147.071,0,0,1,17.526-146.626c12.476-67.232,23.542-135.141,38.368-201.238,7.4-33,17.166-64.6,22.8-98.635h2.579c-.17,8.054-1.982,15.459-3.741,22.808-6.3,26.316-13.045,52.37-19.047,78.857-12.458,54.973-21.666,111.575-32.333,167.45-17.137,89.768-28.029,180.64-23.357,275.1,2.555,51.658,8.022,102.289,19.549,150.885,5.215,21.985,12.276,42.378,22.218,59.992,2.941,5.211,4.69,6,6.564-1.687,3.277-13.438,6.736-26.832,10.812-39.681,3.015-9.5,2.282-16.945-1.424-25.482A377.6,377.6,0,0,1,147.06,572.8c-3.157-33.019-4.594-66.266-5.3-99.568a1235.4,1235.4,0,0,1,6.114-153.09C159.719,205.482,184.269,98.437,223.084,0h2.579a40.563,40.563,0,0,1-1.406,5.653C203.641,55.25,189.326,109.7,176.423,165.2c-30.453,130.99-38.23,265.768-26.513,403.939,3.678,43.369,14.562,81.677,29.63,117.453.851,2.019,1.412,7.027,4.075,3.516,3.912-5.159,6.509-29.19,4-36.329-5.437-15.446-8.511-32.249-11.243-49.261-4.778-29.747-6.37-60.268-8.451-90.658-2.667-38.949-5.8-77.916-5.269-117.158a873.778,873.778,0,0,1,11.67-128.3c6.319-38.922,13.533-77.48,19.522-116.528a534.112,534.112,0,0,1,16.645-74.6c8.52-28.015,20.3-52.576,31.941-77.282h2.579c-.534,6.615-3.626,10.772-6.016,15.475-39,76.745-51.953,164.624-44.667,261.8,3.763,50.2,10.624,99.57,14.335,149.748,3.088,41.746,4.659,83.527,1.369,125.424-4.4,56.045-14.711,109.442-28.976,160.9-18.7,67.455-35.367,135.763-39.574,210.243-2.094,37.1-3.226,74.088,1.684,110.809,10.481,78.39,39.675,137.338,76.683,188.058,11.118,15.236,24.06,26.434,35.477,41.007h-5.158c-26.406-28.075-51.16-59.083-70.807-99.568-18.419-37.953-32.717-78.983-38.882-126.542a559.729,559.729,0,0,1-4.1-78.653c-1.732,43.079-.722,85.608,5.678,127.953,7.909,52.326,19.628,101.672,38.293,146.636,4.236,10.207,10.276,18.4,13.078,30.175h-2.579c-17.059-32.022-30.023-68.256-39.015-107.388-14.27-62.1-22.35-126.181-19.22-193.108a488.778,488.778,0,0,0-2.129-73c-4.455-43.164-16.734-81.448-28.271-120.236C87.475,720.19,75.433,669.162,68.465,615.287c-4.979-38.5-8.983-77.106-4.656-116.567,6.4-58.421,16.607-115.192,28.948-171.039,1.626-7.36,3.13-14.79,4.691-22.187-11.4,33.4-21.943,67.2-31.662,101.674-23.492,83.319-24.261,166.709-1.594,250.858,13.024,48.348,28.569,94.781,41.675,143.038,9.515,35.032,18.755,70.356,21.376,108.807,1.987,29.136.72,58.429.5,87.65-.215,28.228-.028,56.472,2.116,84.462,4.781,62.422-.518,122.682-13.8,181.483h-2.579c.981-5.979,1.783-12.048,2.972-17.92,8.268-40.869,13.629-82.577,11.808-125.694-2.289-54.207-4.913-108.377-3.132-162.731,1.437-43.854-4.326-85.253-14.531-125.657C96.647,776.253,79.107,723.743,63.837,669.529,46.006,606.218,39.478,540.864,48.791,472.478c5.3-38.928,15.9-74.741,26.764-110.293,5.149-16.842,10.383-33.616,15.578-50.419-2.712,4.608-4.606,9.893-6.516,15.166-13.244,36.541-29.073,70.682-39.643,109.715-12.04,44.461-15.889,90.131-9.367,137.963,9.224,67.639,26.8,129.848,48.262,189.264A629.677,629.677,0,0,1,121.65,992.993c-.734,37.828-2.625,75.469-4.343,113.163-1.929,42.347-6.377,83.845-15.375,123.973A172.828,172.828,0,0,0,98,1263.465H95.423c-.671-4.484-.077-8.844.371-13.274,2.458-24.219,8.882-46.662,12.191-70.521,4.349-31.352,5.348-63.306,7.215-95.1,1.206-20.523,2.382-41.085,2.873-61.672.489-20.48.107-41.011.107-61.52q-3.52,108.045-32.088,205.905c-9.1,31.114-18.23,62.321-22.907,96.184H60.607c.034-10.9,2.819-20.7,4.97-30.707,7.281-33.858,17.371-65.847,26.007-98.806,14.239-54.341,20.606-111.133,22.913-169.461.652-16.479,2.25-32.943.824-51.4a38.879,38.879,0,0,0-1.154,4.581c-6.182,82.765-22.268,159.882-49.509,231.3a315.847,315.847,0,0,0-20.814,114.492H41.264a115.681,115.681,0,0,1,.1-21.572A341.4,341.4,0,0,1,61.8,1147c22.386-59.587,38.437-122.792,45.6-191.553,2.223-21.349,6.44-43.011,5.1-64.21-1.883-29.859-10.03-57.422-18.666-84.153,8.81,76.877,3.05,151.308-13.658,224.04-7.874,34.279-18.681,66.431-28.2,99.521-12.169,42.3-23.353,85.079-23.6,132.821H25.79a116.2,116.2,0,0,1,.242-20.548c2.72-34.849,10-67.478,18.871-99.314,11.893-42.689,26.232-83.626,35.554-128.163A656.75,656.75,0,0,0,90.9,810.007c-3.418-32.2-15.773-57.248-24.085-85.558.872,8.855,2.1,17.509,3.159,26.219,5.464,45.062,3.381,90.493,2.079,135.781-.928,32.264-3.192,64.4-8.217,95.868-4.561,28.562-13.068,54.513-20.571,81.136-9.718,34.475-19.884,68.677-25.508,105.673-4.716,31.023-4.791,62.686-4.861,94.339H10.316c-.281-8.9.6-18.409-1.043-26.613-7.888-39.316-8.895-79.173-7.321-120.138,1.741-45.272,6.353-89.45,14.778-132.5,7.578-38.726,8.308-77.678,4.005-117.108C14.976,814.337,8.352,761.8,4.49,708.54c-1.654-22.819-3-45.7-4.49-68.549V532.637a460.109,460.109,0,0,0,2.473-46c.068-30.827.545-61.7-2.473-92.32V369.543c1.32,2.083,1.466,4.843,1.791,7.558,2.637,22.026,3.327,44.3,3.771,66.666.691,34.791-1.4,69.35-2.524,104.017-3.048,93.73,5.433,185.88,16.083,277.636,3.957,34.1,8.632,68.031,7.526,103.156,1.046-6.1,2.055-12.238,2.616-18.475,3.046-33.932,2.126-67.936.106-101.86-2.852-47.89-4.956-96.046-11.549-143.057A771.56,771.56,0,0,1,14.943,469.7c4.233-37.233,7.568-74.691,4.094-112.741A823.234,823.234,0,0,0,0,239.48V225.029c2.8,5.56,3.434,12.562,4.734,19.035,9.742,48.528,18.784,97.338,18.747,149-.021,27.27-3.1,54.05-5.852,80.833-5.732,55.764-6.815,111.327.562,167.066,7.532,56.908,11.415,114.668,14.633,172.572,1.323,23.8.943,47.6,1.326,73.271.69-3.074,1.073-4.3,1.243-5.6,10.221-78.091,10.459-156.366-4.206-232.639-11.941-62.106-14.878-122.961-3.36-185.5,4.316-23.436,7.1-47.434,6.676-72.164-.423-24.483-2.478-48.635-5.221-72.647A1312.2,1312.2,0,0,0,0,152.772V140.385c.9,2.7,1.99,5.281,2.658,8.118,6.066,25.746,11.322,51.926,16.19,78.308,9.27,50.231,15.933,101.267,18.578,153.561,1.589,31.428-3.206,61.394-7.642,91.564-4.625,31.457-8.418,63.118-6.551,95.862,1.537,26.956,6.685,52.494,11.116,78.3C45.963,713.74,48.127,782.19,41.911,851.46,38.106,893.873,29.3,934.2,21.684,975.026c-4.153,22.257-8.491,44.436-10.595,67.535,4.316-20.874,8.418-41.841,13.8-62.067,10.887-40.916,19.692-82.753,24.6-126.741,5.93-53.181,7.968-106.317,3.224-160.008-2.4-27.138-8.3-52.609-13.639-78.326-12.981-62.525-13.7-124.129,4.2-184.757a52.116,52.116,0,0,0,1.587-10.971,617.851,617.851,0,0,0,.138-87.483C38.814,242.315,24.9,155.854,0,74.322M9.542,1217.805c2.393-23.767,4.081-47.607,8.885-70.61,6.139-29.4,13.924-57.678,22.062-85.715C50.9,1025.61,61.6,990.035,64.973,950.13c2.771-32.738,3.93-65.6,4.945-98.563,1.073-34.842.652-69.4-3.39-103.67-2.191-18.574-5.149-36.9-10.249-54.135a757.486,757.486,0,0,1,.8,109.089c-3.429,54.655-10.365,108.113-24.009,158.676C20.221,1009.141,10.4,1057.95,6.032,1109.436c-3.09,36.413-2.592,72.534,3.51,108.369m179.3-1015.019c-7.359,38.622-13.99,77.645-18.241,117.6-3.391,31.888-5.519,63.985-4.77,96.376,1.008,43.618,4.411,86.919,7.394,130.257,2.309,33.55,6.1,66.646,14.885,97.714.894,3.157,1.415,6.939,3.821,8.917,4.126-15.432,6.613-29.586,1.947-45.966-4.828-16.949-6.025-35.823-5.947-54.476q.387-92.806-1.417-185.56c-.526-28.851-1.243-57.636-.008-86.514,1.112-26,4.152-51.835,2.337-78.349M71.775,462.878c-6.062,35.866-8.413,71.964-5.091,109.017C73,642.334,87.048,708.653,106.425,772.446c9.751,32.1,19.727,64.131,24.837,99.308,3.6,24.813,4.441,50.1,5.83,75.35,1-25.457,3.682-50.483,6.2-75.556.976-9.732,3.406-18.985,2.555-29.359A210.007,210.007,0,0,0,132.1,783.747C108.241,721.42,91.05,654.723,79.529,584.095c-6.491-39.789-11.024-79.817-7.754-121.216m118.91-193.837-1.947.087c0,17.036-.226,34.081.04,51.106,1.166,74.91,2.95,149.8,2.064,224.763-.077,6.524-.014,13.1.424,19.58,1.146,16.931,2.551,33.812,7.865,50.762.713-3.867,1.186-6.121,1.544-8.419,7.634-49.16,9.462-98.883,6.867-149.37-3.261-63.431-13.11-125.238-16.856-188.508" transform="translate(0 1.776)"/>
            <path id="Path_869" data-name="Path 869" d="M125.705,1263.465c-6.349-13.437-15.344-21.937-23.5-31.919-45.446-55.588-70.626-129.819-78.693-219.564-6.814-75.785-1.2-150.1,11-223.625,6.793-40.957,16.954-80.1,24.551-120.609C68.376,618.033,74.509,567.637,72.726,515.4c-.164-4.8-.368-9.614-.756-14.379-.469-5.75-1.155-11.456-2.1-17.17-1.745,27.786-2.374,55.747-6.428,82.959C55.408,620.729,43.994,673.02,33.116,725.56,22.571,776.5,12.2,827.526,6.823,880.671-3.3,980.738,6.456,1074.542,42.141,1159.725a245.53,245.53,0,0,0,45.875,71.615c6.907,7.579,13.547,15.789,20.219,23.9,1.818,2.209,4.157,3.916,4.574,8.223h-3.868c-7.314-12.319-16.244-21.39-24.939-30.755-28.678-30.889-48.683-72.992-62.862-122.767C-2.713,1026.219-4.929,939.5,7.26,850.777c7.627-55.518,19.64-108.908,30.448-162.9,9.3-46.443,19.937-92.326,24.925-140.688a694.223,694.223,0,0,0,3.523-86.273c-.291-13.456-3.669-26.087-6.071-38.891C51.044,373.866,43.1,325.043,41.094,274.907c-3.34-83.372,5.755-162.384,38.253-231.078C86.081,29.592,92.215,14.629,98.626,0h3.868C92.784,25.185,80.75,47.75,70.978,72.947c-13.787,35.55-20.558,74.5-24.96,115.128C39.788,245.6,46.8,299.957,59.4,353.675,71.27,404.27,81.334,455.9,85.367,509.856c4.8,64.263,2.3,127.587-10.53,189.522C62.945,756.8,50.176,813.843,44.152,873.947c-5.647,56.327-6.752,112.37,4.873,167.223,10.313,48.666,28.827,88.738,52.349,123.246,16.488,24.188,33.084,48.294,43.544,80.81,1.85,5.754,4.106,11.355,4,18.24h-2.579c-5.054-24.031-14.453-43.519-25.11-61.716-12.929-22.073-27.879-40.807-40.269-63.844-25.788-47.954-40.826-102.628-43.512-166.185C35.1,916.324,41.332,862.91,49.921,809.8c6.954-42.995,17.327-84.274,24.9-126.916,14.032-79.045,12.36-158.276-.386-237.4-6.762-41.973-16.267-82.472-25.393-123.26,1.514,21.954,4.405,43.464,8.016,64.72q5.834,34.336,12.079,68.491c10.09,54.647,8.1,109.385.891,164.255C65.1,657.155,57.4,693.269,49.373,729.207c-17.9,80.121-28.033,162.3-25.148,247.732,2.578,76.355,17.564,145.418,48.808,204.324,13.021,24.551,28.914,43.951,44.84,63.283,4.431,5.378,8.806,11.023,11.7,18.919Z" transform="translate(157.986 1.776)"/>
            <path id="Path_870" data-name="Path 870" d="M122.9,1263.465c-10.054-49.748-27.967-91.605-49.826-129.9-17.644-30.9-36.8-59.771-50.922-95.588C9.77,1006.584,4.2,972.08,2.637,935.518.14,877.285,9.5,822.365,20.8,767.945c7.719-37.177,16.5-73.857,21.718-112.252,8.115-59.7,4.91-118.027-7.866-175.562C24.3,433.495,14.794,386.393,7.162,338.33c-17.47-110.01-2.39-208.959,38.809-299.293C52.032,25.746,58.559,13,64.871,0h3.868c-2.281,9.631-7.531,15.616-11.384,23.271A508.916,508.916,0,0,0,6.784,189.381c-7.217,56.294-3.157,111.468,6.178,166.131,7.194,42.128,15.554,83.711,24.82,124.744,16.368,72.484,15.6,144.663.9,217.374-9.122,45.107-19.7,89.485-26.726,135.657-7.585,49.828-9.386,99.779-1.513,149.977,4.927,31.422,15.735,57.562,28.324,82.363,19.085,37.594,42.3,69.41,59.491,109.622,11.691,27.344,22.3,55.522,27.218,88.215Z" transform="translate(213.662 1.776)"/>
            <path id="Path_871" data-name="Path 871" d="M4.516,169.288C-2.514,128.856-.113,88.181,3.5,47.555,4.912,31.659,5.336,15.474,8.385,0V57.806a322.783,322.783,0,0,0-5.144,46.343c-.685,22.072,1.331,43.616,3.854,65.139Z" transform="translate(583.497 1095.953)"/>
          </g>
        </g>
      </g>
    </g>
  </g>
</svg>
