<svg xmlns="http://www.w3.org/2000/svg" xmlns:xlink="http://www.w3.org/1999/xlink" width="1269.75" height="299" viewBox="0 0 1269.75 299">
  <defs>
    <clipPath id="clip-path">
      <rect id="Rectangle_336" data-name="Rectangle 336" width="1269.75" height="299" transform="translate(190 126)" fill="#242f5d"/>
    </clipPath>
  </defs>
  <g id="Group_2827" data-name="Group 2827" transform="translate(-509 -4980)">
    <g id="Mask_Group_15" data-name="Mask Group 15" transform="translate(319 4854)" clip-path="url(#clip-path)">
      <g id="Group_2809" data-name="Group 2809" transform="translate(169.423 -129.973)">
        <rect id="Rectangle_681" data-name="Rectangle 681" width="1269.748" height="651.153" transform="translate(20.577 17.821)" fill="none"/>
        <g id="Group_2808" data-name="Group 2808" transform="translate(20.579 17.819)">
          <g id="Group_2810" data-name="Group 2810">
            <path id="Path_931" data-name="Path 931" d="M70.885,335.419A246.455,246.455,0,0,0,0,300.6v34.819Z" transform="translate(-46.526 338.753)"/>
            <path id="Path_932" data-name="Path 932" d="M628.712,0H567.667c19.948,16.091,40.482,31.558,61.045,46.98Z" transform="translate(669.272 -40.288)"/>
            <path id="Path_933" data-name="Path 933" d="M277.684,138.557c1.592,19.693-2.211,39-5.035,58.351-1.89,12.951-4.364,25.834-6.787,38.712-4.793,25.442-19.367,42.7-47.014,49.225-28.128,6.645-56.381,12.623-85.486,13.647-13.724.482-20.805-6.5-21.07-19.437-.452-22.031,4.823-43.394,9.381-64.751,6.143-28.768,13.2-57.374,20.41-85.93,3.1-12.286,7.42-24.348,14.678-35.2,6.8-10.167,16.62-15.655,29.582-15.069,25.669,1.16,50.591,6.224,75.106,13.222,13.43,3.832,15.686,14.056,16.175,25.074.326,7.371.061,14.766.061,22.153" transform="translate(95.033 58.15)"/>
            <path id="Path_934" data-name="Path 934" d="M459.687,122.54a224.125,224.125,0,0,1-8.318,45.522c-4.269,14.147-13.937,25.815-24.357,36.688-3.43,3.577-8.031,3.764-13,2.8-19.987-3.889-38.3-11.4-55.9-20.966-36.223-19.677-72.565-39.155-108.207-59.748-7.771-4.488-15.458-9.134-21.843-15.322-6.41-6.215-6.692-10.966-.981-17.71C248.725,68.242,275.108,49.1,309.35,40.337c9.537-2.44,18.492-1.6,27.47,1.542,16.426,5.747,31.775,13.609,47.166,21.334,21.468,10.778,43.869,20.064,63.481,33.86,11.115,7.816,13.24,12.614,12.22,25.467" transform="translate(234.677 8.789)"/>
            <path id="Path_935" data-name="Path 935" d="M301.324,139.989c-4.352-16.516-8.2-33.164-14.635-49.146-11.8-29.3-22.467-59-35.879-87.718C250.295,2.024,249.782,1,249.264,0H194.685q-24.486,13.464-47.7,28.818c-10.608,7.009-18.133,16.069-20.3,28.54C124.706,68.7,121.9,79.927,120.1,91.29c-1.436,9.069-.106,17.95,5.343,25.917q7.966,11.656,16.012,23.263c5.447,7.884,12.985,13.012,22.7,15.562,28.949,7.6,58.64,11.673,88.125,16.817,14.82,2.587,26.634-1.2,37.4-10.125a51.724,51.724,0,0,1,5.91-4.16c4.8-2.957,6.912-7.054,6.4-12.388a40.088,40.088,0,0,0-.665-6.188" transform="translate(104.24 -40.288)"/>
            <path id="Path_936" data-name="Path 936" d="M420.051,0c1.366,11.316,5.967,21.942,13.9,32.047,1.605,2.042,2.932,4.271,4.49,6.349,13.588,18.121,25.933,37.122,41.95,53.548,8.363,8.578,14.995,8.867,24.332,1.492,10.744-8.483,21.2-17.283,31.735-26,16.627-13.762,26.132-30.844,28-51.685.473-5.275,1.415-10.511,2.315-15.752Z" transform="translate(483.136 -40.288)"/>
            <path id="Path_937" data-name="Path 937" d="M30.725,225.269c-.077-9.494,4.515-16.351,12.688-20.186,33.81-15.867,68.317-28.981,107.578-20.968,9.36,1.91,19,2.523,28.271,5.06,6.584,1.8,12.051,5.343,14.447,10.995,10.294,24.264,18.051,49.176,17.782,75.622-.075,7.251-3.027,14.072-6.5,20.4-10.889,19.865-20.577,40.439-35.481,58.118-11.89,14.1-23.292,15.393-39.087,5.46a96.71,96.71,0,0,1-17.364-13.912Q95.483,328.083,77.932,310.29c-21.54-21.741-34.764-47.857-45.309-75.366-1.239-3.229-2.2-6.62-1.9-9.654" transform="translate(-7.854 188.816)"/>
            <path id="Path_938" data-name="Path 938" d="M645.643,198.228c-13.441,6.98-26.8,14.1-40.154,21.228-14.556,7.766-29.643,14.778-42.854,24.558-10.522,7.789-10.807,11.382-2.788,21.176a185.313,185.313,0,0,0,40.932,36.763c14.988,10,29.858,20.163,44.864,30.141Z" transform="translate(652.341 209.667)"/>
            <path id="Path_939" data-name="Path 939" d="M136.175,208.07c-2.1,17.855-.409,36.851-4.278,55.567-2.336,11.307-8.216,19.474-19.657,24-19.948,7.893-40.193,14.961-61.38,19.433a20.573,20.573,0,0,1-14.83-2.618c-.631-.36-1.244-.755-1.9-1.06-17.5-8.155-24.5-20.638-23.851-39.537,1.42-41.7.4-83.465.785-125.2.106-11.483.581-23.03,2.675-34.421,2.412-13.129,9-17.387,22.32-12.367a417.974,417.974,0,0,1,82.337,41.57c13.471,8.852,17.366,22.444,17.721,37.03.3,12.216.061,24.441.061,37.6" transform="translate(-33.619 72.975)"/>
            <path id="Path_940" data-name="Path 940" d="M673.721,60.321a68.106,68.106,0,0,0-24.158,7.022C623.9,80.722,599.727,96.3,575.1,111.21c-19.266,11.66-30.084,29.449-40.53,47.566-4,6.934-3.253,13.812,1.393,20.272A86.285,86.285,0,0,0,544.3,189.6q16.825,17.032,34.082,33.684a72.443,72.443,0,0,0,37.776,19.15c10.387,1.938,20.722,4.135,31.09,6.172,12.655,2.487,20.894,2.636,26.476-.626Z" transform="translate(624.264 35.774)"/>
            <path id="Path_941" data-name="Path 941" d="M688.877,158.545a62.236,62.236,0,0,0-6.378-1.908c-14.3-3.414-28.954-5.379-43.284-8.535-20.057-4.418-35.165,2.037-47.869,15.9-1.605,1.752-3.317,3.416-4.9,5.184-18.054,20.172-35.363,40.894-52.259,61.916a106.179,106.179,0,0,0-12.354,19.618c-3.122,6.313-2.308,12.2,2.073,17.525a126.372,126.372,0,0,0,23.839,22.621c8.056,5.793,17.115,9.066,26.806,8.375,11.492.109,21.621-2.84,31.448-6.568,28.834-10.943,55.906-25.128,82.877-39.481Z" transform="translate(609.107 144.725)"/>
            <path id="Path_942" data-name="Path 942" d="M449.161,201.337c-.984,13.9-5.752,27.012-9.745,40.279a494.671,494.671,0,0,1-21.465,58.742,85.391,85.391,0,0,1-10.773,18.081c-10.518,13.412-22.881,18.743-39.27,12.881-30.627-10.956-60.6-23.609-83-47.441-10.99-11.687-11.682-15.433-2.573-28.642,19.152-27.769,41.832-53.094,63.655-79A140.959,140.959,0,0,1,365.119,157c8.872-7.165,18.4-8.214,28.739-3.235a315.55,315.55,0,0,1,43.412,24.981c8.047,5.594,12.361,13,11.89,22.591" transform="translate(301.533 149.72)"/>
            <path id="Path_943" data-name="Path 943" d="M303.042,207.1a29.31,29.31,0,0,0,4.436-.029c21.985-3.421,36.614,6.573,48.328,22.589,6.6,9.023,5.985,19,4.743,28.734-3.821,29.964-8.413,59.845-16.005,89.228a71.53,71.53,0,0,1-9.625,22.358c-5.693,8.458-13.95,12.944-24.561,13.208-17.106.427-34.319-1.022-50.428-5.829-23.308-6.959-36.318-23.713-40.971-45.85-4.346-20.665-2.06-40.611,7.753-59.958,6.74-13.29,12.076-27.2,18.68-40.6,7.952-16.125,21.242-23.541,39.885-23.369,5.921.054,11.843.009,17.764.009v-.5" transform="translate(226.917 219.972)"/>
            <path id="Path_944" data-name="Path 944" d="M265.987,306.654c-3.685-.253-7.384-.407-11.056-.776-12.3-1.232-15.313-4.2-14.961-15.944.617-20.606,6.05-40.591,9.62-60.81a359.6,359.6,0,0,1,8.913-37.78c3.939-13.554,12.069-24.179,24.249-32.062,20.084-13.005,40.959-24.864,61.663-36.98,19.29-11.287,36.564-3.283,53.858,4,4.927,2.071,5.806,7.834,6.966,12.537,1.714,6.959,3.075,14,4.506,21.016,2.641,12.962-2.139,24.1-10.032,34.339q-33.334,43.247-69.3,84.614c-21.393,24.509-29.686,27.64-64.421,27.853" transform="translate(256.03 106.837)"/>
            <path id="Path_945" data-name="Path 945" d="M411.506,236.783c.226-3.78.461-9.781.968-15.761.739-8.707,4.232-16.191,12.5-20.846a382.5,382.5,0,0,1,68.568-30.552c11.825-3.873,22.872-.079,33.745,3.649,10.172,3.489,20.068,7.671,30.193,11.28,17.35,6.184,29.128,18.524,40.4,31.463,4.628,5.313,4.545,10.776.941,16.656-6.957,11.348-17.016,20.306-26.01,30.077-13.848,15.047-27.891,29.935-44.758,42.192-16.6,12.064-34.339,13.742-53.381,5.4-14.988-6.566-29.245-14.328-43.4-22.286-12.56-7.061-19.9-16.959-19.777-31.065.054-6,.009-12,.009-20.206" transform="translate(472.348 171.551)"/>
            <path id="Path_946" data-name="Path 946" d="M392.531,103.9c18.863,1.223,34.353,2.18,49.834,3.242,17.667,1.212,30.441,11.153,42.639,21.649,4.416,3.8,5.693,9.482,5.557,15.284-.464,19.905-5.11,39.3-8.092,58.9-1.734,11.391-3.758,22.766-7.348,33.815-3.12,9.6-7.21,12.874-17.825,11.472-19.469-2.566-38.979-5.345-56.641-14.436q-30.791-15.848-59.9-34.244c-9.014-5.709-14.816-13.344-16.826-23.414-1.58-7.92-3.362-15.813-4.734-23.765-1.544-8.947.984-16.731,5.6-24.986C335.811,107.7,352.1,100.3,375.2,103.744c6.731,1,13.776.154,17.328.154" transform="translate(355.39 89.502)"/>
            <path id="Path_947" data-name="Path 947" d="M629.217,274.512q-14.583-9.069-29.532-17.629c-19.308-11-28.343-6.014-30.464,15.092-2.1,20.936-1.291,41.929-1.953,63.245.848,20.6-.289,41.563,1.669,62.472h60.281Z" transform="translate(668.768 276.479)"/>
            <path id="Path_948" data-name="Path 948" d="M600.7,192.175c-16.537-.932-32.354-5.528-48.38-9.134-20.841-4.691-41.708-9.231-62.119-15.519-15.408-4.746-25.23-13.514-28.723-28.637-3.531-15.291-8.587-30.31-7.784-46.23A37.9,37.9,0,0,1,463.96,68a206,206,0,0,1,34.9-29.781c6.007-4.1,12.121-4.1,18.813-1.357,8.56,3.509,15.474,9.143,22.119,14.909,28.4,24.635,56.476,49.61,82.886,76.128,19.722,19.806,19.865,24.4,4.56,47.6-6.15,9.324-12.736,17.923-26.53,16.677" transform="translate(525.455 3.774)"/>
            <path id="Path_949" data-name="Path 949" d="M127.767,296.407c-17.326-1.085-29.492-2.736-41.414-5.618-10.256-2.478-14.628-8.678-15.779-20.025-2.693-26.514-.088-52.985.73-79.456.3-9.625.423-19.327,2.125-28.947a42.313,42.313,0,0,1,16.179-27.023c25.99-20.493,55-36.483,85.344-50.487,10.742-4.958,15.415-2.186,15.187,8.947-.382,18.5-5.157,36.444-9.044,54.423-8.61,39.836-16.039,79.933-28.011,119.077a145.79,145.79,0,0,1-5.243,13.618c-4.465,10.64-12.3,16.478-20.075,15.492" transform="translate(40.963 63.721)"/>
            <path id="Path_950" data-name="Path 950" d="M312.822,208.7c-8.359.3-15.915-2.776-23.378-5.738-26.381-10.466-51.57-23.163-76.63-36.11-13.857-7.16-20.814-17.7-20.446-32.612a186.661,186.661,0,0,0-.742-20.758c-1.883-21.608,10.3-30.634,31.359-37.631,13.127-4.361,26.1.26,38.133,4.771,43.5,16.295,83.334,39.033,122.127,63.291,18.264,11.42,18.045,18.85.47,30.787A443.45,443.45,0,0,1,335.5,203.074c-6.993,3.554-14.414,6.089-22.677,5.627" transform="translate(194.864 53.151)"/>
            <path id="Path_951" data-name="Path 951" d="M470.1,97.909c22.643,2.3,42,7.782,61.586,12.189,15.291,3.441,30.6,6.943,45.481,11.843,4.922,1.621,9.686,3.443,13.7,6.62,5.53,4.377,7.762,9.562,6.037,16.575-2.3,9.374-6.9,17.735-11.709,26.01-15.307,26.324-30.885,52.513-49.216,77.144-10.744,14.436-19.9,16.867-37.459,10.452-6.421-2.347-12.684-5.114-19.2-7.192-17-5.424-24.6-17.009-24.7-33.13q-.278-47.066.222-94.135a47,47,0,0,1,4.291-18.108c2.562-5.892,6.3-9.254,10.97-8.268" transform="translate(526.593 82.955)"/>
            <path id="Path_952" data-name="Path 952" d="M610.089,402.646c.19-.893.353-1.82.466-2.808a74.986,74.986,0,0,0-.411-19.345c-4.615-32-11.529-63.625-17.717-95.367-1.944-9.971-3.975-19.971-7.653-29.551-3.041-7.925-7.068-10.043-13.706-6.889-10.333,4.909-20.464,10.106-29.037,17.687-13.281,11.743-26.062,23.939-38.628,36.338a42.869,42.869,0,0,0-10.975,17.052c-7.387,22.395-10.547,45.474-11.879,68.76-.382,6.686.574,10.977,3.552,14.122Z" transform="translate(559.319 271.526)"/>
            <path id="Path_953" data-name="Path 953" d="M397.4,168.625c-16.776-.167-33.548-.423-50.159-2.923-11.644-1.752-16.023-5.8-14.746-16.733,3.405-29.087,6.715-58.332,28.554-81.95,5.273-5.707,10.7-10.8,18.587-13.073,9.4-2.715,18.807-5.419,28.174-8.223,10.678-3.192,21.083-1.09,31.217,1.843,19.281,5.58,38.617,11.07,57.3,18.293,14.7,5.684,16.953,10.864,8.815,23.806-11.156,17.742-25.678,33.263-39.123,49.47-4.825,5.813-10.577,10.947-15.75,16.514-8.126,8.745-18.447,12.833-30.677,12.971-7.4.084-14.8.016-22.2.007" transform="translate(372.461 15.351)"/>
            <path id="Path_954" data-name="Path 954" d="M616.738,0H490.148c-.068.633-.145,1.3-.208,1.926-.6,24.443,4.332,31.965,23.88,39.11q23.072,8.428,46.707,15.485c15.716,4.689,31.278,10.12,47.7,12.39,12.211,1.689,16.433-1.956,16.227-13.525-.258-14.362-4.633-28.273-5.924-42.472-.4-4.393-1.013-8.689-1.788-12.915" transform="translate(571.202 -40.288)"/>
            <path id="Path_955" data-name="Path 955" d="M184.312,202.365c2.051-19.41,5.2-43.618,11.223-67.358,3.749-14.784,10.143-18.029,25.386-12.618a436.983,436.983,0,0,1,77.686,36.688c15.105,9.008,17.527,23.34,15.309,38.493a646.088,646.088,0,0,1-14.493,72.486c-6.071,22.858-16.053,27.021-37.263,14.576a484.617,484.617,0,0,1-61.785-42.673c-13.265-10.853-16.084-18.311-16.064-39.594" transform="translate(185.882 110.942)"/>
            <path id="Path_956" data-name="Path 956" d="M520.556,163.474c-.2,18.447.328,35.056-2.856,51.507a30.061,30.061,0,0,1-15.876,21.474,460.156,460.156,0,0,1-61.213,27.394c-8.784,3.213-16.792,2.408-24.579-2.27q-5.9-3.547-11.875-7c-7.649-4.452-11-11.042-10.489-19.261,1.538-24.64,7.477-48.721,10.789-73.117,3.358-24.73,17.251-38.1,43.245-42.716,16.371-2.91,32.445-7.454,48.9-10.249,13.636-2.317,20.3,2.458,22.535,15.352,2.345,13.552.832,27.172,1.42,38.891" transform="translate(449.806 96.736)"/>
            <path id="Path_957" data-name="Path 957" d="M282.017,358.049c.027-11.924.161-23.851-.086-35.771a104.937,104.937,0,0,0-2.555-22.664c-2.15-8.876-9.308-13.735-17.459-16.453-6.948-2.318-10.889,3.794-15.065,7.929-1.693,1.675-3.416,3.342-4.938,5.148-17.115,20.3-33.695,40.977-50.048,61.81Z" transform="translate(195.407 316.122)"/>
            <path id="Path_958" data-name="Path 958" d="M226.218,324.516c-14.054-.059-28.074-.685-42.108-1.413-11.843-.615-23.129-10.258-21.142-22.431,5.279-32.316,10.269-64.668,19.754-96.221a51.886,51.886,0,0,1,2.256-5.847c9.1-20.663,22.114-25.522,43.232-15.117,24.977,12.3,47.231,28.3,68.229,45.895,8.732,7.316,11.293,16.641,8.142,26.4-6.4,19.844-14.565,39.123-25.858,57.1-4.664,7.427-11.911,10.667-20.719,11.506-10.59,1.011-21.19.1-31.784.122" transform="translate(158.679 184.399)"/>
            <path id="Path_959" data-name="Path 959" d="M431.454,0H326.664q.343,2.327.69,4.653c2.078,13.866,7.662,26.632,14.418,38.981,8.293,15.164,15.248,30.977,25.049,45.409,2.822,4.153,6.261,8.72,11.836,8.479,15.433-.667,29.933-4.816,42.786-13.068a13.6,13.6,0,0,0,4.893-5.967c6.043-14.635,10.688-29.634,12.616-45.133-.409-2.955-.651-5.711-1.182-8.415C436.107,16.5,433.928,8.212,431.454,0" transform="translate(365.38 -40.288)"/>
            <path id="Path_960" data-name="Path 960" d="M174.461,0H63.944c-.068.525-.147,1.042-.208,1.571-1.271,11.219-4.124,22.383,1.856,33.207,5.652,10.235,11.25,20.5,16.905,30.729,5.178,9.372,13.566,15.13,24.19,17.97,18.241,4.877,36.591,9.412,55.343,12.272,11.386,1.736,16.22-.988,19.094-11.262A191.171,191.171,0,0,0,187.968,44.3a50.378,50.378,0,0,0-3.889-22.37c-2.987-7.4-6.227-14.7-9.618-21.929" transform="translate(31.568 -40.288)"/>
            <path id="Path_961" data-name="Path 961" d="M418.368,342.516a365.7,365.7,0,0,0-26.505-37.1c-9.064-11.113-15.214-12.944-28.7-7.443a468.749,468.749,0,0,0-57.426,28.388c-7.271,4.2-12.4,9.571-15.2,16.157Z" transform="translate(319.836 331.655)"/>
            <path id="Path_962" data-name="Path 962" d="M484.96,243.6c-.346,7.117-.656,15.187-1.151,23.243-.812,13.186-8.209,21.834-21.857,24.312-32.657,5.93-65.513,10.758-98.645,13.686-16.041,1.418-22.3-5.126-18.886-19.786,7.938-34.052,19.5-67.125,32.28-99.8,5.582-14.271,12.718-17.335,28.841-14.337,9.9,1.843,19.779,3.764,29.657,5.7,15.4,3.023,27.81,11.533,40.433,19.544,8.393,5.327,8.926,13.934,9.258,22.277.323,8.06.07,16.141.07,25.162" transform="translate(386.631 173.906)"/>
            <path id="Path_963" data-name="Path 963" d="M402.163,313.834c10.482,17.321,21.823,34.136,33.4,50.815H552.8a72.892,72.892,0,0,0-5.049-7.712c-13.027-17.678-27.633-34.226-41.97-50.953-8.108-9.462-17.64-17.468-30.769-20.5a359.3,359.3,0,0,0-55.886-8.065c-2.765.194-6,.174-9.136.687-13.491,2.207-18.969,11.063-14.219,23.295a81.264,81.264,0,0,0,6.392,12.433" transform="translate(450.398 309.523)"/>
            <path id="Path_964" data-name="Path 964" d="M182.63,364.451c16.589-6.955,33.087-14.09,49.2-21.988,11.219-5.5,13.242-10.606,9.288-21.526-1.639-4.524-5.273-7.117-9.419-9.3-20.681-10.877-42.347-19.84-64.276-28.192-9.073-3.457-18.583-6.462-28.719-5.772-14.56.992-25.345,8.37-34.344,18.4-19.012,21.2-34.082,44.891-49.474,68.371Z" transform="translate(22.686 309.721)"/>
            <path id="Path_965" data-name="Path 965" d="M618.818,151.346c-7.312.4-13.4-2.693-19.284-6.127-8.411-4.906-15.725-11.144-22.9-17.468-26.919-23.738-53.63-47.677-79.307-72.6-3.075-2.984-5.921-6.186-8.716-9.406-4.992-5.75-5.9-11.508-1.578-18.377C491.3,20.6,497.382,20,504.145,21.394c9.116,1.874,18.155,4.183,27.079,6.758,31.755,9.164,63.4,18.653,94.666,29.218,25.128,8.492,46.691,22.723,67.969,37.288,8.662,5.928,8.7,11.079.208,17.246a397.554,397.554,0,0,1-61.66,36.641,28.283,28.283,0,0,1-13.588,2.8" transform="translate(564.112 -14.079)"/>
            <path id="Path_966" data-name="Path 966" d="M83.142,260.185c-4.194-17.775-13.887-33.467-22.892-49.3-4.149-7.294-9.01-7.459-14.267-.909C30.154,229.7,14.757,249.746,4.015,272.464A68.388,68.388,0,0,0,0,283.373V403.581a26.673,26.673,0,0,0,8.942,5.361c5.261,1.972,10.477,4.047,15.725,6.05,20.107,7.674,25.008,5.483,31.346-14,.142-.441.265-.889.4-1.332,9.86-32.614,16.772-65.854,23.8-99.057,2.815-13.3,6.152-26.763,2.93-40.421" transform="translate(-46.526 218.498)"/>
            <path id="Path_967" data-name="Path 967" d="M344.67,349.758c-2.313-11.033-6.731-21.526-15.5-30.912-4.043-4.325-7.357-9.234-11.165-13.758a30.392,30.392,0,0,0-18.357-10.857c-14.045-2.406-28.165-4.619-42.472-4.976-14.282-.355-18.171,2.711-19.363,15.926a434.446,434.446,0,0,0-1.614,44.577Z" transform="translate(251.257 324.414)"/>
            <path id="Path_968" data-name="Path 968" d="M545.238,359.32c4.678,23.066,8.25,46.347,14.766,69.072h43.209c1.556-22.148,1.745-43.892,2.159-61.923-.077-32.252.326-59.7-1.323-87.13-1.3-21.633-12.876-37.344-31.6-48.683-12.526-7.588-25.418-3.333-32.883,8.761-10.093,16.351-10.64,33.557-7.2,51.461,4.384,22.8,8.25,45.687,12.867,68.441" transform="translate(622.356 245.779)"/>
            <path id="Path_969" data-name="Path 969" d="M489.4,57.534c28.228,0,31.056,2.173,37.1,25.671,4.085,15.87,8.063,31.753,11.1,47.835,2.535,13.4-4.581,25.1-18.47,28.956-29.017,8.067-58.567,14.111-88.213,19.756-12.306,2.342-21.949-2.657-31.237-9.372-15.6-11.28-16.815-14.811-5.851-30.039,16.81-23.349,35.664-45.3,54.547-67.209,11.359-13.184,26.5-16.715,41.016-15.6" transform="translate(440.984 32.015)"/>
            <path id="Path_970" data-name="Path 970" d="M117.849,41.676C135.792,43,152.8,48.827,170.425,51.629c27.823,4.425,41.5,22.569,51.755,44.457,3.1,6.6,1.727,12.691-3.7,17.726a68.1,68.1,0,0,1-10.7,8.467,395.565,395.565,0,0,1-41.8,21.94c-10.256,4.66-20.084,4.893-30.41.269-20.581-9.218-38.391-22.411-57.053-34.366-9.541-6.111-19.408-11.942-27.335-19.98-6.254-6.344-6.27-11.115.9-16.5A256.216,256.216,0,0,1,99.949,45.1c5.5-2.505,11.479-4.23,17.9-3.428" transform="translate(12.223 12.013)"/>
            <path id="Path_971" data-name="Path 971" d="M491.179,243.875c-.194-4.642,2.229-9.329,4.707-13.756,19.437-34.719,39.451-69.149,63.564-101.288,9.415-12.546,16.249-13.15,28.348-3.131a273.343,273.343,0,0,1,32,31.624c9.026,10.4,9.541,18.8,2.32,30.523-10.391,16.869-23.873,31.626-36.811,46.736-12.786,14.934-24.4,30.762-38.626,44.6-8.574,8.338-11.97,9.094-22.539,3.244-12.955-7.169-22.3-17.972-30.948-29.263-1.924-2.512-2.265-5.562-2.014-9.286" transform="translate(572.734 109.445)"/>
            <path id="Path_972" data-name="Path 972" d="M149.719,352.841c4.956,7.255,9.892,14.527,14.875,21.771h80.415c20.638-24.683,39.836-50.394,58.789-76.257a29.508,29.508,0,0,0,4.35-10.2c2-7.927-5.472-18.5-14.208-18.635-1.981.441-5.395.977-8.648,1.969-37.986,11.594-74.618,26.455-111.544,40.6a144.263,144.263,0,0,0-23.643,11.35c-4.818,2.937-6.785,6.88-5.973,12.345.891,6.01,2.109,11.972,5.587,17.061" transform="translate(134.993 299.56)"/>
            <path id="Path_973" data-name="Path 973" d="M213.577,176.59c19.677-.934,26.107,4.737,24.095,20.774A653.654,653.654,0,0,1,220.4,284.932a44.119,44.119,0,0,1-3.052,7.775c-4.235,8.682-9.541,11.73-19.465,9.772a283.829,283.829,0,0,1-51.95-15.578c-11.906-4.834-18.935-13.783-22.845-24.968a294.53,294.53,0,0,1-11.854-45.583c-2.618-14.7,1.433-20.993,17.034-25.164,23.24-6.211,47.184-9.363,71.021-12.883,5.6-.825,11.241-1.354,14.285-1.714" transform="translate(92.809 182.259)"/>
            <path id="Path_974" data-name="Path 974" d="M468.486,342.479c-8.98-13.437-18.323-26.65-29.535-38.617-10.466-11.171-18.33-11.59-30.582-2.331-16.577,12.532-31.595,26.62-46.359,40.948Z" transform="translate(409.951 331.692)"/>
            <path id="Path_975" data-name="Path 975" d="M181.483,0c7.884,21.983,16.577,43.7,26.51,64.968,2.331,4.992,4.429,12.159,10.511,12.092,6.163-.07,8.078-7.335,10.034-12.417C236.781,43.225,244.878,21.755,251.943,0Z" transform="translate(182.315 -40.288)"/>
            <path id="Path_976" data-name="Path 976" d="M37.725,396.187c5.4,4.357,11.036,8.51,16.871,12.349,1.614,1.063,3.064,1.956,4.411,2.7H73.793a49.488,49.488,0,0,0,5.917-5.318,46.711,46.711,0,0,0,3.31-3.717A725.563,725.563,0,0,0,127.7,338.72c11.768-18.61,10.9-29.458-3.979-45.927-11.612-12.849-23.785-25.264-35.956-37.661A98.331,98.331,0,0,0,74.1,243.528c-7.19-5.037-11.96-3.828-16.141,3.473a61.069,61.069,0,0,0-5.4,13.566C46.9,280.126,42.473,299.948,37.93,319.744c-4.237,18.452-8.94,36.833-10.131,55.769-.081,8.727,2.6,14.768,9.926,20.674" transform="translate(-11.475 262.933)"/>
            <path id="Path_977" data-name="Path 977" d="M479.272,252.827a315.174,315.174,0,0,1-8.133,48.746c-4.018,15.756-12.259,22.085-29.4,21.332-29.447-1.293-57.973-7.407-85.819-16.317-12.754-4.081-19.333-12.876-21.336-25.04-.674-4.092-1.359-8.189-2.184-12.259-2.815-13.873.527-19.446,15.18-23.584,18.216-5.144,37.132-7.032,55.861-9.679,16.552-2.34,33.175-4.242,49.768-6.328,1.465-.183,2.932-.369,4.4-.463,16.98-1.085,22.682,4.085,21.658,23.593" transform="translate(371.466 248.592)"/>
            <path id="Path_978" data-name="Path 978" d="M561.291,311.585c-13.726-1.481-27.2-4.285-40.634-7.183-13.188-2.847-26.336-5.944-39.331-9.482-16.79-4.572-18.8-10.509-8.162-23.672,11.472-14.187,24.579-27.091,37.346-40.24,9.453-9.736,19.175-19.247,29.015-28.639,7.5-7.158,11.264-7.509,21.038-3.147a43.836,43.836,0,0,1,12.168,7.746c11.563,10.728,22.967,21.606,34.649,32.216,9.062,8.23,11.436,17.337,5.725,28.138-2.618,4.951-4.992,10.032-7.167,15.169-7.26,17.145-23.3,23.349-40.243,28.456a29.559,29.559,0,0,1-4.4.64" transform="translate(541.834 207.329)"/>
            <path id="Path_979" data-name="Path 979" d="M281.493,24.127c-.387-7.328-.8-15.506-1.253-24.127H231.425q-14.122,41.006-26.7,82.464c-4.52,14.963-4.786,29.942.737,44.891,5.383,14.576,14.47,18.167,28.947,10.981,11.99-5.949,20.708-15.5,30.346-24.038,10.975-9.727,15.72-21.786,16.821-35.743,1.309-16.627-.509-33.179-.084-54.428" transform="translate(207.335 -40.288)"/>
            <path id="Path_980" data-name="Path 980" d="M494.592,113.508a127.47,127.47,0,0,1-41.466-5.682q-27.674-8.641-55.364-17.246c-1.4-.436-2.779-.941-4.144-1.467-17.861-6.857-19.849-10.583-14.875-27.853.448-1.556.791-3.147,1.352-4.667,4.045-10.948,4.172-24,15.426-31.348,16.512-10.776,34.4-18.933,55.264-19.234a19.7,19.7,0,0,1,15.553,6.826c21.113,23.844,40.591,48.832,55.839,76.354,8.978,16.206,4.339,22.869-15.006,24.271-4.169.3-8.386.045-12.58.045" transform="translate(428.078 -32.711)"/>
            <path id="Path_981" data-name="Path 981" d="M239.274,0c.31,21.382,1.791,42.748,3.134,64.1a85.926,85.926,0,0,0,2.885,16.322C247.2,87.68,250.7,89.38,258.336,87.5c7.163-1.764,13.909-4.585,20.774-7.133,13.477-5,22.155-13.95,26.984-26.634C312.771,36.2,316.974,18.085,321.288,0Z" transform="translate(255.186 -40.288)"/>
            <path id="Path_982" data-name="Path 982" d="M650.742,52.825Q617.069,25.683,582.082,0H550.2c3.077,21.1,6.735,42.119,11.818,62.9,2.962,12.112,9.3,22.261,20.215,29.571a502.031,502.031,0,0,0,46.729,27.828,34.081,34.081,0,0,0,18.49,3.764q1.648-.156,3.294-.3Z" transform="translate(647.242 -40.288)"/>
            <path id="Path_983" data-name="Path 983" d="M283.988,0c-2.932,11.974-5.777,23.966-8.323,36.01-1.282,6.057-3.769,13.618,2.132,18.339,5.56,4.445,12.34.389,18.2-1.608,21.825-7.427,42.691-16.944,63.51-26.482C373.289,19.944,384.34,11.547,383.741,0Z" transform="translate(299.02 -40.288)"/>
            <path id="Path_984" data-name="Path 984" d="M16.687,76.668c-.7-12.015.674-24.66,1.268-37.319.631-13.48,7.246-20.529,21.429-22.071C57.47,15.313,75.63,13.719,93.9,14.164c9.91.24,17.663,4.183,22.481,12.2,5.765,9.593,11.165,19.394,16.3,29.3,3.439,6.629,2.555,12.765-3.64,18.115a101.848,101.848,0,0,1-13.457,9.641c-24.466,15-48.579,30.577-76.094,40.579-1.372.5-2.693,1.119-4.067,1.608-12.917,4.592-16.665,2.229-17.57-10.936-.855-12.424-1.506-24.855-1.164-38" transform="translate(-25.731 -22.523)"/>
            <path id="Path_985" data-name="Path 985" d="M421.642,89.94c-2.408,12.284-9.751,22.008-19.419,30.064-4.147,3.455-9.853,1.65-14.839-.066-24.629-8.479-47.066-21.092-70.121-32.526-10.656-5.284-21.4-10.57-30.758-17.791C275.205,60.9,275.449,54,288.217,47.15a426.68,426.68,0,0,1,74.625-31.563c14.194-4.422,21.6-1.363,29.026,10.669a424.554,424.554,0,0,1,26.573,50.878c1.8,4.054,3.215,8.216,3.2,12.806" transform="translate(304.422 -23.059)"/>
            <path id="Path_986" data-name="Path 986" d="M391.44,289.443c1.612,14-5.105,18.648-13.141,21.841q-24.133,9.591-48.617,18.4c-10.33,3.717-20.8,7.228-31.457,9.993-14.563,3.78-20.618-1.235-19.333-15.336,2.451-26.874,7.538-53.388,12.758-79.877a48.39,48.39,0,0,1,2.012-6.638c4.533-12.867,10.156-15.438,23.267-10.186,19.966,8,38.716,18.2,57.349,28.547,15.347,8.528,15.311,23.6,17.161,33.254" transform="translate(304.931 243.532)"/>
            <path id="Path_987" data-name="Path 987" d="M528.8,331.378c-2.044,19.062-4.285,38.764-9.505,58.043a32.326,32.326,0,0,1-1.942,5.216c-3.568,7.617-7.592,8.7-14.857,3.731a56.739,56.739,0,0,1-8.813-7.339c-15.209-15.793-28.19-33.231-42.054-50.021-10.88-13.175-12.829-27.312-7.294-42.962,5.413-15.313,10.075-30.857,15.191-46.264,2.408-7.251,6.812-8.947,14.038-5.41,7.145,3.5,12.309,9.053,17.321,14.839a324.715,324.715,0,0,1,31.368,43.55c4.922,8.051,6.527,16.808,6.545,26.618" transform="translate(509.972 268.128)"/>
            <path id="Path_988" data-name="Path 988" d="M235.292,247.211c14.841-.6,29.6.945,44.373,1.714,9.591.5,15.94,3.81,16.824,14.42,1.526,18.309.556,22.42-17.124,29.955-38.328,16.335-77.578,30.645-117.278,43.788-16.277,5.388-19.288,2.155-16.469-13.71a81.477,81.477,0,0,1,19.27-40.482c6.885-7.841,13.457-15.924,20.353-23.758,7.169-8.146,16.482-12.126,27.841-11.947,7.4.118,14.807.02,22.209.02" transform="translate(135.911 271.261)"/>
            <path id="Path_989" data-name="Path 989" d="M333.852,303.773c1.151-8.445,2.2-16.905,3.486-25.329,1.022-6.672,5.044-10.009,12.569-10,17.172.027,33.65,4.181,50.308,7.14,15.227,2.7,30.281,6.254,45.445,9.286s17.122,7.287,11.171,23.283c-1.723,4.63-5.845,7.963-9.476,11.393-16.487,15.569-33.331,30.794-50.975,45.219a59.752,59.752,0,0,1-8.451,5.544c-5.9,3.335-11.743,2.7-15.994-2.173-13.717-15.738-26.189-32.311-35.413-50.785a29.707,29.707,0,0,1-2.67-13.579" transform="translate(374.442 298.208)"/>
            <path id="Path_990" data-name="Path 990" d="M136.078,159.62c-5.089.292-9.808-1.241-14.28-3.125-34.638-14.6-68.468-30.652-99.809-50.869-12.18-7.857-12.842-14.1-1.452-23.071C33.505,72.343,49.375,66.818,65.8,63.277c4.719-1.017,9.907.287,14.3,2.593a623.217,623.217,0,0,1,86.563,55.407c12.148,9.2,11.427,13.294-1.013,22.628-5.761,4.323-11.757,8.377-17.728,12.449a19.566,19.566,0,0,1-11.847,3.267" transform="translate(-30.883 39.06)"/>
            <path id="Path_991" data-name="Path 991" d="M199.681,327.5a112.968,112.968,0,0,1-3.428,21.156c-1.619,6.423-5.467,9.326-12.883,7.981a62,62,0,0,1-12.713-3.5c-20.052-8.3-40.263-16.313-59.481-26.252-16.252-8.4-18.77-15.7-11.3-31.782,8.47-18.225,18.954-35.429,30.3-52.187a43.236,43.236,0,0,1,5.435-6.539c4.4-4.327,9.179-4.877,14.357-.922a29.386,29.386,0,0,1,6.67,7.332c14.49,21.983,28.047,44.446,39.643,67.908a33.092,33.092,0,0,1,3.4,16.808" transform="translate(74.353 253.237)"/>
            <path id="Path_992" data-name="Path 992" d="M398.881,304.964c1.587-19.767,5.1-42.544,9.555-65.2a35.071,35.071,0,0,1,2.485-7.226c5.23-11.865,10.575-13.961,22.75-8.112q33.2,15.947,64.984,34.28c13.089,7.518,12.858,17.258-.391,25.013-24.669,14.438-50.577,26.749-76.951,38.215-.222.1-.436.217-.662.3-16.812,6.313-22.3,2.783-21.768-17.274" transform="translate(456.397 238.738)"/>
            <path id="Path_993" data-name="Path 993" d="M402.813,279.838c-.52,6.713-.843,12.467-1.436,18.194-1.155,11.155-7.192,19.119-17.633,24.751-20.276,10.943-40.706,21.594-62.12,30.471-13.482,5.589-18.538,4.483-27.409-6.238-6.322-7.642-12.248-15.6-17.875-23.711-5.53-7.968-3.593-14.438,5.153-19.761,4.786-2.912,10.086-4.793,15.345-6.758,23.785-8.888,47.645-17.6,72.013-25a145.282,145.282,0,0,1,17.2-3.871c11.89-2.076,16.758,1.777,16.763,11.927" transform="translate(298.008 296.85)"/>
            <path id="Path_994" data-name="Path 994" d="M129.267,229.489c3.36.694,6.8,1.151,10.066,2.121q26.4,7.834,52.712,15.915a46.964,46.964,0,0,1,8.155,3.231c13.2,6.961,14.836,13.224,6.349,24.744-7.556,10.258-15.336,20.378-24.258,29.659-7.651,7.961-11.4,8.09-18.115-.391-13.4-16.93-22.795-36.085-33.546-54.475-2.706-4.63-5.469-9.3-6.656-14.57-.916-4.063.409-6.347,5.293-6.233" transform="translate(109.458 249.081)"/>
            <path id="Path_995" data-name="Path 995" d="M474.717,242.718c18.214,1.7,37.755,7.4,57.616,11.689a87.529,87.529,0,0,1,18.1,5.77c5.11,2.347,6.584,6.118,3.1,10.027-11.481,12.887-23.057,25.775-38.389,34.981-4.92,2.955-9.72,1.956-13.272-1.917a262.817,262.817,0,0,1-36.578-50.81c-4.1-7.434-1.714-10.045,9.421-9.74" transform="translate(537.818 265.737)"/>
            <path id="Path_996" data-name="Path 996" d="M459.946,306.9a450.848,450.848,0,0,1-50-7.592c-2.148-.473-4.741-.852-5.309-3.143-.592-2.392,1.883-3.62,3.552-4.8,9.286-6.548,19.738-11.271,29.967-16.313,13.932-6.864,27.57-14.3,42.178-19.89,3.306-1.264,7.4-3.577,10.473-1.155,3.143,2.476,1.056,6.426.2,9.745A234.447,234.447,0,0,1,481.1,294.07c-3.977,9.733-9.173,12.831-21.153,12.826" transform="translate(463.586 278.664)"/>
          </g>
        </g>
      </g>
    </g>
  </g>
</svg>
