<svg xmlns="http://www.w3.org/2000/svg" width="11.919" height="17.666" viewBox="0 0 11.919 17.666">
  <g id="leaf-1550" transform="translate(-41.078 -0.001)">
    <path id="Path_1028" data-name="Path 1028" d="M44.225,17.667h-.916a.2.2,0,0,1-.2-.209c.289-4.54,1.527-7.4,4.616-10.4a9.538,9.538,0,0,0-5.037,6.919.2.2,0,0,1-.361.081,6.387,6.387,0,0,1,.187-7.841A10.731,10.731,0,0,1,46.48,3.309C48.118,2.47,49.533,1.745,49.836.16A.2.2,0,0,1,50.2.1c2.131,3.529,3.886,7.033,1.994,11.1-1.51,2.7-4.016,3.948-7.458,3.722a11.81,11.81,0,0,0-.312,2.557A.2.2,0,0,1,44.225,17.667Z" transform="translate(0 0)" fill="#757575"/>
  </g>
</svg>
