<svg xmlns="http://www.w3.org/2000/svg" width="16.104" height="15" viewBox="0 0 16.104 15">
  <g id="Group_4201" data-name="Group 4201" transform="translate(-2.392 -2.098)">
    <path id="Path_1033" data-name="Path 1033" d="M3.742,7.883h13.4a.838.838,0,0,0,.838-.838V5.915a.838.838,0,0,0-.5-.766l-6.7-2.979a.839.839,0,0,0-.681,0L3.4,5.149a.839.839,0,0,0-.5.766V7.045A.838.838,0,0,0,3.742,7.883ZM18.453,16l-.279-.838a.838.838,0,0,0-.795-.573H16.308V8.721H14.632v5.864H12.957V8.721H11.282v5.864H9.606V8.721H7.931v5.864H6.255V8.721H4.58v5.864H3.509a.838.838,0,0,0-.8.573L2.435,16a.838.838,0,0,0,.795,1.1H17.66a.838.838,0,0,0,.793-1.1Z" transform="translate(0)" fill="#757575"/>
  </g>
</svg>
